<?xml version="1.0" encoding="UTF-8"?>
<svg width="250px" height="250px" viewBox="0 0 250 250" version="1.1" xmlns="http://www.w3.org/2000/svg" xmlns:xlink="http://www.w3.org/1999/xlink">
    <!-- Generator: Sketch 55.2 (78181) - https://sketchapp.com -->
    <title>invite</title>
    <desc>Created with Sketch.</desc>
    <g id="Layout_Template" stroke="none" stroke-width="1" fill="none" fill-rule="evenodd">
        <g id="icon/invite">
            <g id="invite">
                <rect id="Rectangle" fill="#FFFFFF" x="0" y="0" width="250" height="250"></rect>
                <path d="M98.1792228,172.514893 C97.2262339,170.621802 100.384176,169.803643 100.384176,169.803643 C100.384176,169.803643 108.904964,169.258189 114.903121,177.528333 C114.903121,177.528333 115.127353,177.504266 115.510423,177.496237 L115.650559,177.215481 C115.557135,177.207472 115.510423,177.207472 115.510423,177.207472 L115.650559,177.207472 L116.239157,176.028305 C116.239157,176.028305 116.949235,172.907996 116.949235,171.624552 C116.949235,170.341108 116.47274,169.049655 116.47274,169.049655 L111.343524,153.87298 C111.343524,153.87298 110.315792,151.298083 112.997239,150.415689 C115.678686,149.533296 116.790395,151.634961 116.790395,151.634961 C116.790395,151.634961 122.545545,165.391839 123.181047,167.084343 C123.816357,168.776887 125.236512,166.811616 125.236512,166.811616 L124.928185,149.196397 C124.928185,149.196397 124.535786,146.284519 128.160942,146.011813 C131.795283,145.739086 131.477652,150.279213 131.477652,150.279213 C131.477652,150.279213 131.795307,165.455888 131.870051,167.220675 C131.944794,168.985462 133.290182,167.421201 133.290182,167.421201 C133.290182,167.421201 137.942951,153.327342 138.419398,151.835466 C138.88654,150.343468 139.68069,148.723166 142.287417,149.059941 C144.884673,149.39684 143.857036,154.209735 143.857036,154.209735 C143.857036,154.209735 139.830201,168.568292 139.596762,169.659116 C139.35385,170.742015 140.222744,170.541489 140.222744,170.541489 C140.222744,170.541489 148.117598,159.969196 148.743532,159.223155 C149.378842,158.477156 150.640158,156.848886 153.087998,158.003883 C155.526439,159.158983 152.303201,163.763364 152.303201,163.763364 C152.303201,163.763364 146.305044,172.771499 145.753734,173.653893 C145.202496,174.536266 145.286592,175.07371 145.286592,175.07371 L144.894193,181.988291 C143.324574,191.333407 138.111286,193.916313 138.111286,193.916313 L139.269826,221.823525 C137.148969,221.935828 135.009552,222 132.851191,222 C128.319925,222 123.863284,221.743311 119.481506,221.254001 L120.434494,193.098317 C120.434494,193.098317 119.014363,192.288146 116.17422,190.788118 C113.333957,189.296119 110.652509,185.646333 110.017271,184.41895 C109.381961,183.199678 107.961806,179.814568 103.860299,176.421553 C99.7588395,173.060572 99.1233381,174.408147 98.1797729,172.515159 L98.1792228,172.514893 Z" id="Path" fill="#3FBE79"></path>
                <path d="M180.894116,85.3536432 L208,59.6311837 C203.806854,55.0209072 199.203648,50.7949204 194.246441,47 L170.010255,73.1710373 C170.010255,73.1710373 164.6709,71.7186287 156.564182,77.8187353 L151.075735,82.8317723 C151.075735,82.8317723 150.712335,83.2909289 149.687331,83.6095151 C148.662326,83.9187459 137.937074,86.8611046 137.937074,86.8611046 C137.937074,86.8611046 132.346053,88.257285 133.063597,90.7311077 C133.781141,93.2049304 135.831198,92.7925986 136.809472,92.6426729 C137.778561,92.4927472 150.926573,89.5973813 150.926573,89.5973813 C150.926573,89.5973813 151.644069,90.009689 150.674979,90.6843309 C149.696563,91.3496174 136.194574,99.6611646 136.194574,99.6611646 C136.194574,99.6611646 131.880246,102.650324 133.315334,104.608714 C134.750326,106.567128 136.502058,105.845589 137.937146,105.021022 C139.381465,104.19643 153.079276,96.5033207 153.079276,96.5033207 C153.079276,96.5033207 155.138588,96.1940899 153.852687,97.5902703 C152.566785,98.9864508 141.273247,110.755669 141.273247,110.755669 C141.273247,110.755669 137.629948,114.007259 140.192352,116.181062 C142.764107,118.345606 144.711589,115.871831 144.711589,115.871831 L157.850178,102.2473 C157.850178,102.2473 160.26354,101.685066 159.397001,103.381122 C158.521087,105.086533 151.849194,119.329383 151.849194,119.329383 C151.849194,119.329383 150.97328,121.653232 153.386689,122.740253 C155.80005,123.817848 157.076744,121.194147 157.076744,121.194147 L165.23952,106.276416 C165.23952,106.276416 165.910428,104.983313 166.879517,104.008795 C167.857934,103.024899 170.68145,101.113429 170.68145,101.113429 L171.958048,100.607424 C171.986006,100.635514 172.013963,100.673007 172.051224,100.701122 C172.051224,100.701122 172.023266,100.673007 171.967375,100.598045 L172.265557,100.476233 C172.526477,100.719856 172.684871,100.841668 172.684871,100.841668 C170.31805,111.064684 176.272352,116.218532 176.272352,116.218532 C176.272352,116.218532 178.946681,117.661561 179.757258,115.590715 C180.577256,113.529224 179.142264,114.147685 179.039761,108.881478 C178.937259,103.615366 180.577256,100.101347 181.099074,98.7613703 C181.620891,97.421418 182.636569,92.8768449 181.919073,89.8876855 C181.201577,86.9078814 180.894068,85.3524918 180.894068,85.3524918 L180.894116,85.3536432 Z" id="Path" fill="#3FBE79"></path>
                <path d="M158.633745,74.5364806 C154.167585,70.2548226 152.613429,65.9734035 151.929831,64.4341081 C151.23698,62.8856428 148.315771,58.2683296 145.225916,56.3839702 C142.13606,54.4903694 140.591253,53.4641804 140.591253,53.4641804 L141.349659,27.4757345 C138.072605,27.1678993 134.748811,27 131.396973,27 C127.698543,27 124.047091,27.1958864 120.451728,27.5690092 L121.341197,52.427938 C121.341197,52.427938 115.667234,55.6834786 113.944575,67.5020963 L113.513875,76.2426007 C113.513875,76.2426007 113.598126,76.9328718 112.998923,78.0429268 C112.390324,79.152958 105.854936,90.542598 105.854936,90.542598 C105.854936,90.542598 102.334356,96.3633126 104.993534,97.8185509 C107.652713,99.2737893 109.02897,97.2215546 109.721917,96.2794227 C110.405419,95.3372908 119.009939,81.9794492 119.009939,81.9794492 C119.009939,81.9794492 119.955592,81.7182514 119.693442,83.0894804 C119.431292,84.4607094 115.049431,102.613172 115.049431,102.613172 C115.049431,102.613172 113.935251,108.695132 116.762837,109.124253 C119.599819,109.55335 120.461268,107.501163 120.976124,105.61678 C121.491076,103.732516 126.565715,85.9159 126.565715,85.9159 C126.565715,85.9159 128.026344,83.9476746 128.110595,86.1770979 C128.194847,88.4064972 128.541296,107.58491 128.541296,107.58491 C128.541296,107.58491 128.194871,113.321568 132.155355,112.985817 C136.10642,112.640681 135.675935,108.956091 135.675935,108.956091 L135.32951,86.6900372 C135.32951,86.6900372 136.87439,84.2086814 137.56724,86.3449016 C138.260091,88.4903633 144.533137,105.868593 144.533137,105.868593 C144.533137,105.868593 145.740964,108.527137 148.662292,107.407722 C151.583645,106.29769 150.469346,103.042245 150.469346,103.042245 L144.879754,83.8638563 C144.879754,83.8638563 144.364802,82.2314534 144.364802,80.6083157 C144.364802,78.9759128 145.141928,75.0395336 145.141928,75.0395336 L145.787967,73.5563797 L145.937774,73.5563797 C145.937774,73.5563797 145.88159,73.5563797 145.787967,73.5470427 L145.937774,73.1925701 C146.359102,73.1832331 146.593185,73.1552459 146.593185,73.1552459 C153.119249,83.6119955 162.407271,82.9216289 162.407271,82.9216289 C162.407271,82.9216289 165.84348,81.8955354 164.80418,79.4982129 C163.783624,77.1009143 163.100122,78.8079419 158.634057,74.5357403 L158.633745,74.5364806 Z" id="Path" fill="#35495E"></path>
                <path d="M102.111898,101.293132 C102.111898,101.293132 100.965063,100.694926 100.095715,99.829859 C99.2171095,98.9555801 97.5247009,96.4431445 97.5247009,96.4431445 L97.071512,95.3019807 C97.0992606,95.2743687 97.1270093,95.2467567 97.154758,95.2191446 C97.154758,95.2191446 97.1270093,95.2467567 97.071512,95.2927689 L96.9697747,95.025884 C97.182483,94.7957994 97.2934777,94.648551 97.2934777,94.648551 C106.38472,96.7560416 110.972011,91.4550265 110.972011,91.4550265 C110.972011,91.4550265 112.257566,89.0806746 110.417085,88.3536206 C108.576628,87.6173784 109.131531,88.8966023 104.451831,88.9978385 C99.7719647,89.0898629 96.6459771,87.6265902 95.4529261,87.1664447 C94.2598515,86.7062992 90.2183234,85.7951964 87.5547348,86.4394143 C84.8911462,87.0744203 83.513183,87.350517 83.513183,87.350517 L57.5804843,60 C53.7053772,64.1137684 50.1631595,68.5404104 47,73.2431727 L72.6746266,97.0432349 C72.6746266,97.0432349 71.3890722,101.801127 76.8087529,109.016301 L81.2665348,113.903065 C81.2665348,113.903065 81.6827175,114.225174 81.9601806,115.136277 C82.2283862,116.04738 84.8550871,125.600106 84.8550871,125.600106 C84.8550871,125.600106 86.0944016,130.578988 88.2954965,129.944053 C90.4966625,129.299835 90.1267196,127.477582 89.9972337,126.612468 C89.858514,125.738189 87.2874762,114.050408 87.2874762,114.050408 C87.2874762,114.050408 87.6574191,113.40619 88.2493277,114.280492 C88.8504937,115.145583 96.2400935,127.16485 96.2400935,127.16485 C96.2400935,127.16485 98.9036821,131.002498 100.651707,129.723204 C102.399684,128.44398 101.752278,126.88873 101.021649,125.609435 C100.291021,124.330141 93.4471137,112.126895 93.4471137,112.126895 C93.4471137,112.126895 93.1696506,110.295502 94.4089651,111.445877 C95.6482796,112.587065 106.117627,122.645948 106.117627,122.645948 C106.117627,122.645948 109.012534,125.894602 110.936237,123.603063 C112.869197,121.320712 110.658773,119.581413 110.658773,119.581413 L98.5431151,107.884467 C98.5431151,107.884467 98.0436863,105.740153 99.5512064,106.513219 C101.06796,107.295473 113.738545,113.231518 113.738545,113.231518 C113.738545,113.231518 115.810225,114.013773 116.771958,111.86027 C117.724552,109.697555 115.384666,108.556486 115.384666,108.556486 L102.111898,101.293132 Z" id="Path" fill="#35495E"></path>
                <path d="M222,182.006544 L205.320473,166.500216 C205.320473,166.500216 207.014489,160.228948 199.875338,150.696582 L194.011548,144.239556 C194.011548,144.239556 193.471705,143.821472 193.099395,142.613669 C192.745695,141.405867 189.292423,128.798184 189.292423,128.798184 C189.292423,128.798184 187.663577,122.229609 184.759656,123.075149 C181.865051,123.920618 182.348994,126.326971 182.525797,127.479094 C182.702647,128.62187 186.090678,144.063337 186.090678,144.063337 C186.090678,144.063337 185.606687,144.908806 184.815508,143.76603 C184.033669,142.623255 174.30696,126.754617 174.30696,126.754617 C174.30696,126.754617 170.807128,121.691127 168.508219,123.372694 C166.209215,125.063632 167.056223,127.10758 168.033522,128.798422 C169.001527,130.48936 178.002131,146.590444 178.002131,146.590444 C178.002131,146.590444 178.365124,149.006001 176.736278,147.491664 C175.098115,145.977255 161.332064,132.710051 161.332064,132.710051 C161.332064,132.710051 157.525092,128.426931 154.984093,131.446497 C152.443093,134.465944 155.347086,136.751638 155.347086,136.751638 L171.300531,152.193034 C171.300531,152.193034 171.961372,155.026723 169.969532,154.004749 C167.977669,152.973476 151.298285,145.131928 151.298285,145.131928 C151.298285,145.131928 148.580483,144.109931 147.305218,146.943644 C146.039365,149.777334 149.120231,151.282419 149.120231,151.282419 L166.581501,160.870441 C166.581501,160.870441 168.08935,161.660159 169.234253,162.793635 C170.388426,163.94571 172.622332,167.262511 172.622332,167.262511 L173.218028,168.758344 C173.180785,168.795495 173.152859,168.832671 173.106323,168.869822 C173.106323,168.869822 173.143566,168.832671 173.218028,168.76762 L173.357635,169.120678 C173.069104,169.427284 172.92018,169.613089 172.92018,169.613089 C160.959802,166.835055 154.918971,173.831038 154.918971,173.831038 C154.918971,173.831038 153.224956,176.971311 155.644981,177.9284 C158.055643,178.894647 157.338997,177.213009 163.500778,177.082931 C169.662416,176.962153 173.767235,178.894647 175.340349,179.498489 C176.913462,180.102331 182.22802,181.310204 185.737144,180.464735 C189.246269,179.628566 191.061234,179.266209 191.061234,179.266209 L209.713896,199 C214.358416,193.797133 218.481821,188.101926 222,182.007139 L222,182.006544 Z" id="Path" fill="#35495E"></path>
                <path d="M84.6474375,142.243215 C86.6679158,142.168611 104.085217,141.860862 104.085217,141.860862 C104.085217,141.860862 109.295477,142.168611 108.986808,138.606235 C108.678114,135.043882 105.329472,135.42633 105.329472,135.42633 L85.1153503,135.734079 C85.1153503,135.734079 82.8610114,134.335255 84.8066571,133.719782 C86.7523029,133.094973 102.532508,127.443767 102.532508,127.443767 C102.532508,127.443767 104.945827,126.362027 103.935624,123.722897 C102.925373,121.08372 99.9696194,122.090952 99.9696194,122.090952 L82.5524379,127.136066 C82.5524379,127.136066 81.0744895,127.602333 79.5964931,127.602333 C78.1184968,127.602333 74.5452375,126.902921 74.5452375,126.902921 L73.1888889,126.324737 L73.1888889,126.18484 C73.1888889,126.18484 73.1888889,126.231465 73.1795259,126.324737 L72.8614936,126.18484 C72.8521545,125.811822 72.8240893,125.597346 72.8240893,125.597346 C82.3090227,119.71309 81.6916842,111.338626 81.6916842,111.338626 C81.6916842,111.338626 80.7562896,108.242516 78.5860744,109.175121 C76.406568,110.107654 77.959349,110.723152 74.0774444,114.751651 C70.1861529,118.780247 66.3042004,120.178975 64.9011803,120.794425 C63.4980644,121.419233 59.3075385,124.049052 57.5956097,126.846747 C55.8744615,129.635132 54.9483341,131.03386 54.9483341,131.03386 L29,130.259845 C29,136.731619 29.6080233,143.063735 30.7492134,149.199852 L54.003337,148.379213 C54.003337,148.379213 56.9592817,153.498811 67.6882311,155.046985 L75.6204792,155.429338 C75.6204792,155.429338 76.2472046,155.354734 77.2574318,155.895604 C78.2676829,156.436475 88.603959,162.330136 88.603959,162.330136 C88.603959,162.330136 93.8889316,165.50073 95.2172389,163.104152 C96.5361593,160.707526 94.6747091,159.467315 93.814123,158.842316 C92.9629,158.226842 80.8212801,150.46809 80.8212801,150.46809 C80.8212801,150.46809 80.5874195,149.610137 81.8315313,149.843282 C83.0756191,150.076427 99.557382,154.030395 99.557382,154.030395 C99.557382,154.030395 105.076311,155.037532 105.469272,152.482364 C105.862136,149.92722 103.991323,149.143942 102.27961,148.687009 C100.567825,148.211408 84.3945155,143.641895 84.3945155,143.641895 C84.4132176,143.641895 82.6172369,142.317675 84.6470783,142.243071 L84.6474375,142.243215 Z" id="Path" fill="#3FBE79"></path>
            </g>
        </g>
    </g>
</svg>