<?xml version="1.0" encoding="UTF-8"?>
<svg width="176px" height="174px" viewBox="0 0 176 174" version="1.1" xmlns="http://www.w3.org/2000/svg" xmlns:xlink="http://www.w3.org/1999/xlink">
    <!-- Generator: Sketch 55 (78076) - https://sketchapp.com -->
    <title>vote</title>
    <desc>Created with Sketch.</desc>
    <g id="Icons" stroke="none" stroke-width="1" fill="none" fill-rule="evenodd">
        <g id="icon/vote" transform="translate(-162.000000, -163.000000)">
            <g id="vote" transform="translate(125.000000, 125.000000)">
                <g id="Group-6" transform="translate(37.000000, 38.218447)"></g>
                <path d="M210.508997,136.372207 L199.882997,127.049256 C199.63282,126.800835 199.63282,126.559304 199.389582,126.310865 L193.70484,89.9981206 C193.211426,86.8099129 190.494107,84.3532599 187.033234,84.3532599 L175.91389,84.3532599 C175.663713,84.3532599 175.170281,84.1048387 174.927043,83.8633073 C171.716311,80.4267137 167.018432,78.2184466 161.833972,78.2184466 C157.136093,78.2184466 152.688356,80.1783278 149.477623,83.1248628 C149.227446,83.373284 148.984209,83.373284 148.984209,83.373284 L119.581105,88.7697588 C119.330929,88.7697588 119.087691,88.7697588 118.594259,88.5213376 L105.494248,80.6682098 C102.777036,78.9498953 99.0727827,79.1983342 96.8489139,81.6481327 C93.8813834,84.8363404 94.6250451,89.7427566 98.0859365,91.7095276 L114.146361,101.522537 C115.133207,102.260928 116.37023,102.50246 117.607235,102.50246 L118.844257,102.50246 L142.563152,98.0859254 C143.306761,97.8375042 144.043413,98.575878 144.043413,99.3142695 L144.043413,204.08329 C144.043413,207.76138 146.760624,210.956477 150.464878,210.956477 C154.419273,211.204899 157.386625,208.009766 157.386625,204.331676 L157.379669,155.260451 C157.379669,154.52206 158.123277,153.790576 158.85993,154.032107 C159.846776,154.280529 160.833658,154.280529 161.82746,154.280529 C162.814306,154.280529 163.801188,154.280529 164.794991,154.032107 C165.538599,153.783686 166.275251,154.52206 166.275251,155.260451 L166.275251,204.331676 C166.275251,208.009766 168.992463,211.204863 172.696717,211.204863 C176.651111,211.453285 179.618464,208.258152 179.618464,204.580062 L179.618464,98.8323373 C179.618464,98.0939458 180.111878,97.6039932 180.855486,97.6039932 L180.362072,97.6039932 C180.855486,97.6039932 181.599095,98.0939458 181.599095,98.5839161 L186.540175,130.969478 C186.790369,132.439354 187.527021,133.91619 188.764044,134.89613 L201.857116,146.427348 C203.094139,147.655692 204.824647,148.145662 206.304854,148.145662 C208.278582,148.145662 210.259248,147.407271 211.496253,145.689009 C213.963324,142.99775 213.226707,138.822712 210.509407,136.372949 L210.508997,136.372207 Z" id="Fill-1" fill="#3FBE79"></path>
                <path d="M177,53.7184466 C177,62.2795133 170.061067,69.2184466 161.5,69.2184466 C152.938933,69.2184466 146,62.2795133 146,53.7184466 C146,45.1573799 152.938933,38.2184466 161.5,38.2184466 C170.061067,38.2184466 177,45.1573799 177,53.7184466" id="Fill-2" fill="#343D4A"></path>
                <path d="M73.5203771,159.218447 L41.4724675,159.218447 C38.9847025,159.218447 37,157.233745 37,154.74598 L37,122.690914 C37,120.203149 38.9847025,118.218447 41.4724675,118.218447 L73.527533,118.218447 C76.015298,118.218447 78,120.203149 78,122.690914 L78,154.74598 C77.9930051,157.233745 76.008321,159.218447 73.520556,159.218447 L73.5203771,159.218447 Z M47.4333698,150.273512 L67.559473,150.273512 C68.3072159,150.273512 69.0479637,149.52577 69.0479637,148.785022 L69.0479637,128.65892 C69.0479637,127.911177 68.3002209,127.170429 67.559473,127.170429 L47.4333698,127.163434 C46.6856269,127.163434 45.9448791,127.911177 45.9448791,128.651925 L45.9448791,148.778027 C45.9448791,149.777337 46.6856269,150.273512 47.4333698,150.273512 Z" id="Fill-3" fill="#3FBE79"></path>
                <path d="M73.5203771,206.218447 L41.4724675,206.218447 C38.9847025,206.218447 37,204.245538 37,201.772557 L37,169.664337 C37,167.191355 38.9847025,165.218447 41.4724675,165.218447 L73.527533,165.218447 C76.015298,165.218447 78,167.191355 78,169.664337 L78,201.52892 C77.9930051,204.245003 76.008321,206.217911 73.520556,206.217911 L73.5203771,206.218447 Z M47.4333698,197.326666 L67.559473,197.326666 C68.3072159,197.326666 69.0479637,196.583367 69.0479637,195.847021 L69.0479637,175.840514 C69.0479637,175.097214 68.3002209,174.360868 67.559473,174.360868 L47.4333698,174.360868 C46.6856269,174.360868 45.9448791,175.104168 45.9448791,175.840514 L45.9448791,195.847021 C45.9448791,196.59032 46.6856269,197.326666 47.4333698,197.326666 Z" id="Fill-4" fill="#3FBE79"></path>
                <path d="M88.5397549,75.6892368 C87.0408546,74.201 84.2893007,74.201 82.5371639,75.4377124 L79.2860005,77.6735644 C78.7863731,77.9250888 78.2867277,77.6735644 78.2867277,77.1774915 L78.2867277,74.6901507 C78.2867277,72.20281 76.2881459,70.2184466 73.7829828,70.2184466 L41.5037448,70.2254403 C38.9985818,70.2254403 37,72.2098038 37,74.6971445 L37,106.746742 C37,109.234083 38.9985818,111.218447 41.5037448,111.218447 L73.7829828,111.218447 C76.2881459,111.218447 78.2867277,109.234083 78.2867277,106.746742 L78.2867277,89.8521076 C78.2867277,89.6005832 78.2867277,89.3560346 78.5400543,89.3560346 L88.0470993,82.6484784 C90.2919459,80.9086993 90.7915012,77.673797 88.5397009,75.6894335 L88.5397549,75.6892368 Z M69.2727346,100.779074 C69.2727346,101.52669 68.5197625,102.267311 67.7738343,102.267311 L47.5069844,102.267311 C46.7540124,102.267311 46.0080841,101.519696 46.0080841,100.779074 L46.0080841,80.6564057 C46.0080841,79.9087905 46.7610562,79.1681689 47.5069844,79.1681689 L67.7738343,79.1681689 C68.5268064,79.1681689 69.2727346,79.9157842 69.2727346,80.6564057 L69.2727346,84.6321085 C69.2727346,84.8836329 69.2727346,85.1281814 69.019408,85.1281814 L62.0105002,90.095887 C61.7571735,90.3474114 61.2575281,90.3474114 61.0112273,89.8443626 L59.0126455,86.8608416 C57.760046,84.8764782 55.008456,84.1289881 53.0100562,85.3726048 C50.7581838,86.616293 50.0051576,89.5928203 51.5111559,91.8286724 L56.767925,99.2838975 C57.5208971,100.276061 58.52017,101.023677 59.7728236,101.023677 L60.5257956,101.023677 C61.5250685,101.023677 62.2780406,100.772152 63.2772234,100.276061 L68.5339944,96.5520261 C69.0336218,96.3005017 69.5332673,96.5520261 69.5332673,97.0480991 L69.5262234,100.77911 L69.2727346,100.779074 Z" id="Fill-5" fill="#343D4A"></path>
                <rect id="Rectangle" x="0" y="0" width="250" height="250"></rect>
            </g>
        </g>
    </g>
</svg>