<?xml version="1.0" encoding="UTF-8"?>
<svg width="250px" height="250px" viewBox="0 0 250 250" version="1.1" xmlns="http://www.w3.org/2000/svg" xmlns:xlink="http://www.w3.org/1999/xlink">
    <!-- Generator: Sketch 55.2 (78181) - https://sketchapp.com -->
    <title>win</title>
    <desc>Created with Sketch.</desc>
    <g id="Layout_Template" stroke="none" stroke-width="1" fill="none" fill-rule="evenodd">
        <g id="icon/win">
            <g id="win">
                <rect id="Rectangle" fill="#FFFFFF" x="0" y="0" width="250" height="250"></rect>
                <path d="M216.999904,86.5 C215.342459,86.5 214,87.8953624 214,89.6180488 L214,90.3819512 C214,91.2082132 214.314985,92.0033054 214.87747,92.5879907 C215.439954,93.172676 216.204934,93.5 216.999962,93.5 C217.794989,93.5 218.559912,93.1726161 219.122454,92.5879907 C219.684996,92.0033653 220,91.2082731 220,90.3819512 L220,89.6180488 C220,88.7917868 219.684938,87.9966946 219.122454,87.4120093 C218.559969,86.827324 217.794989,86.5 216.999962,86.5 L216.999904,86.5 Z" id="Fill-1" fill="#3FBE79"></path>
                <path d="M30,90.3957562 C30,91.21836 30.3149892,92.009932 30.8774808,92.5920286 C31.4399724,93.1740656 32.2049625,93.5 33,93.5 C33.7950375,93.5 34.55997,93.1740656 35.1225192,92.5920286 C35.6850108,92.0099916 36,91.2184196 36,90.3957562 L36,89.6041842 C36,87.8891249 34.6575234,86.5 33.0000576,86.5 C31.3425918,86.5 30.0001151,87.8891249 30.0001151,89.6041842 L30,90.3957562 Z" id="Fill-2" fill="#3FBE79"></path>
                <path d="M216.393884,105.444368 C218.083455,105.458294 219.529175,104.42746 219.756198,103.034358 C219.756198,102.560736 219.907497,102.073171 219.974743,101.641327 C220.201702,100.10203 218.873583,98.7090531 217.015907,98.5209382 C215.158231,98.3328234 213.477139,99.4333756 213.250115,100.972672 C213.182869,101.425414 213.107209,101.892064 213.03157,102.365703 C212.779391,103.891074 214.065484,105.291023 215.906268,105.5 L216.393884,105.444368 Z" id="Fill-3" fill="#343D4A"></path>
                <path d="M207.870489,123.272837 L207.280932,124.537218 C206.930371,125.225604 206.906488,126.005322 207.217195,126.707697 C207.527903,127.403114 208.141363,127.972078 208.92215,128.267116 C209.702916,128.569167 210.587272,128.576198 211.375952,128.295204 C212.172647,128.014229 212.802057,127.466322 213.128714,126.770906 L213.766078,125.366028 C214.427346,123.926031 213.638605,122.289414 212.005362,121.706244 C210.372118,121.123218 208.515869,121.818634 207.854437,123.258631 L207.870489,123.272837 Z" id="Fill-4" fill="#343D4A"></path>
                <path d="M202.285152,134.188498 L201.537625,135.534904 C201.057076,136.26356 200.889258,137.166443 201.072327,138.029789 C201.263012,138.885166 201.781717,139.629637 202.521628,140.073141 C203.253904,140.516665 204.138728,140.619623 204.947317,140.358253 C205.763502,140.096883 206.434755,139.502876 206.800893,138.702951 L207.594192,137.261494 C208.433263,135.740841 207.929828,133.79258 206.465276,132.921348 C205.000724,132.050135 203.12434,132.572875 202.285249,134.093528 L202.285152,134.188498 Z" id="Fill-5" fill="#3FBE79"></path>
                <path d="M210.526911,111.898524 L210.118689,113.484124 C209.636978,115.172785 210.665716,116.916935 212.404867,117.38475 C214.143913,117.852505 215.940103,116.853572 216.421876,115.164809 C216.577005,114.633631 216.723962,114.110388 216.862767,113.579209 C217.11586,112.754697 217.017896,111.858826 216.577005,111.11369 C216.144287,110.360538 215.409483,109.813509 214.552197,109.59945 C213.694912,109.385392 212.780483,109.520175 212.021266,109.972059 C211.270117,110.423962 210.731262,111.153328 210.543486,111.993691 L210.526911,111.898524 Z" id="Fill-6" fill="#3FBE79"></path>
                <path d="M42.4058211,137.196381 L43.1954547,138.628111 C43.552301,139.447365 44.2204526,140.075744 45.0404664,140.346175 C45.8528803,140.624568 46.7488157,140.521168 47.4928497,140.067783 C48.2293422,139.614397 48.7608118,138.850813 48.9354545,137.97597 C49.1100855,137.093083 48.9278623,136.178371 48.4191653,135.446572 L47.6750923,134.094397 C46.8398981,132.567229 44.9797448,132.050232 43.5219597,132.925156 C42.0641745,133.800102 41.5706657,135.748788 42.4058405,137.275956 L42.4058211,137.196381 Z" id="Fill-7" fill="#3FBE79"></path>
                <path d="M33.5630403,115.179394 C34.0458508,116.862915 35.8544364,117.850874 37.597389,117.384483 C39.3403415,116.918092 40.3632787,115.171301 39.8804055,113.487842 L39.4712515,111.986103 C39.2830399,111.148298 38.7429404,110.421133 37.990098,109.970626 C37.2290646,109.520098 36.312548,109.385745 35.4533897,109.599152 C34.5942314,109.812558 33.8576664,110.357922 33.4239603,111.108782 C32.9820631,111.85175 32.8838754,112.744873 33.1375462,113.566794 C33.2684772,114.112158 33.4075991,114.649631 33.5630613,115.179192 L33.5630403,115.179394 Z" id="Fill-8" fill="#3FBE79"></path>
                <path d="M37.8733133,126.774195 C38.5670974,128.214217 40.4411148,128.888183 42.060026,128.270966 C42.8415335,127.973036 43.4555765,127.419723 43.7665994,126.717446 C44.0855841,126.022268 44.0776019,125.241958 43.742675,124.546799 L43.1525584,123.269925 C42.4906626,121.815721 40.6245662,121.120525 38.9897312,121.709322 C37.3549371,122.298101 36.5734092,123.958056 37.2353051,125.412297 L37.8733133,126.774195 Z" id="Fill-9" fill="#343D4A"></path>
                <path d="M34.1100457,105.5 C35.9498413,105.284136 37.2267322,103.87748 36.9662914,102.352509 C36.890684,101.89987 36.8150745,101.433326 36.7478739,100.959794 C36.51266,99.4208463 34.8240749,98.3274961 32.9675043,98.5225207 C31.1109123,98.7175097 29.7918905,100.117177 30.0271691,101.656107 C30.0943762,102.136591 30.1699857,102.603153 30.2624045,103.048822 C30.4976185,104.434566 31.9341718,105.458285 33.6227569,105.444381 L34.1100457,105.5 Z" id="Fill-10" fill="#343D4A"></path>
                <path d="M48,193.5 C43.027584,193.5 39,197.527582 39,202.5 C39,207.472416 43.027584,211.5 48,211.5 C52.972416,211.5 57,207.472416 57,202.5 C57,197.527582 52.972416,193.5 48,193.5 Z" id="Fill-11" fill="#3FBE79"></path>
                <path d="M193,202.5 C193,207.472416 197.027584,211.5 202,211.5 C206.972416,211.5 211,207.472416 211,202.5 C211,197.527584 206.972416,193.5 202,193.5 C197.027584,193.5 193,197.527584 193,202.5 Z" id="Fill-12" fill="#3FBE79"></path>
                <path d="M112.999942,46.5 C113.794938,46.5 114.559942,46.1945519 115.122502,45.6490982 C115.685062,45.1036445 116,44.361826 116,43.5908702 L116,33.4090181 C116,31.8017571 114.657498,30.5 113,30.5 C111.342502,30.5 110,31.8017571 110,33.4090181 L110,43.5908702 C110,44.3617701 110.314995,45.1035886 110.877498,45.6490982 C111.44,46.1946077 112.205005,46.5 113.000058,46.5 L112.999942,46.5 Z" id="Fill-13" fill="#3FBE79"></path>
                <path d="M140,43.590926 L140,33.409074 C140,31.8018129 138.657498,30.5 137,30.5 C135.342502,30.5 134,31.8018129 134,33.409074 L134,43.590926 C134,45.1981871 135.342502,46.5 137,46.5 C138.657498,46.5 140,45.1981871 140,43.590926 Z" id="Fill-14" fill="#3FBE79"></path>
                <path d="M128,53.5001067 L128,32.4998933 C128,30.8424547 126.657498,29.5 125,29.5 C123.342502,29.5 122,30.8424547 122,32.4998933 L122,53.5001067 C122,55.1575453 123.342502,56.5 125,56.5 C126.657498,56.5 128,55.1575453 128,53.5001067 Z" id="Fill-15" fill="#343D4A"></path>
                <path d="M30,57.2769712 L30,59.7232915 C29.9635915,63.3558951 32.2845192,66.5904931 35.7330017,67.7252808 C34.1119961,70.9747804 34.7677586,74.9020214 37.368758,77.4366197 L39.0634602,79.1313317 C40.6550023,80.7302583 42.8065785,81.636504 45.0612395,81.6512171 C46.3580515,81.6512171 47.6254377,81.3343781 48.7749319,80.7375393 C49.9022813,84.2005661 53.136936,86.5289937 56.7768752,86.5 L59.2231814,86.5 C62.8557641,86.5364068 66.0903435,84.2154678 67.2251247,80.7669654 C68.3745812,81.3638041 69.6418165,81.6806242 70.9388171,81.6806242 C73.1934781,81.6511605 75.34496,80.7374828 76.9218835,79.1311242 L78.6313175,77.4364122 C81.2175851,74.8869123 81.8585404,70.9670278 80.2228596,67.7250734 C83.6858664,66.6050929 86.0289936,63.3630441 86,59.723084 L86,57.2767637 C86.0364066,53.6441601 83.7154809,50.4095622 80.2669983,49.2747744 C81.8953793,46.0326314 81.2322415,42.1053904 78.6312421,39.5781486 L76.9365398,37.8687047 C75.3449978,36.2697781 73.1934215,35.3635324 70.9387606,35.3488194 C69.6419485,35.3488194 68.3745623,35.6656583 67.2250681,36.2624971 C66.0977188,32.7994703 62.863064,30.471005 59.2231248,30.5 L56.7768186,30.5 C53.1442359,30.4636485 49.9096566,32.7845687 48.7748753,36.2330711 C47.6254189,35.6362323 46.3581836,35.3194122 45.0611829,35.3194122 C42.8065219,35.3488759 40.65504,36.2625537 39.0781166,37.8689122 L37.3686825,39.578356 C34.7824149,42.1204995 34.1414597,46.040384 35.7771405,49.2749819 C32.3141336,50.3949624 29.9710065,53.6370111 30,57.2769712 Z M50.632476,51.3823372 C52.5113728,49.4149441 55.0903028,48.2656319 57.8091753,48.1845218 C61.9795342,48.1255754 65.7743363,50.5791579 67.4321808,54.4034079 C69.0826689,58.2348257 68.2721566,62.6853216 65.3689764,65.6769662 C63.4827044,67.6296463 60.9037932,68.756889 58.1922772,68.8159296 L58.0007074,68.8159296 C53.8671308,68.8011977 50.1387255,66.3181138 48.5325648,62.5012204 C46.9336474,58.691872 47.7588915,54.2928717 50.6325515,51.3234852 L50.632476,51.3823372 Z" id="Fill-16" fill="#3FBE79"></path>
                <path d="M214.266999,49.2747502 C215.89538,46.0326051 215.232243,42.1053615 212.631243,39.578118 L210.936541,37.8686731 C209.344999,36.2697455 207.193423,35.3634991 204.938762,35.3487861 C203.641949,35.3487861 202.374563,35.6656252 201.225069,36.2624644 C200.09772,32.7994354 196.863065,30.4709497 193.223126,30.5 L190.776819,30.5 C187.144236,30.4635932 183.909657,32.7845337 182.774876,36.2330384 C181.625419,35.6361992 180.358184,35.3193789 179.061183,35.3193789 C176.806522,35.3488427 174.65504,36.262521 173.078117,37.8688806 L171.368683,39.5783255 C168.782415,42.1204707 168.14146,46.0403577 169.777141,49.2749577 C166.314134,50.3949389 163.971006,53.6369898 164,57.2769522 L164,59.7232741 C163.963593,63.3558801 166.284519,66.5904801 169.733002,67.7252686 C168.111996,70.9747703 168.767759,74.9020138 171.368758,77.4366138 L173.06346,79.1313269 C174.655002,80.7302545 176.806579,81.6365009 179.06124,81.6512139 C180.358052,81.6512139 181.625438,81.3343748 182.774932,80.7375356 C183.902282,84.2005646 187.136937,86.5289937 190.776876,86.5 L193.223182,86.5 C196.855765,86.5364068 200.090344,84.2154663 201.225126,80.7669616 C202.374582,81.3638008 203.641817,81.6806211 204.938818,81.6806211 C207.186123,81.6658892 209.337605,80.7669616 210.921885,79.1754471 L212.631319,77.4365195 C215.217586,74.8870179 215.858542,70.9671308 214.222861,67.7251743 C217.685868,66.6051931 220.028995,63.3631423 220,59.7231798 L220,57.2768579 C220.036351,53.644252 217.715482,50.4096519 214.266999,49.2748634 L214.266999,49.2747502 Z M199.368468,65.6765566 C197.482196,67.6292379 194.903285,68.7564813 192.191769,68.815522 L192.000199,68.815522 C187.866622,68.8007901 184.138217,66.3177046 182.532056,62.5008086 C180.933139,58.6914578 181.758383,54.2924546 184.632043,51.3230662 C186.518315,49.3703848 189.097226,48.2431414 191.808742,48.1841007 C197.489628,48.1251544 202.168526,52.641956 202.315844,58.3228779 C202.352682,61.0711939 201.291654,63.7165187 199.368543,65.676368 L199.368468,65.6765566 Z" id="Fill-17" fill="#3FBE79"></path>
                <path d="M159.787668,141.788093 C158.415713,138.465358 155.686812,135.891119 152.290703,134.708697 C149.756721,134.012731 147.057683,134.267167 144.703726,135.427116 C143.256786,132.673177 141.007639,130.420599 138.256206,128.961346 C135.100004,127.449678 131.486445,127.187752 128.135246,128.213003 C125.90105,125.339327 122.707423,123.363771 119.138774,122.630217 C115.682593,122.151271 112.174017,123.004389 109.317601,125.010004 C108.238024,123.879998 106.850984,123.101711 105.329212,122.764897 C102.330388,122.121308 99.196641,123.348617 96.0028212,126.386878 C94.7658086,127.666564 94.0611185,129.365347 94.0236932,131.146451 L94.0236932,150.289345 C93.2664925,150.962858 92.5767533,151.711221 91.9844928,152.534452 C91.7445868,152.863737 91.5796467,153.24538 91.4896916,153.642024 C91.3097621,154.435274 87.4863332,173.234745 104.504493,195.683899 C104.624446,195.908409 104.706916,196.147882 104.744399,196.402318 L104.744399,217.506588 C104.744399,219.160445 106.086375,220.5 107.743223,220.5 C109.400071,220.5 110.742047,219.160445 110.742047,217.506588 L110.742047,196.388907 C110.689575,194.832333 110.164776,193.328059 109.242635,192.078394 C95.5979368,174.117921 96.7675262,158.686283 97.2473381,155.498419 C99.2264661,153.223425 103.934764,150.619109 115.10536,150.155106 C116.12496,150.155106 118.613936,150.229937 119.423667,152.235456 C119.423667,152.235456 119.603596,154.375769 114.130766,159.71889 C111.784102,158.514035 109.302707,157.59352 106.738593,156.964951 C105.134217,156.553364 103.492377,157.518728 103.080123,159.120208 C102.667792,160.721688 103.634901,162.360564 105.239277,162.772075 C112.451425,164.598066 117.009637,168.070366 118.044304,172.530694 C118.419152,174.139646 120.031109,175.13501 121.642893,174.760858 C123.254677,174.386705 124.251918,172.777639 123.877089,171.168763 C123.112384,168.092973 121.448089,165.316619 119.09394,163.191248 C124.431751,157.77322 126.350999,153.447764 124.956666,150.005292 C123.457253,146.203611 119.543812,144.018468 114.820736,144.16809 C109.782711,144.250412 104.782112,145.125982 100.02161,146.772407 L100.02161,131.176778 C100.051608,131.019626 100.096576,130.862474 100.156553,130.712794 C101.745939,129.216088 103.155377,128.437801 104.07009,128.61731 C104.984803,128.796819 105.659457,129.919449 105.869385,130.398395 C106.236748,131.296418 107.008938,131.96246 107.953495,132.17948 C108.89813,132.40399 109.895198,132.157027 110.622401,131.520929 C113.351379,129.156085 115.900332,128.138421 118.224348,128.527517 C122.017933,129.141162 124.446933,133.19724 124.461903,133.227126 C125.19661,134.514284 126.770949,135.068079 128.150504,134.529265 C130.504653,133.391768 133.23344,133.309447 135.647469,134.304754 C137.956516,135.689215 139.68096,137.866963 140.505468,140.426258 C140.767868,141.361697 141.472596,142.11006 142.394737,142.439364 C143.309374,142.761158 144.328955,142.618968 145.123715,142.057701 C147.297839,140.560995 149.157206,139.947274 150.656522,140.38139 C152.13344,140.987564 153.325427,142.12506 154.000235,143.569446 L154.000235,153.133422 C154.07522,154.869601 153.550401,157.039897 151.466252,157.099669 C149.96684,157.099669 147.882633,156.575817 148.032527,154.719882 L148.167488,151.008051 C148.197467,150.214802 147.905089,149.436515 147.357796,148.852795 C146.810503,148.276565 146.053303,147.932318 145.258523,147.909865 C144.463839,147.879921 143.69163,148.171791 143.106855,148.710605 C142.522079,149.25691 142.184714,150.005254 142.154735,150.798426 L142.004784,154.270784 L142.004784,155.019147 C141.517468,156.224003 140.310454,156.987232 139.00596,156.890025 C137.866407,156.605646 135.542294,155.528017 136.186969,151.382146 C136.441865,149.728289 135.302312,148.186619 133.645502,147.932203 C131.988654,147.677768 130.444197,148.815264 130.189321,150.469084 C128.989791,158.222069 134.132799,162.083523 137.881281,162.786999 C138.376082,162.876792 138.878388,162.914207 139.380693,162.906735 C141.307426,162.921697 143.181763,162.270638 144.688564,161.065782 C146.405389,162.300562 148.482149,162.93666 150.5962,162.876792 L151.001046,162.876792 L151.001046,181.375983 C150.963563,181.667833 150.866104,181.94474 150.716153,182.199176 L143.578855,191.314092 C142.604242,192.616231 142.05695,194.180296 142.004477,195.804306 L142.004477,206.281342 C142.004477,207.9352 143.346454,209.274754 145.003302,209.274754 C146.660149,209.274754 148.002126,207.9352 148.002126,206.281342 L148.002126,195.879213 C148.039609,195.587362 148.137068,195.310474 148.287019,195.05602 L155.409154,185.88114 C156.383767,184.579001 156.938564,183.014936 156.983532,181.390926 L156.983532,161.020397 L157.298404,160.736018 C160.192245,157.877286 159.99725,152.728617 159.99725,152.683787 L159.99725,142.895282 C159.99725,142.513619 159.929788,142.139448 159.787322,141.787729 L159.787668,141.788093 Z" id="Fill-18" fill="#3FBE79"></path>
                <path d="M122,192.5 C120.342502,192.5 119,193.876988 119,195.576989 L119,209.42307 C119,211.123071 120.342502,212.5 122,212.5 C123.657498,212.5 125,211.123071 125,209.42307 L125,195.576989 C125,194.761607 124.685005,193.976985 124.122502,193.399999 C123.56,192.823014 122.794995,192.5 121.999942,192.5 L122,192.5 Z" id="Fill-19" fill="#3FBE79"></path>
                <path d="M178.765491,100.96003 L173.388337,95.8373193 C169.523109,91.913843 163.252146,91.6695614 159.088918,95.2746947 L153.801184,100.249397 C149.429375,97.8287541 144.759757,95.9927574 139.903865,94.7861316 L139.903865,87.8867413 C139.903865,82.7194948 135.152263,78.5 129.298463,78.5 L121.701849,78.5 C115.848048,78.5 111.096447,82.7196843 111.096447,87.8867413 L111.096447,94.7861316 C106.240555,95.9927953 101.570937,97.8287541 97.1991276,100.249397 L91.9560074,95.2746947 C87.7927793,91.6695993 81.5218169,91.9138809 77.6565886,95.8373193 L72.2794352,100.96003 C70.1717009,102.899501 68.9503399,105.601569 68.89829,108.451647 C68.8833995,110.887261 69.8739298,113.219022 71.6390119,114.90682 L76.7332275,119.763077 C74.2531363,123.827171 72.3539829,128.209647 71.0729456,132.792058 L63.625427,132.792058 C58.1514189,133.006738 53.869029,137.552042 54.0030622,142.993134 L54.0030622,150.218297 C53.8690099,155.703735 58.2257759,160.263973 63.7445888,160.419373 L71.1921074,160.419373 C72.4731066,165.001784 74.3797339,169.39165 76.8523893,173.463136 L71.7581738,178.304611 C69.9484012,179.970254 68.9131614,182.309577 68.89829,184.759784 C68.9429805,187.602471 70.1494891,190.304539 72.234821,192.2514 L77.6268459,197.374112 C81.4920741,201.297588 87.7630365,201.541869 91.9262646,197.936736 L96.245833,193.805933 C81.9018001,171.596969 85.6553022,153.312808 85.8190782,152.482743 C86.0871827,151.3057 86.59363,150.187937 87.308601,149.210621 C87.5990507,148.803472 87.8969553,148.418516 88.2172051,148.040969 L88.2172051,131.502975 C88.2470051,128.119799 89.6248017,124.877431 92.0452548,122.501134 C97.8693127,116.978551 103.201852,116.697315 106.657545,117.422769 C107.767237,117.637448 108.839636,117.992784 109.860043,118.473975 C113.137088,117.060042 116.756557,116.615863 120.286797,117.185878 C124.025428,117.859538 127.495992,119.584348 130.281519,122.16058 C133.930921,121.746022 137.624938,122.38267 140.916664,123.996482 C143.270158,125.188345 145.36283,126.831778 147.068465,128.837957 C149.332539,128.497422 151.648664,128.645488 153.845817,129.282136 C161.397626,131.48825 164.525767,138.402423 165.076771,139.764449 C165.508728,140.830456 165.724707,141.977954 165.717271,143.125262 L165.717271,152.526786 L165.717271,152.763676 C165.866233,156.494797 164.823557,160.173992 162.738225,163.275742 L162.738225,181.205326 C162.693554,184.129503 161.710459,186.964799 159.922956,189.289169 L155.662873,194.752434 L159.044018,197.965239 C163.207246,201.555552 169.470773,201.30388 173.328566,197.387813 L178.705719,192.265102 C180.791146,190.318241 181.997636,187.616172 182.04225,184.773485 C182.064595,182.337871 181.074065,179.998719 179.301528,178.318312 L174.207312,173.462056 C176.687404,169.39057 178.593993,165.000704 179.867594,160.418293 L187.315113,160.418293 C192.811428,160.233215 197.130997,155.680481 196.996963,150.217216 L196.996963,142.992054 C197.131035,137.506616 192.77425,132.946378 187.255437,132.790978 L179.807918,132.790978 C178.534374,128.208567 176.627727,123.826091 174.147636,119.761997 L179.241852,114.90574 C181.051624,113.240096 182.086864,110.900773 182.101736,108.450567 C182.05735,105.60896 180.850822,102.906892 178.765491,100.96003 Z M150.077043,119.022841 C149.53336,119.600267 148.788609,119.933392 147.999243,119.955603 C147.2098,119.985223 146.435248,119.696501 145.861765,119.156087 C142.249732,115.980238 137.624728,114.166604 132.798579,114.033376 C131.152659,113.951943 129.886645,112.56022 129.968438,110.924235 C130.050231,109.28825 131.450506,108.029811 133.096388,108.111112 C139.307674,108.340593 145.243459,110.716908 149.883334,114.832929 C150.464253,115.373343 150.799393,116.113617 150.821738,116.898236 C150.851538,117.682931 150.561069,118.452826 150.017386,119.02286 L150.077043,119.022841 Z" id="Fill-20" fill="#35495E"></path>
            </g>
        </g>
    </g>
</svg>