<?xml version="1.0" encoding="UTF-8"?>
<svg width="1936px" height="458px" viewBox="0 0 1936 458" version="1.1" xmlns="http://www.w3.org/2000/svg" xmlns:xlink="http://www.w3.org/1999/xlink">
    <!-- Generator: Sketch 55 (78076) - https://sketchapp.com -->
    <title>background_street</title>
    <desc>Created with Sketch.</desc>
    <g id="Banner" stroke="none" stroke-width="1" fill="none" fill-rule="evenodd">
        <g id="thepowerofmovement" transform="translate(-78.000000, -61.000000)">
            <g transform="translate(85.000000, 61.000000)" id="background_street">
                <g>
                    <g id="Group-4">
                        <g id="np_green-energy_1452666_000B2C" transform="translate(577.000000, 45.000000)" fill="#CBCBCB" fill-rule="nonzero">
                            <g id="Group-3" transform="translate(0.000000, 110.000000)">
                                <path d="M4.2091529,287.482753 C1.89199656,287.482753 0.00210772963,289.375075 0.00210772963,291.695215 C0.00210772963,294.015355 1.89199656,295.907677 4.2091529,295.907677 L332.358676,295.907677 C334.675833,295.907677 336.565722,294.015355 336.565722,291.695215 C336.565722,289.375075 334.675833,287.482753 332.358676,287.482753 L323.007677,287.482753 L323.007677,189.526162 L326.836761,189.526162 C328.102156,189.526162 329.301837,188.950235 330.090658,187.979389 C330.895929,186.992072 331.208134,185.708619 330.945193,184.474494 L322.974946,145.640649 L322.991383,63.0553323 C322.991383,62.7591457 322.958514,62.4465052 322.892779,62.150327 L316.089145,31.2809844 C315.661878,29.3557629 313.952765,27.9735277 311.980713,27.9735277 L270.041521,27.9735277 L267.888692,3.83401439 C267.691487,1.66198475 265.883783,1.70530257e-13 263.698096,1.70530257e-13 L201.496933,1.70530257e-13 C199.311247,1.70530257e-13 197.503522,1.66194262 197.306338,3.83401439 L195.153509,27.9735277 L153.214317,27.9735277 C151.242264,27.9735277 149.533152,29.3392922 149.105885,31.2809844 L142.302251,62.150327 C142.236516,62.4465178 142.203647,62.7591541 142.203647,63.0553323 L142.203647,145.345777 L134.167349,184.459329 C133.904409,185.693454 134.233084,186.993378 135.021884,187.964224 C135.827154,188.93507 137.010386,189.510998 138.275781,189.510998 L142.187029,189.510998 L142.203461,287.484438 L82.5139045,287.484438 L82.5796396,261.386973 C97.8794008,259.49465 109.728123,247.202771 109.728123,232.327725 C109.728123,226.338025 107.75607,220.480176 104.140746,215.592877 C105.143201,212.89429 105.669081,210.080449 105.669081,207.20081 C105.669081,201.984519 103.959969,196.900077 100.821303,192.638329 C101.577267,190.449829 101.955228,188.162589 101.955228,185.842364 C101.955228,173.649393 91.4212078,163.726939 78.4550945,163.726939 C75.2833611,163.726939 72.1773417,164.352237 69.2849982,165.504093 C68.709811,164.566146 68.1510733,163.61177 67.4608655,162.723194 C68.5619333,159.794227 69.120671,156.733494 69.120671,153.607005 C69.120671,138.353259 55.8916174,125.946294 39.6549473,125.946294 C23.9441578,125.946294 11.0108595,137.481279 10.2220386,152.208467 C10.1891689,152.669226 10.1891689,153.146414 10.1891689,153.607131 C10.1891689,156.733578 10.7479066,159.794395 11.8489745,162.72332 C7.6255218,168.202891 5.32468879,174.801291 5.32468879,181.580827 C5.32468879,185.43127 6.04779572,189.183057 7.49392543,192.786819 C7.24741782,193.099463 7.01735135,193.428545 6.7708185,193.757665 C2.33364796,199.91165 0,207.069887 0,214.50741 C0,233.611768 15.4970716,249.375221 35.3324482,251.399309 L35.2502762,287.484944 L4.2091529,287.482753 Z M191.325901,250.047867 L191.325901,287.482753 L175.713977,287.482753 L175.713977,250.047867 L191.325901,250.047867 Z M314.562875,70.7402109 L314.562875,141.791807 L150.618532,141.791807 L150.618532,70.7402109 L314.562875,70.7402109 Z M295.861297,150.216731 L295.861297,181.102502 L277.290979,181.102502 L277.290979,150.216731 L295.861297,150.216731 Z M304.275388,150.216731 L315.335289,150.216731 L321.678672,181.102502 L304.275388,181.102502 L304.275388,150.216731 Z M143.452672,181.102502 L149.796055,150.216731 L160.905178,150.216731 L160.905178,181.102502 L143.452672,181.102502 Z M169.319269,150.216731 L187.889587,150.216731 L187.889587,181.102502 L169.319269,181.102502 L169.319269,150.216731 Z M196.320084,150.216731 L214.890403,150.216731 L214.890403,181.102502 L196.320084,181.102502 L196.320084,150.216731 Z M223.304493,150.216731 L241.874811,150.216731 L241.874811,181.102502 L223.304493,181.102502 L223.304493,150.216731 Z M250.288901,150.216731 L268.859219,150.216731 L268.859219,181.102502 L250.288901,181.102502 L250.288901,150.216731 Z M264.487679,287.484017 L247.807586,287.484017 L247.807586,250.049131 L264.487679,250.049131 L264.487679,287.484017 Z M239.393496,287.484017 L223.781572,287.484017 L223.781572,250.049131 L239.409903,250.049131 L239.393496,287.484017 Z M215.367481,287.484017 L199.73915,287.484017 L199.73915,250.049131 L215.367481,250.049131 L215.367481,287.484017 Z M314.594849,287.484017 L272.90219,287.484017 L272.90219,189.527426 L314.594849,189.527426 L314.594849,287.484017 Z M262.583149,39.0961966 L247.562736,39.0961966 L247.562736,27.9234837 L261.597018,27.9234837 L262.583149,39.0961966 Z M203.600376,27.9234837 L217.634658,27.9234837 L217.634658,39.0961966 L202.614245,39.0961966 L203.600376,27.9234837 Z M226.048748,27.9234837 L239.146542,27.9234837 L239.146542,39.0961966 L226.048748,39.0961966 L226.048748,27.9234837 Z M226.048748,19.4985597 L226.048748,8.42441846 L239.146542,8.42441846 L239.146542,19.4985597 L226.048748,19.4985597 Z M260.838909,19.4985597 L247.560633,19.4985597 L247.560633,8.42441846 L259.853198,8.42441846 L260.838909,19.4985597 Z M217.632555,8.42441846 L217.632555,19.4985597 L204.354279,19.4985597 L205.340326,8.42441846 L217.632555,8.42441846 Z M156.596743,36.3976934 L194.39452,36.3976934 L193.802925,42.9303795 C193.704325,44.0986637 194.098735,45.2834186 194.887543,46.1555667 C195.676364,47.0276727 196.810289,47.5213312 197.993521,47.5213312 L267.16155,47.5213312 C268.344782,47.5213312 269.462299,47.0276727 270.267528,46.1555667 C271.072798,45.2834607 271.450759,44.1151344 271.352146,42.9303795 L270.760551,36.3976934 L308.558328,36.3976934 L314.277385,62.3140233 L150.875751,62.3140233 L156.596743,36.3976934 Z M264.486417,189.529111 L264.486417,241.624628 L150.618532,241.624628 L150.618532,189.529111 L264.486417,189.529111 Z M150.618532,250.049552 L167.298625,250.049552 L167.298625,287.484438 L150.618532,287.484438 L150.618532,250.049552 Z M78.4592932,172.169555 C86.7749387,172.169555 93.5453365,178.307112 93.5453365,185.860057 C93.5453365,187.801749 93.0851699,189.694071 92.1977778,191.487485 C91.4089569,193.050687 91.6883467,194.926581 92.8715782,196.226504 C95.7146152,199.303582 97.2759338,203.220034 97.2759338,207.218503 C97.2759338,209.686753 96.6843391,212.088951 95.5339647,214.376318 C94.7451437,215.923092 94.9916345,217.798943 96.1584584,219.098909 C99.5438256,222.883554 101.335228,227.458119 101.335228,232.344996 C101.335228,243.879981 91.0805549,253.259027 78.4758269,253.259027 C71.6721934,253.259027 65.2959957,250.494599 60.9905057,245.772218 C72.0011843,239.173818 79.3306984,227.638833 79.3306984,214.507747 C79.3306984,206.707952 76.6848457,199.089294 71.8371096,192.803879 C73.2832814,189.200244 74.0063462,185.448499 74.0063462,181.597888 C74.0063462,178.767619 73.5133226,176.019746 72.7409512,173.321242 C74.5650839,172.630146 76.4714223,172.169387 78.4600084,172.169387 L78.4592932,172.169555 Z M8.42040512,214.509011 C8.42040512,208.865154 10.2116808,203.385584 13.5971742,198.69585 C14.2052184,197.856643 14.8625693,197.050378 15.5527771,196.27697 C16.719559,194.977046 16.9660918,193.101153 16.1772709,191.554379 C14.5667719,188.378561 13.7615014,185.021693 13.7615014,181.599067 C13.7615014,176.020925 15.930738,170.59064 19.8583513,166.312464 C21.0415827,165.028969 21.304523,163.136647 20.5321516,161.573444 C19.2667566,159.039396 18.6258553,156.357153 18.6258553,153.625792 C18.6258553,153.313152 18.6422922,152.984066 18.6587249,152.671417 C19.2010551,142.419969 28.4367393,134.373325 39.6939508,134.373325 C51.3125475,134.373325 60.7455842,143.012242 60.7455842,153.609111 C60.7455842,156.34064 60.1046829,159.022967 58.8392879,161.556763 C58.0504669,163.119965 58.3298568,164.995859 59.5130882,166.295783 C63.4571931,170.573959 65.6099381,176.004244 65.6099381,181.582386 C65.6099381,185.021482 64.7882601,188.378351 63.1941686,191.537697 C62.4053476,193.084471 62.6518384,194.960323 63.8186624,196.260288 C68.4203284,201.377587 70.9344586,207.860987 70.9344586,214.492245 C70.9344586,230.321835 56.9165841,243.189642 39.6937825,243.189642 C22.4217586,243.206096 8.42029153,230.338263 8.42029153,214.508674 L8.42040512,214.509011 Z M43.7528533,251.433767 C46.9903008,251.121127 50.1126435,250.397123 53.070617,249.393335 C58.0992981,255.975307 65.7245674,260.269912 74.1550653,261.372734 L74.1057629,287.486629 L43.6703153,287.486629 L43.7528533,251.433767 Z" id="Shape"></path>
                                <path d="M187.475175,126.445131 L214.682932,126.445131 C216.992549,126.445131 218.876289,124.562906 218.876289,122.255147 L218.876289,103.825922 C218.876289,94.0221975 210.899266,86.0348313 201.070876,86.0348313 C191.25926,86.0348313 183.265464,94.0054376 183.265464,103.825922 L183.265464,122.255147 C183.281843,124.562906 185.149204,126.445131 187.475175,126.445131 L187.475175,126.445131 Z M191.668532,103.809581 C191.668532,98.6211238 195.894597,94.3984581 201.08723,94.3984581 C206.279864,94.3984581 210.505929,98.6211238 210.505929,103.809581 L210.505929,118.048822 L191.684886,118.048822 L191.668532,103.809581 Z" id="Shape"></path>
                                <path d="M250.011257,126.445131 L277.219014,126.445131 C279.528631,126.445131 281.412371,124.562906 281.412371,122.255147 L281.412371,103.825922 C281.412371,94.0221975 273.435348,86.0348313 263.606959,86.0348313 C253.795342,86.0348313 245.801546,94.0054376 245.801546,103.825922 L245.801546,122.255147 C245.81793,124.562906 247.70164,126.445131 250.011257,126.445131 Z M254.204614,103.809581 C254.204614,98.6211238 258.430679,94.3984581 263.623313,94.3984581 C268.815947,94.3984581 273.042012,98.6211238 273.042012,103.809581 L273.042012,118.048822 L254.220968,118.048822 L254.204614,103.809581 Z" id="Shape"></path>
                            </g>
                            <g id="Group-2" transform="translate(881.000000, 0.000000)">
                                <path d="M92.4930362,135.532948 C115.704891,135.532948 134.593315,116.602377 134.593315,93.3387283 C134.593315,70.0750792 115.704891,51.1445087 92.4930362,51.1445087 C69.2811813,51.1445087 50.3927577,70.0750792 50.3927577,93.3387283 C50.3927577,116.602377 69.2811813,135.532948 92.4930362,135.532948 L92.4930362,135.532948 Z M92.4930362,63.5401375 C108.893261,63.5401375 122.22652,76.9025286 122.22652,93.3399678 C122.22652,109.777407 108.893879,123.139798 92.4930362,123.139798 C76.0928117,123.139798 62.7595522,109.777407 62.7595522,93.3399678 C62.7595522,76.9025286 76.0921933,63.5401375 92.4930362,63.5401375 L92.4930362,63.5401375 Z" id="Shape"></path>
                                <path d="M86.7520891,6.2150289 L86.7520891,24.4716763 C86.7520891,27.8947899 89.4743123,30.6867052 92.8119777,30.6867052 C96.1496431,30.6867052 98.8718663,27.8947899 98.8718663,24.4716763 L98.8718663,6.2150289 C98.8718663,2.79191528 96.1496431,0 92.8119777,0 C89.4743123,0 86.7520891,2.79191528 86.7520891,6.2150289 Z" id="Shape"></path>
                                <path d="M122.49379,11.4070755 L115.341116,28.2525487 C113.985382,31.4156887 115.36449,35.1430227 118.379851,36.5403257 C119.174586,36.9081315 119.992718,37.0797688 120.81085,37.0797688 C123.101585,37.0797688 125.298849,35.6820892 126.280584,33.3526859 L133.433258,16.5072127 C134.788993,13.3440727 133.409878,9.61673871 130.394523,8.21943571 C127.379127,6.79727502 123.825888,8.24395442 122.49385,11.4070567 L122.49379,11.4070755 Z" id="Shape"></path>
                                <path d="M152.871615,30.3698352 L139.217765,42.736208 C136.653072,45.0718336 136.433283,49.0547145 138.753681,51.6119505 C139.974936,52.9887543 141.684731,53.7017341 143.394526,53.7017341 C144.884469,53.7017341 146.374412,53.1608438 147.571282,52.0790882 L161.225132,39.7127154 C163.789825,37.3770898 164.009614,33.3942089 161.689216,30.8369729 C159.393211,28.2800516 155.436308,28.0587559 152.871365,30.3698415 L152.871615,30.3698352 Z" id="Shape"></path>
                                <path d="M151.473485,73.7407731 C152.311134,76.3368185 154.704365,77.9953757 157.289119,77.9953757 C157.911351,77.9953757 158.55754,77.899227 159.179772,77.682894 L176.291786,72.10627 C179.498772,71.0486037 181.269771,67.5872509 180.216705,64.3423787 C179.163639,61.1213823 175.717342,59.3426469 172.486584,60.4003132 L155.37457,65.9769372 C152.19154,67.0346036 150.444436,70.5199551 151.473546,73.7408285 L151.473485,73.7407731 Z" id="Shape"></path>
                                <path d="M178.140053,107.403468 C181.274956,107.403468 183.972388,105.068516 184.312623,101.947276 C184.677145,98.5877899 182.198425,95.5854906 178.771936,95.2518475 L160.594336,93.3696007 C157.11926,93.0360309 154.105669,95.4424571 153.765372,98.8019435 C153.400849,102.16143 155.87957,105.163729 159.306059,105.497372 L177.483658,107.379619 C177.702369,107.403444 177.92108,107.403444 178.139804,107.403444 L178.140053,107.403468 Z" id="Shape"></path>
                                <path d="M167.319089,141.926012 C169.465012,141.926012 171.538533,140.83379 172.6718,138.88683 C174.383675,135.966358 173.371018,132.262628 170.405327,130.57649 L154.708716,121.648589 C151.743026,119.962815 147.98195,120.960032 146.269705,123.880503 C144.55783,126.777209 145.570486,130.504705 148.536177,132.190843 L164.232788,141.118744 C165.221372,141.664849 166.282236,141.926012 167.319027,141.926012 L167.319089,141.926012 Z" id="Shape"></path>
                                <path d="M128.916093,143.128174 C126.093617,145.165458 125.449844,149.092737 127.504823,151.915225 L138.448404,166.838885 C139.686323,168.532516 141.617517,169.416185 143.57343,169.416185 C144.86085,169.416185 146.173117,169.023457 147.28725,168.213432 C150.109725,166.176149 150.753499,162.24887 148.698519,159.426381 L137.754939,144.502722 C135.724742,141.704551 131.76335,141.090891 128.916283,143.128174 L128.916093,143.128174 Z" id="Shape"></path>
                                <path d="M104.984888,153.573684 C101.693616,154.271993 99.5709518,157.546855 100.286464,160.893964 L104.00708,178.592704 C104.627162,181.482288 107.155237,183.480925 109.969541,183.480925 C110.398837,183.480925 110.828108,183.432762 111.257452,183.336443 C114.548723,182.638134 116.671388,179.363272 115.955876,176.016163 L112.23526,158.317423 C111.54362,154.994416 108.27616,152.851285 104.984888,153.573697 L104.984888,153.573684 Z" id="Shape"></path>
                                <path d="M72.7471756,158.311476 L69.0232704,176.014399 C68.3310193,179.338191 70.4316665,182.613765 73.725848,183.336408 C74.1555289,183.432751 74.5851732,183.480925 75.0148969,183.480925 C77.8316891,183.480925 80.3858928,181.505925 80.9826294,178.591549 L84.7065346,160.888626 C85.3987857,157.564835 83.2981385,154.289261 80.003957,153.566617 C76.6858815,152.868144 73.4395489,154.987673 72.7471756,158.311464 L72.7471756,158.311476 Z" id="Shape"></path>
                                <path d="M42.0717141,169.416185 C44.02443,169.416185 45.9524673,168.507728 47.1883627,166.838085 L58.1140549,151.909796 C60.1656754,149.110758 59.547696,145.182323 56.7050924,143.12002 C53.8872307,141.082104 49.9323782,141.720469 47.8562056,144.51957 L36.9305134,159.447859 C34.8788929,162.246898 35.4968722,166.175332 38.3394759,168.237636 C39.47653,169.023335 40.7865879,169.416185 42.0719039,169.416185 L42.0717141,169.416185 Z" id="Shape"></path>
                                <path d="M38.0780707,123.880503 C36.3652169,120.960032 32.6016818,119.962815 29.634234,121.648589 L13.9286485,130.57649 C10.9854106,132.262264 9.97217491,135.966297 11.6608805,138.88683 C12.8188818,140.83379 14.8695013,141.926012 17.0166519,141.926012 C18.0540358,141.926012 19.1155061,141.66483 20.1046554,141.118744 L35.810241,132.190843 C38.777627,130.505069 39.7908627,126.801036 38.0780089,123.880503 L38.0780707,123.880503 Z" id="Shape"></path>
                                <path d="M6.20842986,107.403444 C6.42714042,107.403444 6.64585097,107.379619 6.86457396,107.379619 L25.0421358,105.497373 C28.4686177,105.139984 30.9473705,102.137887 30.5828114,98.8019448 C30.2182897,95.4424588 27.1563295,93.0360207 23.7538612,93.3696027 L5.57629938,95.2518493 C2.14981747,95.6092437 -0.328935304,98.6113352 0.0355615462,101.947277 C0.351483701,105.068516 3.04895947,107.403468 6.20811881,107.403468 L6.20842986,107.403444 Z" id="Shape"></path>
                                <path d="M8.06757049,72.1062864 L25.1658683,77.6828949 C25.7876023,77.8751917 26.4332727,77.9953757 27.0550068,77.9953757 C29.6376884,77.9953757 32.0290014,76.3368231 32.8659793,73.7407849 C33.918201,70.5197974 32.1485609,67.0347017 28.9442064,65.9769152 L11.8459086,60.4003067 C8.61761778,59.3426433 5.17432792,61.1214352 4.1219837,64.3423612 C3.09369832,67.5873474 4.83940207,71.0484445 8.06769293,72.106231 L8.06757049,72.1062864 Z" id="Shape"></path>
                                <path d="M36.7770059,52.0802811 C37.9738643,53.1612917 39.4637938,53.7017341 40.9537233,53.7017341 C42.6635031,53.7017341 44.3732829,52.9892784 45.5945274,51.6134868 C47.9148982,49.0338539 47.6951105,45.0537122 45.1304533,42.7442691 L31.4767261,30.3869871 C28.9120564,28.0530784 24.9550016,28.2741485 22.6589545,30.8537751 C20.3385837,33.4334081 20.5583714,37.4135497 23.1230286,39.7229929 L36.7770059,52.0802811 Z" id="Shape"></path>
                                <path d="M58.7034767,33.3513567 C59.6862393,35.6815907 61.885804,37.0797688 64.1789366,37.0797688 C64.9979254,37.0797688 65.8169141,36.9080703 66.612481,36.5401333 C69.6310345,35.1174655 70.9881885,31.4135431 69.6543965,28.2494006 L62.494235,11.3979198 C61.137081,8.2336517 57.6037243,6.81098383 54.5852906,8.20916192 C51.5667371,9.6318298 50.2095831,13.3357521 51.5433751,16.4998946 L58.7034767,33.3513567 Z" id="Shape"></path>
                            </g>
                        </g>
                        <g id="Group-17" transform="translate(1665.000000, 324.000000)" fill="#CBCBCB">
                            <path d="M54.2239583,117.936047 C50.3374271,117.936047 47.1538333,114.752907 47.1538333,110.86693 L47.1538333,40.1350233 C47.1538333,36.2490465 50.3374271,33.065907 54.2239583,33.065907 C58.1104896,33.065907 61.2940833,36.2490465 61.2940833,40.1350233 L61.2940833,110.86693 C61.2940833,114.752907 58.1104896,117.936047 54.2239583,117.936047 Z" id="Fill-13"></path>
                            <path d="M7.12035417,94.3010233 C5.30304,94.3010233 3.4990375,93.61136 2.10606667,92.2319995 C-0.653047917,89.4732786 -0.653047917,84.9771577 2.10606667,82.2316786 L82.1594417,2.20330651 C84.9052785,-0.555414419 89.402075,-0.555414419 92.1611896,2.20330651 C94.9070265,4.94875163 94.9070265,9.44490651 92.1611896,12.1903856 L12.1078146,92.2323391 C10.741535,93.5984237 8.92422083,94.3013628 7.10677083,94.3013628 L7.12035417,94.3010233 Z" id="Fill-14"></path>
                            <path d="M139.119792,117.936047 C135.23326,117.936047 132.049667,114.752907 132.049667,110.86693 L132.049667,40.1350233 C132.049667,36.2490465 135.23326,33.065907 139.119792,33.065907 C143.006323,33.065907 146.189917,36.2490465 146.189917,40.1350233 L146.189917,110.86693 C146.189917,114.752907 143.006323,117.936047 139.119792,117.936047 Z" id="Fill-15"></path>
                            <path d="M92.0161875,94.3010233 C90.1988733,94.3010233 88.3948708,93.61136 87.0019,92.2319995 C84.2560631,89.4732786 84.2560631,84.9771577 87.0019,82.2316786 L167.055275,2.20330651 C169.801112,-0.555414419 174.297908,-0.555414419 177.057023,2.20330651 C179.80286,4.94875163 179.80286,9.44490651 177.057023,12.1903856 L97.0036479,92.2323391 C95.6373683,93.5984237 93.8200542,94.3013628 92.0026042,94.3013628 L92.0161875,94.3010233 Z" id="Fill-16"></path>
                        </g>
                        <g id="Group-16" transform="translate(117.000000, 0.000000)" fill="#CBCBCB">
                            <path d="M216.0625,444 L257.0625,444 L257.0625,262.496467 C245.64871,246.361878 232.130029,225.870273 216.0625,200 L216.0625,444 Z" id="Fill-1"></path>
                            <path d="M274.515252,117.993684 C309.205516,53.6790622 329.783184,4.41266271 322.657518,0.278998514 C315.505089,-3.86056089 282.850831,38.4673183 244.0625,100.427365 C256.30459,102.346396 267.060698,108.761366 274.515957,118 L274.515252,117.993684 Z" id="Fill-2"></path>
                            <path d="M260.0625,148.5 C260.0625,179.833333 213.0625,179.833333 213.0625,148.5 C213.0625,117.166667 260.0625,117.166667 260.0625,148.5" id="Fill-3"></path>
                            <path d="M245.066283,196.769621 C282.143849,255.852385 313.611795,297 322.555804,297 C322.993617,297 323.349332,296.917588 323.677728,296.72534 C330.764705,292.550247 310.050864,243.272889 275.244325,179 C267.883451,188.284002 257.239325,194.793984 245.0625,196.771309 L245.066283,196.769621 Z" id="Fill-4"></path>
                            <path d="M191.041431,131 C118.01607,133.355254 65.0625,140.283883 65.0625,148.5 C65.0625,156.716117 118.037139,163.672369 191.0625,166 C188.950116,160.550118 187.742999,154.661913 187.742999,148.472657 C187.71561,142.338087 188.922656,136.450302 191.03504,131 L191.041431,131 Z" id="Fill-5"></path>
                            <g id="Group" transform="translate(0.000000, 118.000000)">
                                <path d="M50,325 L80,325 L80,147 C68.2377669,165.87395 58.3579728,180.819226 50,192.577818 L50,325 Z" id="Fill-11"></path>
                                <path d="M60,74.0528915 C31.4078261,28.336595 7.30322331,-2.85943462 2.03900632,0.207729722 C-3.22513973,3.24443444 11.9574663,39.574148 37.5302622,87 C43.0437174,80.2088458 50.9674207,75.4606776 60,74.0528915 Z" id="Fill-12"></path>
                                <path d="M82,110.010218 C82,132.663261 48,132.663261 48,110.010218 C48,87.3299272 82,87.3299272 82,110.010218" id="Fill-13"></path>
                                <path d="M36.7626081,132 C11.0813158,179.398078 -4.21205389,215.734033 1.02352683,218.806452 C1.27152913,218.944711 1.54707784,219 1.85020118,219 C8.43587323,219 31.6652179,188.663757 59,145.084965 C50.0447727,143.646945 42.1914016,138.835282 36.763243,132.004531 L36.7626081,132 Z" id="Fill-14"></path>
                                <path d="M98,97 C99.5481128,101.023568 100.46042,105.407858 100.46042,109.986148 C100.46042,114.564438 99.5757842,118.948799 98,123 C151.907587,121.251867 191,116.090582 191,110.013852 C190.972329,103.909134 151.910418,98.7482036 98,97 Z" id="Fill-15"></path>
                            </g>
                        </g>
                        <g id="np_solar-power_1441830_000B2C" transform="translate(1001.000000, 73.000000)" fill="#CBCBCB" fill-rule="nonzero">
                            <path d="M135.742045,266.120865 L155.107828,266.120865 C157.679009,266.120865 159.776081,264.00932 159.776081,261.379123 L159.776081,239.448565 C159.776081,231.40989 153.339027,224.871501 145.424936,224.871501 C137.510846,224.871501 131.073791,231.40989 131.073791,239.448565 L131.073791,261.379123 C131.073791,264.00932 133.170864,266.120865 135.742045,266.120865 L135.742045,266.120865 Z M140.410298,239.448565 C140.410298,236.633156 142.653254,234.354986 145.424936,234.354986 C148.196619,234.354986 150.439574,236.633251 150.439574,239.448565 L150.439574,256.637381 L140.410298,256.637381 L140.410298,239.448565 Z" id="Shape"></path>
                            <path d="M135.742045,210.482188 L155.107828,210.482188 C157.679009,210.482188 159.776081,208.370643 159.776081,205.740446 L159.776081,183.809888 C159.776081,175.771213 153.339027,169.232824 145.424936,169.232824 C137.510846,169.232824 131.073791,175.771213 131.073791,183.809888 L131.073791,205.740446 C131.073791,208.352103 133.170864,210.482188 135.742045,210.482188 L135.742045,210.482188 Z M140.410298,183.809888 C140.410298,180.994479 142.653254,178.716309 145.424936,178.716309 C148.196619,178.716309 150.439574,180.994574 150.439574,183.809888 L150.439574,200.998704 L140.410298,200.998704 L140.410298,183.809888 Z" id="Shape"></path>
                            <path d="M135.742045,153.884224 L155.107828,153.884224 C157.679009,153.884224 159.776081,151.772679 159.776081,149.142482 L159.776081,127.211924 C159.776081,119.173248 153.339027,112.63486 145.424936,112.63486 C137.510846,112.63486 131.073791,119.173248 131.073791,127.211924 L131.073791,149.142482 C131.073791,151.772679 133.170864,153.884224 135.742045,153.884224 L135.742045,153.884224 Z M140.410298,127.211924 C140.410298,124.396515 142.653254,122.118344 145.424936,122.118344 C148.196619,122.118344 150.439574,124.396609 150.439574,127.211924 L150.439574,144.400739 L140.410298,144.400739 L140.410298,127.211924 Z" id="Shape"></path>
                            <path d="M86.4879864,266.120865 L105.835563,266.120865 C108.406744,266.120865 110.503817,264.00932 110.503817,261.379123 L110.503817,239.448565 C110.503817,231.40989 104.066762,224.871501 96.1526718,224.871501 C88.2385815,224.871501 81.8015267,231.40989 81.8015267,239.448565 L81.8015267,261.379123 C81.8197609,264.00932 83.9168058,266.120865 86.4879864,266.120865 Z M91.15624,239.448565 C91.15624,236.633156 93.3991958,234.354986 96.1708779,234.354986 C98.9425601,234.354986 101.185516,236.633251 101.185516,239.448565 L101.185516,256.637381 L91.1744462,256.637381 L91.15624,239.448565 Z" id="Shape"></path>
                            <path d="M86.4879864,210.482188 L105.835563,210.482188 C108.406744,210.482188 110.503817,208.370643 110.503817,205.740446 L110.503817,183.809888 C110.503817,175.771213 104.066762,169.232824 96.1526718,169.232824 C88.2385815,169.232824 81.8015267,175.771213 81.8015267,183.809888 L81.8015267,205.740446 C81.8197609,208.352103 83.9168058,210.482188 86.4879864,210.482188 Z M91.15624,183.809888 C91.15624,180.994479 93.3991958,178.716309 96.1708779,178.716309 C98.9425601,178.716309 101.185516,180.994574 101.185516,183.809888 L101.185516,200.998704 L91.1744462,200.998704 L91.15624,183.809888 Z" id="Shape"></path>
                            <path d="M86.4879864,153.884224 L105.835563,153.884224 C108.406744,153.884224 110.503817,151.772679 110.503817,149.142482 L110.503817,127.211924 C110.503817,119.173248 104.066762,112.63486 96.1526718,112.63486 C88.2385815,112.63486 81.8015267,119.173248 81.8015267,127.211924 L81.8015267,149.142482 C81.8197609,151.772679 83.9168058,153.884224 86.4879864,153.884224 Z M91.15624,127.211924 C91.15624,124.396515 93.3991958,122.118344 96.1708779,122.118344 C98.9425601,122.118344 101.185516,124.396609 101.185516,127.211924 L101.185516,144.400739 L91.1744462,144.400739 L91.15624,127.211924 Z" id="Shape"></path>
                            <path d="M47.8371501,224.871501 C39.9230599,224.871501 33.4860051,231.40989 33.4860051,239.448565 L33.4860051,261.379123 C33.4860051,264.00932 35.5830779,266.120865 38.1542586,266.120865 L57.5200416,266.120865 C60.0912223,266.120865 62.1882952,264.00932 62.1882952,261.379123 L62.1882952,239.448565 C62.1882952,231.40989 55.7512404,224.871501 47.8371501,224.871501 L47.8371501,224.871501 Z M52.8517881,256.637381 L42.8225122,256.637381 L42.8225122,239.448565 C42.8225122,236.633156 45.065468,234.354986 47.8371501,234.354986 C50.6088323,234.354986 52.8517881,236.633251 52.8517881,239.448565 L52.8517881,256.637381 Z" id="Shape"></path>
                            <path d="M47.8371501,169.232824 C39.9230599,169.232824 33.4860051,175.771213 33.4860051,183.809888 L33.4860051,205.740446 C33.4860051,208.370643 35.5830779,210.482188 38.1542586,210.482188 L57.5200416,210.482188 C60.0912223,210.482188 62.1882952,208.370643 62.1882952,205.740446 L62.1882952,183.809888 C62.1882952,175.771213 55.7512404,169.232824 47.8371501,169.232824 L47.8371501,169.232824 Z M52.8517881,200.998704 L42.8225122,200.998704 L42.8225122,183.809888 C42.8225122,180.994479 45.065468,178.716309 47.8371501,178.716309 C50.6088323,178.716309 52.8517881,180.994574 52.8517881,183.809888 L52.8517881,200.998704 Z" id="Shape"></path>
                            <path d="M47.8371501,112.63486 C39.9230599,112.63486 33.4860051,119.173248 33.4860051,127.211924 L33.4860051,149.142482 C33.4860051,151.772679 35.5830779,153.884224 38.1542586,153.884224 L57.5200416,153.884224 C60.0912223,153.884224 62.1882952,151.772679 62.1882952,149.142482 L62.1882952,127.211924 C62.1882952,119.173248 55.7512404,112.63486 47.8371501,112.63486 L47.8371501,112.63486 Z M52.8517881,144.382247 L42.8225122,144.382247 L42.8225122,127.193431 C42.8225122,124.378022 45.065468,122.099852 47.8371501,122.099852 C50.6088323,122.099852 52.8517881,124.378117 52.8517881,127.193431 L52.8517881,144.382247 Z" id="Shape"></path>
                            <path d="M4.7,367.574963 C2.111334,367.574963 0,369.673494 0,372.287481 C0,374.901468 2.111334,377 4.7,377 L371.3,377 C373.888666,377 376,374.901468 376,372.287481 C376,369.673494 373.888666,367.574963 371.3,367.574963 L343.00835,367.574963 L343.063429,344.398796 C357.347199,342.300264 368.325929,330.684424 368.325929,316.657612 C368.325929,311.043117 366.526722,305.575653 363.222199,300.9555 C364.103449,298.4704 364.544074,295.893312 364.544074,293.260899 C364.544074,288.364121 362.983533,283.596466 360.119447,279.565378 C360.762031,277.558881 361.092488,275.497155 361.092488,273.380197 C361.092488,261.580521 350.939548,251.989603 338.455408,251.989603 C335.628076,251.989603 332.837498,252.486633 330.212078,253.462265 C329.844896,252.891627 329.51441,252.26571 329.110539,251.713497 C330.065203,249.0259 330.560912,246.227654 330.560912,243.356316 C330.560912,228.703211 317.911332,216.793262 302.360912,216.793262 C287.324672,216.793262 274.950512,227.875221 274.197572,242.012777 C274.179214,242.454576 274.160851,242.896374 274.160851,243.356599 C274.160851,246.209888 274.638183,249.007851 275.611224,251.71378 C271.73739,256.886711 269.644574,263.053042 269.644574,269.404104 C269.644574,272.938493 270.287158,276.399366 271.553949,279.712738 C271.425432,279.896819 271.278557,280.080904 271.150041,280.264998 C266.927373,286.118889 264.705871,292.948271 264.705871,300.035428 C264.705871,318.001905 279.062961,332.857178 297.569211,335.084785 L297.477415,367.575245 L228.537815,367.575245 L228.592894,346.184652 C242.050404,344.104499 252.349984,333.096574 252.349984,319.860994 C252.349984,314.577789 250.679275,309.404857 247.594994,305.042479 C248.402783,302.723024 248.806701,300.311581 248.806701,297.845049 C248.806701,293.224566 247.356328,288.732923 244.675824,284.92238 C245.263324,283.06315 245.557074,281.111885 245.557074,279.142005 C245.557074,267.894637 235.881654,258.745753 223.985014,258.745753 C212.492104,258.745753 203.018784,267.250435 202.449614,278.092998 C202.431251,278.442757 202.412893,278.774099 202.412893,279.142288 C202.412893,281.111979 202.706643,283.044819 203.294143,284.922663 C200.613686,288.751585 199.163266,293.243086 199.163266,297.845332 C199.163266,300.293627 199.567175,302.704881 200.374973,305.024383 C197.253891,309.423943 195.619983,314.541314 195.619983,319.842898 C195.619983,333.04172 205.846243,343.994556 219.211633,346.148177 L219.138196,367.575528 L183.245706,367.575528 L183.245706,93.4954421 L187.266415,93.4954421 C189.855081,93.4954421 191.966415,91.3969104 191.966415,88.7829234 L191.966415,64.0238216 C191.966415,61.4098346 189.855081,59.3113029 187.266415,59.3113029 L151.245145,59.3113029 L151.245145,49.5549755 L182.749715,49.5549755 C184.07159,49.5549755 185.338381,49.0027154 186.219631,48.0270827 C187.119258,47.05145 187.541506,45.7444329 187.431338,44.4190841 L183.741086,4.30753896 C183.520773,1.85924413 181.482877,1.4137556e-05 179.059463,1.4137556e-05 L113.076163,1.4137556e-05 C110.652749,1.4137556e-05 108.614829,1.85924413 108.39454,4.27073419 L104.685958,44.4006582 C104.557441,45.7076281 104.998066,47.033024 105.897665,48.0086567 C106.797263,48.9842895 108.045706,49.5365496 109.367581,49.5365496 L141.845521,49.5365496 L141.845521,59.292877 L51.0791206,59.3112888 L51.0791206,49.5549614 L82.5836906,49.5549614 C83.9055656,49.5549614 85.1723566,49.0027013 86.0536066,48.0270686 C86.9532336,47.0514358 87.3754816,45.7444188 87.2653136,44.41907 L83.5750616,4.30752482 C83.3547491,1.85922999 81.3168526,0 78.8934386,0 L12.9101386,0 C10.4867246,0 8.4488046,1.85922999 8.2285156,4.27072005 L4.5382636,44.3822652 C4.4097468,45.6892352 4.8503718,47.014631 5.7499706,47.9902638 C6.6495976,48.9658965 7.8980116,49.5181566 9.2198866,49.5181566 L41.6978266,49.5181566 L41.6978266,59.274484 L4.7219866,59.274484 C2.1333206,59.274484 0.0219866,61.3730157 0.0219866,63.9870027 L0.0219866,88.7461045 C0.0219866,91.3600915 2.1333206,93.4586232 4.7219866,93.4586232 L7.8247386,93.4586232 L7.8063804,367.576409 L4.7,367.574963 Z M204.9999,317.841861 C204.9999,314.454738 206.064732,311.196267 208.102652,308.380066 C208.46984,307.883037 208.855404,307.386007 209.259275,306.92583 C210.562773,305.471594 210.838193,303.373015 209.956943,301.642625 C209.020609,299.783395 208.543277,297.83213 208.543277,295.843871 C208.543277,292.548784 209.773361,289.456052 212.123361,286.916004 C213.445236,285.480147 213.738986,283.363189 212.876113,281.614421 C212.160115,280.178564 211.792904,278.669097 211.792904,277.141204 L211.811262,276.60737 C212.12337,270.753479 217.465832,266.170083 223.964992,266.170083 C230.684582,266.170083 236.137052,271.08524 236.137052,277.141298 C236.137052,278.669191 235.76986,280.178658 235.053843,281.614515 C234.19097,283.363284 234.48472,285.461862 235.806595,286.916099 C238.138218,289.456429 239.386679,292.548972 239.386679,295.843965 C239.386679,297.850461 238.909347,299.801727 237.973013,301.642719 C237.091763,303.373109 237.367136,305.471641 238.670681,306.925924 C241.461306,310.03694 242.930056,313.828821 242.930056,317.842002 C242.930056,327.377313 234.411306,335.127521 223.964616,335.127521 C213.499596,335.145933 204.999176,327.377784 204.999176,317.842002 L204.9999,317.841861 Z M152.7688,27.4328978 L152.7688,38.1095801 L139.34795,38.1095801 L139.34795,27.4328978 L152.7688,27.4328978 Z M139.34795,18.0078604 L139.34795,7.42307223 L152.7688,7.42307223 L152.7688,18.0078604 L139.34795,18.0078604 Z M162.1688,38.1095801 L162.1688,27.4328978 L176.61754,27.4328978 L177.608958,38.1095801 L162.1688,38.1095801 Z M175.75462,18.0078604 L162.1688,18.0078604 L162.1688,7.42307223 L174.76339,7.42307223 L175.75462,18.0078604 Z M129.94795,7.42307223 L129.94795,18.0078604 L116.38046,18.0078604 L117.353501,7.42307223 L129.94795,7.42307223 Z M115.51754,27.4328978 L129.96628,27.4328978 L129.96628,38.1095801 L114.54464,38.1095801 L115.51754,27.4328978 Z M52.59864,27.4328978 L52.59864,38.1095801 L39.17779,38.1095801 L39.17779,27.4328978 L52.59864,27.4328978 Z M39.17779,18.0078604 L39.17779,7.42307223 L52.59864,7.42307223 L52.59864,18.0078604 L39.17779,18.0078604 Z M61.99864,38.1095801 L61.99864,27.4328978 L76.44738,27.4328978 L77.438798,38.1095801 L61.99864,38.1095801 Z M75.58446,18.0078604 L61.99864,18.0078604 L61.99864,7.42307223 L74.59323,7.42307223 L75.58446,18.0078604 Z M29.77779,7.42307223 L29.77779,18.0078604 L16.2103,18.0078604 L17.183341,7.42307223 L29.77779,7.42307223 Z M15.34738,27.4328978 L29.79612,27.4328978 L29.79612,38.1095801 L14.35568,38.1095801 L15.34738,27.4328978 Z M112.22848,365.574963 L80.92554,365.574963 L80.92554,308.105797 C80.92554,299.454084 87.93888,292.422064 96.56761,292.422064 C105.19634,292.422064 112.20968,299.454084 112.20968,308.105797 L112.22848,365.574963 Z M338.45358,259.397204 C345.76067,259.397204 351.69066,264.772303 351.69066,271.362761 C351.69066,273.03792 351.286756,274.676274 350.51566,276.259539 C349.652787,278.008307 349.946537,280.106886 351.268412,281.561122 C353.765287,284.285524 355.142246,287.727924 355.142246,291.262313 C355.142246,293.434502 354.62816,295.551459 353.600082,297.576146 C352.718832,299.306535 352.994205,301.405067 354.29775,302.85935 C357.327041,306.228047 358.905959,310.314555 358.905959,314.677405 C358.905959,324.986039 349.726389,333.361599 338.435109,333.361599 C332.670089,333.361599 327.290939,331.152606 323.435529,327.342299 C333.423029,320.972858 340.013839,310.222661 340.013839,298.054938 C340.013839,290.765142 337.590425,283.641228 333.147609,277.713822 C334.4144,274.400356 335.056984,270.939576 335.056984,267.405187 C335.056984,264.956893 334.65308,262.545638 334.047236,260.189379 C335.479279,259.710775 336.948029,259.397817 338.453486,259.397817 L338.45358,259.397204 Z M274.08708,298.054466 C274.08708,292.955521 275.702705,288.021985 278.750373,283.788259 C279.301166,283.033502 279.888666,282.315596 280.512873,281.597691 C281.798041,280.143455 282.091791,278.044876 281.210541,276.314487 C279.778498,273.461198 279.044123,270.460596 279.044123,267.38662 C279.044123,262.397948 280.990205,257.519548 284.515393,253.691098 C285.837268,252.255241 286.131018,250.138283 285.268145,248.407894 C284.148229,246.14367 283.579106,243.78741 283.579106,241.357494 L283.597464,240.510702 C284.074796,231.361818 292.318314,224.201146 302.360804,224.201146 C312.733704,224.201146 321.160804,231.895747 321.160804,241.339163 C321.160804,243.769032 320.591681,246.143576 319.471718,248.389562 C318.590468,250.13833 318.902595,252.255288 320.22447,253.691145 C323.74947,257.538493 325.69574,262.398466 325.69574,267.386667 C325.69574,270.460832 324.961365,273.461575 323.529322,276.314534 C322.648072,278.044924 322.923445,280.143455 324.22699,281.597739 C328.431281,286.291831 330.65283,291.979888 330.65283,298.036417 C330.65283,312.339854 317.96659,323.992028 302.37951,323.992028 C286.7741,323.992028 274.08786,312.357762 274.08786,298.054796 L274.08708,298.054466 Z M306.95042,333.122203 C309.59417,332.82767 312.12794,332.257032 314.56959,331.46547 C319.232883,337.31936 326.08083,341.18504 333.66334,342.34479 L333.608261,365.576094 L306.877011,365.576094 L306.95042,333.122203 Z M9.39812,66.7376598 L182.56492,66.7376598 L182.56492,82.0717243 L9.39812,82.0717243 L9.39812,66.7376598 Z M17.2005618,91.4967616 L173.84266,91.4967616 L173.84266,365.576848 L121.63036,365.576848 L121.63036,308.107682 C121.63036,294.264659 110.39454,282.998912 96.58829,282.998912 C82.78204,282.998912 71.54622,294.264659 71.54622,308.107682 L71.5278618,365.576848 L17.2005618,365.576848 L17.2005618,91.4967616 Z" id="Shape"></path>
                        </g>
                        <path d="M1,450 L1921,443" id="Line" stroke="#CBCBCB" stroke-width="14.025" stroke-linecap="square"></path>
                    </g>
                </g>
            </g>
        </g>
    </g>
</svg>