<?xml version="1.0" encoding="UTF-8"?>
<svg width="500px" height="317px" viewBox="0 0 500 317" version="1.1" xmlns="http://www.w3.org/2000/svg" xmlns:xlink="http://www.w3.org/1999/xlink">
    <!-- Generator: Sketch 55 (78076) - https://sketchapp.com -->
    <title>minicar</title>
    <desc>Created with Sketch.</desc>
    <g id="Icons" stroke="none" stroke-width="1" fill="none" fill-rule="evenodd">
        <g id="icon/minicar" transform="translate(0.000000, -91.000000)">
            <g id="minicar" transform="translate(0.000000, 91.000000)">
                <path d="M384.951284,69.9553377 C334.437557,35.5108582 309.210038,26.3927445 328.785422,13.2078583 C348.360807,0.0229722019 311.942043,0.588749043 299.286295,0.588749043 L117.887244,0.588749043 C105.231497,0.588749043 78.7066629,0.588749043 60.1516493,0.0229722019 C41.5966357,-0.542804639 12.1688846,9.2881831 4.88209403,35.5108582 C-2.4046966,61.7335333 0.62414821,126.815858 0.62414821,144.539556 L0.62414821,245.70816 C0.62414821,263.431858 11.5992126,277 25.9356436,277 L44.4906572,277 C44.4906572,234.217797 71.652766,198.770401 117.887244,198.770401 C164.121723,198.770401 183.450353,234.217797 183.450353,277 L304.978268,277 C304.978268,234.217797 321.937924,198.770401 374.241599,198.770401 C426.545273,198.770401 445.256002,234.217797 445.256002,277 L463.811015,277 C478.147446,277 500,263.431858 500,245.70816 L500,157.972258 C500,157.972258 499.213436,132.938756 482.017729,122.648969 C457.383233,107.907864 464.337265,112.083535 433.45004,97.552357 C396.208758,80.031854 399.728758,80.031854 384.951284,69.9553377 Z M296.541671,72.4909361 L268.947386,129.859309 L287.357207,139.230589 C295.543689,143.386563 296.54208,153.816759 289.39386,160.091816 L213.719152,223.735245 C203.496018,232.087872 189.199986,220.597926 194.311554,208.089326 L221.905838,150.720953 L203.496018,142.368326 C195.309536,138.212353 194.311145,127.782157 201.459365,121.5071 L278.132873,57.86367 C287.317746,48.4923898 301.65426,59.9823361 296.542693,72.4905189 L296.541671,72.4909361 Z" id="Shape" fill="#EBEBEB"></path>
                <path d="M116,221 C89.3333333,221 68,242.333333 68,269 C68,295.666667 89.3333333,317 116,317 C142.666667,317 164,295.666667 164,269 C164,243.417067 142.666667,221 116,221 L116,221 Z" id="wheel" fill="#3FBE79"></path>
                <path d="M379,221 C352.333333,221 331,242.333333 331,269 C331,295.666667 352.333333,317 379,317 C405.666667,317 427,295.666667 427,269 C427,243.417067 405.666667,221 379,221 L379,221 Z" id="wheel" fill="#3FBE79"></path>
            </g>
        </g>
    </g>
</svg>