<?xml version="1.0" encoding="UTF-8"?>
<svg width="191px" height="121px" viewBox="0 0 191 121" version="1.1" xmlns="http://www.w3.org/2000/svg" xmlns:xlink="http://www.w3.org/1999/xlink">
    <!-- Generator: Sketch 55 (78076) - https://sketchapp.com -->
    <title>Group 5</title>
    <desc>Created with Sketch.</desc>
    <g id="Page-1" stroke="none" stroke-width="1" fill="none" fill-rule="evenodd">
        <g id="SELECT-PRODUCT" transform="translate(-160.000000, -501.000000)">
            <g id="Group-11" transform="translate(41.000000, 175.000000)">
                <g id="Group-5" transform="translate(119.000000, 327.000000)">
                    <path d="M35.5351006,49 C39.1354456,49 42.5969827,49.5286768 45.8761816,50.5253706 C42.4841596,60.9861958 37.8686288,70.9185217 30.3296916,80.3405418 C29.2279119,81.7185671 28.7160548,83.478035 28.9069213,85.2372588 C29.1064494,86.9879627 29.9913556,88.5912991 31.3708179,89.7006596 C32.7502135,90.8013448 34.5114309,91.3126934 36.272404,91.1133635 C38.0248488,90.9226866 39.6384412,90.0386595 40.7402432,88.6605676 C49.0254118,78.3208845 54.0744676,67.6000252 57.7441055,56.8352353 C65.8642593,63.3440749 71.0696683,73.2937068 71.0696683,84.5004659 C71.0696683,104.104862 55.1587242,120 35.5348341,120 C15.9109441,120 0,104.104862 0,84.5004659 C0,64.8960701 15.9109441,49.0009319 35.5348341,49.0009319 L35.5351006,49 Z M191,97.8118593 C191,110.066742 181.057798,119.999068 168.790729,119.999068 C161.728847,119.999068 155.439181,116.740211 151.37022,111.609641 L171.150242,103.982788 C172.928716,103.454111 174.403456,102.214733 175.227642,100.550648 C176.051806,98.8952829 176.147239,96.962533 175.487912,95.2379213 C174.828563,93.5045456 173.475197,92.126609 171.757421,91.4243838 C170.039667,90.7310335 168.113768,90.7830403 166.430749,91.5717291 L146.650728,99.1985821 C146.624699,98.7392403 146.581324,98.2798985 146.581324,97.8118815 C146.581324,85.5569986 156.523526,75.6246727 168.790595,75.6246727 C181.057798,75.6246506 191,85.5569764 191,97.8118593 Z" id="Fill-1" fill="#3FBE79" transform="translate(95.500000, 84.500000) scale(-1, 1) translate(-95.500000, -84.500000) "></path>
                    <path d="M40.1370382,0.00268233716 C43.7167535,0.00268233716 46.6392728,2.84908912 46.7776182,6.42911512 L51.4813624,9.64233152 C53.055047,10.707577 53.781438,12.6809725 53.2798528,14.5320086 C52.1385142,18.7493132 51.1614414,23.0191469 50.1671916,27.3151334 C59.2634581,33.5495556 65.5494311,42.7788072 68.9821683,54.2770925 C72.8040434,67.0689349 73.31404,82.6450433 71.1265223,100.79776 L71.1265223,100.867613 C71.1438099,101.45263 71.6280189,102.578988 72.5791491,103.522009 C73.547567,104.482487 74.8185741,105.058764 75.5536863,105.058764 L125.566108,105.058764 L153.651334,94.1617696 C155.847573,93.0877842 158.856663,94.3102146 159.738533,96.60672 C160.620402,98.9032253 159.176496,101.775807 156.833279,102.474333 L128.057432,113.650737 C127.555935,113.869035 127.011187,113.982542 126.46646,114 L75.5553464,114 C71.8631839,114 68.7071376,112.288624 66.3554869,109.948553 C64.0038361,107.608482 62.2741864,104.491338 62.2741864,100.79776 C62.2655315,100.6144 62.2655315,100.4223 62.2741864,100.23894 C64.435828,82.6448197 63.8824463,68.028541 60.5448687,56.8610773 C57.9508368,48.1906459 53.8438594,41.5983553 47.9554358,36.7435486 C43.8829894,53.970859 38.8505365,71.3725213 25.8892311,87.734778 C24.3587766,89.6644514 21.5746249,89.9787766 19.6636874,88.4333033 C17.7527498,86.8878301 17.4415279,84.0762937 18.9719603,82.1465756 C35.0804579,61.8193775 37.8128352,39.2403574 43.9427546,15.3675567 L40.8991555,13.3418333 C40.6397523,13.3767707 40.4062916,13.4116858 40.1382557,13.4116858 C36.4722128,13.4116858 33.4976757,10.4079152 33.4976757,6.70584291 C33.4976757,3.00377057 36.4722128,0 40.1382557,0 L40.1370382,0.00268233716 Z" id="Path" stroke="#C8C5C5" fill="#343D4A" transform="translate(89.000000, 57.000000) scale(-1, 1) translate(-89.000000, -57.000000) "></path>
                </g>
            </g>
        </g>
    </g>
</svg>