<?xml version="1.0" encoding="UTF-8"?>
<svg width="500px" height="315px" viewBox="0 0 500 315" version="1.1" xmlns="http://www.w3.org/2000/svg" xmlns:xlink="http://www.w3.org/1999/xlink">
    <!-- Generator: Sketch 55 (78076) - https://sketchapp.com -->
    <title>miniscooter</title>
    <desc>Created with Sketch.</desc>
    <g id="Icons" stroke="none" stroke-width="1" fill="none" fill-rule="evenodd">
        <g id="Artboard" transform="translate(-375.000000, -342.000000)">
            <g id="miniscooter" transform="translate(375.000000, 343.000000)">
                <path d="M120.094716,131.996041 C111.215077,159.400457 99.1325361,185.420353 79.3970985,210.103391 C76.5128584,213.713429 75.1729184,218.32274 75.6725688,222.93141 C76.1948937,227.517761 78.5114021,231.718051 82.1225598,234.624263 C85.7335432,237.507748 90.34406,238.847338 94.9539373,238.325149 C99.541489,237.82563 103.765553,235.509728 106.649851,231.899515 C128.338774,204.812458 141.556198,176.726827 151.16258,148.526109 C172.419527,165.577436 186.046252,191.642668 186.046252,221.001221 C186.046252,272.359215 144.394566,314 93.023126,314 C41.6516861,314 0,272.359215 0,221.001221 C0,169.643226 41.6516861,128.002441 93.023126,128.002441 C102.448811,128 111.510426,129.384984 120.094716,131.996041 Z M500,255.873322 C500,287.977663 473.973292,313.997559 441.860546,313.997559 C423.373944,313.997559 406.908851,305.460271 396.257122,292.019622 L448.037282,272.039416 C452.692973,270.654431 456.553549,267.407612 458.711104,263.048177 C460.868601,258.711586 461.118426,253.648326 459.39244,249.130329 C457.666396,244.589373 454.123552,240.979567 449.626756,239.139935 C445.130018,237.323553 440.088398,237.459796 435.68259,239.525938 L383.902429,259.506145 C383.83429,258.302799 383.720744,257.099452 383.720744,255.87338 C383.720744,223.769039 409.747452,197.749143 441.860197,197.749143 C473.973292,197.749085 500,223.768981 500,255.873322 Z" id="Fill-1" fill="#3FBE79" transform="translate(250.000000, 221.001219) scale(-1, 1) translate(-250.000000, -221.001219) "></path>
                <path d="M104.148699,0.00701172346 C113.551754,0.00701172346 121.228512,7.44761894 121.591913,16.8059325 L133.947522,25.2053929 C138.081215,27.989982 139.98927,33.148507 138.671726,37.9871805 C135.673703,49.0113627 133.107166,60.1728578 130.49551,71.4027172 C154.389224,87.6997155 170.900971,111.825303 179.917949,141.882224 C189.9571,175.320549 191.296739,216.037043 185.550654,263.488881 L185.550654,263.671478 C185.596064,265.200735 186.867965,268.145075 189.366357,270.610163 C191.910159,273.120886 195.24879,274.627296 197.179753,274.627296 L328.55041,274.627296 L402.323575,246.14217 C408.092569,243.334734 415.996729,246.53021 418.313188,252.533356 C420.629646,258.536501 416.836852,266.045531 410.681782,267.871501 L335.094522,297.087015 C333.777211,297.657653 332.346286,297.954365 330.915419,298 L197.184114,298 C187.485687,298 179.195509,293.526404 173.018286,287.409376 C166.841063,281.292348 162.297687,273.144025 162.297687,263.488881 C162.274952,263.009572 162.274952,262.507415 162.297687,262.028106 C167.975802,216.036459 166.522201,177.828993 157.755183,148.636851 C150.941283,125.972039 140.153236,108.73956 124.685757,96.0489252 C113.988416,141.081719 100.769367,186.570275 66.7231212,229.341788 C62.7029837,234.386022 55.3896838,235.207679 50.3701083,231.167758 C45.3505329,227.127837 44.5330276,219.778382 48.5531069,214.734031 C90.8662732,161.598022 98.0435742,102.575671 114.145405,40.1713323 L106.150598,34.8760203 C105.469208,34.967348 104.855963,35.0586173 104.151897,35.0586173 C94.5220801,35.0586173 86.7086832,27.2066556 86.7086832,17.5293087 C86.7086832,7.85196166 94.5220801,0 104.151897,0 L104.148699,0.00701172346 Z" id="Path" stroke="#C8C5C5" fill="#343D4A" transform="translate(232.500000, 149.000000) scale(-1, 1) translate(-232.500000, -149.000000) "></path>
            </g>
        </g>
    </g>
</svg>