<?xml version="1.0" encoding="UTF-8"?>
<svg width="280px" height="178px" viewBox="0 0 280 178" version="1.1" xmlns="http://www.w3.org/2000/svg" xmlns:xlink="http://www.w3.org/1999/xlink">
    <!-- Generator: Sketch 55 (78076) - https://sketchapp.com -->
    <title>minicar</title>
    <desc>Created with Sketch.</desc>
    <g id="Page-1" stroke="none" stroke-width="1" fill="none" fill-rule="evenodd">
        <g id="SELECT-PRODUCT" transform="translate(-1546.000000, -439.000000)">
            <g id="Group-11" transform="translate(1466.000000, 175.000000)">
                <g id="minicar" transform="translate(80.000000, 264.000000)">
                    <path d="M215.572719,39.4046836 C187.285032,20.1306968 173.157621,15.0285032 184.119836,7.65067885 C195.082052,0.272854481 174.687544,0.58944441 167.600325,0.58944441 L66.0168568,0.58944441 C58.9296381,0.58944441 44.0757312,0.58944441 33.6849236,0.272854481 C23.294116,-0.0437354476 6.8145754,5.45735877 2.73397265,20.1306968 C-1.34663009,34.8040349 0.349522998,71.2219424 0.349522998,81.1395351 L0.349522998,137.750126 C0.349522998,147.667719 6.49555907,155.26 14.5239604,155.26 L24.9147681,155.26 C24.9147681,131.3205 40.1255489,111.485314 66.0168568,111.485314 C91.9081646,111.485314 102.732198,131.3205 102.732198,155.26 L170.78783,155.26 C170.78783,131.3205 180.285238,111.485314 209.575295,111.485314 C238.865353,111.485314 249.343361,131.3205 249.343361,155.26 L259.734169,155.26 C267.76257,155.26 280,147.667719 280,137.750126 L280,88.6560291 C280,88.6560291 279.559524,74.6481126 269.929928,68.8902896 C256.13461,60.6416569 260.028868,62.9782237 242.732023,54.8470589 C221.876904,45.0431674 223.848105,45.0431674 215.572719,39.4046836 Z M166.063336,40.8235202 L150.610536,72.9249563 L160.920036,78.1688134 C165.504466,80.4943582 166.063565,86.3307495 162.060561,89.8420629 L119.682725,125.454812 C113.95777,130.128665 105.951992,123.699272 108.81447,116.699875 L124.267269,84.5984392 L113.95777,79.9245869 C109.37334,77.5990421 108.814241,71.7626508 112.817244,68.2513374 L155.754409,32.6385879 C160.897938,27.3947308 168.926386,33.8241231 166.063908,40.8232868 L166.063336,40.8235202 Z" id="Shape" fill="#343D4A"></path>
                    <path d="M65,123.26 C50,123.26 38,135.26 38,150.26 C38,165.26 50,177.26 65,177.26 C80,177.26 92,165.26 92,150.26 C92,135.8696 80,123.26 65,123.26 L65,123.26 Z" id="wheel" fill="#3FBE79"></path>
                    <path d="M212,123.26 C197,123.26 185,135.26 185,150.26 C185,165.26 197,177.26 212,177.26 C227,177.26 239,165.26 239,150.26 C239,135.8696 227,123.26 212,123.26 L212,123.26 Z" id="wheel" fill="#3FBE79"></path>
                </g>
            </g>
        </g>
    </g>
</svg>