<?xml version="1.0" encoding="UTF-8"?>
<svg width="215px" height="115px" viewBox="0 0 215 115" version="1.1" xmlns="http://www.w3.org/2000/svg" xmlns:xlink="http://www.w3.org/1999/xlink">
    <!-- Generator: Sketch 55 (78076) - https://sketchapp.com -->
    <title>pedelec</title>
    <desc>Created with Sketch.</desc>
    <g id="Page-1" stroke="none" stroke-width="1" fill="none" fill-rule="evenodd">
        <g id="SELECT-PRODUCT" transform="translate(-608.000000, -506.000000)">
            <g id="Group-11" transform="translate(499.000000, 175.000000)">
                <g id="pedelec" transform="translate(109.000000, 331.000000)">
                    <g id="Group-9" transform="translate(0.000000, 38.971154)" fill="#3FBE79">
                        <path d="M38,76 C17.0131795,76 0,58.9868205 0,38 C0,17.0131795 17.0131795,0 38,0 C58.9868205,0 76,17.0131795 76,38 C76,58.9868205 58.9868205,76 38,76 Z M37.8051282,63.0932739 C51.7963419,63.0932739 63.1384615,51.7511542 63.1384615,37.7599405 C63.1384615,23.7687269 51.7963419,12.4266072 37.8051282,12.4266072 C23.8139145,12.4266072 12.4717949,23.7687269 12.4717949,37.7599405 C12.4717949,51.7511542 23.8139145,63.0932739 37.8051282,63.0932739 Z" id="Combined-Shape"></path>
                        <rect id="Rectangle" x="8.36" y="35.72" width="58.52" height="3.8"></rect>
                        <polygon id="Rectangle" transform="translate(37.620000, 37.620000) scale(-1, -1) rotate(90.000000) translate(-37.620000, -37.620000) " points="8.36 35.72 66.88 35.72 66.88 39.52 8.36 39.52"></polygon>
                        <polygon id="Rectangle" transform="translate(37.620000, 37.620000) scale(-1, -1) rotate(45.000000) translate(-37.620000, -37.620000) " points="8.36 35.72 66.88 35.72 66.88 39.52 8.36 39.52"></polygon>
                        <polygon id="Rectangle" transform="translate(37.620000, 37.620000) scale(-1, -1) rotate(135.000000) translate(-37.620000, -37.620000) " points="8.36 35.72 66.88 35.72 66.88 39.52 8.36 39.52"></polygon>
                    </g>
                    <g id="Group-9" transform="translate(139.000000, 38.971154)" fill="#3FBE79">
                        <path d="M38,76 C17.0131795,76 0,58.9868205 0,38 C0,17.0131795 17.0131795,0 38,0 C58.9868205,0 76,17.0131795 76,38 C76,58.9868205 58.9868205,76 38,76 Z M37.8051282,63.0932739 C51.7963419,63.0932739 63.1384615,51.7511542 63.1384615,37.7599405 C63.1384615,23.7687269 51.7963419,12.4266072 37.8051282,12.4266072 C23.8139145,12.4266072 12.4717949,23.7687269 12.4717949,37.7599405 C12.4717949,51.7511542 23.8139145,63.0932739 37.8051282,63.0932739 Z" id="Combined-Shape"></path>
                        <rect id="Rectangle" x="8.36" y="35.72" width="58.52" height="3.8"></rect>
                        <polygon id="Rectangle" transform="translate(37.620000, 37.620000) scale(-1, -1) rotate(90.000000) translate(-37.620000, -37.620000) " points="8.36 35.72 66.88 35.72 66.88 39.52 8.36 39.52"></polygon>
                        <polygon id="Rectangle" transform="translate(37.620000, 37.620000) scale(-1, -1) rotate(45.000000) translate(-37.620000, -37.620000) " points="8.36 35.72 66.88 35.72 66.88 39.52 8.36 39.52"></polygon>
                        <polygon id="Rectangle" transform="translate(37.620000, 37.620000) scale(-1, -1) rotate(135.000000) translate(-37.620000, -37.620000) " points="8.36 35.72 66.88 35.72 66.88 39.52 8.36 39.52"></polygon>
                    </g>
                    <path d="M138.053784,9.29030162 L148.861176,9.29030162 L149.899554,10.3341809 C149.318056,12.330805 148.736558,14.5428688 148.271363,16.4730879 C135.899359,15.8489675 117.249013,15.9590132 92.3203269,16.8032252 L13,16.8032252 L19.2805102,30.9925942 L83.2343259,30.9925942 C79.1472091,33.9667138 75.4109776,36.7771013 71.5314172,40.8116643 C70.0097847,42.3940916 34.3510861,73.5473823 36.6478165,77.0464431 C38.1789701,79.3791503 47.9993607,80.5455039 66.1089882,80.5455039 L91.7417045,81.9208566 C95.2303928,85.9543881 98.5857996,87.9711538 101.807925,87.9711538 C106.641113,87.9711538 111.695188,85.5910513 113.75544,81.5314618 L117.726232,82.7658815 L116.945365,83.54465 L119.877736,86.4691408 L125.800749,80.5455039 L122.801814,77.621013 L121.040733,79.4436607 L114.984807,77.5547565 C115.167568,76.5440267 115.084481,75.5829892 115.051264,74.6302656 C134.240446,64.8294354 146.344215,53.8769636 155.365262,42.9484578 C155.564624,43.5891353 161.997636,55.462299 174.6643,78.5679489 C176.328242,79.4034961 177.569055,79.4034961 178.386738,78.5679489 C179.204421,77.7324017 179.204421,76.4644802 178.386738,74.7641844 C165.519967,41.5745069 158.327881,22.2541872 156.810479,16.8032252 L158.638017,10.6643182 C159.169668,9.18964433 158.779245,7.41681622 157.657781,6.30653195 L153.487727,2.13941347 C152.715175,1.39379449 151.635265,0.96297874 150.555355,0.971271408 L138.053274,0.971271408 C135.444783,0.996128202 133.667157,3.41516933 133.692038,5.32905762 C133.792222,7.5006973 135.877207,9.38977121 138.053784,9.29030162 Z M152.516168,33.0590806 C143.594433,44.897871 132.25539,56.5542651 111.487631,67.1502158 C109.336148,64.9546737 106.420364,63.513319 103.14731,63.3807636 L94.4831074,34.9481545 C105.819457,28.2264985 124.446365,24.8656705 150.363834,24.8656705 C151.305862,28.4942251 152.023306,31.2253618 152.516168,33.0590806 Z M95.1972205,65.8499001 C93.6661228,66.2337699 92.0439586,68.0524022 90.3307279,71.3057967 L53.1959554,69.8844631 L79.5717981,47.0509953 C82.9665641,43.7149817 85.5279147,41.3510412 87.2558498,39.9591738 L95.1972205,65.8499001 Z M104.518947,67.8133535 C105.607172,68.0619002 106.637234,68.4844233 107.517882,69.114051 C106.770253,69.4702964 106.005995,69.8016849 105.241779,70.1579303 L104.518947,67.8133535 Z M96.577364,70.2241656 L97.0342432,71.7817025 L95.4725304,71.7817025 C95.796497,71.2183525 96.1370936,70.6881308 96.577364,70.2241656 Z M107.648455,79.6521863 L109.733525,80.3066708 C108.271486,82.6843971 105.662995,84.2086784 102.631099,84.2086784 C99.5326393,84.2086784 96.9075616,82.584885 95.4704038,80.1077316 L98.0123314,80.1077316 C99.1586976,81.3504441 100.811791,82.1871975 102.639392,82.1871975 C104.68293,82.1871975 106.510446,81.1598824 107.656898,79.6521015 L107.648455,79.6521863 Z" id="Fill-1" stroke="#C8C5C5" fill="#343D4A"></path>
                </g>
            </g>
        </g>
    </g>
</svg>