<?xml version="1.0" encoding="UTF-8"?>
<svg width="501px" height="267px" viewBox="0 0 501 267" version="1.1" xmlns="http://www.w3.org/2000/svg" xmlns:xlink="http://www.w3.org/1999/xlink">
    <!-- Generator: Sketch 55 (78076) - https://sketchapp.com -->
    <title>pedelec</title>
    <desc>Created with Sketch.</desc>
    <g id="Icons" stroke="none" stroke-width="1" fill="none" fill-rule="evenodd">
        <g id="Artboard" transform="translate(-1625.000000, -366.000000)">
            <g id="pedelec" transform="translate(1625.000000, 367.000000)">
                <g id="Group-9" transform="translate(0.000000, 89.000000)" fill="#3FBE79">
                    <path d="M89,177 C39.8466573,177 0,137.3772 0,88.5 C0,39.6227996 39.8466573,0 89,0 C138.153343,0 178,39.6227996 178,88.5 C178,137.3772 138.153343,177 89,177 Z M88.5435897,146.940914 C121.312485,146.940914 147.876923,120.525714 147.876923,87.9409142 C147.876923,55.3561139 121.312485,28.9409142 88.5435897,28.9409142 C55.7746946,28.9409142 29.2102564,55.3561139 29.2102564,87.9409142 C29.2102564,120.525714 55.7746946,146.940914 88.5435897,146.940914 Z" id="Combined-Shape"></path>
                    <rect id="Rectangle" x="19.58" y="83.19" width="137.06" height="8.85"></rect>
                    <polygon id="Rectangle" transform="translate(88.110000, 87.615000) scale(-1, -1) rotate(90.000000) translate(-88.110000, -87.615000) " points="19.965 83.165 156.255 83.165 156.255 92.065 19.965 92.065"></polygon>
                    <polygon id="Rectangle" transform="translate(88.110000, 87.615000) scale(-1, -1) rotate(45.000000) translate(-88.110000, -87.615000) " points="19.785 83.37 156.46 82.985 156.435 91.86 19.76 92.245"></polygon>
                    <polygon id="Rectangle" transform="translate(88.110000, 87.615000) scale(-1, -1) rotate(135.000000) translate(-88.110000, -87.615000) " points="19.76 82.985 156.435 83.37 156.46 92.245 19.785 91.86"></polygon>
                </g>
                <g id="Group-9" transform="translate(323.000000, 89.000000)" fill="#3FBE79">
                    <path d="M89,177 C39.8466573,177 0,137.3772 0,88.5 C0,39.6227996 39.8466573,0 89,0 C138.153343,0 178,39.6227996 178,88.5 C178,137.3772 138.153343,177 89,177 Z M88.5435897,146.940914 C121.312485,146.940914 147.876923,120.525714 147.876923,87.9409142 C147.876923,55.3561139 121.312485,28.9409142 88.5435897,28.9409142 C55.7746946,28.9409142 29.2102564,55.3561139 29.2102564,87.9409142 C29.2102564,120.525714 55.7746946,146.940914 88.5435897,146.940914 Z" id="Combined-Shape"></path>
                    <rect id="Rectangle" x="19.58" y="83.19" width="137.06" height="8.85"></rect>
                    <polygon id="Rectangle" transform="translate(88.110000, 87.615000) scale(-1, -1) rotate(90.000000) translate(-88.110000, -87.615000) " points="19.965 83.165 156.255 83.165 156.255 92.065 19.965 92.065"></polygon>
                    <polygon id="Rectangle" transform="translate(88.110000, 87.615000) scale(-1, -1) rotate(45.000000) translate(-88.110000, -87.615000) " points="19.785 83.37 156.46 82.985 156.435 91.86 19.76 92.245"></polygon>
                    <polygon id="Rectangle" transform="translate(88.110000, 87.615000) scale(-1, -1) rotate(135.000000) translate(-88.110000, -87.615000) " points="19.76 82.985 156.435 83.37 156.46 92.245 19.785 91.86"></polygon>
                </g>
                <path d="M320.294387,19.4113448 L345.555039,19.4113448 L347.98209,21.8470632 C346.622925,26.5058527 345.263761,31.6673349 344.17644,36.1711795 C315.258742,34.7148985 271.666369,34.9716719 213.399318,36.9414997 L28,36.9414997 L42.6797467,70.0500275 L192.162159,70.0500275 C182.609139,76.9896399 173.876261,83.5472106 164.808373,92.9611911 C161.251786,96.6535215 77.9049483,169.344533 83.2732097,177.509008 C86.8520506,182.951992 109.805735,185.673483 152.134261,185.673483 L212.046876,188.88264 C220.201159,198.294213 228.043917,203 235.57515,203 C246.871999,203 258.685138,197.446427 263.500667,187.974052 L272.781794,190.854365 L270.956635,192.671491 L277.810613,199.495303 L291.654762,185.673483 L284.645205,178.849671 L280.528941,183.102516 L266.374128,178.695073 C266.801303,176.336703 266.607101,174.094282 266.52946,171.871261 C311.381284,149.002657 339.672021,123.446889 360.757359,97.9470426 C361.223337,99.4419568 376.259535,127.146005 405.865953,181.059188 C409.755169,183.008799 412.655382,183.008799 414.566592,181.059188 C416.477803,179.109578 416.477803,176.151095 414.566592,172.183738 C384.492453,94.7411571 367.682035,49.660411 364.135337,36.9414997 L368.406932,22.6173834 C369.649585,19.1764778 368.737031,15.0398789 366.115778,12.4492156 L356.368904,2.72593912 C354.56318,0.986161494 352.039054,-0.0190752472 349.514927,0.000274310464 L320.293194,0.000274310464 C314.196241,0.0582734962 310.041306,5.70270279 310.099462,10.1684421 C310.333628,15.2356014 315.206965,19.6434405 320.294387,19.4113448 Z M354.098031,74.871829 C333.24482,102.495673 306.741515,129.693926 258.200006,154.417811 C253.171237,149.29488 246.356031,145.931719 238.705761,145.622423 L218.454492,79.2796682 C244.951501,63.5958041 288.489095,55.7538721 349.067274,55.7538721 C351.269122,64.2204996 352.946041,70.5931519 354.098031,74.871829 Z M220.123624,151.383741 C216.544914,152.279438 212.753349,156.522913 208.74893,164.114167 L121.951992,160.797722 L183.601552,107.51963 C191.536306,99.7355983 197.523078,94.2197371 201.561866,90.9720467 L220.123624,151.383741 Z M241.911756,155.965133 C244.455318,156.545075 246.862934,157.530962 248.921314,159.000093 C247.173845,159.831333 245.387507,160.604573 243.601268,161.435812 L241.911756,155.965133 Z M223.349501,161.590361 L224.417388,165.224613 L220.767119,165.224613 C221.524342,163.91013 222.320436,162.672946 223.349501,161.590361 Z M249.22651,183.589076 L254.100046,185.116206 C250.68275,190.664234 244.585797,194.220891 237.499195,194.220891 C230.257012,194.220891 224.121288,190.432039 220.762149,184.652015 L226.703522,184.652015 C229.38298,187.551677 233.246836,189.504102 237.51858,189.504102 C242.29504,189.504102 246.566586,187.107033 249.246243,183.588878 L249.22651,183.589076 Z" id="Fill-1" stroke="#C8C5C5" fill="#343D4A"></path>
            </g>
        </g>
    </g>
</svg>