<?xml version="1.0" encoding="UTF-8"?>
<svg width="501px" height="334px" viewBox="0 0 501 334" version="1.1" xmlns="http://www.w3.org/2000/svg" xmlns:xlink="http://www.w3.org/1999/xlink">
    <!-- Generator: Sketch 55 (78076) - https://sketchapp.com -->
    <title>scooter</title>
    <desc>Created with Sketch.</desc>
    <g id="Icons" stroke="none" stroke-width="1" fill="none" fill-rule="evenodd">
        <g id="icon/scooter" transform="translate(0.000000, -83.000000)">
            <g id="scooter" transform="translate(250.500000, 249.500000) scale(-1, 1) translate(-250.500000, -249.500000) translate(0.000000, 82.000000)">
                <path d="M462.412333,252.824272 C462.282994,252.745693 462.153203,252.666978 462.022958,252.588128 L460.58558,251.717932 L461.313345,253.232413 C461.38233,253.375972 461.443615,253.485232 461.503075,253.565454 C461.559237,253.641228 461.616644,253.700213 461.704468,253.749536 C461.943585,253.883828 462.260533,253.819493 462.410608,253.555088 C462.52248,253.357989 462.509831,253.182085 462.412333,252.824272 Z M352.069918,262.700279 C352.064073,262.737447 352.059004,262.771966 352.05474,262.803638 C352.015199,263.097364 352.014553,263.107993 352.106455,263.269135 C352.626283,263.591336 352.626283,263.591336 352.929333,263.342324 C352.999689,263.239692 352.999689,263.239692 353.017205,263.195202 C353.033658,263.155382 353.047787,263.111085 353.06313,263.055395 L353.492994,261.495117 L352.069918,262.700279 Z M16.8675222,251.253287 C16.7417435,251.425879 16.690465,251.494858 16.6577017,251.53591 C16.6410459,251.555046 16.6410459,251.555046 16.6779535,251.518593 C16.7088553,251.457052 16.7088553,251.457052 17.1560117,251.425121 C17.5528936,251.895889 17.5528936,251.895889 17.4857659,252.00042 C17.4759494,252.044468 17.4999884,251.993162 17.5189397,251.95637 L17.9684278,251.083718 L16.9982731,251.233251 C16.9545705,251.239987 16.910987,251.246666 16.8675222,251.253287 Z M408.964268,267.911802 C403.353778,267.911802 398.764287,272.473825 398.735629,278.06716 C398.735629,283.718426 403.321371,288.312169 408.964268,288.312169 C414.638819,288.312169 419.252917,283.716849 419.252917,278.06716 C419.252917,272.47461 414.63621,267.911802 408.964268,267.911802 Z M69.1560771,267.911802 C63.5220247,267.911802 58.957443,272.466688 58.957443,278.06716 C58.957443,283.724606 63.5193269,288.312169 69.1560771,288.312169 C74.8306283,288.312169 79.4447256,283.716849 79.4447256,278.06716 C79.4447256,272.47461 74.828019,267.911802 69.1560771,267.911802 Z" id="Shape" stroke="#C8C5C5" fill="#EBEBEB"></path>
                <path d="M238.948471,176.356889 C240.259764,176.150201 241.326485,175.20185 241.701201,173.945794 L241.754395,173.767487 L241.911217,173.667335 C245.406911,171.43488 259.079049,170.346926 281.003634,169.968317 C288.749396,169.834558 295.177503,169.805134 307.200073,169.805134 L318.538282,169.805134 C356.075609,169.805134 372.723821,169.160254 380.860884,166.688791 C385.900165,165.861056 390.073157,164.772752 396.07678,162.866208 C396.824059,162.628897 397.357724,162.457479 398.802543,161.991819 C399.615615,161.729861 399.797725,161.671226 400.167441,161.552503 C413.147699,157.384263 421.745112,155.628583 436.762928,155.001826 C437.779303,154.948418 438.719737,154.464888 439.341258,153.663297 C439.961497,152.863393 440.183248,151.846261 439.970675,150.837792 C436.614316,136.116243 417.401402,126.17424 386.262788,120.345063 C363.685107,116.1185 337.104948,114.41153 310.507994,114.41153 C297.252294,114.41153 282.951681,114.821712 270.219882,115.866258 C252.036528,117.358062 240.154788,119.951254 237.284166,123.70446 L237.033245,124.032529 L236.997383,124.014627 C230.715039,133.725825 230.691447,159.917249 235.136667,174.0232 C235.605358,175.453106 236.935559,176.41153 238.420571,176.41153 C238.497588,176.411499 238.574387,176.406399 238.66574,176.395833 C238.732159,176.388151 238.796162,176.379115 238.948459,176.356902 Z M238.948459,176.356902 C238.94956,176.356742 238.950665,176.35658 238.951776,176.356418 C238.951858,176.356407 238.951858,176.356407 238.951942,176.356395 L238.945173,176.357407 C238.946273,176.357235 238.947372,176.357062 238.948471,176.356889 Z" id="Shape" stroke="#C8C5C5" fill="#EBEBEB"></path>
                <circle id="Oval" fill="#3FBE79" cx="407.048387" cy="289.41153" r="45.5"></circle>
                <circle id="Oval" fill="#3FBE79" cx="69.0483871" cy="286.41153" r="45.5"></circle>
            </g>
        </g>
    </g>
</svg>