<?xml version="1.0" encoding="UTF-8"?>
<svg width="556px" height="374px" viewBox="0 0 556 374" version="1.1" xmlns="http://www.w3.org/2000/svg" xmlns:xlink="http://www.w3.org/1999/xlink">
    <!-- Generator: Sketch 55 (78076) - https://sketchapp.com -->
    <title>Group 3</title>
    <desc>Created with Sketch.</desc>
    <g id="Icons" stroke="none" stroke-width="1" fill="none" fill-rule="evenodd">
        <g id="Artboard" transform="translate(-139.000000, -1021.000000)">
            <g id="Group-3" transform="translate(417.000000, 1208.000000) scale(-1, 1) translate(-417.000000, -1208.000000) translate(139.000000, 1021.000000)">
                <path d="M529.055561,260.747892 L538.641284,252.568124 C540.28547,251.173787 540.65778,248.756901 539.478903,246.928748 L528.931431,230.320138 L535.104891,230.320138 L535.259994,230.320138 C537.679773,230.320138 539.603192,228.399019 539.603192,225.982133 C539.603192,225.331448 539.479141,224.711698 539.199908,224.15398 C534.174274,192.052833 517.576837,191.278642 496.512867,191.247706 C490.401432,186.259015 484.07287,183.904159 476.720375,183.904159 C468.933702,183.904159 460.836824,186.568929 451.436939,189.636501 C439.989664,193.385773 425.750061,198.06455 407.446652,199.210764 C375.059299,200.636116 345.74303,200.791033 322.199637,200.914935 C277.712989,201.131804 271.974262,201.379688 270.298548,206.585247 C269.740161,208.351449 270.3296,210.241552 271.78763,211.35699 C291.17668,226.137209 300.452674,242.869562 297.256904,257.215092 C293.906427,272.211862 277.743962,283.552644 251.715588,289.254367 L206.112326,289.254367 C203.754572,289.254367 201.645078,288.47978 199.628582,286.713578 C199.380401,286.558661 199.132221,286.279762 198.449704,285.474159 C173.87944,261.615445 161.595102,235.463509 161.966778,207.66959 C162.556216,162.182719 197.084513,125.649806 203.971621,118.804248 L238.282472,118.804248 C239.678477,118.804248 241.012457,118.122547 241.819024,116.976095 C243.866493,114.063441 244.952293,110.655019 244.952293,107.09168 C244.952293,103.838175 244.114674,100.86357 242.439436,98.2606714 C241.632869,97.0212526 240.267837,96.246586 238.778754,96.246586 L210.144683,96.246586 L195.284828,79.2976816 C194.447209,77.5935103 195.408958,68.9484348 200.310462,57.8249974 C202.233881,53.4869916 204.064222,50.3884841 205.553305,48.2816703 C208.810703,60.7686668 219.54433,64.8902799 223.887687,64.8902799 C226.276414,64.8902799 228.230806,62.9382249 228.230806,60.5522742 L228.230806,4.34492542 C228.230806,3.04355542 227.641367,1.80413655 226.617672,0.967518886 C225.593898,0.130901227 224.259918,-0.178933662 222.95699,0.0998860089 C213.091717,2.23787366 206.360268,10.2317883 202.4823,24.5162396 C193.330992,30.2485817 179.960219,45.9889238 175.120502,70.2815339 C161.37726,70.4055154 153.49743,71.1491668 146.393512,72.0167203 L129.206717,60.9551547 C128.493227,60.4904024 127.686581,60.2734545 126.849042,60.2734545 C123.343463,60.2734545 121.078866,63.0621271 120.086144,68.6086952 C119.55881,71.6762668 119.279577,75.7973247 119.279577,80.9100763 C119.279577,92.9941129 120.272299,121.067248 129.361661,121.067248 C129.982151,121.067248 130.602563,120.943346 131.160949,120.664447 L146.144696,113.816667 L147.540702,115.396936 L144.035123,117.194074 C128.958457,121.903866 80.531894,160.046635 75.1648423,214.983232 C53.4488522,221.645079 -1.42960867,257.371754 0.0285012538,273.049907 C0.245708806,275.249846 1.70373932,280.362518 11.0413609,280.362518 C13.1198823,280.362518 15.5396618,280.14565 18.3627247,279.680897 C16.2209488,283.844434 40.9055837,236.513995 100.772296,260.748606 C147.540702,279.680897 126.849042,338.128761 135.256046,336.322142 C136.836949,337.252802 138.338434,338.128761 139.77634,338.953232 C162.801999,352.155768 169.524147,352.155768 224.974281,352.155768 L335.039343,352.155768 C342.205525,352.155768 348.968423,349.367095 354.024951,344.285438 C359.112611,339.20386 361.904701,332.51076 361.904701,325.415335 C361.904701,317.947807 358.802485,310.789796 353.373646,305.801184 C352.877285,305.336353 352.225821,304.995582 351.543305,304.809649 C348.254934,303.663197 345.090613,301.989961 341.863869,299.790023 C341.739819,299.697056 341.584716,299.60409 341.460586,299.542139 C330.416754,291.671809 323.839375,278.936453 323.839375,265.426985 C323.839375,254.303548 328.182573,243.954301 335.566201,236.331379 C333.797885,241.505923 332.898241,247.021714 332.898241,252.567965 C332.898241,277.913982 351.821903,299.480267 376.950473,302.733295 C378.160324,302.919149 379.401226,302.516348 380.331923,301.710745 L391.499647,292.22929 C390.010564,297.713748 389.266023,303.383663 389.266023,309.116322 C389.266023,330.907466 399.238338,290.20446 411.421053,274 C414.613374,269.753833 425.272778,260.747892 436.890978,257.215092 C448.509178,253.682292 469.619731,252.568124 489,260.748606 C511.758194,270.354922 519.744471,293.600358 517.662719,289.254367 C532.057187,298.023504 539.756547,299.015356 542.672767,306.823893 C543.386336,308.683061 545.278702,309.829514 547.233094,309.612566 C553.034322,308.930866 554.988714,305.491508 555.609284,303.477423 C559.145836,292.260384 537.74029,269.455077 529.053576,260.748606 L529.055561,260.747892 Z" id="Fill-1" fill="#343D4A"></path>
                <path d="M344.624324,129 C326.770431,129 270.325941,129.805292 262.916972,139.530805 L262.854999,139.499802 C254.393047,151.734597 256.500759,183.451501 260.468291,195.964613 C261.057231,197.792062 262.731054,199 264.621821,199 C264.838845,199 265.055789,198.969076 265.30376,198.938073 C267.008529,198.690284 268.341382,197.451343 268.806377,195.840758 C275.377562,191.628357 317.904584,191.628357 340.997207,191.628357 L353.581424,191.628357 C385.228839,191.628357 412.350094,191.349566 422.858499,188.159321 C430.576618,186.889376 436.55918,184.969076 442.850892,182.924763 C453.29661,179.548657 464.114482,176.048617 484.882131,175.181398 C486.153011,175.119471 487.361839,174.49996 488.136777,173.477883 C488.880689,172.48673 489.190633,171.154858 488.880689,169.915916 C480.483726,132.99633 385.20424,129 344.624324,129 Z" id="Fill-2" fill="#343D4A"></path>
                <circle id="Oval" fill="#3FBE79" cx="62.8421053" cy="324" r="50"></circle>
                <circle id="Oval" fill="#3FBE79" cx="458.842105" cy="324" r="50"></circle>
            </g>
        </g>
    </g>
</svg>