<?xml version="1.0" encoding="UTF-8"?>
<svg width="262px" height="175px" viewBox="0 0 262 175" version="1.1" xmlns="http://www.w3.org/2000/svg" xmlns:xlink="http://www.w3.org/1999/xlink">
    <!-- Generator: Sketch 55 (78076) - https://sketchapp.com -->
    <title>scooter</title>
    <desc>Created with Sketch.</desc>
    <g id="Page-1" stroke="none" stroke-width="1" fill="none" fill-rule="evenodd">
        <g id="SELECT-PRODUCT" transform="translate(-1066.000000, -444.000000)">
            <g id="scooter" transform="translate(1066.000000, 444.000000)">
                <path d="M67.5258832,54.6088114 C67.5714458,54.5939613 67.6166417,54.5795975 67.6614652,54.5657234 L68.0476799,54.3716947 L67.5258832,54.6088114 Z M9.10484251,131.569686 L9.5539027,130.698432 L8.58353317,130.8479 C8.52777728,130.856488 8.47239838,130.864897 8.41739444,130.873127 C8.3088986,131.022292 8.27457341,131.068955 8.25599774,131.092298 C8.25365383,131.094533 8.2617727,131.086507 8.29528675,131.053376 C8.32892868,130.989728 8.32892868,130.989728 8.77728069,130.957699 C9.17508083,131.429333 9.17508083,131.429333 9.10747254,131.536909 C9.09809572,131.578957 9.10401198,131.570902 9.10484251,131.569686 Z M242.220057,131.761367 C242.125767,131.704042 242.031019,131.646578 241.93581,131.588976 L240.498272,130.719248 L241.226376,132.23345 C241.268515,132.321086 241.307112,132.389853 241.349143,132.446523 C241.394083,132.50803 241.394083,132.50803 241.529365,132.608705 C241.88348,132.715221 241.88348,132.715221 242.222717,132.416838 C242.33844,132.213089 242.319645,132.102796 242.222091,131.768317 C242.221417,131.766007 242.220739,131.76369 242.220057,131.761367 Z M183.977149,136.962493 C183.967041,137.019004 183.959077,137.068741 183.953462,137.110421 C183.947709,137.15531 183.947709,137.15531 183.943962,137.202191 C183.931879,137.241416 183.931879,137.241416 184.009756,137.504115 C184.528371,137.825062 184.528371,137.825062 184.829773,137.577612 C184.898346,137.477643 184.898346,137.477643 184.913579,137.438344 C184.935097,137.380345 184.935097,137.380345 184.947154,137.337415 L185.377161,135.777635 L183.977149,136.962493 Z M9.10484251,131.569686 C9.10505931,131.569368 9.10492956,131.569517 9.10409076,131.571144 L9.10484251,131.569686 Z M214.009922,140.055347 C211.200873,140.055347 208.902456,142.338523 208.888115,145.135125 C208.888115,147.962945 211.184507,150.261849 214.009922,150.261849 C216.852232,150.261849 219.163173,147.961808 219.163173,145.135125 C219.163173,142.338776 216.851269,140.055347 214.009922,140.055347 Z M35.9504295,140.055347 C33.1294441,140.055347 30.8443453,142.33411 30.8443453,145.135125 C30.8443453,147.966387 33.128443,150.261849 35.9504295,150.261849 C38.7927398,150.261849 41.1036814,147.961808 41.1036814,145.135125 C41.1036814,142.338776 38.7917767,140.055347 35.9504295,140.055347 Z" id="Shape" stroke="#C8C5C5" fill="#343D4A" transform="translate(131.000000, 83.000000) scale(-1, 1) translate(-131.000000, -83.000000) "></path>
                <path d="M34.8600782,91.47394 C35.4589196,91.379284 35.9459122,90.9479708 36.1168159,90.3778257 L36.1703134,90.199355 L36.3275563,90.0994131 C38.2253256,88.8932118 45.4031902,88.3247565 57.0250289,88.1250185 C61.1035136,88.0549239 64.4876952,88.0395067 70.8166769,88.0395067 L76.784155,88.0395067 C96.5022265,88.0395067 105.268475,87.7015571 109.547512,86.4102233 C112.186709,85.9787821 114.372938,85.4113352 117.522861,84.4157913 C117.915728,84.2916242 118.196416,84.2018939 118.956535,83.9580768 C119.315017,83.8431158 119.480429,83.7901108 119.675118,83.7278897 C126.525453,81.5385753 131.070414,80.614867 138.995349,80.2857147 C139.462586,80.2612794 139.893781,80.0406332 140.178211,79.6755444 C140.460825,79.3128 140.56175,78.8520825 140.46514,78.395758 C138.727973,70.8125405 128.686237,65.641041 112.385476,62.6040545 C100.519427,60.393297 86.5428547,59.5 72.5576877,59.5 C53.3860638,59.5 36.8376017,60.8512086 34.2062548,64.275192 L33.9556545,64.6012802 L33.953878,64.6003977 C30.8070343,69.74946 30.8209416,83.1721727 33.1134081,90.4122325 C33.3278099,91.0632269 33.9369096,91.5 34.6168446,91.5 C34.6476537,91.4999877 34.6793177,91.4978947 34.719034,91.4933231 C34.7503673,91.4897164 34.7805058,91.485487 34.860051,91.473957 Z M34.860051,91.473957 C34.86116,91.4737963 34.8622786,91.4736341 34.8634069,91.4734705 L34.8634947,91.473458 L34.8567566,91.4744614 C34.8578642,91.4742887 34.8589714,91.4741149 34.8600782,91.47394 Z" id="Shape" stroke="#C8C5C5" fill="#343D4A" transform="translate(86.000000, 75.500000) scale(-1, 1) translate(-86.000000, -75.500000) "></path>
                <circle id="Oval" fill="#3FBE79" transform="translate(48.000000, 151.000000) scale(-1, 1) translate(-48.000000, -151.000000) " cx="48" cy="151" r="24"></circle>
                <circle id="Oval" fill="#3FBE79" transform="translate(226.000000, 150.000000) scale(-1, 1) translate(-226.000000, -150.000000) " cx="226" cy="150" r="24"></circle>
            </g>
        </g>
    </g>
</svg>