<?xml version="1.0" encoding="UTF-8"?>
<svg width="869px" height="1153px" viewBox="0 0 869 1153" version="1.1" xmlns="http://www.w3.org/2000/svg" xmlns:xlink="http://www.w3.org/1999/xlink">
    <!-- Generator: Sketch 55 (78076) - https://sketchapp.com -->
    <title>pin_miniscooter</title>
    <desc>Created with Sketch.</desc>
    <g id="Icons" stroke="none" stroke-width="1" fill="none" fill-rule="evenodd">
        <g id="Artboard" transform="translate(-153.000000, -126.000000)">
            <g id="pin_miniscooter" transform="translate(153.000000, 126.000000)">
                <g id="Group-2" fill="#343D4A">
                    <polygon id="Oval-2" points="435 677 796 1153 74 1153"></polygon>
                    <g id="Group">
                        <circle id="Oval" cx="434.5" cy="434.5" r="434.5"></circle>
                    </g>
                </g>
                <g id="icon/pedelec" transform="translate(106.000000, 55.000000)">
                    <g id="Group-15" transform="translate(0.000000, 121.458000)">
                        <path d="M156.843699,172.38683 C145.246891,208.176996 129.467092,242.158981 103.692611,274.395029 C99.925793,279.109739 98.1758314,285.129498 98.8283749,291.148422 C99.5105311,297.138196 102.535891,302.623775 107.252063,306.419288 C111.968007,310.185119 117.989342,311.934623 124.009842,311.252645 C130.001185,310.600273 135.517812,307.575704 139.284706,302.860767 C167.610439,267.48507 184.872394,230.805236 197.418329,193.975099 C225.179902,216.244131 242.976405,250.285325 242.976405,288.627594 C242.976405,355.701135 188.579303,410.084 121.488203,410.084 C54.397102,410.084 0,355.701135 0,288.627594 C0,221.554053 54.397102,167.171188 121.488203,167.171188 C133.798147,167.168 145.632616,168.97679 156.843699,172.38683 Z M653,334.170558 C653,376.098828 619.00912,410.080812 577.069873,410.080812 C552.926371,410.080812 531.422959,398.931114 517.511801,381.377627 L585.13669,355.283477 C591.217023,353.474687 596.258935,349.234341 599.076702,343.54092 C601.894393,337.877332 602.220665,331.264714 599.966527,325.36421 C597.712314,319.433721 593.085359,314.719315 587.212544,312.316755 C581.339804,309.94456 574.755447,310.122493 569.001462,312.820875 L501.376573,338.915025 C501.287583,337.343455 501.139291,335.771885 501.139291,334.170634 C501.139291,292.242364 535.130172,258.26038 577.069418,258.26038 C619.00912,258.260304 653,292.242289 653,334.170558 Z" id="Fill-1" fill="#3FBE79" transform="translate(326.500000, 288.627592) scale(-1, 1) translate(-326.500000, -288.627592) "></path>
                        <path d="M136.018201,0.00915731084 C148.298591,0.00915731084 158.324437,9.72659033 158.799038,21.9485479 L174.935464,32.9182431 C180.334067,36.5549165 182.825987,43.2919501 181.105274,49.6112577 C177.189856,64.0088397 173.837959,78.5857523 170.427137,93.2519487 C201.632327,114.535828 223.196668,146.043846 234.972842,185.298185 C248.083973,228.968637 249.833541,282.144378 242.329154,344.116479 L242.329154,344.354951 C242.38846,346.35216 244.049562,350.197468 247.312462,353.416873 C250.634667,356.695877 254.994919,358.663249 257.516758,358.663249 L429.086835,358.663249 L525.434589,321.461674 C532.968895,317.795163 543.291728,321.968455 546.317023,329.808563 C549.342318,337.648671 544.388929,347.455464 536.350407,349.84018 L437.633446,387.995642 C435.913037,388.740894 434.044249,389.128401 432.175537,389.188 L257.522453,389.188 C244.856308,389.188 234.029335,383.345483 225.961881,375.356645 C217.894428,367.367807 211.960779,356.726096 211.960779,344.116479 C211.931088,343.490501 211.931088,342.834685 211.960779,342.208706 C219.376397,282.143615 217.477994,232.244665 206.028269,194.119728 C197.129315,164.519483 183.040127,142.013866 162.839599,125.439896 C148.868871,184.252725 131.604793,243.660779 87.1403962,299.520375 C81.8900967,306.108145 72.338927,307.181229 65.7833615,301.905092 C59.227796,296.628954 58.1601341,287.030566 63.4103576,280.442644 C118.671353,211.047017 128.044908,133.963826 149.073899,52.46376 L138.632682,45.5480826 C137.742786,45.6673565 136.941888,45.7865542 136.022377,45.7865542 C123.445837,45.7865542 113.24154,35.5318923 113.24154,22.8932771 C113.24154,10.2546619 123.445837,0 136.022377,0 L136.018201,0.00915731084 Z" id="Path" stroke="#C8C5C5" fill="#EBEBEB" transform="translate(303.645000, 194.594000) scale(-1, 1) translate(-303.645000, -194.594000) "></path>
                    </g>
                </g>
            </g>
        </g>
    </g>
</svg>