<?xml version="1.0" encoding="UTF-8"?>
<svg width="869px" height="1153px" viewBox="0 0 869 1153" version="1.1" xmlns="http://www.w3.org/2000/svg" xmlns:xlink="http://www.w3.org/1999/xlink">
    <!-- Generator: Sketch 55 (78076) - https://sketchapp.com -->
    <title>pin_minicar</title>
    <desc>Created with Sketch.</desc>
    <g id="Icons" stroke="none" stroke-width="1" fill="none" fill-rule="evenodd">
        <g id="Artboard" transform="translate(-153.000000, -1390.000000)">
            <g id="pin_minicar" transform="translate(153.000000, 1390.000000)">
                <g id="Group-3" fill="#343D4A">
                    <g id="Group-2">
                        <polygon id="Oval-2" points="435 677 796 1153 74 1153"></polygon>
                        <g id="Group">
                            <circle id="Oval" cx="434.5" cy="434.5" r="434.5"></circle>
                        </g>
                    </g>
                </g>
                <g id="icon/minicar" transform="translate(154.000000, 151.000000)">
                    <g id="minicar" transform="translate(0.000000, 104.650000)">
                        <path d="M442.693977,80.4486384 C384.603191,40.8374869 355.591543,30.3516561 378.103236,15.1890371 C400.614928,0.0264180322 358.733349,0.677061399 344.179239,0.677061399 L135.570331,0.677061399 C121.016221,0.677061399 90.5126623,0.677061399 69.1743967,0.0264180322 C47.8361311,-0.624225334 13.9942173,10.6814106 5.61440813,40.8374869 C-2.76540109,70.9935633 0.717770442,145.838237 0.717770442,166.22049 L0.717770442,282.564384 C0.717770442,302.946637 13.3390945,318.55 29.8259902,318.55 L51.1642558,318.55 C51.1642558,269.350466 82.4006809,228.585961 135.570331,228.585961 C188.739981,228.585961 210.967906,269.350466 210.967906,318.55 L350.725008,318.55 C350.725008,269.350466 370.228613,228.585961 430.377838,228.585961 C490.527064,228.585961 512.044402,269.350466 512.044402,318.55 L533.382667,318.55 C549.869563,318.55 575,302.946637 575,282.564384 L575,181.668097 C575,181.668097 574.095452,152.879569 554.320389,141.046314 C525.990718,124.094044 533.987855,128.896065 498.467546,112.18521 C455.640071,92.036632 459.688072,92.036632 442.693977,80.4486384 Z M341.022922,83.3645766 L309.289494,149.338205 L330.460788,160.115178 C339.875242,164.894547 341.023392,176.889273 332.802939,184.105588 L245.777025,257.295532 C234.02042,266.901053 217.579984,253.687614 223.458287,239.302724 L255.191714,173.329096 L234.02042,163.723575 C224.605966,158.944206 223.457816,146.94948 231.678269,139.733165 L319.852804,66.5432205 C330.415407,55.7662483 346.902399,68.9796865 341.024097,83.3640968 L341.022922,83.3645766 Z" id="Shape" fill="#EBEBEB"></path>
                        <path d="M133.4,254.15 C102.733333,254.15 78.2,278.683333 78.2,309.35 C78.2,340.016667 102.733333,364.55 133.4,364.55 C164.066667,364.55 188.6,340.016667 188.6,309.35 C188.6,279.929627 164.066667,254.15 133.4,254.15 L133.4,254.15 Z" id="wheel" fill="#3FBE79"></path>
                        <path d="M435.85,254.15 C405.183333,254.15 380.65,278.683333 380.65,309.35 C380.65,340.016667 405.183333,364.55 435.85,364.55 C466.516667,364.55 491.05,340.016667 491.05,309.35 C491.05,279.929627 466.516667,254.15 435.85,254.15 L435.85,254.15 Z" id="wheel" fill="#3FBE79"></path>
                    </g>
                </g>
            </g>
        </g>
    </g>
</svg>