<?xml version="1.0" encoding="UTF-8"?>
<svg width="869px" height="1153px" viewBox="0 0 869 1153" version="1.1" xmlns="http://www.w3.org/2000/svg" xmlns:xlink="http://www.w3.org/1999/xlink">
    <!-- Generator: Sketch 55 (78076) - https://sketchapp.com -->
    <title>pin_scooter</title>
    <desc>Created with Sketch.</desc>
    <g id="Icons" stroke="none" stroke-width="1" fill="none" fill-rule="evenodd">
        <g id="Artboard" transform="translate(-1159.000000, -1390.000000)">
            <g id="pin_scooter" transform="translate(1159.000000, 1390.000000)">
                <g id="Group-3" fill="#343D4A">
                    <g id="Group-2">
                        <polygon id="Oval-2" points="435 677 796 1153 74 1153"></polygon>
                        <g id="Group">
                            <circle id="Oval" cx="434.5" cy="434.5" r="434.5"></circle>
                        </g>
                    </g>
                </g>
                <g id="icon/scooter" transform="translate(108.000000, 62.000000)">
                    <g id="scooter" transform="translate(327.153000, 325.847000) scale(-1, 1) translate(-327.153000, -325.847000) translate(0.000000, 107.092000)">
                        <path d="M602.84242,330.698659 C602.842435,330.698748 602.842451,330.698838 602.842466,330.698929 C602.842451,330.69884 602.842436,330.698751 602.842421,330.698662 Z M603.778092,330.287081 C603.626784,330.195189 603.475002,330.103155 603.322746,330.010978 L601.885368,329.140782 L602.613133,330.655263 C602.699383,330.834749 602.77526,330.970026 602.845934,331.065379 C602.907493,331.148434 602.969468,331.212112 603.060955,331.263493 C603.303691,331.399817 603.623356,331.33493 603.775193,331.06742 C603.886421,330.871457 603.876116,330.665098 603.778092,330.287081 Z M459.945873,343.166328 C459.941931,343.192801 459.938344,343.218031 459.935123,343.241963 C459.925834,343.310967 459.919646,343.368834 459.91675,343.416459 C459.90743,343.569724 459.909678,343.623489 459.983935,343.753693 C460.504471,344.076597 460.504471,344.076597 460.808542,343.826683 C460.880072,343.72234 460.880072,343.72234 460.899065,343.674506 C460.917626,343.629585 460.934437,343.576879 460.952943,343.509708 L461.382807,341.94943 L459.945873,343.166328 Z M22.115073,328.278422 C21.9997641,328.436406 21.9379514,328.519812 21.8968933,328.572864 C21.9240881,328.537352 21.9867959,328.532876 22.3575514,328.506417 C22.7539114,328.976618 22.7539114,328.976618 22.6870739,329.079268 C22.678538,329.117569 22.7099999,329.050421 22.7437184,328.984959 L23.1932064,328.112307 L22.2230518,328.26184 C22.1869971,328.267397 22.1510042,328.272924 22.115073,328.278422 Z M21.8968933,328.572864 C21.888704,328.583446 21.8813403,328.59282 21.8745425,328.601338 C21.8675583,328.610089 21.8633837,328.614856 21.8821606,328.598425 C21.887093,328.58825 21.8911911,328.579795 21.8967551,328.572616 Z M534.107334,349.739814 C526.695871,349.739814 520.633592,355.765809 520.595732,363.155711 C520.595732,370.620704 526.653151,376.688693 534.107334,376.688693 C541.602658,376.688693 547.697309,370.618844 547.697309,363.155711 C547.697309,355.766937 541.59899,349.739814 534.107334,349.739814 Z M90.3178367,349.739814 C82.8753375,349.739814 76.8454205,355.756923 76.8454205,363.155711 C76.8454205,370.628643 82.8715485,376.688693 90.3178367,376.688693 C97.8131608,376.688693 103.907812,370.618844 103.907812,363.155711 C103.907812,355.766937 97.8094928,349.739814 90.3178367,349.739814 Z" id="Shape" stroke="#C8C5C5" fill="#EBEBEB"></path>
                        <path d="M312.089344,230.473417 C313.86111,230.194618 315.302186,228.913729 315.808383,227.216947 L315.861577,227.038639 L316.018399,226.938488 C320.546159,224.046924 338.413531,222.625136 366.993387,222.1316 C377.1082,221.95693 385.502677,221.918505 401.203296,221.918505 L416.010996,221.918505 C465.059783,221.918505 486.799742,221.076393 497.429113,217.846538 C504.018925,216.764118 509.475419,215.341081 517.322583,212.849091 C518.298815,212.539073 518.995903,212.315162 520.88304,211.706944 C521.944857,211.364845 522.182675,211.288273 522.665457,211.133242 C539.605544,205.693416 550.820726,203.403161 570.420412,202.585175 C571.791837,202.513109 573.06139,201.86036 573.900594,200.778018 C574.738558,199.69732 575.038176,198.323027 574.750873,196.960147 C570.348737,177.651644 545.211043,164.643777 504.487354,157.020264 C474.989854,151.498305 440.267694,149.268459 405.52344,149.268459 C388.207679,149.268459 369.527314,149.804264 352.894656,151.168845 C329.089916,153.121841 313.560604,156.511115 309.771593,161.465074 L309.520671,161.793143 L309.464416,161.765062 C305.120132,168.336573 302.945835,180.001445 302.902826,194.183571 C302.865389,206.528506 304.523717,219.644516 306.943098,227.321954 C307.575859,229.252417 309.371865,230.546459 311.377327,230.546459 C311.484258,230.546416 311.59027,230.539375 311.715035,230.524945 C311.80416,230.514637 311.890078,230.502503 312.089336,230.473429 Z M312.089336,230.473429 C312.090428,230.47327 312.091524,230.47311 312.092624,230.472949 C312.092731,230.472934 312.092731,230.472934 312.092839,230.472919 L312.086071,230.473931 C312.087162,230.47376 312.088253,230.473589 312.089344,230.473417 Z" id="Shape" stroke="#C8C5C5" fill="#EBEBEB"></path>
                        <circle id="Oval" fill="#3FBE79" cx="531.605194" cy="377.971459" r="59.423"></circle>
                        <circle id="Oval" fill="#3FBE79" cx="90.1771935" cy="374.053459" r="59.423"></circle>
                    </g>
                </g>
            </g>
        </g>
    </g>
</svg>