<?xml version="1.0" encoding="UTF-8"?>
<svg width="869px" height="1153px" viewBox="0 0 869 1153" version="1.1" xmlns="http://www.w3.org/2000/svg" xmlns:xlink="http://www.w3.org/1999/xlink">
    <!-- Generator: Sketch 55 (78076) - https://sketchapp.com -->
    <title>pin_pedelec</title>
    <desc>Created with Sketch.</desc>
    <g id="Icons" stroke="none" stroke-width="1" fill="none" fill-rule="evenodd">
        <g id="Artboard" transform="translate(-1159.000000, -126.000000)">
            <g id="pin_pedelec" transform="translate(1159.000000, 126.000000)">
                <g id="Group-3" fill="#343D4A">
                    <g id="Group-2">
                        <polygon id="Oval-2" points="435 677 796 1153 74 1153"></polygon>
                        <g id="Group">
                            <circle id="Oval" cx="434.5" cy="434.5" r="434.5"></circle>
                        </g>
                    </g>
                </g>
                <g id="icon/pedelec" transform="translate(108.000000, 99.000000)">
                    <g id="Group-10" transform="translate(0.000000, 152.802000)">
                        <g id="Group-9" transform="translate(0.000000, 116.234000)" fill="#3FBE79">
                            <path d="M116.234,231.162 C52.0397344,231.162 0,179.414624 0,115.581 C0,51.7473763 52.0397344,0 116.234,0 C180.428266,0 232.468,51.7473763 232.468,115.581 C232.468,179.414624 180.428266,231.162 116.234,231.162 Z M115.637928,191.904834 C158.434105,191.904834 193.127262,157.406583 193.127262,114.850834 C193.127262,72.2950848 158.434105,37.7968339 115.637928,37.7968339 C72.8417511,37.7968339 38.1485949,72.2950848 38.1485949,114.850834 C38.1485949,157.406583 72.8417511,191.904834 115.637928,191.904834 Z" id="Combined-Shape"></path>
                            <rect id="Rectangle" x="25.57148" y="108.64614" width="179.00036" height="11.5581"></rect>
                            <polygon id="Rectangle" transform="translate(115.071660, 114.425190) scale(-1, -1) rotate(90.000000) translate(-115.071660, -114.425190) " points="26.07429 108.61349 204.06903 108.61349 204.06903 120.23689 26.07429 120.23689"></polygon>
                            <polygon id="Rectangle" transform="translate(115.071660, 114.425190) scale(-1, -1) rotate(45.000000) translate(-115.071660, -114.425190) " points="25.83921 108.88122 204.33676 108.37841 204.30411 119.96916 25.80656 120.47197"></polygon>
                            <polygon id="Rectangle" transform="translate(115.071660, 114.425190) scale(-1, -1) rotate(135.000000) translate(-115.071660, -114.425190) " points="25.80656 108.37841 204.30411 108.88122 204.33676 120.47197 25.83921 119.96916"></polygon>
                        </g>
                        <g id="Group-9" transform="translate(421.838000, 116.234000)" fill="#3FBE79">
                            <path d="M116.234,231.162 C52.0397344,231.162 0,179.414624 0,115.581 C0,51.7473763 52.0397344,0 116.234,0 C180.428266,0 232.468,51.7473763 232.468,115.581 C232.468,179.414624 180.428266,231.162 116.234,231.162 Z M115.637928,191.904834 C158.434105,191.904834 193.127262,157.406583 193.127262,114.850834 C193.127262,72.2950848 158.434105,37.7968339 115.637928,37.7968339 C72.8417511,37.7968339 38.1485949,72.2950848 38.1485949,114.850834 C38.1485949,157.406583 72.8417511,191.904834 115.637928,191.904834 Z" id="Combined-Shape"></path>
                            <rect id="Rectangle" x="25.57148" y="108.64614" width="179.00036" height="11.5581"></rect>
                            <polygon id="Rectangle" transform="translate(115.071660, 114.425190) scale(-1, -1) rotate(90.000000) translate(-115.071660, -114.425190) " points="26.07429 108.61349 204.06903 108.61349 204.06903 120.23689 26.07429 120.23689"></polygon>
                            <polygon id="Rectangle" transform="translate(115.071660, 114.425190) scale(-1, -1) rotate(45.000000) translate(-115.071660, -114.425190) " points="25.83921 108.88122 204.33676 108.37841 204.30411 119.96916 25.80656 120.47197"></polygon>
                            <polygon id="Rectangle" transform="translate(115.071660, 114.425190) scale(-1, -1) rotate(135.000000) translate(-115.071660, -114.425190) " points="25.80656 108.37841 204.30411 108.88122 204.33676 120.47197 25.83921 119.96916"></polygon>
                        </g>
                        <path d="M418.304469,25.3512163 L451.294881,25.3512163 L454.464609,28.5322645 C452.689541,34.6166436 450.914472,41.3575393 449.49443,47.2395604 C411.727917,45.3376574 354.796277,45.6730035 278.69951,48.2455986 L36.568,48.2455986 L55.7397492,91.4853359 L250.96378,91.4853359 C238.487536,100.54847 227.082397,109.112657 215.239735,121.407316 C210.594832,126.229499 101.743863,221.16396 108.754812,231.826765 C113.428778,238.935301 143.406289,242.489569 198.687346,242.489569 L276.93322,246.680727 C287.582714,258.972242 297.825356,265.118 307.661146,265.118 C322.41483,265.118 337.84279,257.865034 344.131871,245.494112 L356.253023,249.2558 L353.869365,251.628967 L362.82066,260.540866 L380.901119,242.489569 L371.746637,233.577671 L366.370797,239.131886 L347.884611,233.375765 C348.442501,230.295734 348.188874,227.367133 348.087474,224.463867 C406.663956,194.59747 443.611659,161.221638 471.149111,127.918838 C471.757678,129.871196 491.394953,166.052683 530.060935,236.4633 C535.14025,239.009491 538.927929,239.009491 541.423969,236.4633 C543.92001,233.917109 543.92001,230.05333 541.423969,224.871962 C502.147144,123.731951 480.192737,64.8564968 475.56075,48.2455986 L481.139454,29.5383027 C482.762359,25.04448 481.570562,19.6420818 478.147206,16.2586756 L465.417789,3.56007649 C463.059514,1.28792691 459.763004,-0.0249122729 456.466495,0.000358249466 L418.302911,0.000358249466 C410.34029,0.0761051861 404.913945,7.44772984 404.989897,13.2799854 C405.295718,19.8976954 411.660296,25.6543333 418.304469,25.3512163 Z M462.452028,97.7826087 C435.217735,133.859349 400.604419,169.380268 337.209208,201.669662 C330.641636,194.979113 321.740976,190.586825 311.749724,190.182884 L285.301567,103.539247 C319.906661,83.0561202 376.766758,72.814557 455.881859,72.814557 C458.757474,83.8719725 460.94753,92.1946564 462.452028,97.7826087 Z M287.481453,197.707166 C282.807657,198.876945 277.855874,204.418924 272.626103,214.333102 L159.269302,210.001825 L239.783627,140.420637 C250.146416,130.254691 257.965139,123.050977 263.239797,118.809493 L287.481453,197.707166 Z M315.936754,203.690463 C319.258645,204.447868 322.402991,205.735437 325.091236,207.654122 C322.809042,208.73972 320.476084,209.749572 318.143255,210.83517 L315.936754,203.690463 Z M291.694449,211.037011 L293.089109,215.783345 L288.321858,215.783345 C289.310791,214.06663 290.350489,212.450868 291.694449,211.037011 Z M325.489821,239.767333 L331.85466,241.761765 C327.391671,249.00749 319.42905,253.652483 310.173948,253.652483 C300.715658,253.652483 292.702403,248.704244 288.315366,241.155531 L296.074799,241.155531 C299.574172,244.94249 304.620367,247.492357 310.199265,247.492357 C316.437323,247.492357 322.015961,244.361785 325.515593,239.767074 L325.489821,239.767333 Z" id="Fill-1" stroke="#C8C5C5" fill="#EBEBEB"></path>
                    </g>
                </g>
            </g>
        </g>
    </g>
</svg>