<?xml version="1.0" encoding="UTF-8"?>
<svg width="684px" height="418px" viewBox="0 0 684 418" version="1.1" xmlns="http://www.w3.org/2000/svg" xmlns:xlink="http://www.w3.org/1999/xlink">
    <!-- Generator: Sketch 55.1 (78136) - https://sketchapp.com -->
    <title>bike</title>
    <desc>Created with Sketch.</desc>
    <g id="Layout_Template" stroke="none" stroke-width="1" fill="none" fill-rule="evenodd">
        <g id="bike" transform="translate(-283.000000, -302.000000)">
            <g transform="translate(283.000000, 302.000000)" id="Group-4">
                <g>
                    <g transform="translate(342.000000, 209.000000) scale(-1, 1) translate(-342.000000, -209.000000) ">
                        <g id="Group-3">
                            <path d="M552.169981,174.569595 C541.211285,174.569595 530.471636,176.104769 520.170084,178.955709 L488.390132,101.540171 L516.663292,32.8964103 L550.634848,32.8964103 L550.634848,0 L442.58189,0 L442.58189,32.8964103 L481.156602,32.8964103 L423,174.569595 L376.717345,174.569595 L235.890465,52.2514513 L245.107418,32.8964103 L253.655237,32.8964103 L253.655237,0 L145.602279,0 L129.164682,16.4476437 L129.164682,57.0199205 L162.040997,57.0199205 L162.040997,32.8964103 L209.383251,32.8964103 L151.740567,173.253829 C144.288662,171.718656 136.398212,171.060772 128.508211,171.060772 C60.3451512,171.060772 5.11401869,226.326786 5.11401869,294.530386 C5.11401869,362.733986 60.3462734,418 128.508211,418 C196.670148,418 251.902402,362.733986 251.902402,294.530386 C251.902402,245.844328 223.848066,203.95606 183.081749,183.7794 L203.903678,133.119355 L350.964507,283.346707 C350.307026,285.978465 349.868593,288.61011 349.868593,291.461162 C349.868593,310.102873 364.992124,325.453483 383.84015,325.453483 C393.045451,325.453483 401.37411,321.725254 407.511276,315.803855 L434.469249,315.803855 C444.551304,371.946822 493.427119,414.712043 552.600447,414.712043 C618.790726,414.712043 672.493458,360.980978 672.493458,294.745751 C672.274297,228.294934 618.357567,174.566115 552.1628,174.566115 L552.169981,174.569595 Z M387.553365,258.172509 C386.02464,257.952553 384.277541,257.732598 382.748816,257.732598 C379.036245,257.732598 375.542048,258.392464 372.266224,259.492355 L225.206864,108.982762 L231.039129,87.2717005 L368.224597,207.790178 L409.15143,207.790178 L387.553365,258.172509 Z M414.235514,279.003189 L470.037208,144.446483 L489.66729,191.704877 C457.906601,210.739073 435.85085,243.995146 432.100548,282.501529 L415.559017,282.501529 C415.117925,281.407668 414.676832,280.313694 414.235514,279.000949 L414.235514,279.003189 Z" id="Fill-1" fill="#3FBE79"></path>
                            <ellipse id="Oval" fill="#35495E" cx="556.149533" cy="290.171254" rx="127.850467" ry="127.828746"></ellipse>
                            <ellipse id="Oval-2" fill="#35495E" cx="127.850467" cy="290.171254" rx="127.850467" ry="127.828746"></ellipse>
                        </g>
                        <g id="Group-2" transform="translate(423.000000, 166.000000)" fill="#3FBE79">
                            <ellipse id="Oval" cx="132.846715" cy="124.607692" rx="42.1532847" ry="42.3923077"></ellipse>
                            <polygon id="Rectangle" transform="translate(106.660584, 75.792308) rotate(-23.000000) translate(-106.660584, -75.792308) " points="90.8307057 1.38131672 122.792658 1.3161884 122.490462 150.203299 90.5285103 150.268427"></polygon>
                            <polygon id="Rectangle" transform="translate(74.725705, 133.600000) rotate(-90.000000) translate(-74.725705, -133.600000) " points="58.6680128 59.5118329 90.7833974 59.5118329 90.7833974 207.688167 58.6680128 207.688167"></polygon>
                        </g>
                        <g id="Group" transform="translate(86.000000, 149.000000)" fill="#3FBE79">
                            <ellipse id="Oval" cx="42.0357143" cy="141.275076" rx="42.0357143" ry="42.1666667"></ellipse>
                            <polygon id="Rectangle" transform="translate(63.369017, 75.388889) rotate(22.000000) translate(-63.369017, -75.388889) " points="47.3594963 1.29284735 79.2186561 1.32730461 79.3785378 149.48493 47.519378 149.450473"></polygon>
                        </g>
                    </g>
                </g>
            </g>
        </g>
    </g>
</svg>