<?xml version="1.0" encoding="UTF-8"?>
<svg width="946px" height="537px" viewBox="0 0 946 537" version="1.1" xmlns="http://www.w3.org/2000/svg" xmlns:xlink="http://www.w3.org/1999/xlink">
    <!-- Generator: Sketch 55.1 (78136) - https://sketchapp.com -->
    <title>car</title>
    <desc>Created with Sketch.</desc>
    <g id="Layout_Template" stroke="none" stroke-width="1" fill="none" fill-rule="evenodd">
        <g id="car" transform="translate(-176.000000, -202.000000)">
            <g transform="translate(176.000000, 203.000000)">
                <g id="icon/pedelec" transform="translate(351.000000, 456.000000)">
                    <g id="pedelec">
                        <g id="Group-9" transform="translate(0.000000, 26.846576)" fill="#35495E">
                            <path d="M26.6546763,53.0458221 C11.9337051,53.0458221 0,41.1711103 0,26.5229111 C0,11.8747118 11.9337051,0 26.6546763,0 C41.3756475,0 53.3093525,11.8747118 53.3093525,26.5229111 C53.3093525,41.1711103 41.3756475,53.0458221 26.6546763,53.0458221 Z M26.5179856,44.0372971 C36.3319664,44.0372971 44.2877698,36.1208226 44.2877698,26.3553564 C44.2877698,16.5898902 36.3319664,8.67341573 26.5179856,8.67341573 C16.7040048,8.67341573 8.74820144,16.5898902 8.74820144,26.3553564 C8.74820144,36.1208226 16.7040048,44.0372971 26.5179856,44.0372971 Z" id="Combined-Shape"></path>
                            <rect id="Rectangle" x="5.86402878" y="24.9315364" width="41.0482014" height="2.65229111"></rect>
                            <polygon id="Rectangle" transform="translate(26.388129, 26.257682) scale(-1, -1) rotate(90.000000) translate(-26.388129, -26.257682) " points="5.96548799 24.9249481 46.810771 24.9249481 46.810771 27.5904158 5.96548799 27.5904158"></polygon>
                            <polygon id="Rectangle" transform="translate(26.388129, 26.257682) scale(-1, -1) rotate(45.000000) translate(-26.388129, -26.257682) " points="5.91805251 24.9789719 46.8647947 24.8775127 46.8582065 27.536392 5.91146425 27.6378512"></polygon>
                            <polygon id="Rectangle" transform="translate(26.388129, 26.257682) scale(-1, -1) rotate(135.000000) translate(-26.388129, -26.257682) " points="5.91146425 24.8775127 46.8582065 24.9789719 46.8647947 27.6378512 5.91805251 27.536392"></polygon>
                        </g>
                        <g id="Group-9" transform="translate(96.690647, 26.846576)" fill="#35495E">
                            <path d="M26.6546763,53.0458221 C11.9337051,53.0458221 0,41.1711103 0,26.5229111 C0,11.8747118 11.9337051,0 26.6546763,0 C41.3756475,0 53.3093525,11.8747118 53.3093525,26.5229111 C53.3093525,41.1711103 41.3756475,53.0458221 26.6546763,53.0458221 Z M26.5179856,44.0372971 C36.3319664,44.0372971 44.2877698,36.1208226 44.2877698,26.3553564 C44.2877698,16.5898902 36.3319664,8.67341573 26.5179856,8.67341573 C16.7040048,8.67341573 8.74820144,16.5898902 8.74820144,26.3553564 C8.74820144,36.1208226 16.7040048,44.0372971 26.5179856,44.0372971 Z" id="Combined-Shape"></path>
                            <rect id="Rectangle" x="5.86402878" y="24.9315364" width="41.0482014" height="2.65229111"></rect>
                            <polygon id="Rectangle" transform="translate(26.388129, 26.257682) scale(-1, -1) rotate(90.000000) translate(-26.388129, -26.257682) " points="5.96548799 24.9249481 46.810771 24.9249481 46.810771 27.5904158 5.96548799 27.5904158"></polygon>
                            <polygon id="Rectangle" transform="translate(26.388129, 26.257682) scale(-1, -1) rotate(45.000000) translate(-26.388129, -26.257682) " points="5.91805251 24.9789719 46.8647947 24.8775127 46.8582065 27.536392 5.91146425 27.6378512"></polygon>
                            <polygon id="Rectangle" transform="translate(26.388129, 26.257682) scale(-1, -1) rotate(135.000000) translate(-26.388129, -26.257682) " points="5.91146425 24.8775127 46.8582065 24.9789719 46.8647947 27.6378512 5.91805251 27.536392"></polygon>
                        </g>
                        <path d="M95.8909628,5.92269789 L103.450611,5.92269789 L104.176944,6.65231703 C103.770192,8.04785688 103.363441,9.59397823 103.038043,10.9431043 C94.3839669,10.5068755 81.3382628,10.583792 63.9009308,11.1738537 L8.41726619,11.1738537 L12.8104115,21.0915091 L57.5453766,21.0915091 C54.686485,23.1702692 52.0730336,25.1345887 49.3593253,27.9545454 C48.2949608,29.0605825 23.3521076,50.8351662 24.9586443,53.2808338 C26.0296688,54.9112788 32.89892,55.7265013 45.5663981,55.7265013 L63.496191,56.6878037 C65.9364887,59.5070394 68.2835575,60.9166573 70.5373974,60.9166573 C73.9181573,60.9166573 77.4534251,59.2530852 78.894548,56.4156363 L81.6720715,57.2784336 L81.1258639,57.8227536 L83.1770245,59.8668257 L87.3201042,55.7265013 L85.2223838,53.6824292 L83.9905271,54.9563684 L79.7544765,53.6361193 C79.8823152,52.9296699 79.8241972,52.2579531 79.800962,51.5920472 C93.2235763,44.7417597 101.690025,37.0865326 108.000144,29.4480566 C108.139595,29.895858 112.639414,38.1946024 121.499601,54.3442898 C122.66351,54.9282953 123.531444,54.9282953 124.103404,54.3442898 C124.675364,53.7602843 124.675364,52.8740709 124.103404,51.6856497 C115.103245,28.487734 110.072462,14.983802 109.011057,11.1738537 L110.289399,6.88306637 C110.661283,5.85234351 110.388187,4.6132258 109.603735,3.83719293 L106.68683,0.924586646 C106.146439,0.40343647 105.391054,0.102317927 104.635669,0.108031915 L95.8906058,0.108031915 C94.0659966,0.125487733 92.8225669,1.81627584 92.839971,3.15398752 C92.9100488,4.67185446 94.3684717,5.99222214 95.8909628,5.92269789 Z M106.007235,22.5358792 C99.7665839,30.8105984 91.8350526,38.9578318 77.3082417,46.3638685 C75.8033036,44.829295 73.7637457,43.8218605 71.4742821,43.729211 L65.4137711,23.8562469 C73.3434182,19.1581473 86.3727285,16.8090975 104.501702,16.8090975 C105.16064,19.3452748 105.662484,21.254202 106.007235,22.5358792 Z M65.913285,45.4550132 C64.8422997,45.7233189 63.7076143,46.9944514 62.5092289,49.2684106 L36.5338788,48.2749699 L54.9834802,32.315524 C57.3580803,29.9838183 59.1497158,28.3315427 60.3583868,27.3586974 L65.913285,45.4550132 Z M72.4337267,46.8273684 C73.1949276,47.0010901 73.9154444,47.2964125 74.5314471,47.7364906 C74.0084897,47.9854882 73.4738997,48.2171121 72.9393395,48.4661097 L72.4337267,46.8273684 Z M66.8786797,48.5124048 L67.1982615,49.6010448 L66.1058612,49.6010448 C66.3324721,49.2072915 66.5707155,48.8366932 66.8786797,48.5124048 Z M74.6227817,55.1021173 L76.0812642,55.559569 C75.0585846,57.2214801 73.2339754,58.2868761 71.1131981,58.2868761 C68.9458611,58.2868761 67.1096491,57.1519262 66.1043736,55.4205205 L67.882423,55.4205205 C68.6842931,56.289114 69.8406128,56.8739626 71.1189995,56.8739626 C72.5484304,56.8739626 73.8267577,56.155921 74.6286872,55.102058 L74.6227817,55.1021173 Z" id="Fill-1" fill="#3FBE79"></path>
                    </g>
                </g>
                <g id="icon/car" transform="translate(66.000000, 0.000000)">
                    <g id="car" transform="translate(0.000000, -1.000000)">
                        <path d="M650.54333,92.2762247 C594.591756,50.7922439 571.751503,24.4558241 582.022572,13.2669653 C597.429177,-3.51632284 478.519093,1.71415046 459.105176,1.71415046 L180.839033,1.71415046 C161.425116,1.71415046 120.736021,1.71415046 92.27263,1.0278652 C63.8092392,0.341579933 18.667069,12.2665326 7.48913224,44.0745428 C-3.68880458,75.882553 0.957443355,154.827178 0.957443355,176.32596 L0.957443355,299.043111 C0.957443355,320.541893 17.7931922,337 39.7852774,337 L47.7504741,336.350363 C47.7504741,284.455705 74.2412501,242.654588 131.713462,242.654588 C189.185675,242.654588 217.601804,284.455705 217.601804,336.350363 L514.729708,336.350363 C514.729708,284.455705 543.59011,242.654588 597.06672,242.654588 C650.54333,242.654588 683.022706,285.105342 683.022706,337 L711.486097,337 C733.478183,337 767,320.541893 767,299.043111 L767,192.619779 C767,192.619779 765.793411,162.254231 739.415197,149.772757 C714.222318,137.852152 684.598363,118.686641 650.54333,92.2762247 Z M426.355349,85.9213573 L384.054719,155.571544 L412.276034,166.949092 C424.825493,171.994805 426.355976,184.657969 415.398119,192.276433 L299.392654,269.545084 C283.721111,279.685898 261.806025,265.736105 269.641797,250.549578 L311.942426,180.899391 L283.721111,170.758578 C271.171653,165.712865 269.64117,153.049701 280.599026,145.431237 L398.135601,68.1625858 C412.215542,56.7850378 434.192688,70.7348305 426.356916,85.9208507 L426.355349,85.9213573 Z" id="Shape" fill="#3FBE79"></path>
                        <path d="M133,270 C100.777778,270 75,295.777778 75,328 C75,360.222222 100.777778,386 133,386 C165.222222,386 191,360.222222 191,328 C191,297.087289 165.222222,270 133,270 L133,270 Z" id="wheel" fill="#35495E"></path>
                        <path d="M599,270 C566.777778,270 541,295.777778 541,328 C541,360.222222 566.777778,386 599,386 C631.222222,386 657,360.222222 657,328 C657,297.087289 631.222222,270 599,270 L599,270 Z" id="wheel" fill="#35495E"></path>
                    </g>
                </g>
                <g id="icon/minicar" transform="translate(757.000000, 411.000000)">
                    <g id="minicar">
                        <path d="M145.321625,26.44849 C126.258893,13.4258315 116.7386,9.97848429 124.125905,4.99358477 C131.513211,0.00868525652 117.769597,0.222592352 112.993605,0.222592352 L44.5377278,0.222592352 C39.7617363,0.222592352 29.7518671,0.222592352 22.7496268,0.00868525652 C15.7473865,-0.205221839 4.64202232,3.51164651 1.8921532,13.4258315 C-0.857715915,23.3400165 0.285301255,47.9461335 0.285301255,54.6470525 L0.285301255,92.8965542 C0.285301255,99.5974732 4.42704105,104.727273 9.83728418,104.727273 L16.8395245,104.727273 C16.8395245,88.5523143 27.0898868,75.1504764 44.5377278,75.1504764 C61.9855687,75.1504764 69.2797544,88.5523143 69.2797544,104.727273 L115.141627,104.727273 C115.141627,88.5523143 121.541815,75.1504764 141.280033,75.1504764 C161.01825,75.1504764 168.079254,88.5523143 168.079254,104.727273 L175.081494,104.727273 C180.491738,104.727273 188.738395,99.5974732 188.738395,92.8965542 L188.738395,59.7256455 C188.738395,59.7256455 188.441563,50.2610591 181.952294,46.3707294 C172.655795,40.7974597 175.280089,42.376184 163.623953,36.8822826 C149.569939,30.258187 150.898307,30.258187 145.321625,26.44849 Z M111.957847,27.4071409 L101.544391,49.0967916 L108.491839,52.6398552 C111.581231,54.2111323 111.958001,58.1545474 109.260425,60.5270009 L80.702511,84.5891049 C76.8445325,87.7470392 71.4495353,83.4029571 73.3785246,78.6737457 L83.7919802,56.984095 L76.8445325,53.8261607 C73.7551405,52.2548836 73.3783703,48.3114685 76.075946,45.9390151 L105.010785,21.876911 C108.476947,18.3338474 113.887222,22.6779295 111.958232,27.4069832 L111.957847,27.4071409 Z" id="Shape" fill="#3FBE79"></path>
                        <path d="M43.9525626,83.8441558 C33.9196136,83.8441558 25.8932545,91.8787879 25.8932545,101.922078 C25.8932545,111.965368 33.9196136,120 43.9525626,120 C53.9855115,120 62.0118706,111.965368 62.0118706,101.922078 C62.0118706,92.2869472 53.9855115,83.8441558 43.9525626,83.8441558 L43.9525626,83.8441558 Z" id="wheel" fill="#35495E"></path>
                        <path d="M143.278757,83.8441558 C133.245808,83.8441558 125.219449,91.8787879 125.219449,101.922078 C125.219449,111.965368 133.245808,120 143.278757,120 C153.311706,120 161.338065,111.965368 161.338065,101.922078 C161.338065,92.2869472 153.311706,83.8441558 143.278757,83.8441558 L143.278757,83.8441558 Z" id="wheel" fill="#35495E"></path>
                    </g>
                </g>
                <g id="icon/scooter" transform="translate(548.000000, 423.000000)">
                    <g id="scooter" transform="translate(81.000000, 54.500000) scale(-1, 1) translate(-81.000000, -54.500000) ">
                        <path d="M154.149282,75.8582943 L156.942245,73.4836613 C157.421306,73.0788775 157.529785,72.3772416 157.186299,71.8465185 L154.113115,67.024945 L155.911857,67.024945 L155.957049,67.024945 C156.662092,67.024945 157.222513,66.4672332 157.222513,65.7655973 C157.222513,65.5766998 157.186369,65.3967831 157.105009,65.2348742 C155.640706,55.9157292 150.804762,55.6909772 144.667418,55.6819964 C142.886748,54.2337512 141.042815,53.5501231 138.900541,53.5501231 C136.631762,53.5501231 134.2726,54.323721 131.533784,55.2142545 C128.198427,56.3026893 124.049478,57.6609647 118.716471,57.9937173 C109.279868,58.4075049 100.738077,58.4524783 93.8783115,58.4884478 C80.9163745,58.551406 79.2442994,58.6233681 78.7560516,60.1345715 C78.5933564,60.6473098 78.7650993,61.1960177 79.1899211,61.5198355 C84.8392486,65.8106168 87.5419661,70.6681138 86.6108244,74.8327024 C85.6346066,79.1863498 80.925399,82.4786431 73.3415921,84.1338858 L60.0543109,84.1338858 C59.3673393,84.1338858 58.7527025,83.9090187 58.1651623,83.3962804 C58.0928507,83.3513069 58.0205391,83.270341 57.8216765,83.03647 C50.6627146,76.11015 47.0834651,68.5180945 47.1917589,60.4493623 C47.3635018,47.2442657 57.4239049,36.6385541 59.4305801,34.6512497 L69.4276268,34.6512497 C69.8343765,34.6512497 70.2230541,34.4533482 70.458061,34.1205265 C71.0546257,33.2749665 71.3709917,32.2854824 71.3709917,31.2510248 C71.3709917,30.306514 71.1269373,29.4429693 70.6388283,28.687333 C70.4038215,28.3275227 70.0060963,28.1026326 69.5722268,28.1026326 L61.2292063,28.1026326 L56.8995361,23.1822696 C56.6554816,22.687539 56.9357035,20.1778245 58.3638398,16.9486276 C58.9242603,15.6892799 59.457561,14.7897656 59.8914305,14.1781456 C60.8405286,17.8031915 63.9679523,18.9997192 65.2334627,18.9997192 C65.9294588,18.9997192 66.4989038,18.4330265 66.4989038,17.7403715 L66.4989038,1.42305949 C66.4989038,1.04526441 66.3271609,0.685454078 66.0288901,0.442579228 C65.7305962,0.199704378 65.3419185,0.109757553 64.9622885,0.190700485 C62.0878744,0.811370422 60.126553,3.13204917 58.9966413,7.27890637 C56.3302531,8.94303777 52.4344524,13.5125483 51.0243188,20.5648308 C47.0199929,20.6008233 44.7240714,20.8167095 42.6542248,21.0685652 L37.6465613,17.85733 C37.4386742,17.7224098 37.2036442,17.6594286 36.9596129,17.6594286 C35.9382032,17.6594286 35.2783745,18.4689961 34.9891282,20.0791962 C34.8354805,20.9697296 34.7541213,22.1660961 34.7541213,23.6503569 C34.7541213,27.1584212 35.0433676,35.3082115 37.6917069,35.3082115 C37.8724974,35.3082115 38.0532647,35.272242 38.21596,35.191276 L42.5817281,33.2033268 L42.9884778,33.6620879 L41.9670681,34.1838071 C37.5742266,35.5510864 23.4643288,46.6241484 21.9005476,62.5725541 C15.5732267,64.506526 -0.416540657,74.8781825 0.00830432214,79.4296392 C0.0715914146,80.0682939 0.496413254,81.5525316 3.21708718,81.5525316 C3.82269953,81.5525316 4.52774319,81.4895735 5.35029028,81.3546532 C4.72624767,82.5633515 11.9185334,68.8230568 29.3617122,75.8585015 C42.9884778,81.3546532 36.9596129,98.3223993 39.4091357,97.7979276 C39.8697584,98.0681036 40.3072417,98.3223993 40.7261999,98.5617481 C47.4351147,102.394519 49.3937264,102.394519 65.5500602,102.394519 L97.619377,102.394519 C99.7073651,102.394519 101.67785,101.584951 103.151155,100.109718 C104.633531,98.6345068 105.447053,96.691462 105.447053,94.6316198 C105.447053,92.4637539 104.54317,90.3857428 102.961386,88.9375206 C102.816763,88.8025773 102.626948,88.7036496 102.428085,88.6496723 C101.469963,88.3168507 100.547984,87.831101 99.6078181,87.1924463 C99.5716739,87.1654576 99.526482,87.138469 99.4903147,87.1204842 C96.2725073,84.8356829 94.356077,81.1385368 94.356077,77.2166618 C94.356077,73.9874648 95.6215411,70.9830198 97.7728858,68.7700423 C97.2576571,70.2722418 96.9955305,71.8735072 96.9955305,73.4836152 C96.9955305,80.8417076 102.509259,87.1025225 109.830893,88.0468951 C110.183404,88.1008493 110.544961,87.9839139 110.816136,87.7500429 L114.070041,84.9975227 C113.636172,86.589692 113.419237,88.2357005 113.419237,89.899924 C113.419237,96.2260166 116.32484,84.4097031 119.874479,79.7054565 C120.804616,78.47277 123.910414,75.8582943 127.295573,74.8327024 C130.680732,73.8071106 136.831648,73.4836613 142.478417,75.8585015 C149.109402,78.6472697 151.436339,85.3955514 150.829785,84.1338858 C155.023857,86.6796158 157.267195,86.9675562 158.116885,89.2344188 C158.324796,89.7741458 158.876169,90.1069675 159.445614,90.0439863 C161.1359,89.8460849 161.705345,88.8476198 161.886158,88.2629194 C162.916592,85.0065496 156.679725,78.3860396 154.148704,75.8585015 L154.149282,75.8582943 Z" id="Fill-1" fill="#3FBE79"></path>
                        <path d="M100.492336,37.6229003 C95.285334,37.6229003 78.823572,37.8564529 76.662782,40.6770673 L76.644708,40.6680757 C74.1768206,44.2164377 74.7915245,53.4150431 75.948636,57.0441229 C76.1203976,57.5741236 76.6085598,57.9244525 77.1599928,57.9244525 C77.2232868,57.9244525 77.2865577,57.9154838 77.3588772,57.9064922 C77.8560648,57.8346281 78.2447848,57.4753076 78.3803983,57.0082024 C80.2968526,55.7865126 92.6996527,55.7865126 99.4345043,55.7865126 L103.10463,55.7865126 C112.334446,55.7865126 120.244228,55.7056568 123.308954,54.7804151 C125.559906,54.412103 127.304691,53.8551734 129.139638,53.2622773 C132.186082,52.2831317 135.341062,51.2680426 141.397846,51.0165298 C141.768492,50.9985695 142.121041,50.8188977 142.347048,50.5224727 C142.564006,50.2350162 142.6544,49.8487438 142.564006,49.4894233 C140.115072,38.7819246 112.327272,37.6229003 100.492336,37.6229003 Z" id="Fill-2" fill="#35495E"></path>
                        <ellipse id="Oval" fill="#35495E" cx="18.4311377" cy="94.4189092" rx="14.5508982" ry="14.5011086"></ellipse>
                        <ellipse id="Oval" fill="#35495E" cx="133.625749" cy="94.4189092" rx="14.5508982" ry="14.5011086"></ellipse>
                        <ellipse id="Oval" fill="#35495E" cx="133.383234" cy="94.4988914" rx="11.3982036" ry="11.3592018"></ellipse>
                    </g>
                </g>
                <g id="bike" transform="translate(0.000000, 465.000000)">
                    <g id="Group-4" transform="translate(58.500000, 35.500000) scale(-1, 1) translate(-58.500000, -35.500000) ">
                        <g id="Group-3">
                            <path d="M94.4501284,29.6517734 C92.5756145,29.6517734 90.7385693,29.9125325 88.9764617,30.396783 L83.5404173,17.2472539 L88.3766157,5.58766778 L94.1875398,5.58766778 L94.1875398,0 L75.7047969,0 L75.7047969,5.58766778 L82.3031029,5.58766778 L72.3552632,29.6517734 L64.4384932,29.6517734 L40.3496849,8.87524651 L41.9262688,5.58766778 L43.3883959,5.58766778 L43.3883959,0 L24.9056529,0 L22.0939588,2.79373853 L22.0939588,9.68520182 L27.717539,9.68520182 L27.717539,5.58766778 L35.815556,5.58766778 L25.9556234,29.4282819 C24.6809554,29.1675228 23.3312731,29.0557771 21.9816676,29.0557771 C10.3221969,29.0557771 0.874766355,38.4430666 0.874766355,50.0278885 C0.874766355,61.6127105 10.3223889,71 21.9816676,71 C33.6409463,71 43.0885688,61.6127105 43.0885688,50.0278885 C43.0885688,41.758247 38.2898008,34.6432542 31.316615,31.2161182 L34.8782607,22.6111823 L60.0334026,48.1282684 C59.9209387,48.5752895 59.8459435,49.0222914 59.8459435,49.5065611 C59.8459435,52.6729761 62.4328634,55.2803764 65.6568677,55.2803764 C67.2314586,55.2803764 68.6560977,54.6471124 69.7058762,53.6413246 L74.3171084,53.6413246 C76.0416704,63.1775703 84.4020073,70.4415193 94.5237607,70.4415193 C105.845782,70.4415193 115.031776,61.3149508 115.031776,50.0644696 C114.994288,38.7773692 105.771689,29.6511821 94.4488999,29.6511821 L94.4501284,29.6517734 Z M66.292023,43.8522683 C66.0305305,43.8149074 65.7316846,43.7775465 65.4701922,43.7775465 C64.8351472,43.7775465 64.2374555,43.8896291 63.6771172,44.0764526 L38.5222267,18.5114261 L39.519851,14.8236621 L62.9857863,35.2945039 L69.9864288,35.2945039 L66.292023,43.8522683 Z M70.8560748,47.3904938 L80.4011014,24.5351682 L83.7588785,32.5623117 C78.3261292,35.7953927 74.5534349,41.4441515 73.9119359,47.9847095 L71.0824635,47.9847095 C71.0070134,47.7989101 70.9315634,47.6130916 70.8560748,47.3901133 L70.8560748,47.3904938 Z" id="Fill-1" fill="#3FBE79"></path>
                            <ellipse id="Oval" fill="#35495E" cx="95.1308411" cy="49.2874618" rx="21.8691589" ry="21.7125382"></ellipse>
                            <ellipse id="Oval-2" fill="#35495E" cx="21.8691589" cy="49.2874618" rx="21.8691589" ry="21.7125382"></ellipse>
                        </g>
                        <g id="Group-2" transform="translate(72.355263, 28.196172)" fill="#3FBE79">
                            <ellipse id="Oval" cx="22.7237803" cy="21.1654214" rx="7.21043027" ry="7.20060729"></ellipse>
                            <polygon id="Rectangle" transform="translate(18.244574, 12.873813) rotate(-23.000000) translate(-18.244574, -12.873813) " points="15.5077085 0.214226144 20.9690195 0.216902684 20.9814387 25.5333999 15.5201276 25.5307234"></polygon>
                            <polygon id="Rectangle" transform="translate(12.782029, 22.692823) rotate(-90.000000) translate(-12.782029, -22.692823) " points="10.0545257 10.019847 15.5095313 10.019847 15.5095313 35.3657989 10.0545257 35.3657989"></polygon>
                        </g>
                        <g id="Group" transform="translate(14.710526, 25.308612)" fill="#3FBE79">
                            <ellipse id="Oval" cx="7.19031955" cy="23.9964842" rx="7.19031955" ry="7.1622807"></ellipse>
                            <polygon id="Rectangle" transform="translate(10.839437, 12.805290) rotate(22.000000) translate(-10.839437, -12.805290) " points="8.13443817 0.213812191 13.5786691 0.206434381 13.5444361 25.3967673 8.10020513 25.4041451"></polygon>
                        </g>
                    </g>
                </g>
                <g id="icon/miniscooter" transform="translate(167.000000, 455.000000)">
                    <g id="miniscooter">
                        <g>
                            <path d="M31.6658188,33.504142 C35.7869911,34.9582472 32.7362194,32.9588605 38.0929701,37.2537276 C43.4497208,41.5485947 46.8836555,48.1138735 46.8836555,55.5086695 C46.8836555,68.4446581 36.3874306,78.9330666 23.4418278,78.9330666 C10.4962249,78.9330666 0,68.4446581 0,55.5086695 C0,42.572681 10.4962249,32.0842513 23.4418278,32.0842513 C25.8171003,32.0837827 27.5446465,32.0500368 31.6658188,33.504142 Z M126,64.2922114 C126,72.3786134 119.44127,78.9324728 111.348858,78.9324728 C106.690234,78.9324728 102.54103,76.7821112 99.8567946,73.3966972 L96.7434122,65.2072424 C96.7262411,64.9041451 96.6976274,64.6010478 96.6976274,64.2922261 C96.6976274,56.2058241 103.256358,49.6519647 111.34877,49.6519647 C119.44127,49.6519647 126,56.2058095 126,64.2922114 Z" id="Fill-1" fill="#35495E" transform="translate(63.000000, 55.508594) scale(-1, 1) translate(-63.000000, -55.508594) "></path>
                            <path d="M26.2415066,0.118572352 C28.6110301,0.118572352 30.5455353,1.9901632 30.6371104,4.34412889 L33.7506631,6.45690716 C34.7923333,7.15733541 35.2731537,8.45489727 34.9411391,9.67200453 C34.1856521,12.4449984 33.5388976,15.2525317 32.8807731,18.0772611 C38.9018712,22.1765654 43.0627498,28.2450525 45.3349839,35.8054917 C47.8648005,44.2164804 48.2023828,54.4582006 46.7543977,66.3941118 L46.7543977,66.4400418 C46.7658409,66.824707 47.0863537,67.5653185 47.715936,68.1853803 C48.3569616,68.816921 49.1982801,69.1958395 49.6848735,69.1958395 L82.7896311,69.1958395 L101.380105,62.0307654 C102.833863,61.3245904 104.825672,62.1283721 105.409408,63.6383875 C105.993145,65.148403 105.037379,67.0372048 103.486332,67.4965044 L84.4387151,74.8452984 C84.1067591,74.988835 83.7461731,75.0634694 83.3856017,75.0749482 L49.6859724,75.0749482 C47.2420167,75.0749482 45.1529327,73.9496714 43.5963028,72.4110104 C42.039673,70.8723493 40.8947647,68.8227412 40.8947647,66.3941118 C40.8890358,66.2735475 40.8890358,66.1472364 40.8947647,66.0266721 C42.3256217,54.4580536 41.9593214,44.8474478 39.7500762,37.5045329 C38.0330069,31.8034855 35.3144724,27.4688729 31.416744,24.2767037 C28.7210667,35.6041348 25.3899316,47.046207 16.8104455,57.8048414 C15.7973907,59.0736548 13.9544752,59.2803322 12.6895669,58.264141 C11.4246587,57.2479498 11.2186514,55.3992872 12.2316915,54.1304444 C22.8944008,40.7647519 24.7030452,25.9184243 28.7606271,10.2214004 L26.7459754,8.88943146 C26.5742684,8.91240379 26.4197336,8.93536142 26.2423124,8.93536142 C23.8156461,8.93536142 21.8467086,6.96029955 21.8467086,4.52608503 C21.8467086,2.09187051 23.8156461,0.116808642 26.2423124,0.116808642 L26.2415066,0.118572352 Z" id="Path" fill="#3FBE79" transform="translate(58.585401, 37.595878) scale(-1, 1) translate(-58.585401, -37.595878) "></path>
                        </g>
                    </g>
                </g>
            </g>
        </g>
    </g>
</svg>