<?xml version="1.0" encoding="UTF-8"?>
<svg width="1048px" height="679px" viewBox="0 0 1048 679" version="1.1" xmlns="http://www.w3.org/2000/svg" xmlns:xlink="http://www.w3.org/1999/xlink">
    <!-- Generator: Sketch 55.1 (78136) - https://sketchapp.com -->
    <title>city</title>
    <desc>Created with Sketch.</desc>
    <g id="Layout_Template" stroke="none" stroke-width="1" fill="none" fill-rule="evenodd">
        <g id="city" transform="translate(-92.000000, -150.000000)">
            <g transform="translate(92.000000, 150.000000)">
                <g id="tram" transform="translate(173.000000, 0.000000)">
                    <g>
                        <path d="M93.673913,380.196013 L185.836957,380.196013 L185.836957,354.277422 L93.673913,354.25965 L93.673913,380.196013 Z M180.343933,80.1056251 L164.003831,63.4585714 L113.55397,63.1960133 L92.5008009,79.965854 C92.5008009,79.965854 11.755672,81.3312547 0,104.210467 C0,104.210467 0.330135326,329.798031 0.330135326,341.440393 C0.330135326,353.082754 24.2255105,379.846294 40.5473033,379.846294 C64.1863447,379.846294 80.1043884,379.968812 80.1043884,379.968812 L79.7559436,341.982806 L199.307935,341.982806 L199.289579,380.196013 C199.289579,380.196013 220.232421,379.810937 240.185139,379.810937 C260.137857,379.810937 278,346.183871 278,341.49242 C277.98169,324.494931 277.504844,104.231126 277.504844,104.231126 C277.501933,81.7686275 180.343933,80.1056251 180.343933,80.1056251 Z M98.2065217,107.369329 C98.2065217,107.658289 98.2618662,107.947205 98.2987468,108.219153 C98.7599195,104.78583 101.895761,102.100559 105.750893,102.100559 L173.741513,102.100559 C177.596786,102.100559 180.751186,104.786048 181.212076,108.219153 C181.249003,107.930236 181.304348,107.658245 181.304348,107.369329 L181.304348,109.068977 C181.304348,108.78006 181.249003,108.508069 181.212076,108.236122 C180.75095,111.771435 177.596644,115.068741 173.741513,115.068741 L105.750893,115.068741 C101.877203,115.068741 98.7412195,111.771392 98.2987468,108.236122 C98.2618662,108.508069 98.2065217,108.780017 98.2065217,109.068977 L98.2065217,107.369329 Z M46.8369565,332.646013 C40.9936627,332.646013 36.2608696,328.131004 36.2608696,322.551079 C36.2608696,316.971595 40.9936627,312.473286 46.8369565,312.473286 C52.662076,312.473286 57.4130435,316.971155 57.4130435,322.551079 C57.4130435,328.113424 52.662076,332.646013 46.8369565,332.646013 Z M132.956522,239.0557 C132.956522,246.997109 126.229497,253.396013 117.903645,253.396013 L28.6507026,253.396013 C20.3248508,253.396013 13.5978261,246.979606 13.5978261,239.0557 L13.5978261,140.953829 C13.5978261,133.01242 20.3248508,126.596013 28.6507026,126.596013 L117.903645,126.596013 C126.229497,126.596013 132.956522,133.029923 132.956522,140.953829 L132.956522,239.0557 Z M232.673887,334.086922 C226.830607,334.086922 222.097826,329.571913 222.097826,324.009129 C222.097826,318.429644 226.848782,313.914195 232.673887,313.914195 C238.517166,313.914195 243.25,318.412064 243.25,324.009129 C243.268169,329.571473 238.517166,334.086922 232.673887,334.086922 Z M265.894289,239.038152 C265.894289,246.979561 259.172761,253.378465 250.894629,253.378465 L161.554008,253.396013 C153.25759,253.396013 146.554348,246.979606 146.554348,239.0557 L146.554348,140.953829 C146.554348,133.01242 153.25759,126.596013 161.554008,126.596013 L250.913384,126.596013 C259.209801,126.596013 265.913043,133.029923 265.913043,140.953829 L265.894289,239.038152 Z" id="Fill-48" fill="#35495E"></path>
                        <path d="M71.7976791,14.1041119 L71.7973502,14.1045165 C65.8322343,22.0594898 69.4110219,0.196013289 82.4970654,0.196013289 L193.497273,0.213591105 C206.582893,0.213591105 210.161634,22.076618 204.215312,14.1041119 C198.26899,6.13124607 187.734189,7.184926 187.734189,7.184926 L139.941846,56.1960133 L137.978046,56.1257919 L136.032618,56.1960133 L88.5174817,7.184926 C88.5174817,7.184926 77.7440013,6.13160572 71.7976791,14.1041119 Z M139.039796,7.37550047 L100.846154,7.39298078 L138.324143,45.5684621 L138.324143,45.3413969 L139.039561,46.1447312 L139.773342,45.3413969 L139.773342,45.5684621 L178.186813,7.39298078 L139.039796,7.37550047 Z" id="Combined-Shape" fill="#3FBE79"></path>
                        <polygon id="Path" fill="#3FBE79" points="22 430.196013 45.4347726 430.196013 64 394.196013 50.9665761 394.196013"></polygon>
                        <polygon id="Path" fill="#3FBE79" points="214 394.196013 231.823096 430.196013 256 430.196013 227.445693 394.196013"></polygon>
                    </g>
                </g>
                <g id="miniscooter" transform="translate(0.000000, 582.000000)">
                    <g>
                        <path d="M37.229362,40.6296832 C34.476674,49.1050158 30.7310862,57.1521596 24.6131005,64.7858551 C23.7189861,65.9023275 23.3036047,67.3278436 23.4584963,68.753162 C23.620417,70.1715776 24.3385346,71.4705966 25.4579935,72.3693974 C26.5773984,73.2611696 28.0066586,73.6754629 29.4357206,73.5139664 C30.8578616,73.3594805 32.1673214,72.6432441 33.0614539,71.5267177 C39.7850201,63.1495342 43.8824213,54.4635227 46.8603997,45.7419187 C53.4500533,51.0153631 57.6743381,59.0765282 57.6743381,68.1562145 C57.6743381,84.0396434 44.7623154,96.9178419 28.8371691,96.9178419 C12.9120227,96.9178419 0,84.0396434 0,68.1562145 C0,52.2727855 12.9120227,39.3945861 28.8371691,39.3945861 C31.7591313,39.3938321 34.568232,39.8221646 37.229362,40.6296832 Z M155,78.9410698 C155,88.8699431 146.931721,96.9170869 136.976769,96.9170869 C131.245923,96.9170869 126.141744,94.2767695 122.839708,90.1199953 L138.891557,83.9407394 C140.334822,83.5124069 141.5316,82.5082665 142.200442,81.1600293 C142.869266,79.8188566 142.946712,78.2529478 142.411657,76.855672 C141.876583,75.4512957 140.778301,74.3348951 139.384294,73.7659542 C137.990306,73.2042036 136.427403,73.2463394 135.061603,73.8853329 L119.009753,80.0645888 C118.98863,79.6924313 118.953431,79.3202738 118.953431,78.9410877 C118.953431,69.0122144 127.02171,60.9650706 136.976661,60.9650706 C146.931721,60.9650706 155,69.0121964 155,78.9410698 Z" id="Fill-1" fill="#35495E" transform="translate(77.500000, 68.156213) scale(-1, 1) translate(-77.500000, -68.156213) "></path>
                        <path d="M32.2812184,0.145588837 C35.1961084,0.145588837 37.5758569,2.44361811 37.6885088,5.33393041 L41.5186729,7.9281012 C42.8000925,8.7881207 43.391578,10.3813296 42.9831473,11.8757524 C42.0537783,15.2805677 41.2581676,18.7277921 40.4485701,22.1961308 C47.8554765,27.2294537 52.9740176,34.6806341 55.7692263,43.963705 C58.8813022,54.2911215 59.2965821,66.8663982 57.5153305,81.5218841 L57.5153305,81.5782791 C57.5294075,82.0505896 57.923689,82.959948 58.6981753,83.7212898 C59.4867384,84.4967258 60.5216938,84.9619802 61.1202809,84.9619802 L101.844387,84.9619802 L124.713621,76.1643575 C126.501974,75.2972818 128.952216,76.2842037 129.670304,78.1382733 C130.388392,79.992343 129.212649,82.3115046 127.304614,82.8754547 L103.873023,91.8986575 C103.464664,92.0748987 103.021086,92.1665383 102.577526,92.1806326 L61.1216327,92.1806326 C58.1151792,92.1806326 55.5452743,90.7989637 53.6303725,88.9097216 C51.7154708,87.0204795 50.3070519,84.5038721 50.3070519,81.5218841 C50.3000044,81.3738494 50.3000044,81.2187586 50.3070519,81.070724 C52.067233,66.8662178 51.6166255,55.0658537 48.8989033,46.0498695 C46.7866354,39.0498493 43.4424065,33.7276034 38.6475819,29.8081046 C35.3314709,43.7164693 31.233646,57.7655959 20.6795163,70.9755647 C19.4332981,72.5334748 17.1662195,72.7872434 15.6101815,71.5395149 C14.0541436,70.2917864 13.8007219,68.0219096 15.0469221,66.4639634 C28.163747,50.0529232 30.3886667,31.8238881 35.3801365,12.550327 L32.9017951,10.9148715 C32.6905683,10.9430781 32.500466,10.9712666 32.2822097,10.9712666 C29.2970249,10.9712666 26.8749193,8.54619058 26.8749193,5.55734491 C26.8749193,2.56849924 29.2970249,0.143423269 32.2822097,0.143423269 L32.2812184,0.145588837 Z" id="Path" stroke="#C8C5C5" fill="#3FBE79" transform="translate(72.069343, 46.162028) scale(-1, 1) translate(-72.069343, -46.162028) "></path>
                    </g>
                </g>
                <g id="icon/pedelec" transform="translate(189.000000, 585.000000)">
                    <g id="pedelec">
                        <g id="Group-9" transform="translate(0.000000, 31.544727)" fill="#35495E">
                            <path d="M31.2748201,62.328841 C14.0022139,62.328841 0,48.3760547 0,31.1644205 C0,13.9527863 14.0022139,0 31.2748201,0 C48.5474264,0 62.5496403,13.9527863 62.5496403,31.1644205 C62.5496403,48.3760547 48.5474264,62.328841 31.2748201,62.328841 Z M31.1144365,51.7438241 C42.6295073,51.7438241 51.9643165,42.4419666 51.9643165,30.9675438 C51.9643165,19.493121 42.6295073,10.1912635 31.1144365,10.1912635 C19.5993656,10.1912635 10.2645564,19.493121 10.2645564,30.9675438 C10.2645564,42.4419666 19.5993656,51.7438241 31.1144365,51.7438241 Z" id="Combined-Shape"></path>
                            <rect id="Rectangle" x="6.88046043" y="29.2945553" width="48.163223" height="3.11644205"></rect>
                            <polygon id="Rectangle" transform="translate(30.962072, 30.852776) scale(-1, -1) rotate(90.000000) translate(-30.962072, -30.852776) " points="6.96546817 29.2890353 54.9586757 29.2890353 54.9586757 32.4165173 6.96546817 32.4165173"></polygon>
                            <polygon id="Rectangle" transform="translate(30.962072, 30.852776) scale(-1, -1) rotate(45.000000) translate(-30.962072, -30.852776) " points="6.92572429 29.3342991 55.0039396 29.2492914 54.9984196 32.3712534 6.92020431 32.4562612"></polygon>
                            <polygon id="Rectangle" transform="translate(30.962072, 30.852776) scale(-1, -1) rotate(135.000000) translate(-30.962072, -30.852776) " points="6.92020431 29.2492914 54.9984196 29.3342991 55.0039396 32.4562612 6.92572429 32.3712534"></polygon>
                        </g>
                        <g id="Group-9" transform="translate(113.450360, 31.544727)" fill="#35495E">
                            <path d="M31.2748201,62.328841 C14.0022139,62.328841 0,48.3760547 0,31.1644205 C0,13.9527863 14.0022139,0 31.2748201,0 C48.5474264,0 62.5496403,13.9527863 62.5496403,31.1644205 C62.5496403,48.3760547 48.5474264,62.328841 31.2748201,62.328841 Z M31.1144365,51.7438241 C42.6295073,51.7438241 51.9643165,42.4419666 51.9643165,30.9675438 C51.9643165,19.493121 42.6295073,10.1912635 31.1144365,10.1912635 C19.5993656,10.1912635 10.2645564,19.493121 10.2645564,30.9675438 C10.2645564,42.4419666 19.5993656,51.7438241 31.1144365,51.7438241 Z" id="Combined-Shape"></path>
                            <rect id="Rectangle" x="6.88046043" y="29.2945553" width="48.163223" height="3.11644205"></rect>
                            <polygon id="Rectangle" transform="translate(30.962072, 30.852776) scale(-1, -1) rotate(90.000000) translate(-30.962072, -30.852776) " points="6.96546817 29.2890353 54.9586757 29.2890353 54.9586757 32.4165173 6.96546817 32.4165173"></polygon>
                            <polygon id="Rectangle" transform="translate(30.962072, 30.852776) scale(-1, -1) rotate(45.000000) translate(-30.962072, -30.852776) " points="6.92572429 29.3342991 55.0039396 29.2492914 54.9984196 32.3712534 6.92020431 32.4562612"></polygon>
                            <polygon id="Rectangle" transform="translate(30.962072, 30.852776) scale(-1, -1) rotate(135.000000) translate(-30.962072, -30.852776) " points="6.92020431 29.2492914 54.9984196 29.3342991 55.0039396 32.4562612 6.92572429 32.3712534"></polygon>
                        </g>
                        <path d="M112.512063,6.95917002 L121.38205,6.95917002 L122.234281,7.81647251 C121.757026,9.45623183 121.279771,11.2729244 120.89797,12.8581476 C110.743854,12.3455787 95.436895,12.4359556 74.9770921,13.1292781 L9.87625899,13.1292781 L15.0308828,24.7825232 L67.5199085,24.7825232 C64.1654757,27.2250663 61.0990261,29.5331417 57.9149417,32.8465909 C56.6660873,34.1461845 27.3998062,59.7313203 29.2848093,62.6049797 C30.541478,64.5207526 38.6013995,65.478639 53.4645737,65.478639 L74.5021974,66.6081693 C77.3654801,69.9207713 80.1193741,71.5770723 82.7638796,71.5770723 C86.7306379,71.5770723 90.8786854,69.6223751 92.569603,66.2883726 L95.8285639,67.3021595 L95.1876803,67.9417355 L97.5943754,70.3435202 L102.455589,65.478639 L99.9942636,63.0768544 L98.5488851,64.5737328 L93.5785858,63.0224401 C93.7285832,62.1923622 93.6603914,61.4030949 93.6331287,60.6206555 C109.38233,52.5715676 119.316296,43.5766758 126.720169,34.6014665 C126.883792,35.1276331 132.16358,44.8786578 142.559532,63.8545405 C143.925185,64.540747 144.943561,64.540747 145.614661,63.8545405 C146.28576,63.1683341 146.28576,62.1270334 145.614661,60.7306384 C135.054474,33.4730875 129.151689,17.6059674 127.906307,13.1292781 L129.406229,8.08760298 C129.842572,6.87650362 129.522139,5.42054032 128.601716,4.50870169 L125.179214,1.08638931 C124.545155,0.474037853 123.658837,0.120223564 122.772519,0.1269375 L112.511644,0.1269375 C110.370769,0.147448087 108.911812,2.13412411 108.932233,3.70593534 C109.014457,5.48942899 110.725673,7.04086101 112.512063,6.95917002 Z M124.381823,26.4796581 C117.059458,36.2024531 107.753128,45.7754523 90.708337,54.4775455 C88.9425429,52.6744216 86.5494616,51.4906861 83.8631577,51.3818229 L76.7521581,28.0310901 C86.0562773,22.5108231 101.344001,19.7506896 122.61533,19.7506896 C123.388484,22.7306978 123.977315,24.9736873 124.381823,26.4796581 Z M77.3382544,53.4096405 C76.0816316,53.7248997 74.7502674,55.2184804 73.344162,57.8903825 L42.8664178,56.7230896 L64.5139501,37.9707407 C67.3001475,35.2309865 69.4023332,33.2895627 70.8205072,32.1464695 L77.3382544,53.4096405 Z M84.988906,55.0221579 C85.8820484,55.2262809 86.7274548,55.5732847 87.4502313,56.0903764 C86.8366279,56.3829486 86.2093757,56.6551067 85.5821583,56.9476789 L84.988906,55.0221579 Z M78.4709842,57.0020757 L78.8459602,58.2812276 L77.5642104,58.2812276 C77.8301006,57.8185675 78.1096396,57.3831145 78.4709842,57.0020757 Z M87.5573972,64.7449878 L89.2686833,65.2824936 C88.0687392,67.2352391 85.9278644,68.4870795 83.4394858,68.4870795 C80.896477,68.4870795 78.7419883,67.1535133 77.5624651,65.1191116 L79.6487097,65.1191116 C80.5895706,66.139709 81.946319,66.8269061 83.4462928,66.8269061 C85.1234917,66.8269061 86.6233956,65.9832072 87.5643264,64.7449181 L87.5573972,64.7449878 Z" id="Fill-1" fill="#3FBE79"></path>
                    </g>
                </g>
                <g id="icon/minicar" transform="translate(609.000000, 568.000000)">
                    <g id="minicar">
                        <path d="M134.55706,24.4648533 C116.906382,12.4188942 108.091297,9.23009797 114.931394,4.61906592 C121.771491,0.00803386228 109.045923,0.205897926 104.623709,0.205897926 L41.2386368,0.205897926 C36.8164225,0.205897926 27.5480251,0.205897926 21.0644693,0.00803386228 C14.5809135,-0.189830201 4.29816881,3.24827303 1.75199371,12.4188942 C-0.794181403,21.5895153 0.264167829,44.3501735 0.264167829,50.5485235 L0.264167829,85.9293126 C0.264167829,92.1276627 4.09911209,96.8727273 9.10859646,96.8727273 L15.5921523,96.8727273 C15.5921523,81.9108908 25.0832285,69.5141907 41.2386368,69.5141907 C57.3940451,69.5141907 64.1479207,81.9108908 64.1479207,96.8727273 L106.612617,96.8727273 C106.612617,81.9108908 112.538718,69.5141907 130.814845,69.5141907 C149.090973,69.5141907 155.628939,81.9108908 155.628939,96.8727273 L162.112495,96.8727273 C167.121979,96.8727273 174.757773,92.1276627 174.757773,85.9293126 L174.757773,55.2462221 C174.757773,55.2462221 174.482929,46.4914796 168.474347,42.8929247 C159.866477,37.7376502 162.296379,39.1979702 151.50366,34.1161114 C138.490685,27.988823 139.720655,27.988823 134.55706,24.4648533 Z M103.664673,25.3516054 L94.0225844,45.4145322 L100.455406,48.691866 C103.315954,50.1452974 103.664816,53.7929564 101.16706,55.9874758 L74.7245472,78.2449221 C71.1523449,81.1660112 66.1569772,77.1477353 67.9430783,72.7732147 L77.5851668,52.7102879 L71.1523449,49.7891987 C68.2917967,48.3357673 67.9429354,44.6881083 70.4406908,42.4935889 L97.2322082,20.2361427 C100.441618,16.9588089 105.451131,20.9770848 103.66503,25.3514595 L103.664673,25.3516054 Z" id="Shape" fill="#3FBE79"></path>
                        <path d="M40.6968172,77.5558442 C31.4070497,77.5558442 23.9752356,84.9878788 23.9752356,94.2779221 C23.9752356,103.567965 31.4070497,111 40.6968172,111 C49.9865847,111 57.4183987,103.567965 57.4183987,94.2779221 C57.4183987,85.3654261 49.9865847,77.5558442 40.6968172,77.5558442 L40.6968172,77.5558442 Z" id="wheel" fill="#35495E"></path>
                        <path d="M132.665516,77.5558442 C123.375748,77.5558442 115.943934,84.9878788 115.943934,94.2779221 C115.943934,103.567965 123.375748,111 132.665516,111 C141.955283,111 149.387097,103.567965 149.387097,94.2779221 C149.387097,85.3654261 141.955283,77.5558442 132.665516,77.5558442 L132.665516,77.5558442 Z" id="wheel" fill="#35495E"></path>
                    </g>
                </g>
                <g id="icon/car-2" transform="translate(818.000000, 563.000000)">
                    <g id="icon/car" transform="translate(0.000000, 0.207581)">
                        <g id="car" transform="translate(0.000000, -0.298701)">
                            <path d="M195.078183,27.5630282 C178.300005,15.1717092 171.450907,7.30498643 174.530889,3.96285978 C179.150861,-1.0503302 143.49334,0.51201897 137.671696,0.51201897 L54.2281324,0.51201897 C48.4064884,0.51201897 36.2050649,0.51201897 27.6697587,0.30702467 C19.1344524,0.10203037 5.59768694,3.66402921 2.24576325,13.1651232 C-1.10616043,22.6662171 0.287108177,46.2470792 0.287108177,52.6687932 L0.287108177,89.3245657 C0.287108177,95.7462798 5.33563781,100.662338 11.9303961,100.662338 L14.3189166,100.46829 C14.3189166,84.9672886 22.2626956,72.4812405 39.4968662,72.4812405 C56.7310367,72.4812405 65.2521707,84.9672886 65.2521707,100.46829 L154.351803,100.46829 C154.351803,84.9672886 163.006161,72.4812405 179.042172,72.4812405 C195.078183,72.4812405 204.817761,85.1613359 204.817761,100.662338 L213.353067,100.662338 C219.947825,100.662338 230,95.7462798 230,89.3245657 L230,57.5357782 C230,57.5357782 229.638181,48.4655496 221.728155,44.7373169 C214.173577,41.1766169 205.290252,35.4518539 195.078183,27.5630282 Z M127.851017,25.664821 L115.166343,46.4694223 L123.629059,49.8679107 C127.39226,51.3750716 127.851205,55.1575751 124.565277,57.4332202 L89.7787621,80.5134666 C85.0793423,83.5425409 78.5076737,79.3757197 80.8573836,74.8394845 L93.5420574,54.0348832 L85.0793423,51.0058089 C81.316141,49.4986479 80.8571956,45.7161444 84.1431239,43.4404993 L119.388772,20.3602529 C123.610919,16.9617645 130.201197,21.1285857 127.851487,25.6646697 L127.851017,25.664821 Z" id="Shape" fill="#3FBE79"></path>
                            <path d="M39.8826597,80.6493506 C30.2201941,80.6493506 22.4902216,88.3492063 22.4902216,97.974026 C22.4902216,107.598846 30.2201941,115.298701 39.8826597,115.298701 C49.5451253,115.298701 57.2750978,107.598846 57.2750978,97.974026 C57.2750978,88.740359 49.5451253,80.6493506 39.8826597,80.6493506 L39.8826597,80.6493506 Z" id="wheel" fill="#35495E"></path>
                            <path d="M179.621904,80.6493506 C169.959438,80.6493506 162.229465,88.3492063 162.229465,97.974026 C162.229465,107.598846 169.959438,115.298701 179.621904,115.298701 C189.284369,115.298701 197.014342,107.598846 197.014342,97.974026 C197.014342,88.740359 189.284369,80.6493506 179.621904,80.6493506 L179.621904,80.6493506 Z" id="wheel" fill="#35495E"></path>
                        </g>
                    </g>
                </g>
                <g id="icon/scooter" transform="translate(399.000000, 560.000000)">
                    <g id="scooter" transform="translate(88.000000, 59.500000) scale(-1, 1) translate(-88.000000, -59.500000) ">
                        <path d="M167.470825,82.8177708 L170.505155,80.2252816 C171.025616,79.7833617 171.14347,79.0173555 170.7703,78.4379422 L167.431532,73.1740225 L169.385721,73.1740225 L169.434818,73.1740225 C170.200792,73.1740225 170.809643,72.5651445 170.809643,71.7991384 C170.809643,71.5929108 170.770376,71.396488 170.681985,71.2197251 C169.091137,61.0456126 163.837272,60.8002412 157.169541,60.7904364 C155.234986,59.2093247 153.2317,58.4629784 150.904291,58.4629784 C148.439445,58.4629784 145.876405,59.3075486 142.900902,60.2797824 C139.277304,61.4680737 134.769804,62.9509614 128.975919,63.3142418 C118.723807,63.7659916 109.443837,63.815091 101.991252,63.8543605 C87.9091476,63.9230946 86.0925722,64.0016587 85.5621302,65.6515046 C85.3853748,66.2112832 85.5719597,66.8103312 86.0334945,67.1638571 C92.1710355,71.8482881 95.1073212,77.151427 94.0957105,81.698088 C93.0351281,86.4511526 87.918952,90.0454911 79.6797544,91.8525909 L65.2441896,91.8525909 C64.4978501,91.8525909 63.8300965,91.6070938 63.1917812,91.0473153 C63.1132205,90.9982158 63.0346598,90.9098218 62.8186115,90.6544948 C55.0409739,83.0927326 51.1524065,74.8041582 51.2700591,65.9951754 C51.4566439,51.578602 62.3864646,39.9998893 64.5665562,37.8302634 L75.4275451,37.8302634 C75.8694461,37.8302634 76.2917131,37.6142059 76.5470292,37.2508501 C77.1951489,36.3277157 77.5388552,35.2474532 77.5388552,34.1180913 C77.5388552,33.0869282 77.2737096,32.1441591 76.7434184,31.3191984 C76.4881024,30.926378 76.0560058,30.6808558 75.5846415,30.6808558 L66.5206191,30.6808558 L61.81678,25.3090833 C61.5516344,24.7689646 61.8560729,22.0290011 63.4076284,18.5035475 C64.0164803,17.1286634 64.5958688,16.1466249 65.0672331,15.4788929 C66.0983521,19.4365118 69.4960469,20.7428127 70.8709225,20.7428127 C71.6270663,20.7428127 72.2457226,20.1241299 72.2457226,19.3679285 L72.2457226,1.55361541 C72.2457226,1.14116022 72.0591377,0.748339773 71.7350905,0.483182827 C71.411018,0.218025881 70.988751,0.119827054 70.5763135,0.208195942 C67.4534932,0.885808075 65.3226749,3.41939313 64.0951164,7.94669595 C61.1982996,9.76349996 56.9658248,14.7522317 55.4338278,22.4515125 C51.0834491,22.4908071 48.5891146,22.7264994 46.3403924,23.0014611 L40.8999678,19.4956172 C40.6741152,19.3483189 40.4187739,19.2795596 40.1536535,19.2795596 C39.0439738,19.2795596 38.3271229,20.1633994 38.01288,21.9213243 C37.8459542,22.8935581 37.7575639,24.1996829 37.7575639,25.8201144 C37.7575639,29.6500195 38.0718068,38.547497 40.9490149,38.547497 C41.1454292,38.547497 41.3418185,38.5082275 41.5185738,38.4198335 L46.2616305,36.2495036 L46.7035315,36.7503528 L45.5938518,37.3199362 C40.821382,38.8126539 25.4921103,50.9015933 23.7931875,68.3131554 C16.9190611,70.4245559 -0.452537997,81.7477405 0.00902197961,86.7167621 C0.077778327,87.4140089 0.539313165,89.0344153 3.49510706,89.0344153 C4.15305628,89.0344153 4.91902964,88.9656811 5.81266104,88.8183829 C5.13468883,90.1379709 12.9485301,75.1370987 31.8991441,82.8179971 C46.7035315,88.8183829 40.1536535,107.342803 42.8148635,106.770215 C43.3152931,107.065177 43.7905835,107.342803 44.245748,107.60411 C51.5344456,111.788512 53.66232,111.788512 71.2148802,111.788512 L106.055619,111.788512 C108.324051,111.788512 110.464824,110.904672 112.065452,109.294095 C113.675934,107.683544 114.559761,105.562238 114.559761,103.31342 C114.559761,100.946667 113.577765,98.6780128 111.859284,97.0969262 C111.702162,96.9496028 111.495943,96.8415992 111.279895,96.7826698 C110.238972,96.419314 109.237316,95.8890001 108.215901,95.1917533 C108.176633,95.1622886 108.127536,95.1328239 108.088243,95.1131892 C104.592354,92.618773 102.510306,88.5824392 102.510306,84.3007592 C102.510306,80.7753056 103.885131,77.4952234 106.222394,75.0792205 C105.66264,76.7192365 105.37786,78.4674069 105.37786,80.2252313 C105.37786,88.2583781 111.368084,95.0935796 119.322452,96.1245918 C119.705426,96.1834961 120.09823,96.0558326 120.392839,95.8005055 L123.927946,92.7954605 C123.456581,94.5337005 123.220899,96.3307189 123.220899,98.1476234 C123.220899,105.054091 126.377603,92.1537125 130.234002,87.0178837 C131.244521,85.6721067 134.618721,82.8177708 138.296425,81.698088 C141.974128,80.5784052 148.656606,80.2252816 154.791367,82.8179971 C161.9954,85.8626155 164.52343,93.2300057 163.864458,91.8525909 C168.42098,94.6318741 170.858188,94.9462311 171.781308,97.4210627 C172.007185,98.010306 172.606208,98.3736618 173.224864,98.3049025 C175.061224,98.0888449 175.679881,96.9987776 175.87632,96.360435 C176.995804,92.8053156 170.219948,85.5774193 167.470197,82.8179971 L167.470825,82.8177708 Z" id="Fill-1" fill="#3FBE79"></path>
                        <path d="M109.176858,41.0745426 C103.519869,41.0745426 85.6354856,41.329522 83.2879607,44.4089083 L83.2683247,44.3990918 C80.5871632,48.2729916 81.2549896,58.3155058 82.5120984,62.2775287 C82.6987036,62.8561533 83.2290526,63.2386224 83.8281404,63.2386224 C83.8969042,63.2386224 83.9656429,63.228831 84.0442122,63.2190144 C84.5843667,63.1405573 85.0066798,62.7482715 85.154013,62.2383127 C87.2360868,60.9045413 100.710734,60.9045413 108.02761,60.9045413 L112.014907,60.9045413 C122.042361,60.9045413 130.635705,60.8162676 133.965283,59.8061413 C136.410762,59.404039 138.306331,58.796015 140.299854,58.1487247 C143.60957,57.0797493 147.037203,55.9715328 153.617413,55.6969453 C154.02009,55.6773373 154.403106,55.4811819 154.648644,55.1575619 C154.884352,54.8437333 154.982558,54.4220231 154.884352,54.0297373 C152.223782,42.3398994 122.034567,41.0745426 109.176858,41.0745426 Z" id="Fill-2" fill="#35495E"></path>
                        <ellipse id="Oval" fill="#35495E" cx="20.0239521" cy="103.081194" rx="15.8083832" ry="15.8314856"></ellipse>
                        <ellipse id="Oval" fill="#35495E" cx="145.173653" cy="103.081194" rx="15.8083832" ry="15.8314856"></ellipse>
                        <ellipse id="Oval" fill="#35495E" cx="144.91018" cy="103.168514" rx="12.3832335" ry="12.4013304"></ellipse>
                    </g>
                </g>
                <g id="bus" transform="translate(575.000000, 71.000000)">
                    <g>
                        <path d="M356.3783,123.757639 C350.677118,123.757639 346.033339,128.403512 346.033339,134.106834 L346.033339,164.663697 C346.033339,170.083898 350.280881,174.616446 355.698817,175.012893 L355.698817,183.719251 L327.759786,183.719251 L327.759786,26.5909443 C327.759786,11.9925159 315.772177,0 301.179722,0 L67.0915132,0 C52.499058,0 40.5114491,11.9925159 40.5114491,26.5909443 L40.5114491,183.719251 L12.5724187,183.719251 L12.5724187,175.012893 C17.9904023,174.635204 22.2378966,170.178175 22.2378966,164.663697 L22.2378966,134.106834 C22.2378966,128.403319 17.5939244,123.757639 11.8929356,123.757639 L10.344961,123.757639 C4.64377885,123.757639 0,128.403512 0,134.106834 L0,164.663697 C0,169.781729 3.7755773,174.144094 8.70279629,174.918616 L8.70279629,183.624974 C8.70279629,185.853489 10.5339694,187.685363 12.7615238,187.685363 L40.4932296,187.685363 L40.4932296,291.728476 C40.4932296,306.326904 52.4808386,318.31942 67.0732938,318.31942 L86.5173357,318.31942 L86.5173357,340.566854 C86.5173357,351.294125 95.3143704,360 105.94253,360 L110.964229,360 C121.68711,360 130.389423,351.293641 130.389423,340.566854 L130.389423,318.31942 L237.579573,318.31942 L237.579573,340.566854 C237.579573,351.294125 246.376607,360 257.004767,360 L262.026466,360 C272.749347,360 281.45166,351.293641 281.45166,340.566854 L281.45166,318.31942 L300.876854,318.31942 C315.46931,318.31942 327.456919,306.326904 327.456919,291.728476 L327.475766,187.574165 L355.320558,187.574165 C357.548161,187.574165 359.284902,185.836664 359.284902,183.608198 L359.284902,174.807562 C364.21188,174.033234 367.987699,169.689531 367.987699,164.552644 L367.987699,133.995781 C368.270897,128.405881 363.626925,123.759718 357.925936,123.759718 L356.3783,123.757639 Z M254.996785,14.2105263 C261.161148,14.2105263 266.237942,19.2913134 266.237942,25.4605263 C266.237942,31.7250865 261.161148,36.7105263 254.996785,36.7105263 C248.832421,36.7105263 243.755627,31.6297392 243.755627,25.4605263 C243.755627,19.1959662 248.73666,14.2105263 254.996785,14.2105263 Z M137.26045,28.3325277 C137.26045,21.1747535 142.91385,15.3947368 149.914826,15.3947368 L220.451733,15.3947368 C227.45271,15.3947368 233.106109,21.1747535 233.106109,28.3325277 L233.106109,30.8779986 C233.106109,38.0357729 227.45271,43.8157895 220.451733,43.8157895 L149.914826,43.8157895 C142.91385,43.8157895 137.26045,38.0357729 137.26045,30.8779986 L137.26045,28.3325277 Z M114.186495,14.2105263 C120.350859,14.2105263 125.427653,19.2913134 125.427653,25.4605263 C125.427653,31.7250865 120.350859,36.7105263 114.186495,36.7105263 C108.022131,36.7105263 102.945338,31.6297392 102.945338,25.4605263 C102.945338,19.1959662 108.022131,14.2105263 114.186495,14.2105263 Z M68.6302251,246.315789 C68.6302251,232.567866 79.7414946,221.447368 93.4790997,221.447368 C107.216218,221.447368 118.327974,232.567378 118.327974,246.315789 C118.327974,260.063713 107.216705,271.184211 93.4790997,271.184211 C79.7419817,271.184211 68.6302251,260.064201 68.6302251,246.315789 Z M234.289389,269.286385 C234.289389,270.320162 233.232989,271.184211 231.969075,271.184211 L137.214204,271.184211 C135.950291,271.184211 134.893891,270.320162 134.893891,269.286385 L134.893891,268.422336 C134.893891,267.388559 135.950291,266.447368 137.214204,266.447368 L231.969075,266.447368 C233.232989,266.447368 234.289389,267.311417 234.289389,268.422336 L234.289389,269.286385 Z M234.289389,250.339016 C234.289389,251.372794 233.232989,252.236842 231.969075,252.236842 L137.214204,252.236842 C135.950291,252.236842 134.893891,251.372794 134.893891,250.339016 L134.893891,249.474968 C134.893891,248.441191 135.950291,247.5 137.214204,247.5 L231.969075,247.5 C233.232989,247.5 234.289389,248.364048 234.289389,249.474968 L234.289389,250.339016 Z M234.289389,231.391648 C234.289389,232.425425 233.232989,233.289474 231.969075,233.289474 L137.214204,233.289474 C135.950291,233.289474 134.893891,232.425425 134.893891,231.391648 L134.893891,230.5276 C134.893891,229.493822 135.950291,228.552632 137.214204,228.552632 L231.969075,228.552632 C233.232989,228.552632 234.289389,229.41668 234.289389,230.5276 L234.289389,231.391648 Z M273.337621,271.184211 C259.600503,271.184211 248.488746,260.064201 248.488746,246.315789 C248.488746,232.567866 259.600016,221.447368 273.337621,221.447368 C287.075226,221.447368 298.186495,232.567378 298.186495,246.315789 C298.186495,260.063713 287.075226,271.184211 273.337621,271.184211 Z M308.836013,164.844557 C308.836013,177.783206 298.360933,188.289474 285.461776,188.289474 L283.81385,188.289474 C282.450033,178.846916 279.836064,170.677211 276.540162,163.970534 L277.032639,164.65448 C277.525116,165.338426 278.396456,165.433464 279.078388,164.93945 C279.760321,164.445483 279.855024,163.571509 279.362498,162.887515 L270.725237,151.107907 C270.23276,150.423961 269.361421,150.328923 268.679488,150.822938 C268.300675,151.107907 268.092308,151.506883 268.092308,151.886891 C265.762449,149.549987 263.243183,147.612059 260.62902,146.149081 C268.186866,142.064277 273.433619,133.989611 273.433619,124.756196 C273.433619,119.398247 271.69094,114.439616 268.773901,110.44985 C269.152763,110.164833 269.550537,109.860894 269.834647,109.480887 C271.38787,107.922967 272.353913,105.681052 272.353913,103.249402 C272.353913,98.3856138 268.376127,94.4906925 263.621609,94.4906925 C263.621609,94.4906925 252.767812,91.5648323 249.074234,91.5648323 C245.096448,91.5648323 233.560914,94.4906925 233.560914,94.4906925 C231.136351,94.4906925 228.995899,95.4596563 227.348215,97.0175762 C225.794992,98.5754961 224.828949,100.81741 224.828949,103.249061 C224.828949,106.459939 226.571627,109.27189 229.185597,110.829761 C226.476924,114.724585 224.828949,119.58847 224.828949,124.641946 C224.828949,133.875361 229.962233,141.950221 237.633548,146.03483 C235.398393,147.307781 233.163237,148.846683 231.136691,150.803628 C231.136691,150.423621 230.947284,150.024644 230.54951,149.739675 C230.2654,149.549695 229.96233,149.454657 229.678171,149.454657 C229.185694,149.454657 228.806832,149.644685 228.522721,150.043613 L219.88546,161.708922 C219.392983,162.392916 219.506646,163.266842 220.169619,163.760856 C220.662096,164.140864 221.230365,164.140864 221.722842,163.855895 C218.332237,170.562572 215.812729,178.732276 214.449155,188.07999 L84.9047833,188.098959 C72.0051413,188.098959 61.5305466,177.592205 61.5305466,164.654042 L61.5305466,82.6554429 C61.5305466,69.7167945 72.0056262,59.2105263 84.9047833,59.2105263 L285.45974,59.2105263 C298.359382,59.2105263 308.836013,69.7172809 308.836013,82.6554429 L308.836013,164.844557 Z" id="Fill-1" fill="#35495E"></path>
                        <rect id="Rectangle" fill="#3FBE79" x="85" y="288" width="47" height="72" rx="12"></rect>
                        <rect id="Rectangle" fill="#3FBE79" x="237" y="288" width="47" height="72" rx="12"></rect>
                    </g>
                </g>
            </g>
        </g>
    </g>
</svg>