<?xml version="1.0" encoding="UTF-8"?>
<svg width="935px" height="602px" viewBox="0 0 935 602" version="1.1" xmlns="http://www.w3.org/2000/svg" xmlns:xlink="http://www.w3.org/1999/xlink">
    <!-- Generator: Sketch 55.1 (78136) - https://sketchapp.com -->
    <title>city</title>
    <desc>Created with Sketch.</desc>
    <g id="Layout_Template" stroke="none" stroke-width="1" fill="none" fill-rule="evenodd">
        <g id="city" transform="translate(-180.000000, -150.000000)">
            <g transform="translate(180.000000, 150.000000)">
                <g id="icon/pedelec" transform="translate(340.000000, 520.000000)">
                    <g id="pedelec">
                        <g id="Group-9" transform="translate(0.000000, 26.846576)" fill="#35495E">
                            <path d="M26.6546763,53.0458221 C11.9337051,53.0458221 0,41.1711103 0,26.5229111 C0,11.8747118 11.9337051,0 26.6546763,0 C41.3756475,0 53.3093525,11.8747118 53.3093525,26.5229111 C53.3093525,41.1711103 41.3756475,53.0458221 26.6546763,53.0458221 Z M26.5179856,44.0372971 C36.3319664,44.0372971 44.2877698,36.1208226 44.2877698,26.3553564 C44.2877698,16.5898902 36.3319664,8.67341573 26.5179856,8.67341573 C16.7040048,8.67341573 8.74820144,16.5898902 8.74820144,26.3553564 C8.74820144,36.1208226 16.7040048,44.0372971 26.5179856,44.0372971 Z" id="Combined-Shape"></path>
                            <rect id="Rectangle" x="5.86402878" y="24.9315364" width="41.0482014" height="2.65229111"></rect>
                            <polygon id="Rectangle" transform="translate(26.388129, 26.257682) scale(-1, -1) rotate(90.000000) translate(-26.388129, -26.257682) " points="5.96548799 24.9249481 46.810771 24.9249481 46.810771 27.5904158 5.96548799 27.5904158"></polygon>
                            <polygon id="Rectangle" transform="translate(26.388129, 26.257682) scale(-1, -1) rotate(45.000000) translate(-26.388129, -26.257682) " points="5.91805251 24.9789719 46.8647947 24.8775127 46.8582065 27.536392 5.91146425 27.6378512"></polygon>
                            <polygon id="Rectangle" transform="translate(26.388129, 26.257682) scale(-1, -1) rotate(135.000000) translate(-26.388129, -26.257682) " points="5.91146425 24.8775127 46.8582065 24.9789719 46.8647947 27.6378512 5.91805251 27.536392"></polygon>
                        </g>
                        <g id="Group-9" transform="translate(96.690647, 26.846576)" fill="#35495E">
                            <path d="M26.6546763,53.0458221 C11.9337051,53.0458221 0,41.1711103 0,26.5229111 C0,11.8747118 11.9337051,0 26.6546763,0 C41.3756475,0 53.3093525,11.8747118 53.3093525,26.5229111 C53.3093525,41.1711103 41.3756475,53.0458221 26.6546763,53.0458221 Z M26.5179856,44.0372971 C36.3319664,44.0372971 44.2877698,36.1208226 44.2877698,26.3553564 C44.2877698,16.5898902 36.3319664,8.67341573 26.5179856,8.67341573 C16.7040048,8.67341573 8.74820144,16.5898902 8.74820144,26.3553564 C8.74820144,36.1208226 16.7040048,44.0372971 26.5179856,44.0372971 Z" id="Combined-Shape"></path>
                            <rect id="Rectangle" x="5.86402878" y="24.9315364" width="41.0482014" height="2.65229111"></rect>
                            <polygon id="Rectangle" transform="translate(26.388129, 26.257682) scale(-1, -1) rotate(90.000000) translate(-26.388129, -26.257682) " points="5.96548799 24.9249481 46.810771 24.9249481 46.810771 27.5904158 5.96548799 27.5904158"></polygon>
                            <polygon id="Rectangle" transform="translate(26.388129, 26.257682) scale(-1, -1) rotate(45.000000) translate(-26.388129, -26.257682) " points="5.91805251 24.9789719 46.8647947 24.8775127 46.8582065 27.536392 5.91146425 27.6378512"></polygon>
                            <polygon id="Rectangle" transform="translate(26.388129, 26.257682) scale(-1, -1) rotate(135.000000) translate(-26.388129, -26.257682) " points="5.91146425 24.8775127 46.8582065 24.9789719 46.8647947 27.6378512 5.91805251 27.536392"></polygon>
                        </g>
                        <path d="M95.8909628,5.92269789 L103.450611,5.92269789 L104.176944,6.65231703 C103.770192,8.04785688 103.363441,9.59397823 103.038043,10.9431043 C94.3839669,10.5068755 81.3382628,10.583792 63.9009308,11.1738537 L8.41726619,11.1738537 L12.8104115,21.0915091 L57.5453766,21.0915091 C54.686485,23.1702692 52.0730336,25.1345887 49.3593253,27.9545454 C48.2949608,29.0605825 23.3521076,50.8351662 24.9586443,53.2808338 C26.0296688,54.9112788 32.89892,55.7265013 45.5663981,55.7265013 L63.496191,56.6878037 C65.9364887,59.5070394 68.2835575,60.9166573 70.5373974,60.9166573 C73.9181573,60.9166573 77.4534251,59.2530852 78.894548,56.4156363 L81.6720715,57.2784336 L81.1258639,57.8227536 L83.1770245,59.8668257 L87.3201042,55.7265013 L85.2223838,53.6824292 L83.9905271,54.9563684 L79.7544765,53.6361193 C79.8823152,52.9296699 79.8241972,52.2579531 79.800962,51.5920472 C93.2235763,44.7417597 101.690025,37.0865326 108.000144,29.4480566 C108.139595,29.895858 112.639414,38.1946024 121.499601,54.3442898 C122.66351,54.9282953 123.531444,54.9282953 124.103404,54.3442898 C124.675364,53.7602843 124.675364,52.8740709 124.103404,51.6856497 C115.103245,28.487734 110.072462,14.983802 109.011057,11.1738537 L110.289399,6.88306637 C110.661283,5.85234351 110.388187,4.6132258 109.603735,3.83719293 L106.68683,0.924586646 C106.146439,0.40343647 105.391054,0.102317927 104.635669,0.108031915 L95.8906058,0.108031915 C94.0659966,0.125487733 92.8225669,1.81627584 92.839971,3.15398752 C92.9100488,4.67185446 94.3684717,5.99222214 95.8909628,5.92269789 Z M106.007235,22.5358792 C99.7665839,30.8105984 91.8350526,38.9578318 77.3082417,46.3638685 C75.8033036,44.829295 73.7637457,43.8218605 71.4742821,43.729211 L65.4137711,23.8562469 C73.3434182,19.1581473 86.3727285,16.8090975 104.501702,16.8090975 C105.16064,19.3452748 105.662484,21.254202 106.007235,22.5358792 Z M65.913285,45.4550132 C64.8422997,45.7233189 63.7076143,46.9944514 62.5092289,49.2684106 L36.5338788,48.2749699 L54.9834802,32.315524 C57.3580803,29.9838183 59.1497158,28.3315427 60.3583868,27.3586974 L65.913285,45.4550132 Z M72.4337267,46.8273684 C73.1949276,47.0010901 73.9154444,47.2964125 74.5314471,47.7364906 C74.0084897,47.9854882 73.4738997,48.2171121 72.9393395,48.4661097 L72.4337267,46.8273684 Z M66.8786797,48.5124048 L67.1982615,49.6010448 L66.1058612,49.6010448 C66.3324721,49.2072915 66.5707155,48.8366932 66.8786797,48.5124048 Z M74.6227817,55.1021173 L76.0812642,55.559569 C75.0585846,57.2214801 73.2339754,58.2868761 71.1131981,58.2868761 C68.9458611,58.2868761 67.1096491,57.1519262 66.1043736,55.4205205 L67.882423,55.4205205 C68.6842931,56.289114 69.8406128,56.8739626 71.1189995,56.8739626 C72.5484304,56.8739626 73.8267577,56.155921 74.6286872,55.102058 L74.6227817,55.1021173 Z" id="Fill-1" fill="#3FBE79"></path>
                    </g>
                </g>
                <g id="icon/minicar" transform="translate(746.000000, 479.000000)">
                    <g id="minicar">
                        <path d="M145.321625,26.44849 C126.258893,13.4258315 116.7386,9.97848429 124.125905,4.99358477 C131.513211,0.00868525652 117.769597,0.222592352 112.993605,0.222592352 L44.5377278,0.222592352 C39.7617363,0.222592352 29.7518671,0.222592352 22.7496268,0.00868525652 C15.7473865,-0.205221839 4.64202232,3.51164651 1.8921532,13.4258315 C-0.857715915,23.3400165 0.285301255,47.9461335 0.285301255,54.6470525 L0.285301255,92.8965542 C0.285301255,99.5974732 4.42704105,104.727273 9.83728418,104.727273 L16.8395245,104.727273 C16.8395245,88.5523143 27.0898868,75.1504764 44.5377278,75.1504764 C61.9855687,75.1504764 69.2797544,88.5523143 69.2797544,104.727273 L115.141627,104.727273 C115.141627,88.5523143 121.541815,75.1504764 141.280033,75.1504764 C161.01825,75.1504764 168.079254,88.5523143 168.079254,104.727273 L175.081494,104.727273 C180.491738,104.727273 188.738395,99.5974732 188.738395,92.8965542 L188.738395,59.7256455 C188.738395,59.7256455 188.441563,50.2610591 181.952294,46.3707294 C172.655795,40.7974597 175.280089,42.376184 163.623953,36.8822826 C149.569939,30.258187 150.898307,30.258187 145.321625,26.44849 Z M111.957847,27.4071409 L101.544391,49.0967916 L108.491839,52.6398552 C111.581231,54.2111323 111.958001,58.1545474 109.260425,60.5270009 L80.702511,84.5891049 C76.8445325,87.7470392 71.4495353,83.4029571 73.3785246,78.6737457 L83.7919802,56.984095 L76.8445325,53.8261607 C73.7551405,52.2548836 73.3783703,48.3114685 76.075946,45.9390151 L105.010785,21.876911 C108.476947,18.3338474 113.887222,22.6779295 111.958232,27.4069832 L111.957847,27.4071409 Z" id="Shape" fill="#3FBE79"></path>
                        <path d="M43.9525626,83.8441558 C33.9196136,83.8441558 25.8932545,91.8787879 25.8932545,101.922078 C25.8932545,111.965368 33.9196136,120 43.9525626,120 C53.9855115,120 62.0118706,111.965368 62.0118706,101.922078 C62.0118706,92.2869472 53.9855115,83.8441558 43.9525626,83.8441558 L43.9525626,83.8441558 Z" id="wheel" fill="#35495E"></path>
                        <path d="M143.278757,83.8441558 C133.245808,83.8441558 125.219449,91.8787879 125.219449,101.922078 C125.219449,111.965368 133.245808,120 143.278757,120 C153.311706,120 161.338065,111.965368 161.338065,101.922078 C161.338065,92.2869472 153.311706,83.8441558 143.278757,83.8441558 L143.278757,83.8441558 Z" id="wheel" fill="#35495E"></path>
                    </g>
                </g>
                <g id="icon/scooter" transform="translate(537.000000, 491.000000)">
                    <g id="scooter" transform="translate(81.000000, 54.500000) scale(-1, 1) translate(-81.000000, -54.500000) ">
                        <path d="M154.149282,75.8582943 L156.942245,73.4836613 C157.421306,73.0788775 157.529785,72.3772416 157.186299,71.8465185 L154.113115,67.024945 L155.911857,67.024945 L155.957049,67.024945 C156.662092,67.024945 157.222513,66.4672332 157.222513,65.7655973 C157.222513,65.5766998 157.186369,65.3967831 157.105009,65.2348742 C155.640706,55.9157292 150.804762,55.6909772 144.667418,55.6819964 C142.886748,54.2337512 141.042815,53.5501231 138.900541,53.5501231 C136.631762,53.5501231 134.2726,54.323721 131.533784,55.2142545 C128.198427,56.3026893 124.049478,57.6609647 118.716471,57.9937173 C109.279868,58.4075049 100.738077,58.4524783 93.8783115,58.4884478 C80.9163745,58.551406 79.2442994,58.6233681 78.7560516,60.1345715 C78.5933564,60.6473098 78.7650993,61.1960177 79.1899211,61.5198355 C84.8392486,65.8106168 87.5419661,70.6681138 86.6108244,74.8327024 C85.6346066,79.1863498 80.925399,82.4786431 73.3415921,84.1338858 L60.0543109,84.1338858 C59.3673393,84.1338858 58.7527025,83.9090187 58.1651623,83.3962804 C58.0928507,83.3513069 58.0205391,83.270341 57.8216765,83.03647 C50.6627146,76.11015 47.0834651,68.5180945 47.1917589,60.4493623 C47.3635018,47.2442657 57.4239049,36.6385541 59.4305801,34.6512497 L69.4276268,34.6512497 C69.8343765,34.6512497 70.2230541,34.4533482 70.458061,34.1205265 C71.0546257,33.2749665 71.3709917,32.2854824 71.3709917,31.2510248 C71.3709917,30.306514 71.1269373,29.4429693 70.6388283,28.687333 C70.4038215,28.3275227 70.0060963,28.1026326 69.5722268,28.1026326 L61.2292063,28.1026326 L56.8995361,23.1822696 C56.6554816,22.687539 56.9357035,20.1778245 58.3638398,16.9486276 C58.9242603,15.6892799 59.457561,14.7897656 59.8914305,14.1781456 C60.8405286,17.8031915 63.9679523,18.9997192 65.2334627,18.9997192 C65.9294588,18.9997192 66.4989038,18.4330265 66.4989038,17.7403715 L66.4989038,1.42305949 C66.4989038,1.04526441 66.3271609,0.685454078 66.0288901,0.442579228 C65.7305962,0.199704378 65.3419185,0.109757553 64.9622885,0.190700485 C62.0878744,0.811370422 60.126553,3.13204917 58.9966413,7.27890637 C56.3302531,8.94303777 52.4344524,13.5125483 51.0243188,20.5648308 C47.0199929,20.6008233 44.7240714,20.8167095 42.6542248,21.0685652 L37.6465613,17.85733 C37.4386742,17.7224098 37.2036442,17.6594286 36.9596129,17.6594286 C35.9382032,17.6594286 35.2783745,18.4689961 34.9891282,20.0791962 C34.8354805,20.9697296 34.7541213,22.1660961 34.7541213,23.6503569 C34.7541213,27.1584212 35.0433676,35.3082115 37.6917069,35.3082115 C37.8724974,35.3082115 38.0532647,35.272242 38.21596,35.191276 L42.5817281,33.2033268 L42.9884778,33.6620879 L41.9670681,34.1838071 C37.5742266,35.5510864 23.4643288,46.6241484 21.9005476,62.5725541 C15.5732267,64.506526 -0.416540657,74.8781825 0.00830432214,79.4296392 C0.0715914146,80.0682939 0.496413254,81.5525316 3.21708718,81.5525316 C3.82269953,81.5525316 4.52774319,81.4895735 5.35029028,81.3546532 C4.72624767,82.5633515 11.9185334,68.8230568 29.3617122,75.8585015 C42.9884778,81.3546532 36.9596129,98.3223993 39.4091357,97.7979276 C39.8697584,98.0681036 40.3072417,98.3223993 40.7261999,98.5617481 C47.4351147,102.394519 49.3937264,102.394519 65.5500602,102.394519 L97.619377,102.394519 C99.7073651,102.394519 101.67785,101.584951 103.151155,100.109718 C104.633531,98.6345068 105.447053,96.691462 105.447053,94.6316198 C105.447053,92.4637539 104.54317,90.3857428 102.961386,88.9375206 C102.816763,88.8025773 102.626948,88.7036496 102.428085,88.6496723 C101.469963,88.3168507 100.547984,87.831101 99.6078181,87.1924463 C99.5716739,87.1654576 99.526482,87.138469 99.4903147,87.1204842 C96.2725073,84.8356829 94.356077,81.1385368 94.356077,77.2166618 C94.356077,73.9874648 95.6215411,70.9830198 97.7728858,68.7700423 C97.2576571,70.2722418 96.9955305,71.8735072 96.9955305,73.4836152 C96.9955305,80.8417076 102.509259,87.1025225 109.830893,88.0468951 C110.183404,88.1008493 110.544961,87.9839139 110.816136,87.7500429 L114.070041,84.9975227 C113.636172,86.589692 113.419237,88.2357005 113.419237,89.899924 C113.419237,96.2260166 116.32484,84.4097031 119.874479,79.7054565 C120.804616,78.47277 123.910414,75.8582943 127.295573,74.8327024 C130.680732,73.8071106 136.831648,73.4836613 142.478417,75.8585015 C149.109402,78.6472697 151.436339,85.3955514 150.829785,84.1338858 C155.023857,86.6796158 157.267195,86.9675562 158.116885,89.2344188 C158.324796,89.7741458 158.876169,90.1069675 159.445614,90.0439863 C161.1359,89.8460849 161.705345,88.8476198 161.886158,88.2629194 C162.916592,85.0065496 156.679725,78.3860396 154.148704,75.8585015 L154.149282,75.8582943 Z" id="Fill-1" fill="#3FBE79"></path>
                        <path d="M100.492336,37.6229003 C95.285334,37.6229003 78.823572,37.8564529 76.662782,40.6770673 L76.644708,40.6680757 C74.1768206,44.2164377 74.7915245,53.4150431 75.948636,57.0441229 C76.1203976,57.5741236 76.6085598,57.9244525 77.1599928,57.9244525 C77.2232868,57.9244525 77.2865577,57.9154838 77.3588772,57.9064922 C77.8560648,57.8346281 78.2447848,57.4753076 78.3803983,57.0082024 C80.2968526,55.7865126 92.6996527,55.7865126 99.4345043,55.7865126 L103.10463,55.7865126 C112.334446,55.7865126 120.244228,55.7056568 123.308954,54.7804151 C125.559906,54.412103 127.304691,53.8551734 129.139638,53.2622773 C132.186082,52.2831317 135.341062,51.2680426 141.397846,51.0165298 C141.768492,50.9985695 142.121041,50.8188977 142.347048,50.5224727 C142.564006,50.2350162 142.6544,49.8487438 142.564006,49.4894233 C140.115072,38.7819246 112.327272,37.6229003 100.492336,37.6229003 Z" id="Fill-2" fill="#35495E"></path>
                        <ellipse id="Oval" fill="#35495E" cx="18.4311377" cy="94.4189092" rx="14.5508982" ry="14.5011086"></ellipse>
                        <ellipse id="Oval" fill="#35495E" cx="133.625749" cy="94.4189092" rx="14.5508982" ry="14.5011086"></ellipse>
                        <ellipse id="Oval" fill="#35495E" cx="133.383234" cy="94.4988914" rx="11.3982036" ry="11.3592018"></ellipse>
                    </g>
                </g>
                <g id="tram" transform="translate(85.000000, 0.000000)">
                    <g>
                        <path d="M93.673913,380.196013 L185.836957,380.196013 L185.836957,354.277422 L93.673913,354.25965 L93.673913,380.196013 Z M180.343933,80.1056251 L164.003831,63.4585714 L113.55397,63.1960133 L92.5008009,79.965854 C92.5008009,79.965854 11.755672,81.3312547 0,104.210467 C0,104.210467 0.330135326,329.798031 0.330135326,341.440393 C0.330135326,353.082754 24.2255105,379.846294 40.5473033,379.846294 C64.1863447,379.846294 80.1043884,379.968812 80.1043884,379.968812 L79.7559436,341.982806 L199.307935,341.982806 L199.289579,380.196013 C199.289579,380.196013 220.232421,379.810937 240.185139,379.810937 C260.137857,379.810937 278,346.183871 278,341.49242 C277.98169,324.494931 277.504844,104.231126 277.504844,104.231126 C277.501933,81.7686275 180.343933,80.1056251 180.343933,80.1056251 Z M98.2065217,107.369329 C98.2065217,107.658289 98.2618662,107.947205 98.2987468,108.219153 C98.7599195,104.78583 101.895761,102.100559 105.750893,102.100559 L173.741513,102.100559 C177.596786,102.100559 180.751186,104.786048 181.212076,108.219153 C181.249003,107.930236 181.304348,107.658245 181.304348,107.369329 L181.304348,109.068977 C181.304348,108.78006 181.249003,108.508069 181.212076,108.236122 C180.75095,111.771435 177.596644,115.068741 173.741513,115.068741 L105.750893,115.068741 C101.877203,115.068741 98.7412195,111.771392 98.2987468,108.236122 C98.2618662,108.508069 98.2065217,108.780017 98.2065217,109.068977 L98.2065217,107.369329 Z M46.8369565,332.646013 C40.9936627,332.646013 36.2608696,328.131004 36.2608696,322.551079 C36.2608696,316.971595 40.9936627,312.473286 46.8369565,312.473286 C52.662076,312.473286 57.4130435,316.971155 57.4130435,322.551079 C57.4130435,328.113424 52.662076,332.646013 46.8369565,332.646013 Z M132.956522,239.0557 C132.956522,246.997109 126.229497,253.396013 117.903645,253.396013 L28.6507026,253.396013 C20.3248508,253.396013 13.5978261,246.979606 13.5978261,239.0557 L13.5978261,140.953829 C13.5978261,133.01242 20.3248508,126.596013 28.6507026,126.596013 L117.903645,126.596013 C126.229497,126.596013 132.956522,133.029923 132.956522,140.953829 L132.956522,239.0557 Z M232.673887,334.086922 C226.830607,334.086922 222.097826,329.571913 222.097826,324.009129 C222.097826,318.429644 226.848782,313.914195 232.673887,313.914195 C238.517166,313.914195 243.25,318.412064 243.25,324.009129 C243.268169,329.571473 238.517166,334.086922 232.673887,334.086922 Z M265.894289,239.038152 C265.894289,246.979561 259.172761,253.378465 250.894629,253.378465 L161.554008,253.396013 C153.25759,253.396013 146.554348,246.979606 146.554348,239.0557 L146.554348,140.953829 C146.554348,133.01242 153.25759,126.596013 161.554008,126.596013 L250.913384,126.596013 C259.209801,126.596013 265.913043,133.029923 265.913043,140.953829 L265.894289,239.038152 Z" id="Fill-48" fill="#35495E"></path>
                        <path d="M71.7976791,14.1041119 L71.7973502,14.1045165 C65.8322343,22.0594898 69.4110219,0.196013289 82.4970654,0.196013289 L193.497273,0.213591105 C206.582893,0.213591105 210.161634,22.076618 204.215312,14.1041119 C198.26899,6.13124607 187.734189,7.184926 187.734189,7.184926 L139.941846,56.1960133 L137.978046,56.1257919 L136.032618,56.1960133 L88.5174817,7.184926 C88.5174817,7.184926 77.7440013,6.13160572 71.7976791,14.1041119 Z M139.039796,7.37550047 L100.846154,7.39298078 L138.324143,45.5684621 L138.324143,45.3413969 L139.039561,46.1447312 L139.773342,45.3413969 L139.773342,45.5684621 L178.186813,7.39298078 L139.039796,7.37550047 Z" id="Combined-Shape" fill="#3FBE79"></path>
                        <polygon id="Path" fill="#3FBE79" points="22 430.196013 45.4347726 430.196013 64 394.196013 50.9665761 394.196013"></polygon>
                        <polygon id="Path" fill="#3FBE79" points="214 394.196013 231.823096 430.196013 256 430.196013 227.445693 394.196013"></polygon>
                    </g>
                </g>
                <g id="bus" transform="translate(487.000000, 71.000000)">
                    <g>
                        <path d="M356.3783,123.757639 C350.677118,123.757639 346.033339,128.403512 346.033339,134.106834 L346.033339,164.663697 C346.033339,170.083898 350.280881,174.616446 355.698817,175.012893 L355.698817,183.719251 L327.759786,183.719251 L327.759786,26.5909443 C327.759786,11.9925159 315.772177,0 301.179722,0 L67.0915132,0 C52.499058,0 40.5114491,11.9925159 40.5114491,26.5909443 L40.5114491,183.719251 L12.5724187,183.719251 L12.5724187,175.012893 C17.9904023,174.635204 22.2378966,170.178175 22.2378966,164.663697 L22.2378966,134.106834 C22.2378966,128.403319 17.5939244,123.757639 11.8929356,123.757639 L10.344961,123.757639 C4.64377885,123.757639 0,128.403512 0,134.106834 L0,164.663697 C0,169.781729 3.7755773,174.144094 8.70279629,174.918616 L8.70279629,183.624974 C8.70279629,185.853489 10.5339694,187.685363 12.7615238,187.685363 L40.4932296,187.685363 L40.4932296,291.728476 C40.4932296,306.326904 52.4808386,318.31942 67.0732938,318.31942 L86.5173357,318.31942 L86.5173357,340.566854 C86.5173357,351.294125 95.3143704,360 105.94253,360 L110.964229,360 C121.68711,360 130.389423,351.293641 130.389423,340.566854 L130.389423,318.31942 L237.579573,318.31942 L237.579573,340.566854 C237.579573,351.294125 246.376607,360 257.004767,360 L262.026466,360 C272.749347,360 281.45166,351.293641 281.45166,340.566854 L281.45166,318.31942 L300.876854,318.31942 C315.46931,318.31942 327.456919,306.326904 327.456919,291.728476 L327.475766,187.574165 L355.320558,187.574165 C357.548161,187.574165 359.284902,185.836664 359.284902,183.608198 L359.284902,174.807562 C364.21188,174.033234 367.987699,169.689531 367.987699,164.552644 L367.987699,133.995781 C368.270897,128.405881 363.626925,123.759718 357.925936,123.759718 L356.3783,123.757639 Z M254.996785,14.2105263 C261.161148,14.2105263 266.237942,19.2913134 266.237942,25.4605263 C266.237942,31.7250865 261.161148,36.7105263 254.996785,36.7105263 C248.832421,36.7105263 243.755627,31.6297392 243.755627,25.4605263 C243.755627,19.1959662 248.73666,14.2105263 254.996785,14.2105263 Z M137.26045,28.3325277 C137.26045,21.1747535 142.91385,15.3947368 149.914826,15.3947368 L220.451733,15.3947368 C227.45271,15.3947368 233.106109,21.1747535 233.106109,28.3325277 L233.106109,30.8779986 C233.106109,38.0357729 227.45271,43.8157895 220.451733,43.8157895 L149.914826,43.8157895 C142.91385,43.8157895 137.26045,38.0357729 137.26045,30.8779986 L137.26045,28.3325277 Z M114.186495,14.2105263 C120.350859,14.2105263 125.427653,19.2913134 125.427653,25.4605263 C125.427653,31.7250865 120.350859,36.7105263 114.186495,36.7105263 C108.022131,36.7105263 102.945338,31.6297392 102.945338,25.4605263 C102.945338,19.1959662 108.022131,14.2105263 114.186495,14.2105263 Z M68.6302251,246.315789 C68.6302251,232.567866 79.7414946,221.447368 93.4790997,221.447368 C107.216218,221.447368 118.327974,232.567378 118.327974,246.315789 C118.327974,260.063713 107.216705,271.184211 93.4790997,271.184211 C79.7419817,271.184211 68.6302251,260.064201 68.6302251,246.315789 Z M234.289389,269.286385 C234.289389,270.320162 233.232989,271.184211 231.969075,271.184211 L137.214204,271.184211 C135.950291,271.184211 134.893891,270.320162 134.893891,269.286385 L134.893891,268.422336 C134.893891,267.388559 135.950291,266.447368 137.214204,266.447368 L231.969075,266.447368 C233.232989,266.447368 234.289389,267.311417 234.289389,268.422336 L234.289389,269.286385 Z M234.289389,250.339016 C234.289389,251.372794 233.232989,252.236842 231.969075,252.236842 L137.214204,252.236842 C135.950291,252.236842 134.893891,251.372794 134.893891,250.339016 L134.893891,249.474968 C134.893891,248.441191 135.950291,247.5 137.214204,247.5 L231.969075,247.5 C233.232989,247.5 234.289389,248.364048 234.289389,249.474968 L234.289389,250.339016 Z M234.289389,231.391648 C234.289389,232.425425 233.232989,233.289474 231.969075,233.289474 L137.214204,233.289474 C135.950291,233.289474 134.893891,232.425425 134.893891,231.391648 L134.893891,230.5276 C134.893891,229.493822 135.950291,228.552632 137.214204,228.552632 L231.969075,228.552632 C233.232989,228.552632 234.289389,229.41668 234.289389,230.5276 L234.289389,231.391648 Z M273.337621,271.184211 C259.600503,271.184211 248.488746,260.064201 248.488746,246.315789 C248.488746,232.567866 259.600016,221.447368 273.337621,221.447368 C287.075226,221.447368 298.186495,232.567378 298.186495,246.315789 C298.186495,260.063713 287.075226,271.184211 273.337621,271.184211 Z M308.836013,164.844557 C308.836013,177.783206 298.360933,188.289474 285.461776,188.289474 L283.81385,188.289474 C282.450033,178.846916 279.836064,170.677211 276.540162,163.970534 L277.032639,164.65448 C277.525116,165.338426 278.396456,165.433464 279.078388,164.93945 C279.760321,164.445483 279.855024,163.571509 279.362498,162.887515 L270.725237,151.107907 C270.23276,150.423961 269.361421,150.328923 268.679488,150.822938 C268.300675,151.107907 268.092308,151.506883 268.092308,151.886891 C265.762449,149.549987 263.243183,147.612059 260.62902,146.149081 C268.186866,142.064277 273.433619,133.989611 273.433619,124.756196 C273.433619,119.398247 271.69094,114.439616 268.773901,110.44985 C269.152763,110.164833 269.550537,109.860894 269.834647,109.480887 C271.38787,107.922967 272.353913,105.681052 272.353913,103.249402 C272.353913,98.3856138 268.376127,94.4906925 263.621609,94.4906925 C263.621609,94.4906925 252.767812,91.5648323 249.074234,91.5648323 C245.096448,91.5648323 233.560914,94.4906925 233.560914,94.4906925 C231.136351,94.4906925 228.995899,95.4596563 227.348215,97.0175762 C225.794992,98.5754961 224.828949,100.81741 224.828949,103.249061 C224.828949,106.459939 226.571627,109.27189 229.185597,110.829761 C226.476924,114.724585 224.828949,119.58847 224.828949,124.641946 C224.828949,133.875361 229.962233,141.950221 237.633548,146.03483 C235.398393,147.307781 233.163237,148.846683 231.136691,150.803628 C231.136691,150.423621 230.947284,150.024644 230.54951,149.739675 C230.2654,149.549695 229.96233,149.454657 229.678171,149.454657 C229.185694,149.454657 228.806832,149.644685 228.522721,150.043613 L219.88546,161.708922 C219.392983,162.392916 219.506646,163.266842 220.169619,163.760856 C220.662096,164.140864 221.230365,164.140864 221.722842,163.855895 C218.332237,170.562572 215.812729,178.732276 214.449155,188.07999 L84.9047833,188.098959 C72.0051413,188.098959 61.5305466,177.592205 61.5305466,164.654042 L61.5305466,82.6554429 C61.5305466,69.7167945 72.0056262,59.2105263 84.9047833,59.2105263 L285.45974,59.2105263 C298.359382,59.2105263 308.836013,69.7172809 308.836013,82.6554429 L308.836013,164.844557 Z" id="Fill-1" fill="#35495E"></path>
                        <rect id="Rectangle" fill="#3FBE79" x="85" y="288" width="47" height="72" rx="12"></rect>
                        <rect id="Rectangle" fill="#3FBE79" x="237" y="288" width="47" height="72" rx="12"></rect>
                    </g>
                </g>
                <g id="bike" transform="translate(0.000000, 540.000000)">
                    <g id="Group-4" transform="translate(50.500000, 31.000000) scale(-1, 1) translate(-50.500000, -31.000000) ">
                        <g id="Group-3">
                            <path d="M81.5338715,25.8930979 C79.9157014,25.8930979 78.329876,26.120803 76.8087404,26.5436697 L72.1160867,15.0609823 L76.2909246,4.87937186 L81.3071925,4.87937186 L81.3071925,0 L65.3520042,0 L65.3520042,4.87937186 L71.0479777,4.87937186 L62.4605263,25.8930979 L55.6263915,25.8930979 L34.8317792,7.75021527 L36.192762,4.87937186 L37.45494,4.87937186 L37.45494,0 L21.4997517,0 L19.0725627,2.43960266 L19.0725627,8.45750018 L23.9271063,8.45750018 L23.9271063,4.87937186 L30.9177022,4.87937186 L22.4061364,25.6979363 C21.305782,25.4702312 20.1406717,25.3726504 18.9756276,25.3726504 C8.91061444,25.3726504 0.755140187,33.5700018 0.755140187,43.6863252 C0.755140187,53.8026486 8.91078014,62 18.9756276,62 C29.040475,62 37.196115,53.8026486 37.196115,43.6863252 C37.196115,36.4649481 33.0535887,30.2518557 27.034001,27.2591455 L30.108584,19.7449761 L51.8237065,42.027502 C51.7266223,42.4178584 51.6618829,42.8081982 51.6618829,43.2310815 C51.6618829,45.99612 53.8950359,48.2730047 56.6781507,48.2730047 C58.037413,48.2730047 59.2672296,47.7200137 60.1734487,46.8417201 L64.154085,46.8417201 C65.6428095,55.1691459 72.8598524,61.5123126 81.5974345,61.5123126 C91.3711452,61.5123126 99.3009346,53.5426331 99.3009346,43.7182692 C99.2685732,33.8619281 91.3071846,25.8925816 81.532811,25.8925816 L81.5338715,25.8930979 Z M57.2264472,38.29353 C57.0007143,38.260905 56.7427363,38.2282801 56.5170035,38.2282801 C55.9688023,38.2282801 55.4528462,38.326155 54.9691354,38.4892966 L33.2542299,16.1649073 L34.115427,12.9446063 L54.3723454,30.8205527 L60.4156351,30.8205527 L57.2264472,38.29353 Z M61.1663551,41.3832481 L69.406079,21.4250765 L72.3046729,28.4346947 C67.6148637,31.2579486 64.3580934,36.1906675 63.8043207,41.9021407 L61.3617847,41.9021407 C61.2966526,41.7398933 61.2315206,41.5776293 61.1663551,41.3829158 L61.1663551,41.3832481 Z" id="Fill-1" fill="#3FBE79"></path>
                            <ellipse id="Oval" fill="#35495E" cx="82.1214953" cy="43.0397554" rx="18.8785047" ry="18.9602446"></ellipse>
                            <ellipse id="Oval-2" fill="#35495E" cx="18.8785047" cy="43.0397554" rx="18.8785047" ry="18.9602446"></ellipse>
                        </g>
                        <g id="Group-2" transform="translate(62.460526, 24.622010)" fill="#3FBE79">
                            <ellipse id="Oval" cx="19.6162547" cy="18.4824807" rx="6.22438853" ry="6.28785425"></ellipse>
                            <polygon id="Rectangle" transform="translate(15.749589, 11.241921) rotate(-23.000000) translate(-15.749589, -11.241921) " points="13.4283157 0.21621731 18.151102 0.198924348 18.0708626 22.2676252 13.3480763 22.2849181"></polygon>
                            <polygon id="Rectangle" transform="translate(11.034059, 19.816268) rotate(-90.000000) translate(-11.034059, -19.816268) " points="8.65229582 8.87634853 13.4158218 8.87634853 13.4158218 30.7561874 8.65229582 30.7561874"></polygon>
                        </g>
                        <g id="Group" transform="translate(12.698830, 22.100478)" fill="#3FBE79">
                            <ellipse id="Oval" cx="6.20702799" cy="20.9546764" rx="6.20702799" ry="6.25438596"></ellipse>
                            <polygon id="Rectangle" transform="translate(9.357121, 11.182084) rotate(22.000000) translate(-9.357121, -11.182084) " points="6.97454662 0.194976647 11.6818752 0.207437865 11.7396953 22.1691913 7.03236667 22.1567301"></polygon>
                        </g>
                    </g>
                </g>
                <g id="icon/miniscooter" transform="translate(159.000000, 526.000000)">
                    <g id="miniscooter">
                        <g>
                            <path d="M30.1579226,31.8077298 C34.0828486,33.1882094 31.1773518,31.2900575 36.2790191,35.3674629 C41.3806864,39.4448684 44.6511005,45.677728 44.6511005,52.698104 C44.6511005,64.9791058 34.6546958,74.9364556 22.3255502,74.9364556 C9.99640466,74.9364556 0,64.9791058 0,52.698104 C0,40.4171022 9.99640466,30.4597323 22.3255502,30.4597323 C24.5877145,30.4592874 26.2329966,30.4272501 30.1579226,31.8077298 Z M120,61.0369096 C120,68.7138735 113.75359,74.9358919 106.046531,74.9358919 C101.609747,74.9358919 97.6581242,72.8944094 95.1017092,69.6804087 L92.1365831,61.9056099 C92.1202296,61.6178593 92.0929785,61.3301086 92.0929785,61.0369235 C92.0929785,53.3599596 98.3393884,47.1379412 106.046447,47.1379412 C113.75359,47.1379412 120,53.3599457 120,61.0369096 Z" id="Fill-1" fill="#35495E" transform="translate(60.000000, 52.698032) scale(-1, 1) translate(-60.000000, -52.698032) "></path>
                            <path d="M24.991911,0.112568689 C27.2486001,0.112568689 29.090986,1.88939545 29.1782004,4.124173 L32.1434887,6.12997515 C33.1355555,6.79493868 33.5934798,8.0268012 33.2772754,9.18228278 C32.5577639,11.8148719 31.9418072,14.4802516 31.315022,17.1619568 C37.0494012,21.0537013 41.0121427,26.8149232 43.1761752,33.9925554 C45.5855243,41.9776713 45.9070313,51.7008234 44.5279978,63.0323846 L44.5279978,63.075989 C44.5388961,63.4411776 44.8441464,64.1442897 45.4437486,64.732956 C46.0542491,65.3325199 46.8555049,65.6922527 47.3189271,65.6922527 L78.8472677,65.6922527 L96.5524808,58.8899671 C97.9370123,58.2195478 99.8339735,58.9826317 100.389913,60.4161907 C100.945852,61.8497497 100.035599,63.6429159 98.5584112,64.0789599 L80.4178239,71.055663 C80.1016754,71.191932 79.7582601,71.2627874 79.4148588,71.273685 L47.3199737,71.273685 C44.9923968,71.273685 43.002793,70.2053843 41.5202884,68.7446301 C40.0377838,67.2838759 38.947395,65.3380455 38.947395,63.0323846 C38.9419389,62.9179248 38.9419389,62.7980093 38.947395,62.6835495 C40.3101159,51.7006838 39.9612585,42.576691 37.8572155,35.6055692 C36.2219113,30.1931824 33.6328309,26.0780439 29.9207086,23.0475035 C27.3533968,33.8013938 24.1808872,44.6641206 16.0099481,54.878014 C15.045134,56.0825836 13.2899764,56.2787964 12.0853018,55.3140579 C10.8806273,54.3493194 10.6844299,52.59426 11.64923,51.3896624 C21.8041912,38.7007138 23.5267097,24.606099 27.3910734,9.70386111 L25.4723575,8.43933366 C25.3088271,8.46114284 25.1616511,8.48293806 24.9926785,8.48293806 C22.6815677,8.48293806 20.8063891,6.60787932 20.8063891,4.29691617 C20.8063891,1.98595302 22.6815677,0.11089428 24.9926785,0.11089428 L24.991911,0.112568689 Z" id="Path" fill="#3FBE79" transform="translate(55.795620, 35.692290) scale(-1, 1) translate(-55.795620, -35.692290) "></path>
                        </g>
                    </g>
                </g>
            </g>
        </g>
    </g>
</svg>