<?xml version="1.0" encoding="UTF-8"?>
<svg width="1067px" height="720px" viewBox="0 0 1067 720" version="1.1" xmlns="http://www.w3.org/2000/svg" xmlns:xlink="http://www.w3.org/1999/xlink">
    <!-- Generator: Sketch 55.1 (78136) - https://sketchapp.com -->
    <title>intercity</title>
    <desc>Created with Sketch.</desc>
    <g id="Layout_Template" stroke="none" stroke-width="1" fill="none" fill-rule="evenodd">
        <g id="intercity" transform="translate(-92.000000, -142.000000)">
            <g transform="translate(92.000000, 142.000000)">
                <g id="tram" transform="translate(89.000000, 164.000000)">
                    <g>
                        <path d="M64.6956522,261.99122 L128.347826,261.99122 L128.347826,244.130846 L64.6956522,244.118598 L64.6956522,261.99122 Z M124.554083,55.2003959 L113.268833,43.7289924 L78.4257635,43.5480648 L63.8854452,55.1040803 C63.8854452,55.1040803 8.11902527,56.0449714 0,71.8109253 C0,71.8109253 0.228007131,227.262216 0.228007131,235.284911 C0.228007131,243.307606 16.7312878,261.750231 28.0038929,261.750231 C44.3301374,261.750231 55.3238942,261.834657 55.3238942,261.834657 L55.0832416,235.658686 L137.651524,235.658686 L137.638846,261.99122 C137.638846,261.99122 152.102967,261.725866 165.883262,261.725866 C179.663556,261.725866 192,238.553619 192,235.320763 C191.987355,223.607876 191.658022,71.8251611 191.658022,71.8251611 C191.656011,56.3463628 124.554083,55.2003959 124.554083,55.2003959 Z M67.826087,73.9876812 C67.826087,74.1868023 67.8643105,74.3858933 67.889782,74.5732908 C68.2082897,72.2074052 70.374051,70.3569976 73.0365878,70.3569976 L119.994138,70.3569976 C122.656773,70.3569976 124.835352,72.2075551 125.153664,74.5732908 C125.179168,74.3741997 125.217391,74.1867723 125.217391,73.9876812 L125.217391,75.1589004 C125.217391,74.9598093 125.179168,74.7723819 125.153664,74.5849844 C124.835189,77.0211516 122.656675,79.2933085 119.994138,79.2933085 L73.0365878,79.2933085 C70.3612337,79.2933085 68.1953746,77.0211216 67.889782,74.5849844 C67.8643105,74.7723819 67.826087,74.9597794 67.826087,75.1589004 L67.826087,73.9876812 Z M32.3478261,229.224747 C28.3121699,229.224747 25.0434783,226.113476 25.0434783,222.268377 C25.0434783,218.423581 28.3121699,215.323819 32.3478261,215.323819 C36.3709302,215.323819 39.6521739,218.423279 39.6521739,222.268377 C39.6521739,226.101361 36.3709302,229.224747 32.3478261,229.224747 Z M91.826087,164.732118 C91.826087,170.204504 87.1800843,174.613958 81.4298557,174.613958 L19.7875356,174.613958 C14.037307,174.613958 9.39130435,170.192443 9.39130435,164.732118 L9.39130435,97.1305971 C9.39130435,91.6582109 14.037307,87.2366959 19.7875356,87.2366959 L81.4298557,87.2366959 C87.1800843,87.2366959 91.826087,91.6702721 91.826087,97.1305971 L91.826087,164.732118 Z M160.695634,230.21767 C156.659988,230.21767 153.391304,227.106399 153.391304,223.273112 C153.391304,219.428316 156.67254,216.316742 160.695634,216.316742 C164.73128,216.316742 168,219.416202 168,223.273112 C168.012548,227.106096 164.73128,230.21767 160.695634,230.21767 Z M183.639221,164.720026 C183.639221,170.192412 178.997015,174.601866 173.279744,174.601866 L111.576869,174.613958 C105.846969,174.613958 101.217391,170.192443 101.217391,164.732118 L101.217391,97.1305971 C101.217391,91.6582109 105.846969,87.2366959 111.576869,87.2366959 L173.292697,87.2366959 C179.022596,87.2366959 183.652174,91.6702721 183.652174,97.1305971 L183.639221,164.720026 Z" id="Fill-48" fill="#35495E"></path>
                        <path d="M49.5868863,9.71907478 L49.5866591,9.71935359 C45.4668668,15.2010869 47.9385475,0.135071802 56.9763905,0.135071802 L133.638404,0.14718459 C142.675955,0.14718459 145.147603,15.2128899 141.040791,9.71907478 C136.933978,4.22501179 129.658145,4.9510975 129.658145,4.9510975 L96.6504834,38.7243989 L95.2941904,38.6760098 L93.9505851,38.7243989 L61.1343759,4.9510975 C61.1343759,4.9510975 53.6936987,4.22525962 49.5868863,9.71907478 Z M96.0274851,5.08242144 L69.6491422,5.09446703 L95.533221,31.4010052 L95.533221,31.2445357 L96.027323,31.7981095 L96.5341067,31.2445357 L96.5341067,31.4010052 L123.064274,5.09446703 L96.0274851,5.08242144 Z" id="Combined-Shape" fill="#3FBE79"></path>
                        <polygon id="Path" fill="#3FBE79" points="15.1942446 296.445977 31.3794113 296.445977 44.2014388 271.638552 35.1999374 271.638552"></polygon>
                        <polygon id="Path" fill="#3FBE79" points="147.798561 271.638552 160.108038 296.445977 176.805755 296.445977 157.084795 271.638552"></polygon>
                    </g>
                </g>
                <g id="miniscooter" transform="translate(0.000000, 590.000000)">
                    <g>
                        <path d="M49.9594019,54.4521528 C46.2654722,65.8108459 41.239135,76.5956778 33.029193,86.8264037 C31.8293491,88.322707 31.271934,90.2331925 31.4797886,92.143413 C31.6970758,94.0443824 32.6607433,95.7853356 34.1629849,96.9899141 C35.665154,98.1850727 37.583129,98.7403111 39.5008379,98.5238725 C41.4092594,98.3168295 43.16647,97.356925 44.3663381,95.8605495 C53.3889302,84.6333963 58.8873783,72.99235 62.8836332,61.3036024 C71.7265232,68.3711052 77.3952408,79.1747285 77.3952408,91.3433802 C77.3952408,112.63045 60.0681394,129.889891 38.6976204,129.889891 C17.3271014,129.889891 0,112.63045 0,91.3433802 C0,70.0563104 17.3271014,52.7968679 38.6976204,52.7968679 C42.6187052,52.7958574 46.3883371,53.3699113 49.9594019,54.4521528 Z M208,105.79731 C208,119.104047 197.17289,129.888879 183.813987,129.888879 C176.123561,129.888879 169.274082,126.35031 164.842963,120.779375 L186.383509,112.497898 C188.320277,111.923844 189.926276,110.578089 190.823819,108.771173 C191.721338,106.973725 191.825265,104.875085 191.107255,103.002447 C190.389221,101.120293 188.915398,99.6240862 187.044731,98.8615881 C185.174088,98.1087265 183.076773,98.1651972 181.243957,99.0215802 L159.703411,107.303057 C159.675065,106.804289 159.627829,106.305522 159.627829,105.797334 C159.627829,92.4905967 170.45494,81.7057647 183.813842,81.7057647 C197.17289,81.7057647 208,92.4905726 208,105.79731 Z" id="Fill-1" fill="#35495E" transform="translate(104.000000, 91.343380) scale(-1, 1) translate(-104.000000, -91.343380) "></path>
                        <path d="M43.3193124,0.19511906 C47.2309068,0.19511906 50.4243757,3.27495211 50.5755473,7.14856653 L55.7153803,10.6252903 C57.4349629,11.7778937 58.2286982,13.9131221 57.6806106,15.9159568 C56.4334574,20.4791114 55.3657991,25.0991028 54.2793715,29.7473917 C64.218962,36.4930823 71.087714,46.4792003 74.8387036,58.9204294 C79.0149087,72.7612969 79.5721875,89.6147605 77.1818628,109.256133 L77.1818628,109.331714 C77.2007532,109.964708 77.7298537,111.183435 78.7691642,112.20379 C79.8273651,113.243035 81.2162085,113.866571 82.0194737,113.866571 L136.668597,113.866571 L167.357633,102.075943 C169.757488,100.913883 173.045554,102.236562 174.009182,104.721397 C174.97281,107.206233 173.395039,110.314388 170.834579,111.070197 L139.390895,123.163149 C138.842904,123.399349 138.247651,123.522165 137.652422,123.541054 L82.0212878,123.541054 C77.9868212,123.541054 74.5381746,121.689333 71.9684999,119.157359 C69.3988253,116.625385 67.508818,113.252612 67.508818,109.256133 C67.4993607,109.057736 67.4993607,108.849883 67.508818,108.651486 C69.8708676,89.6145186 69.2661813,73.7995977 65.6191735,61.71632 C62.7846463,52.3348496 58.2969068,45.2019427 51.8625615,39.9490061 C47.4125545,58.5890825 41.9135378,77.417809 27.7505767,95.1218909 C26.0782323,97.2098116 23.035959,97.5499138 20.9478565,95.8777004 C18.859754,94.205487 18.5196784,91.163384 20.1919987,89.0754148 C37.7939314,67.0812372 40.7796302,42.6505716 47.4778606,16.8200259 L44.1520863,14.6281783 C43.8686336,14.6659809 43.6135286,14.7037593 43.3206427,14.7037593 C39.3147173,14.7037593 36.0644078,11.4536575 36.0644078,7.44798802 C36.0644078,3.44231856 39.3147173,0.192216752 43.3206427,0.192216752 L43.3193124,0.19511906 Z" id="Path" stroke="#C8C5C5" fill="#3FBE79" transform="translate(96.712409, 61.866635) scale(-1, 1) translate(-96.712409, -61.866635) "></path>
                    </g>
                </g>
                <g id="icon/pedelec" transform="translate(265.000000, 598.000000)">
                    <g id="pedelec">
                        <g id="Group-9" transform="translate(0.000000, 40.941029)" fill="#35495E">
                            <path d="M40.5151079,80.8948787 C18.1392317,80.8948787 0,62.7859433 0,40.4474394 C0,18.1089354 18.1392317,0 40.5151079,0 C62.8909842,0 81.0302158,18.1089354 81.0302158,40.4474394 C81.0302158,62.7859433 62.8909842,80.8948787 40.5151079,80.8948787 Z M40.3073381,67.1568781 C55.224589,67.1568781 67.3174101,55.0842545 67.3174101,40.1919186 C67.3174101,25.2995826 55.224589,13.226959 40.3073381,13.226959 C25.3900873,13.226959 13.2972662,25.2995826 13.2972662,40.1919186 C13.2972662,55.0842545 25.3900873,67.1568781 40.3073381,67.1568781 Z" id="Combined-Shape"></path>
                            <rect id="Rectangle" x="8.91332374" y="38.020593" width="62.3932662" height="4.04474394"></rect>
                            <polygon id="Rectangle" transform="translate(40.109957, 40.042965) scale(-1, -1) rotate(90.000000) translate(-40.109957, -40.042965) " points="8.96542853 38.0172096 71.2544851 38.0172096 71.2544851 42.0687204 8.96542853 42.0687204"></polygon>
                            <polygon id="Rectangle" transform="translate(40.109957, 40.042965) scale(-1, -1) rotate(45.000000) translate(-40.109957, -40.042965) " points="8.94106785 38.0449537 71.2822292 37.9928489 71.2788458 42.0409762 8.93768442 42.093081"></polygon>
                            <polygon id="Rectangle" transform="translate(40.109957, 40.042965) scale(-1, -1) rotate(135.000000) translate(-40.109957, -40.042965) " points="8.93768442 37.9928489 71.2788458 38.0449537 71.2822292 42.093081 8.94106785 42.0409762"></polygon>
                        </g>
                        <g id="Group-9" transform="translate(146.969784, 40.941029)" fill="#35495E">
                            <path d="M40.5151079,80.8948787 C18.1392317,80.8948787 0,62.7859433 0,40.4474394 C0,18.1089354 18.1392317,0 40.5151079,0 C62.8909842,0 81.0302158,18.1089354 81.0302158,40.4474394 C81.0302158,62.7859433 62.8909842,80.8948787 40.5151079,80.8948787 Z M40.3073381,67.1568781 C55.224589,67.1568781 67.3174101,55.0842545 67.3174101,40.1919186 C67.3174101,25.2995826 55.224589,13.226959 40.3073381,13.226959 C25.3900873,13.226959 13.2972662,25.2995826 13.2972662,40.1919186 C13.2972662,55.0842545 25.3900873,67.1568781 40.3073381,67.1568781 Z" id="Combined-Shape"></path>
                            <rect id="Rectangle" x="8.91332374" y="38.020593" width="62.3932662" height="4.04474394"></rect>
                            <polygon id="Rectangle" transform="translate(40.109957, 40.042965) scale(-1, -1) rotate(90.000000) translate(-40.109957, -40.042965) " points="8.96542853 38.0172096 71.2544851 38.0172096 71.2544851 42.0687204 8.96542853 42.0687204"></polygon>
                            <polygon id="Rectangle" transform="translate(40.109957, 40.042965) scale(-1, -1) rotate(45.000000) translate(-40.109957, -40.042965) " points="8.94106785 38.0449537 71.2822292 37.9928489 71.2788458 42.0409762 8.93768442 42.093081"></polygon>
                            <polygon id="Rectangle" transform="translate(40.109957, 40.042965) scale(-1, -1) rotate(135.000000) translate(-40.109957, -40.042965) " points="8.93768442 37.9928489 71.2788458 38.0449537 71.2822292 42.093081 8.94106785 42.0409762"></polygon>
                        </g>
                        <path d="M145.754263,9.03211429 L157.244928,9.03211429 L158.348954,10.1447835 C157.730692,12.2729817 157.11243,14.6308168 156.617825,16.6882341 C143.46363,16.0229852 123.634159,16.1402828 97.1294147,17.0401268 L12.7942446,17.0401268 L19.4718254,32.1645514 L87.4689724,32.1645514 C83.1234572,35.3346605 79.1510111,38.3302478 75.0261745,42.6306818 C73.4083403,44.3173884 35.4952035,77.5236285 37.9371393,81.2532715 C39.5650966,83.7397002 50.0063585,84.9829145 69.2609251,84.9829145 L96.5142103,86.4489006 C100.223463,90.7482351 103.791007,92.8979023 107.216844,92.8979023 C112.355599,92.8979023 117.729206,90.360955 119.919713,86.0338453 L124.141549,87.3496113 L123.311313,88.1796993 L126.429077,91.2969092 L132.726558,84.9829145 L129.538023,81.8657046 L127.665601,83.8084617 L121.226804,81.7950819 C121.421119,80.7177467 121.33278,79.6933784 121.297462,78.677872 C141.699836,68.2311835 154.568838,56.5569623 164.160219,44.9082864 C164.372185,45.5911834 171.21191,58.2467686 184.679394,82.8750419 C186.448535,83.7656503 187.767796,83.7656503 188.637174,82.8750419 C189.506553,81.9844336 189.506553,80.6329582 188.637174,78.8206158 C174.956932,43.4437944 167.310143,22.8502981 165.696807,17.0401268 L167.639887,10.4966762 C168.20515,8.92482385 167.790044,7.03516935 166.597678,5.85171922 L162.163982,1.40999464 C161.342587,0.615240617 160.194402,0.156034838 159.046218,0.16474867 L145.753721,0.16474867 C142.980315,0.191368793 141.090302,2.76982066 141.116756,4.80983097 C141.223274,7.12457805 143.440077,9.13813876 145.754263,9.03211429 Z M161.130998,34.3672158 C151.645207,46.9861626 139.58928,59.4106935 117.508527,70.7048995 C115.221021,68.3646749 112.120893,66.8283373 108.640909,66.6870467 L99.4289321,36.3807765 C111.481996,29.2161747 131.286547,25.6338738 158.842587,25.6338738 C159.844173,29.501544 160.606976,32.412658 161.130998,34.3672158 Z M100.188193,69.3188951 C98.5602955,69.7280614 96.8355737,71.6665384 95.014028,75.1343262 L55.5314958,73.6193291 L83.5748899,49.2811742 C87.184282,45.7253228 89.907568,43.2056027 91.7447479,41.7220136 L100.188193,69.3188951 Z M110.099265,71.4117368 C111.25629,71.6766624 112.351476,72.127029 113.2878,72.7981481 C112.492904,73.1778694 111.680328,73.531096 110.867796,73.9108173 L110.099265,71.4117368 Z M101.655593,73.9814174 L102.141357,75.6415933 L100.480909,75.6415933 C100.825358,75.0411196 101.187488,74.4759571 101.655593,73.9814174 Z M113.426628,84.0307288 L115.643522,84.7283427 C114.089049,87.2627571 111.315643,88.8874861 108.092061,88.8874861 C104.797709,88.8874861 102.006667,87.1566875 100.478648,84.5162938 L103.181283,84.5162938 C104.400126,85.8408989 106.157731,86.732793 108.100879,86.732793 C110.273614,86.732793 112.216672,85.6377795 113.435605,84.0306384 L113.426628,84.0307288 Z" id="Fill-1" fill="#3FBE79"></path>
                    </g>
                </g>
                <g id="icon/minicar" transform="translate(838.000000, 575.000000)">
                    <g id="minicar">
                        <path d="M176.077524,31.9585921 C152.980351,16.2228798 141.445182,12.0573352 150.395938,6.03391494 C159.346694,0.010494685 142.694379,0.268965759 136.907596,0.268965759 L53.9637019,0.268965759 C48.1769186,0.268965759 36.0485586,0.268965759 27.5643627,0.010494685 C19.0801668,-0.247976389 5.62446091,4.24323954 2.29260891,16.2228798 C-1.03924309,28.20252 0.345682473,57.9349113 0.345682473,66.0318551 L0.345682473,112.250003 C0.345682473,120.346947 5.36398096,126.545455 11.9192491,126.545455 L20.403445,126.545455 C20.403445,107.000713 32.8231961,90.8068256 53.9637019,90.8068256 C75.1042076,90.8068256 83.9421363,107.000713 83.9421363,126.545455 L139.510225,126.545455 C139.510225,107.000713 147.264951,90.8068256 171.180569,90.8068256 C195.096187,90.8068256 203.651583,107.000713 203.651583,126.545455 L212.135779,126.545455 C218.691047,126.545455 228.683028,120.346947 228.683028,112.250003 L228.683028,72.1684883 C228.683028,72.1684883 228.323376,60.732113 220.460716,56.031298 C209.196705,49.2969304 212.376404,51.2045556 198.253361,44.5660915 C181.224953,36.5619759 182.834457,36.5619759 176.077524,31.9585921 Z M135.652629,33.116962 L123.035268,59.3252898 L131.453075,63.6064917 C135.196306,65.5051182 135.652816,70.2700781 132.384325,73.1367927 L97.7824075,102.211835 C93.1079256,106.027672 86.5711301,100.778573 88.9083711,95.0641093 L101.525733,68.8557815 L93.1079256,65.0399442 C89.364694,63.1413177 88.9081841,58.3763578 92.1766753,55.5096432 L127.23529,26.4346008 C131.435031,22.153399 137.990337,27.4024982 135.653097,33.1167714 L135.652629,33.116962 Z" id="Shape" fill="#3FBE79"></path>
                        <path d="M53.2546922,101.311688 C41.0983678,101.311688 31.3733084,111.020202 31.3733084,123.155844 C31.3733084,135.291486 41.0983678,145 53.2546922,145 C65.4110166,145 75.1360761,135.291486 75.1360761,123.155844 C75.1360761,111.513395 65.4110166,101.311688 53.2546922,101.311688 L53.2546922,101.311688 Z" id="wheel" fill="#35495E"></path>
                        <path d="M173.602303,101.311688 C161.445979,101.311688 151.72092,111.020202 151.72092,123.155844 C151.72092,135.291486 161.445979,145 173.602303,145 C185.758628,145 195.483687,135.291486 195.483687,123.155844 C195.483687,111.513395 185.758628,101.311688 173.602303,101.311688 L173.602303,101.311688 Z" id="wheel" fill="#35495E"></path>
                    </g>
                </g>
                <g id="icon/scooter" transform="translate(550.000000, 564.000000)">
                    <g id="scooter" transform="translate(115.500000, 78.000000) scale(-1, 1) translate(-115.500000, -78.000000) ">
                        <path d="M219.805458,108.567834 L223.788015,105.169277 C224.471121,104.589953 224.625804,103.585777 224.136019,102.82621 L219.753886,95.9256093 L222.318759,95.9256093 L222.383199,95.9256093 C223.388539,95.9256093 224.187657,95.1274164 224.187657,94.1232402 C224.187657,93.8528914 224.136118,93.595396 224.020106,93.3636732 C221.932117,80.0261812 215.03642,79.7045179 206.285022,79.6916645 C203.745919,77.6189466 201.116606,76.6405431 198.061882,76.6405431 C194.826772,76.6405431 191.462781,77.7477108 187.557433,79.0222357 C182.801461,80.5799957 176.885367,82.5239495 169.280893,83.0001825 C155.824996,83.5923923 143.645036,83.656758 133.863518,83.7082373 C115.380756,83.7983425 112.996501,83.9013341 112.300296,86.0641573 C112.068304,86.7979847 112.313197,87.5832914 112.918962,88.046737 C120.974484,94.1876717 124.828359,101.139686 123.50062,107.100015 C122.108606,113.330923 115.393624,118.042829 104.579678,120.4118 L85.6329989,120.4118 C84.6534283,120.4118 83.7770017,120.089972 82.9392128,119.356144 C82.8361019,119.291779 82.7329909,119.175901 82.4494276,118.841186 C72.2412783,108.928288 67.1375336,98.062594 67.2919525,86.5146837 C67.5368452,67.6156463 81.8822348,52.4368297 84.743605,49.5926142 L98.998653,49.5926142 C99.578648,49.5926142 100.132873,49.3093791 100.467976,48.8330472 C101.318633,47.6228879 101.769747,46.2067454 101.769747,44.7262373 C101.769747,43.3744605 101.421744,42.1385615 100.725737,41.0571005 C100.390634,40.5421426 99.8235076,40.2202815 99.2048419,40.2202815 L87.3083126,40.2202815 L81.1345237,33.178294 C80.7865201,32.4702393 81.1860957,28.8783544 83.2225122,24.2567514 C84.0216304,22.4543823 84.7820778,21.167004 85.4007435,20.291658 C86.7540871,25.479797 91.2135616,27.1922586 93.0180858,27.1922586 C94.0105246,27.1922586 94.8225109,26.3812123 94.8225109,25.3898895 L94.8225109,2.0366723 C94.8225109,1.49597475 94.5776183,0.981016845 94.1523062,0.633416143 C93.7269612,0.285815441 93.1727357,0.157084205 92.6314114,0.272929134 C88.5327098,1.16122739 85.7360108,4.48256578 84.1248403,10.4175174 C80.3227683,12.79921 74.7676451,19.33906 72.756899,29.4322349 C67.0470269,29.4837471 63.7732129,29.7927219 60.821765,30.1531759 L53.6812078,25.5572796 C53.3847762,25.3641828 53.0496408,25.2740446 52.7016702,25.2740446 C51.2452156,25.2740446 50.3043488,26.4326916 49.891905,28.7371982 C49.6728148,30.0117232 49.5568027,31.7239541 49.5568027,33.8482172 C49.5568027,38.8689331 49.9692465,50.5328532 53.745582,50.5328532 C54.0033759,50.5328532 54.2611368,50.4813739 54.4931282,50.365496 L60.7183901,47.5203577 L61.2983851,48.1769331 L59.8419305,48.9236138 C53.5780638,50.8804539 33.4583948,66.7281391 31.2285586,89.5533802 C22.2062677,92.3212666 -0.593956122,107.165105 0.0118413482,113.679117 C0.102084054,114.593155 0.707848529,116.717385 4.58732801,116.717385 C5.45088637,116.717385 6.45622641,116.627279 7.62911762,116.434183 C6.73927909,118.164063 16.9949458,98.4990538 41.8676267,108.568131 C61.2983851,116.434183 52.7016702,140.718296 56.1945084,139.967676 C56.8513222,140.35435 57.4751409,140.718296 58.0725443,141.06085 C67.6389598,146.546284 70.431795,146.546284 93.4695303,146.546284 L139.198,146.546284 C142.175317,146.546284 144.985082,145.387637 147.085906,143.276293 C149.199664,141.164982 150.359687,138.384111 150.359687,135.43608 C150.359687,132.333446 149.070816,129.359412 146.81531,127.286727 C146.609088,127.093597 146.338426,126.952012 146.054862,126.87476 C144.68865,126.398428 143.373978,125.703227 142.03337,124.789189 C141.981831,124.750563 141.917391,124.711937 141.865819,124.686198 C137.277464,121.416207 134.544776,116.124878 134.544776,110.51192 C134.544776,105.890317 136.349235,101.590377 139.416893,98.4231799 C138.682215,100.573117 138.308442,102.864836 138.308442,105.169211 C138.308442,115.700059 146.170611,124.660491 156.610718,126.01207 C157.113372,126.089289 157.628927,125.921932 158.015601,125.587217 L162.655429,121.647831 C162.036763,123.926532 161.72743,126.282287 161.72743,128.664111 C161.72743,137.717969 165.870605,120.806548 170.932128,114.073864 C172.258434,112.309652 176.687071,108.567834 181.514057,107.100015 C186.341043,105.632195 195.111795,105.169277 203.163669,108.568131 C212.618962,112.559395 215.937002,122.217486 215.072101,120.4118 C221.052536,124.05523 224.251371,124.467328 225.462966,127.711645 C225.759431,128.484099 226.545648,128.960431 227.357634,128.870292 C229.767857,128.587057 230.579843,127.158061 230.83767,126.321242 C232.306993,121.66075 223.413681,112.185525 219.804633,108.568131 L219.805458,108.567834 Z" id="Fill-1" fill="#3FBE79"></path>
                        <path d="M143.294627,53.8456188 C135.869828,53.8456188 112.396575,54.1798776 109.315448,58.2167202 L109.289676,58.2038514 C105.770652,63.2822411 106.647174,76.4472177 108.297129,81.6411301 C108.542048,82.3996631 109.238132,82.9010512 110.024434,82.9010512 C110.114687,82.9010512 110.204906,82.8882154 110.308029,82.8753466 C111.016981,82.7724952 111.571267,82.2582383 111.764642,81.5897208 C114.497364,79.8412474 132.182838,79.8412474 141.786238,79.8412474 L147.019566,79.8412474 C160.180599,79.8412474 171.459363,79.7255272 175.829434,78.4013281 C179.039125,77.8742024 181.52706,77.0771289 184.143559,76.2285803 C188.487561,74.8272344 192.986329,73.3744463 201.622854,73.014483 C202.151368,72.9887783 202.654076,72.7316334 202.976346,72.3073921 C203.285712,71.8959865 203.414607,71.3431563 203.285712,70.8288994 C199.793714,55.5044059 160.170369,53.8456188 143.294627,53.8456188 Z" id="Fill-2" fill="#35495E"></path>
                        <ellipse id="Oval" fill="#35495E" cx="26.2814371" cy="135.13165" rx="20.748503" ry="20.7538803"></ellipse>
                        <ellipse id="Oval" fill="#35495E" cx="190.540419" cy="135.13165" rx="20.748503" ry="20.7538803"></ellipse>
                        <ellipse id="Oval" fill="#35495E" cx="190.194611" cy="135.24612" rx="16.252994" ry="16.2572062"></ellipse>
                    </g>
                </g>
                <g id="bus" transform="translate(758.000000, 204.000000)">
                    <g>
                        <path d="M244.041662,84.9114911 C240.137591,84.9114911 236.957612,88.0990762 236.957612,92.0121891 L236.957612,112.977592 C236.957612,116.696453 239.866256,119.806284 243.576364,120.07829 L243.576364,126.05182 L224.444201,126.05182 L224.444201,18.2443423 C224.444201,8.22819838 216.235295,0 206.242636,0 L45.9431015,0 C35.9504419,0 27.7415358,8.22819838 27.7415358,18.2443423 L27.7415358,126.05182 L8.60937366,126.05182 L8.60937366,120.07829 C12.3195146,119.819154 15.2281248,116.761137 15.2281248,112.977592 L15.2281248,92.0121891 C15.2281248,88.0989436 12.0480135,84.9114911 8.14407546,84.9114911 L7.08404937,84.9114911 C3.17997899,84.9114911 0,88.0990762 0,92.0121891 L0,112.977592 C0,116.48913 2.58544967,119.482198 5.95952354,120.013606 L5.95952354,125.987135 C5.95952354,127.516144 7.21347904,128.773013 8.73886953,128.773013 L27.7290594,128.773013 L27.7290594,200.158149 C27.7290594,210.174293 35.9379655,218.402491 45.9306251,218.402491 L59.2455668,218.402491 L59.2455668,233.666703 C59.2455668,241.026802 65.2696232,247 72.547602,247 L75.9863741,247 C83.3292167,247 89.2884093,241.026471 89.2884093,233.666703 L89.2884093,218.402491 L162.69036,218.402491 L162.69036,233.666703 C162.69036,241.026802 168.714416,247 175.992395,247 L179.431167,247 C186.774009,247 192.733202,241.026471 192.733202,233.666703 L192.733202,218.402491 L206.035237,218.402491 C216.027897,218.402491 224.236803,210.174293 224.236803,200.158149 L224.249709,128.696718 L243.317339,128.696718 C244.842762,128.696718 246.032053,127.5046 246.032053,125.975625 L246.032053,119.937411 C249.405961,119.406135 251.991576,116.425872 251.991576,112.901397 L251.991576,91.9359941 C252.185506,88.1007017 249.005394,84.9129175 245.101456,84.9129175 L244.041662,84.9114911 Z M174.617363,9.75 C178.838613,9.75 182.315113,13.2359845 182.315113,17.46875 C182.315113,21.7669343 178.838613,25.1875 174.617363,25.1875 C170.396114,25.1875 166.919614,21.7015155 166.919614,17.46875 C166.919614,13.1705657 170.330539,9.75 174.617363,9.75 Z M93.9935691,19.4392621 C93.9935691,14.5282336 97.8649189,10.5625 102.659066,10.5625 L150.961513,10.5625 C155.75566,10.5625 159.62701,14.5282336 159.62701,19.4392621 L159.62701,21.1857379 C159.62701,26.0967664 155.75566,30.0625 150.961513,30.0625 L102.659066,30.0625 C97.8649189,30.0625 93.9935691,26.0967664 93.9935691,21.1857379 L93.9935691,19.4392621 Z M78.192926,9.75 C82.4141752,9.75 85.8906752,13.2359845 85.8906752,17.46875 C85.8906752,21.7669343 82.4141752,25.1875 78.192926,25.1875 C73.9716768,25.1875 70.4951768,21.7015155 70.4951768,17.46875 C70.4951768,13.1705657 73.9716768,9.75 78.192926,9.75 Z M46.9967846,169 C46.9967846,159.567397 54.6055887,151.9375 64.0128617,151.9375 C73.4198012,151.9375 81.0289389,159.567062 81.0289389,169 C81.0289389,178.432603 73.4201348,186.0625 64.0128617,186.0625 C54.6059223,186.0625 46.9967846,178.432938 46.9967846,169 Z M160.437299,184.760381 C160.437299,185.469667 159.713895,186.0625 158.848389,186.0625 L93.9619007,186.0625 C93.0963948,186.0625 92.3729904,185.469667 92.3729904,184.760381 L92.3729904,184.167547 C92.3729904,183.458261 93.0963948,182.8125 93.9619007,182.8125 L158.848389,182.8125 C159.713895,182.8125 160.437299,183.405333 160.437299,184.167547 L160.437299,184.760381 Z M160.437299,171.760381 C160.437299,172.469667 159.713895,173.0625 158.848389,173.0625 L93.9619007,173.0625 C93.0963948,173.0625 92.3729904,172.469667 92.3729904,171.760381 L92.3729904,171.167547 C92.3729904,170.458261 93.0963948,169.8125 93.9619007,169.8125 L158.848389,169.8125 C159.713895,169.8125 160.437299,170.405333 160.437299,171.167547 L160.437299,171.760381 Z M160.437299,158.760381 C160.437299,159.469667 159.713895,160.0625 158.848389,160.0625 L93.9619007,160.0625 C93.0963948,160.0625 92.3729904,159.469667 92.3729904,158.760381 L92.3729904,158.167547 C92.3729904,157.458261 93.0963948,156.8125 93.9619007,156.8125 L158.848389,156.8125 C159.713895,156.8125 160.437299,157.405333 160.437299,158.167547 L160.437299,158.760381 Z M187.176849,186.0625 C177.769909,186.0625 170.160772,178.432938 170.160772,169 C170.160772,159.567397 177.769576,151.9375 187.176849,151.9375 C196.584122,151.9375 204.192926,159.567062 204.192926,169 C204.192926,178.432603 196.584122,186.0625 187.176849,186.0625 Z M211.485531,113.101682 C211.485531,121.979033 204.312378,129.1875 195.47926,129.1875 L194.350788,129.1875 C193.416871,122.708856 191.62687,117.103531 189.369894,112.502006 L189.707133,112.971268 C190.044373,113.440531 190.641051,113.505738 191.108027,113.166789 C191.575002,112.827873 191.639853,112.22823 191.30258,111.758934 L185.387934,103.676814 C185.050694,103.207551 184.454016,103.142344 183.987041,103.481293 C183.727636,103.676814 183.58495,103.950556 183.58495,104.211284 C181.989503,102.607908 180.264354,101.278274 178.47422,100.274508 C183.649702,97.471879 187.242587,91.9317609 187.242587,85.5966123 C187.242587,81.9204642 186.049231,78.5182919 184.051693,75.7808696 C184.311131,75.5853157 184.58352,75.3767803 184.778073,75.1160528 C185.841694,74.0471467 186.503223,72.5089443 186.503223,70.8405617 C186.503223,67.5034628 183.779304,64.831114 180.523493,64.831114 C180.523493,64.831114 173.091002,62.8236488 170.561704,62.8236488 C167.837785,62.8236488 159.938452,64.831114 159.938452,64.831114 C158.278154,64.831114 156.812409,65.4959309 155.684104,66.564837 C154.620483,67.6337432 153.958954,69.1719455 153.958954,70.8403281 C153.958954,73.0433473 155.15231,74.9726577 156.942311,76.0415304 C155.087459,78.7138125 153.958954,82.0509781 153.958954,85.5182239 C153.958954,91.8533724 157.474138,97.393624 162.727321,100.19612 C161.196725,101.069505 159.66613,102.125363 158.278386,103.468045 C158.278386,103.207317 158.148683,102.933575 157.876295,102.738055 C157.681741,102.607708 157.474204,102.542501 157.279617,102.542501 C156.942377,102.542501 156.682939,102.672881 156.488385,102.94659 L150.573739,110.950288 C150.236499,111.419584 150.314334,112.019194 150.768326,112.358143 C151.105566,112.618871 151.494706,112.618871 151.831946,112.42335 C149.510119,117.024876 147.784803,122.630201 146.851052,129.043771 L58.141319,129.056786 C49.3078685,129.056786 42.1350482,121.847985 42.1350482,112.970968 L42.1350482,56.7108178 C42.1350482,47.8334673 49.3082006,40.625 58.141319,40.625 L195.477865,40.625 C204.311316,40.625 211.485531,47.833801 211.485531,56.7108178 L211.485531,113.101682 Z" id="Fill-1" fill="#35495E"></path>
                        <rect id="Rectangle" fill="#3FBE79" x="58.2065217" y="197.6" width="32.1847826" height="49.4" rx="12"></rect>
                        <rect id="Rectangle" fill="#3FBE79" x="162.293478" y="197.6" width="32.1847826" height="49.4" rx="12"></rect>
                    </g>
                </g>
                <g id="train" transform="translate(367.000000, 0.000000)">
                    <g>
                        <path d="M130.713707,288 L204.070047,288 C213.986152,280.254496 219.939307,268.618487 223.901786,257 L110.901786,257 C114.864453,268.618025 122.789693,280.254496 130.733524,288 L130.713707,288 Z" id="Fill-1" fill="#3FBE79"></path>
                        <polygon id="Fill-2" fill="#3FBE79" points="245.656427 242 274.901786 242 265.147144 264 235.901786 264"></polygon>
                        <polygon id="Fill-3" fill="#3FBE79" points="88.1471442 242 58.9017857 242 68.6564272 264 97.9017857 264"></polygon>
                        <path d="M85.5757432,66 L250.20989,66 C270.051432,87.9957161 283.936876,119.995673 287.901786,154 L47.9017857,154 C51.866412,119.993293 65.7516677,87.9952402 85.5936819,66 L85.5757432,66 Z" id="Fill-4" fill="#3FBE79"></path>
                        <path d="M244.70908,380.993227 C220.919988,396.878021 195.159085,404.811208 167.407503,404.811208 C137.685054,404.811208 111.90434,396.878021 88.1152477,380.993227 L63.1228205,454 L15.8535196,454 L68.2877024,365.12402 C26.6617447,329.406495 0.901785714,269.87099 0.901785714,202.403242 C0.901785714,91.266836 74.2408719,0 167.387691,0 C258.5627,0 331.901786,91.2857279 331.901786,202.403242 C331.901786,269.87099 306.141355,329.408857 264.515869,365.12402 L319.76624,454 L265.41888,454 L244.688795,380.993227 L244.70908,380.993227 Z M167.407503,15.8503158 C238.75591,15.8503158 296.245036,87.2853651 296.245036,176.596888 C296.245036,263.915314 238.770062,335.350363 167.407503,335.350363 C94.0684172,335.350363 36.5981601,263.915314 36.5981601,176.596888 C36.5981601,87.3042571 94.0731345,15.8503158 167.407503,15.8503158 Z" id="Fill-5" fill="#35495E"></path>
                        <rect id="Rectangle" fill="#35495E" x="71.9017857" y="392" width="194" height="13"></rect>
                        <rect id="Rectangle" fill="#35495E" x="58.9017857" y="427" width="207" height="13"></rect>
                    </g>
                </g>
            </g>
        </g>
    </g>
</svg>