<?xml version="1.0" encoding="UTF-8"?>
<svg width="685px" height="430px" viewBox="0 0 685 430" version="1.1" xmlns="http://www.w3.org/2000/svg" xmlns:xlink="http://www.w3.org/1999/xlink">
    <!-- Generator: Sketch 55.1 (78136) - https://sketchapp.com -->
    <title>miniscooter</title>
    <desc>Created with Sketch.</desc>
    <g id="Layout_Template" stroke="none" stroke-width="1" fill="none" fill-rule="evenodd">
        <g id="miniscooter" transform="translate(-283.000000, -285.000000)">
            <g id="icon/miniscooter">
                <g transform="translate(283.000000, 285.000000)">
                    <g id="miniscooter">
                        <g>
                            <path d="M164.529761,180.110967 C152.364656,217.682029 135.811574,253.354934 108.774025,287.195028 C104.822616,292.144338 102.986898,298.463637 103.671419,304.782059 C104.387004,311.06988 107.560621,316.828418 112.507907,320.812793 C117.454954,324.76601 123.771362,326.602568 130.086894,325.886655 C136.37184,325.201821 142.158807,322.026752 146.110296,317.077202 C175.824121,279.941234 193.931991,241.436235 207.092734,202.773454 C236.214752,226.150579 254.883365,261.885641 254.883365,302.135794 C254.883365,372.546873 197.820555,429.635794 127.441683,429.635794 C57.0628099,429.635794 0,372.546873 0,302.135794 C0,231.724719 57.0628099,174.635794 127.441683,174.635794 C140.35487,174.632451 152.769283,176.531245 164.529761,180.110967 Z M685,349.944948 C685,393.959541 649.34341,429.632447 605.348948,429.632447 C580.022303,429.632447 557.465126,417.927947 542.872256,399.50101 L613.811076,372.108432 C620.189373,370.209639 625.478362,365.758295 628.434213,359.781573 C631.389984,353.836169 631.732244,346.894511 629.367643,340.700402 C627.002963,334.474816 622.149267,329.525824 615.988656,327.003714 C609.828125,324.51348 602.921105,324.700268 596.885148,327.532919 L525.946328,354.925497 C525.852977,353.275726 525.697419,351.625956 525.697419,349.945028 C525.697419,305.930435 561.354009,270.257529 605.34847,270.257529 C649.34341,270.257529 685,305.930355 685,349.944948 Z" id="Fill-1" fill="#35495E" transform="translate(342.500000, 302.135794) scale(-1, 1) translate(-342.500000, -302.135794) "></path>
                            <path d="M142.662159,0.645393815 C155.544092,0.645393815 166.061045,10.8325339 166.558894,23.6452585 L183.485748,35.1451909 C189.148796,38.9576484 191.76278,46.0203269 189.95778,52.6450879 C185.850569,67.7385991 182.334483,83.0201093 178.756584,98.3952188 C211.490332,120.707888 234.110981,153.738893 246.464,194.890651 C260.217368,240.671982 262.052637,296.418054 254.180654,361.385672 L254.180654,361.63567 C254.242865,363.729418 255.985335,367.760594 259.408065,371.135614 C262.893005,374.573114 267.46684,376.635582 270.112209,376.635582 L450.086487,376.635582 L551.153745,337.635812 C559.057112,333.792074 569.885599,338.167088 573.059085,346.38616 C576.232572,354.605232 571.036545,364.886051 562.604264,367.386037 L459.051745,407.385801 C457.247064,408.167077 455.286735,408.573314 453.326486,408.635794 L270.118183,408.635794 C256.831599,408.635794 245.474277,402.51087 237.011646,394.135879 C228.549016,385.760888 222.324713,374.604794 222.324713,361.385672 C222.293568,360.729436 222.293568,360.04192 222.324713,359.385684 C230.103578,296.417254 228.112184,244.106362 216.101605,204.138597 C206.766744,173.107579 191.98741,149.514118 170.797378,132.13902 C156.142307,193.794658 138.032565,256.074291 91.3901204,314.633947 C85.8826399,321.540146 75.8636151,322.6651 68.9869313,317.133932 C62.1102475,311.602765 60.9902872,301.540424 66.497688,294.634064 C124.465591,221.884092 134.298301,141.074968 156.357378,55.6354703 L145.404707,48.385513 C144.471221,48.5105523 143.631092,48.6355115 142.66654,48.6355115 C129.473949,48.6355115 118.769805,37.8851748 118.769805,24.6356527 C118.769805,11.3861306 129.473949,0.635793872 142.66654,0.635793872 L142.662159,0.645393815 Z" id="Path" fill="#3FBE79" transform="translate(318.500000, 204.635794) scale(-1, 1) translate(-318.500000, -204.635794) "></path>
                        </g>
                    </g>
                </g>
            </g>
        </g>
    </g>
</svg>