<?xml version="1.0" encoding="UTF-8"?>
<svg width="997px" height="687px" viewBox="0 0 997 687" version="1.1" xmlns="http://www.w3.org/2000/svg" xmlns:xlink="http://www.w3.org/1999/xlink">
    <!-- Generator: Sketch 55.1 (78136) - https://sketchapp.com -->
    <title>minicar</title>
    <desc>Created with Sketch.</desc>
    <g id="Layout_Template" stroke="none" stroke-width="1" fill="none" fill-rule="evenodd">
        <g id="minicar" transform="translate(-132.000000, -174.000000)">
            <g transform="translate(132.000000, 174.000000)">
                <g id="miniscooter" transform="translate(0.000000, 524.000000)">
                    <g>
                        <path d="M62.4492524,68.2746224 C57.8318402,82.516676 51.5489188,96.0391961 41.2864912,108.866952 C39.7866863,110.743086 39.0899175,113.138541 39.3497358,115.533664 C39.6213447,117.917187 40.8259291,120.100075 42.7037311,121.610431 C44.5814424,123.108976 46.9789112,123.805159 49.3760474,123.533779 C51.7615743,123.274179 53.9580875,122.070606 55.4579226,120.194381 C66.7361627,106.117258 73.6092229,91.5211773 78.6045415,76.8652861 C89.658154,85.7268473 96.7440511,99.2729289 96.7440511,114.530546 C96.7440511,141.221257 75.0851743,162.86194 48.3720255,162.86194 C21.6588768,162.86194 0,141.221257 0,114.530546 C0,87.8398354 21.6588768,66.1991498 48.3720255,66.1991498 C53.2733815,66.1978827 57.9854214,66.917658 62.4492524,68.2746224 Z M260,132.65355 C260,149.338152 246.466112,162.860672 229.767484,162.860672 C220.154451,162.860672 211.592602,158.42385 206.053703,151.438755 L232.979387,141.055057 C235.400346,140.335282 237.407845,138.647912 238.529774,136.382317 C239.651673,134.128594 239.781582,131.497222 238.884069,129.149222 C237.986526,126.789291 236.144247,124.913277 233.805913,123.957222 C231.46761,123.013249 228.845967,123.084055 226.554947,124.157827 L199.629263,134.541526 C199.593831,133.916147 199.534787,133.290769 199.534787,132.65358 C199.534787,115.968979 213.068675,102.446459 229.767303,102.446459 C246.466112,102.446459 260,115.968949 260,132.65355 Z" id="Fill-1" fill="#35495E" transform="translate(130.000000, 114.530545) scale(-1, 1) translate(-130.000000, -114.530545) "></path>
                        <path d="M54.1491405,0.244649284 C59.0386335,0.244649284 63.0304697,4.1062861 63.2194341,8.96320265 L69.6442254,13.3224793 C71.7937036,14.7676667 72.7858728,17.4449146 72.1007633,19.9561612 C70.5418217,25.677655 69.2072489,31.4704135 67.8492143,37.2986527 C80.2737025,45.7567109 88.8596424,58.2777665 93.5483796,73.8771538 C98.7686359,91.2314722 99.4652344,112.363123 96.4773285,136.990383 L96.4773285,137.085149 C96.5009415,137.878826 97.1623171,139.406923 98.4614553,140.686291 C99.7842064,141.989343 101.520261,142.771163 102.524342,142.771163 L170.835747,142.771163 L209.197042,127.987529 C212.19686,126.530484 216.306943,128.18892 217.511478,131.304521 C218.716013,134.420123 216.743798,138.317271 213.543224,139.264939 L174.238619,154.427641 C173.55363,154.723799 172.809564,154.877791 172.065527,154.901475 L102.52661,154.901475 C97.4835264,154.901475 93.1727182,152.579702 89.9606249,149.404996 C86.7485316,146.23029 84.3860225,142.001352 84.3860225,136.990383 C84.3742009,136.741623 84.3742009,136.481007 84.3860225,136.232247 C87.3385844,112.36282 86.5827266,92.5333418 82.0239668,77.3827704 C78.4808078,65.6198498 72.8711336,56.676282 64.8282019,50.0899077 C59.2656931,73.4616958 52.3919223,97.070022 34.6882209,119.268217 C32.5977903,121.886148 28.7949488,122.312584 26.1848206,120.215886 C23.5746925,118.119188 23.149598,114.304858 25.2399984,111.686866 C47.2424143,84.1095513 50.9745378,53.4772552 59.3473258,21.0897248 L55.1901079,18.3414852 C54.835792,18.3888838 54.5169107,18.436252 54.1508034,18.436252 C49.1433966,18.436252 45.0805098,14.3611244 45.0805098,9.33863114 C45.0805098,4.31613789 49.1433966,0.241010235 54.1508034,0.241010235 L54.1491405,0.244649284 Z" id="Path" stroke="#C8C5C5" fill="#3FBE79" transform="translate(120.890511, 77.571243) scale(-1, 1) translate(-120.890511, -77.571243) "></path>
                    </g>
                </g>
                <g id="icon/pedelec" transform="translate(331.000000, 524.412950)">
                    <g id="pedelec">
                        <g id="Group-9" transform="translate(0.000000, 51.344077)" fill="#35495E">
                            <path d="M50.8215827,101.450135 C22.7535976,101.450135 0,78.7397485 0,50.7250674 C0,22.7103862 22.7535976,0 50.8215827,0 C78.8895678,0 101.643165,22.7103862 101.643165,50.7250674 C101.643165,78.7397485 78.8895678,101.450135 50.8215827,101.450135 Z M50.5609592,84.2213308 C69.2729493,84.2213308 84.4420144,69.0810733 84.4420144,50.4046192 C84.4420144,31.7281651 69.2729493,16.5879076 50.5609592,16.5879076 C31.8489692,16.5879076 16.6799041,31.7281651 16.6799041,50.4046192 C16.6799041,69.0810733 31.8489692,84.2213308 50.5609592,84.2213308 Z" id="Combined-Shape"></path>
                            <rect id="Rectangle" x="11.1807482" y="47.6815633" width="78.2652374" height="5.07250674"></rect>
                            <polygon id="Rectangle" transform="translate(50.313367, 50.217817) scale(-1, -1) rotate(90.000000) translate(-50.313367, -50.217817) " points="11.255065 47.6767376 89.3716688 47.6767376 89.3716688 52.7588958 11.255065 52.7588958"></polygon>
                            <polygon id="Rectangle" transform="translate(50.313367, 50.217817) scale(-1, -1) rotate(45.000000) translate(-50.313367, -50.217817) " points="11.2203195 47.7163089 89.4112401 47.641992 89.4064143 52.7193246 11.2154937 52.7936414"></polygon>
                            <polygon id="Rectangle" transform="translate(50.313367, 50.217817) scale(-1, -1) rotate(135.000000) translate(-50.313367, -50.217817) " points="11.2154937 47.641992 89.4064143 47.7163089 89.4112401 52.7936414 11.2203195 52.7193246"></polygon>
                        </g>
                        <g id="Group-9" transform="translate(184.356835, 51.344077)" fill="#35495E">
                            <path d="M50.8215827,101.450135 C22.7535976,101.450135 0,78.7397485 0,50.7250674 C0,22.7103862 22.7535976,0 50.8215827,0 C78.8895678,0 101.643165,22.7103862 101.643165,50.7250674 C101.643165,78.7397485 78.8895678,101.450135 50.8215827,101.450135 Z M50.5609592,84.2213308 C69.2729493,84.2213308 84.4420144,69.0810733 84.4420144,50.4046192 C84.4420144,31.7281651 69.2729493,16.5879076 50.5609592,16.5879076 C31.8489692,16.5879076 16.6799041,31.7281651 16.6799041,50.4046192 C16.6799041,69.0810733 31.8489692,84.2213308 50.5609592,84.2213308 Z" id="Combined-Shape"></path>
                            <rect id="Rectangle" x="11.1807482" y="47.6815633" width="78.2652374" height="5.07250674"></rect>
                            <polygon id="Rectangle" transform="translate(50.313367, 50.217817) scale(-1, -1) rotate(90.000000) translate(-50.313367, -50.217817) " points="11.255065 47.6767376 89.3716688 47.6767376 89.3716688 52.7588958 11.255065 52.7588958"></polygon>
                            <polygon id="Rectangle" transform="translate(50.313367, 50.217817) scale(-1, -1) rotate(45.000000) translate(-50.313367, -50.217817) " points="11.2203195 47.7163089 89.4112401 47.641992 89.4064143 52.7193246 11.2154937 52.7936414"></polygon>
                            <polygon id="Rectangle" transform="translate(50.313367, 50.217817) scale(-1, -1) rotate(135.000000) translate(-50.313367, -50.217817) " points="11.2154937 47.641992 89.4064143 47.7163089 89.4112401 52.7936414 11.2203195 52.7193246"></polygon>
                        </g>
                        <path d="M182.832102,11.3271597 L197.245831,11.3271597 L198.630706,12.7225563 C197.855167,15.3915263 197.079628,18.3484834 196.459202,20.928687 C179.958763,20.0943994 155.084954,20.2415021 121.837775,21.3699951 L16.0489209,21.3699951 L24.4251846,40.3375112 L109.719851,40.3375112 C104.268898,44.3131399 99.2859175,48.0699009 94.1117803,53.4630681 C92.0823918,55.5783641 44.5246851,97.2222554 47.5878151,101.899595 C49.6299018,105.017821 62.7272742,106.576934 86.8799323,106.576934 L121.066071,108.415425 C125.718905,113.807213 130.193983,116.503107 134.491304,116.503107 C140.937287,116.503107 147.677864,113.321526 150.425605,107.894904 L155.721416,109.545004 L154.67998,110.586016 L158.59086,114.495304 L166.490332,106.576934 L162.490678,102.667646 L160.141938,105.104054 L152.065202,102.579078 C152.308948,101.227994 152.198136,99.9433353 152.153834,98.6697903 C177.746285,85.5686154 193.888981,70.9279937 205.920275,56.3194083 C206.186162,57.1758284 214.765817,73.047177 231.659239,103.933454 C233.878426,105.050365 235.533287,105.050365 236.623824,103.933454 C237.714361,102.816544 237.714361,101.121661 236.623824,98.8488051 C219.46352,54.4827913 209.871495,28.6565213 207.847749,21.3699951 L210.285122,13.1638644 C210.994179,11.192607 210.473476,8.82279435 208.977789,7.33863148 L203.416223,1.76827196 C202.385876,0.771572249 200.94561,0.195683035 199.505343,0.206611037 L182.831422,0.206611037 C179.3525,0.23999529 176.981694,3.47362755 177.014878,6.03200114 C177.148493,8.93492165 179.929219,11.4601248 182.832102,11.3271597 Z M202.120462,43.099869 C190.22162,58.9252694 175.098834,74.5068533 147.401048,88.6708985 C144.531632,85.7360267 140.642875,83.8093083 136.277631,83.632116 L124.722257,45.6250722 C139.841451,36.6399568 164.684002,32.1473991 199.249912,32.1473991 C200.506287,36.997838 201.463137,40.6486613 202.120462,43.099869 Z M125.674663,86.9327128 C123.632651,87.4458475 121.469185,89.8768883 119.184263,94.2258353 L69.6579289,92.32588 L104.835169,61.8034397 C109.36274,57.3440524 112.778791,54.1840755 115.083324,52.3235089 L125.674663,86.9327128 Z M138.106972,89.5573421 C139.558329,89.8895848 140.932114,90.4543889 142.106626,91.2960382 C141.10952,91.7722461 140.090235,92.2152269 139.071007,92.6914348 L138.106972,89.5573421 Z M127.515349,92.7799743 L128.124685,94.8619982 L126.041842,94.8619982 C126.473913,94.108945 126.928164,93.4001757 127.515349,92.7799743 Z M142.28077,105.382799 L145.06161,106.257676 C143.111701,109.436081 139.63278,111.473651 135.589164,111.473651 C131.456775,111.473651 127.955731,109.303059 126.039006,105.991745 L129.429153,105.991745 C130.958052,107.652931 133.162768,108.771454 135.600226,108.771454 C138.325674,108.771454 140.763018,107.398199 142.29203,105.382686 L142.28077,105.382799 Z" id="Fill-1" fill="#3FBE79"></path>
                    </g>
                </g>
                <g id="icon/minicar" transform="translate(190.000000, 0.000000)">
                    <g id="minicar">
                        <path d="M466.720774,84.8555721 C405.498137,43.0745428 374.922383,32.0143038 398.647749,16.0210845 C422.373115,0.027865198 378.233573,0.714150463 362.894807,0.714150463 L143.039157,0.714150463 C127.700391,0.714150463 95.5522928,0.714150463 73.0636163,0.027865198 C50.5749398,-0.658420067 14.9085055,11.2665326 6.07691531,43.0745428 C-2.75467492,74.882553 0.916284983,153.827178 0.916284983,175.32596 L0.916284983,298.043111 C0.916284983,319.541893 14.2180631,336 31.5938175,336 L54.0824939,336 C54.0824939,284.105342 87.0029697,241.107778 143.039157,241.107778 C199.075345,241.107778 222.501645,284.105342 222.501645,336 L369.793478,336 C369.793478,284.105342 390.348582,241.107778 453.740635,241.107778 C517.132688,241.107778 539.810091,284.105342 539.810091,336 L562.298768,336 C579.674522,336 606.159817,319.541893 606.159817,298.043111 L606.159817,191.619779 C606.159817,191.619779 605.206502,161.254231 584.365305,148.772757 C554.508295,130.89185 562.936583,135.956924 525.501266,118.330657 C480.364831,97.0783499 484.631072,97.0783499 466.720774,84.8555721 Z M359.568322,87.9312438 L326.12405,157.518873 L348.436752,168.886202 C358.358768,173.927383 359.568818,186.579173 350.905175,194.190794 L259.187429,271.390045 C246.796991,281.521751 229.470201,267.584487 235.66542,252.411601 L269.109693,182.823971 L246.796991,172.692266 C236.874975,167.651085 235.664925,154.999295 244.328567,147.387673 L337.256859,70.1884228 C348.388925,58.8210938 365.764781,72.7583572 359.569562,87.9307377 L359.568322,87.9312438 Z" id="Shape" fill="#3FBE79"></path>
                        <path d="M141.159817,269 C108.937595,269 83.1598174,294.777778 83.1598174,327 C83.1598174,359.222222 108.937595,385 141.159817,385 C173.38204,385 199.159817,359.222222 199.159817,327 C199.159817,296.087289 173.38204,269 141.159817,269 L141.159817,269 Z" id="wheel" fill="#35495E"></path>
                        <path d="M460.159817,269 C427.937595,269 402.159817,294.777778 402.159817,327 C402.159817,359.222222 427.937595,385 460.159817,385 C492.38204,385 518.159817,359.222222 518.159817,327 C518.159817,296.087289 492.38204,269 460.159817,269 L460.159817,269 Z" id="wheel" fill="#35495E"></path>
                    </g>
                </g>
                <g id="icon/scooter" transform="translate(664.000000, 452.000000)">
                    <g id="scooter" transform="translate(166.500000, 112.500000) scale(-1, 1) translate(-166.500000, -112.500000) ">
                        <path d="M316.862414,156.588222 L322.603503,151.686457 C323.58824,150.850894 323.811224,149.402563 323.10517,148.307034 L316.78807,138.354244 L320.485483,138.354244 L320.578378,138.354244 C322.027634,138.354244 323.179609,137.203004 323.179609,135.754673 C323.179609,135.364747 323.105313,134.99336 322.938075,134.659144 C319.928117,115.422377 309.987566,114.958439 297.371915,114.939901 C293.711649,111.950404 289.921341,110.539245 285.517778,110.539245 C280.854178,110.539245 276.004789,112.136121 270.375001,113.974378 C263.51899,116.221148 254.990594,119.024927 244.028301,119.711802 C224.630839,120.56595 207.072714,120.658786 192.972085,120.733035 C166.328103,120.862994 162.89106,121.01154 161.887439,124.130996 C161.55301,125.189401 161.906037,126.322055 162.779282,126.990486 C174.391789,135.847603 179.947375,145.874547 178.033361,154.471175 C176.026691,163.458062 166.346653,170.25408 150.757717,173.670865 L123.444972,173.670865 C122.032864,173.670865 120.769444,173.20669 119.561722,172.148285 C119.413082,172.05545 119.264441,171.888319 118.855668,171.405557 C104.140025,157.108108 96.7826783,141.436434 97.0052822,124.780794 C97.3583093,97.5225668 118.038027,75.6300428 122.162859,71.5278089 L142.712344,71.5278089 C143.548441,71.5278089 144.347389,71.1192968 144.830459,70.4322796 C146.056731,68.6868575 146.707039,66.6443443 146.707039,64.5089961 C146.707039,62.559318 146.205371,60.7767714 145.202036,59.2169718 C144.718966,58.4742441 143.90142,58.0100214 143.009577,58.0100214 L125.860035,58.0100214 L116.960158,47.8533087 C116.45849,46.8320759 117.034502,41.6514727 119.970115,34.9856991 C121.122091,32.3861283 122.21832,30.5293327 123.110163,29.2668144 C125.061087,36.7497072 131.48968,39.2196038 134.091007,39.2196038 C135.521665,39.2196038 136.692191,38.0498254 136.692191,36.6200329 L136.692191,2.93750813 C136.692191,2.15765588 136.339164,1.41492814 135.726052,0.913580976 C135.112892,0.412233809 134.313944,0.226563757 133.533593,0.39364779 C127.625075,1.6748472 123.59347,6.46523911 121.270874,15.0252654 C115.789965,18.4603991 107.78193,27.892875 104.883322,42.4503387 C96.6522076,42.5246353 91.9328134,42.9702719 87.6781287,43.4901576 L77.3845982,36.861461 C76.9572747,36.582956 76.4741575,36.4529489 75.9725376,36.4529489 C73.8729732,36.4529489 72.5166587,38.1240744 71.9220968,41.4478821 C71.6062656,43.2861392 71.4390272,45.755703 71.4390272,48.819544 C71.4390272,56.0609612 72.0335891,72.8839228 77.4773974,72.8839228 C77.8490224,72.8839228 78.2205997,72.8096738 78.5550289,72.6425423 L87.5291078,68.5389774 L88.3652044,69.4859612 L86.26564,70.5629046 C77.2359102,73.38527 48.2322315,96.2425083 45.0177922,129.163529 C32.0116327,133.155673 -0.856222461,154.565056 0.0170699955,163.960264 C0.14716013,165.278588 1.02040502,168.342382 6.61290142,168.342382 C7.85777126,168.342382 9.30702768,168.212422 10.9978189,167.933917 C9.71506466,170.428937 24.4992075,142.065943 60.3546306,156.58865 C88.3652044,167.933917 75.9725376,202.959081 81.0076679,201.876456 C81.9545034,202.434159 82.8537745,202.959081 83.7149664,203.45315 C97.5055135,211.364833 101.531549,211.364833 134.74179,211.364833 L200.662053,211.364833 C204.954028,211.364833 209.004469,209.693707 212.032929,206.6485 C215.080035,203.60334 216.752276,199.592467 216.752276,195.3405 C216.752276,190.865547 214.894294,186.576075 211.642849,183.586625 C211.345568,183.308072 210.955393,183.103864 210.54662,182.992443 C208.577145,182.305426 206.681968,181.302731 204.749404,179.984407 C204.675107,179.928697 204.582213,179.872986 204.507869,179.835862 C197.893487,175.119529 193.954158,167.487805 193.954158,159.392192 C193.954158,152.726418 196.55539,146.524582 200.977599,141.956509 C199.918517,145.05738 199.379702,148.362744 199.379702,151.686362 C199.379702,166.875085 210.713478,179.798785 225.763503,181.748178 C226.488107,181.859551 227.23131,181.618171 227.788723,181.13541 L234.477306,175.453602 C233.585464,178.74019 233.139542,182.137914 233.139542,185.573238 C233.139542,198.631686 239.11217,174.240213 246.408652,164.529612 C248.3206,161.985076 254.704739,156.588222 261.663122,154.471175 C268.621504,152.354127 281.265055,151.686457 292.872302,156.58865 C306.502659,162.345281 311.285808,176.275221 310.039003,173.670865 C318.66015,178.925812 323.271457,179.520185 325.018042,184.199488 C325.445413,185.313604 326.578791,186.000621 327.749317,185.870614 C331.223794,185.462102 332.394319,183.40105 332.765992,182.1941 C334.884107,175.472235 322.063878,161.806045 316.861224,156.58865 L316.862414,156.588222 Z" id="Fill-1" fill="#3FBE79"></path>
                        <path d="M206.567579,77.6619503 C195.864298,77.6619503 162.026231,78.1440542 157.584608,83.9664233 L157.547455,83.9478626 C152.474576,91.2724632 153.738134,110.26041 156.116641,117.75163 C156.469706,118.845668 157.473151,119.568824 158.606652,119.568824 C158.736756,119.568824 158.866813,119.550311 159.01547,119.53175 C160.037467,119.383407 160.836502,118.64169 161.115263,117.677482 C165.054641,115.155645 190.549286,115.155645 204.393148,115.155645 L211.937296,115.155645 C230.909694,115.155645 247.168692,114.988741 253.468405,113.078839 C258.095362,112.318561 261.681865,111.168936 265.453701,109.945068 C271.715834,107.923896 278.201071,105.828528 290.651128,105.30935 C291.413011,105.272276 292.137695,104.901394 292.602265,104.289508 C293.048235,103.696134 293.234044,102.898783 293.048235,102.157066 C288.014315,80.0544316 230.894947,77.6619503 206.567579,77.6619503 Z" id="Fill-2" fill="#35495E"></path>
                        <ellipse id="Oval" fill="#35495E" cx="37.8862275" cy="194.901418" rx="29.9101796" ry="29.9334812"></ellipse>
                        <ellipse id="Oval" fill="#35495E" cx="274.67515" cy="194.901418" rx="29.9101796" ry="29.9334812"></ellipse>
                        <ellipse id="Oval" fill="#35495E" cx="274.176647" cy="195.066519" rx="23.4296407" ry="23.4478936"></ellipse>
                    </g>
                </g>
            </g>
        </g>
    </g>
</svg>