<?xml version="1.0" encoding="UTF-8"?>
<svg width="685px" height="705px" viewBox="0 0 685 705" version="1.1" xmlns="http://www.w3.org/2000/svg" xmlns:xlink="http://www.w3.org/1999/xlink">
    <!-- Generator: Sketch 55.1 (78136) - https://sketchapp.com -->
    <title>miniscooter</title>
    <desc>Created with Sketch.</desc>
    <g id="Layout_Template" stroke="none" stroke-width="1" fill="none" fill-rule="evenodd">
        <g id="miniscooter" transform="translate(-283.000000, -148.000000)">
            <g transform="translate(283.000000, 148.000000)">
                <g id="icon/miniscooter">
                    <g id="miniscooter">
                        <g>
                            <path d="M172.151475,182.364317 C194.556261,190.279067 177.970717,179.396329 207.092734,202.773454 C236.214752,226.150579 254.883365,261.885641 254.883365,302.135796 C254.883365,372.546873 197.820555,429.635679 127.441683,429.635679 C57.0628099,429.635679 0,372.546873 0,302.135796 C0,231.724719 57.0628099,174.635798 127.441683,174.635798 C140.35487,174.633248 149.746689,174.449567 172.151475,182.364317 Z M685,349.944948 C685,393.959541 649.34341,429.632447 605.348948,429.632447 C580.022303,429.632447 557.465126,417.927947 542.872256,399.50101 L525.946328,354.925497 C525.852977,353.275726 525.697419,351.625956 525.697419,349.945028 C525.697419,305.930435 561.354009,270.257529 605.34847,270.257529 C649.34341,270.257529 685,305.930355 685,349.944948 Z" id="Fill-1" fill="#35495E" transform="translate(342.500000, 302.135386) scale(-1, 1) translate(-342.500000, -302.135386) "></path>
                            <path d="M142.662159,0.645393815 C155.544092,0.645393815 166.061045,10.8325339 166.558894,23.6452585 L183.485748,35.1451909 C189.148796,38.9576484 191.76278,46.0203269 189.95778,52.6450879 C185.850569,67.7385991 182.334483,83.0201093 178.756584,98.3952188 C211.490332,120.707888 234.110981,153.738893 246.464,194.890651 C260.217368,240.671982 262.052637,296.418054 254.180654,361.385672 L254.180654,361.63567 C254.242865,363.729418 255.985335,367.760594 259.408065,371.135614 C262.893005,374.573114 267.46684,376.635582 270.112209,376.635582 L450.086487,376.635582 L551.153745,337.635812 C559.057112,333.792074 569.885599,338.167088 573.059085,346.38616 C576.232572,354.605232 571.036545,364.886051 562.604264,367.386037 L459.051745,407.385801 C457.247064,408.167077 455.286735,408.573314 453.326486,408.635794 L270.118183,408.635794 C256.831599,408.635794 245.474277,402.51087 237.011646,394.135879 C228.549016,385.760888 222.324713,374.604794 222.324713,361.385672 C222.293568,360.729436 222.293568,360.04192 222.324713,359.385684 C230.103578,296.417254 228.112184,244.106362 216.101605,204.138597 C206.766744,173.107579 191.98741,149.514118 170.797378,132.13902 C156.142307,193.794658 138.032565,256.074291 91.3901204,314.633947 C85.8826399,321.540146 75.8636151,322.6651 68.9869313,317.133932 C62.1102475,311.602765 60.9902872,301.540424 66.497688,294.634064 C124.465591,221.884092 134.298301,141.074968 156.357378,55.6354703 L145.404707,48.385513 C144.471221,48.5105523 143.631092,48.6355115 142.66654,48.6355115 C129.473949,48.6355115 118.769805,37.8851748 118.769805,24.6356527 C118.769805,11.3861306 129.473949,0.635793872 142.66654,0.635793872 L142.662159,0.645393815 Z" id="Path" fill="#3FBE79" transform="translate(318.500000, 204.635794) scale(-1, 1) translate(-318.500000, -204.635794) "></path>
                        </g>
                    </g>
                </g>
                <g id="bike" transform="translate(187.000000, 515.000000)">
                    <g id="Group-4" transform="translate(155.500000, 95.000000) scale(-1, 1) translate(-155.500000, -95.000000) ">
                        <g id="Group-3">
                            <path d="M251.059743,79.3498161 C246.077061,79.3498161 241.193975,80.0476221 236.510082,81.3435039 L222.060425,46.1546231 L234.915619,14.9529138 L250.361751,14.9529138 L250.361751,0 L201.232409,0 L201.232409,14.9529138 L218.771496,14.9529138 L192.328947,79.3498161 L171.285225,79.3498161 L107.254291,23.7506597 L111.445039,14.9529138 L115.331548,14.9529138 L115.331548,0 L66.2022056,0 L58.7283861,7.47620169 L58.7283861,25.9181457 L73.6765354,25.9181457 L73.6765354,14.9529138 L95.2020335,14.9529138 L68.9931527,78.7517404 C65.6049328,78.0539343 62.0173157,77.7548965 58.4299028,77.7548965 C27.4376346,77.7548965 2.32523364,102.875812 2.32523364,133.877448 C2.32523364,164.879084 27.4381448,190 58.4299028,190 C89.4216607,190 114.534572,164.879084 114.534572,133.877448 C114.534572,111.747422 101.778872,92.7072998 83.2433101,83.5360909 L92.7105903,60.5087977 L159.575968,128.793958 C159.277025,129.990211 159.077679,131.186414 159.077679,132.482347 C159.077679,140.955851 165.954021,147.933402 174.523811,147.933402 C178.709262,147.933402 182.496123,146.238752 185.28656,143.547207 L197.543767,143.547207 C202.127859,169.066737 224.350635,188.505474 251.255467,188.505474 C281.350754,188.505474 305.768224,164.082263 305.768224,133.975341 C305.668577,103.770425 281.153806,79.3482339 251.056478,79.3482339 L251.059743,79.3498161 Z M176.212129,117.35114 C175.517051,117.251161 174.722683,117.151181 174.027605,117.151181 C172.339579,117.151181 170.750843,117.45112 169.261397,117.95107 L102.396688,49.5376192 L105.048493,39.6689548 L167.423757,94.4500808 L186.032302,94.4500808 L176.212129,117.35114 Z M188.343925,126.819631 L213.715748,65.6574924 L222.641121,87.1385806 C208.200224,95.7904876 198.171951,110.906884 196.46677,128.409786 L188.945693,128.409786 C188.745138,127.912576 188.544583,127.415316 188.343925,126.818613 L188.343925,126.819631 Z" id="Fill-1" fill="#3FBE79"></path>
                            <ellipse id="Oval" fill="#35495E" cx="252.869159" cy="131.896024" rx="58.1308411" ry="58.1039755"></ellipse>
                            <ellipse id="Oval-2" fill="#35495E" cx="58.1308411" cy="131.896024" rx="58.1308411" ry="58.1039755"></ellipse>
                        </g>
                        <g id="Group-2" transform="translate(192.328947, 75.454545)" fill="#3FBE79">
                            <ellipse id="Oval" cx="60.402527" cy="56.6398601" rx="19.1661865" ry="19.2692308"></ellipse>
                            <polygon id="Rectangle" transform="translate(48.496260, 34.451049) rotate(-23.000000) translate(-48.496260, -34.451049) " points="41.2955207 0.625604633 55.827277 0.597527406 55.6969986 68.2764933 41.1652423 68.3045705"></polygon>
                            <polygon id="Rectangle" transform="translate(33.976161, 60.727273) rotate(-90.000000) translate(-33.976161, -60.727273) " points="26.6772102 27.0409862 41.2751123 27.0409862 41.2751123 94.4135592 26.6772102 94.4135592"></polygon>
                        </g>
                        <g id="Group" transform="translate(39.102339, 67.727273)" fill="#3FBE79">
                            <ellipse id="Oval" cx="19.1127297" cy="64.2159437" rx="19.1127297" ry="19.1666667"></ellipse>
                            <polygon id="Rectangle" transform="translate(28.812521, 34.267677) rotate(22.000000) translate(-28.812521, -34.267677) " points="21.5370573 0.587014964 36.0221321 0.601207289 36.0879845 67.9483386 21.6029097 67.9341462"></polygon>
                        </g>
                    </g>
                </g>
            </g>
        </g>
    </g>
</svg>