<?xml version="1.0" encoding="UTF-8"?>
<svg width="955px" height="568px" viewBox="0 0 955 568" version="1.1" xmlns="http://www.w3.org/2000/svg" xmlns:xlink="http://www.w3.org/1999/xlink">
    <!-- Generator: Sketch 55.1 (78136) - https://sketchapp.com -->
    <title>minicar</title>
    <desc>Created with Sketch.</desc>
    <g id="Layout_Template" stroke="none" stroke-width="1" fill="none" fill-rule="evenodd">
        <g id="minicar" transform="translate(-177.000000, -174.000000)">
            <g transform="translate(177.000000, 174.000000)">
                <g id="icon/pedelec" transform="translate(431.000000, 454.000000)">
                    <g id="pedelec">
                        <g id="Group-9" transform="translate(0.000000, 38.256371)" fill="#35495E">
                            <path d="M37.8496403,75.5902965 C16.9458612,75.5902965 0,58.6688322 0,37.7951482 C0,16.9214643 16.9458612,0 37.8496403,0 C58.7534194,0 75.6992806,16.9214643 75.6992806,37.7951482 C75.6992806,58.6688322 58.7534194,75.5902965 37.8496403,75.5902965 Z M37.6555396,62.7531484 C51.5913923,62.7531484 62.8886331,51.4721722 62.8886331,37.5563829 C62.8886331,23.6405936 51.5913923,12.3596174 37.6555396,12.3596174 C23.7196868,12.3596174 12.422446,23.6405936 12.422446,37.5563829 C12.422446,51.4721722 23.7196868,62.7531484 37.6555396,62.7531484 Z" id="Combined-Shape"></path>
                            <rect id="Rectangle" x="8.32692086" y="35.5274394" width="58.288446" height="3.77951482"></rect>
                            <polygon id="Rectangle" transform="translate(37.471144, 37.417197) scale(-1, -1) rotate(90.000000) translate(-37.471144, -37.417197) " points="8.36887973 35.5247148 66.573408 35.5247148 66.573408 39.3096788 8.36887973 39.3096788"></polygon>
                            <polygon id="Rectangle" transform="translate(37.471144, 37.417197) scale(-1, -1) rotate(45.000000) translate(-37.471144, -37.417197) " points="8.3492626 35.5470565 66.5957498 35.5050976 66.5930252 39.287337 8.346538 39.3292959"></polygon>
                            <polygon id="Rectangle" transform="translate(37.471144, 37.417197) scale(-1, -1) rotate(135.000000) translate(-37.471144, -37.417197) " points="8.346538 35.5050976 66.5930252 35.5470565 66.5957498 39.3292959 8.3492626 39.287337"></polygon>
                        </g>
                        <g id="Group-9" transform="translate(137.300719, 38.256371)" fill="#35495E">
                            <path d="M37.8496403,75.5902965 C16.9458612,75.5902965 0,58.6688322 0,37.7951482 C0,16.9214643 16.9458612,0 37.8496403,0 C58.7534194,0 75.6992806,16.9214643 75.6992806,37.7951482 C75.6992806,58.6688322 58.7534194,75.5902965 37.8496403,75.5902965 Z M37.6555396,62.7531484 C51.5913923,62.7531484 62.8886331,51.4721722 62.8886331,37.5563829 C62.8886331,23.6405936 51.5913923,12.3596174 37.6555396,12.3596174 C23.7196868,12.3596174 12.422446,23.6405936 12.422446,37.5563829 C12.422446,51.4721722 23.7196868,62.7531484 37.6555396,62.7531484 Z" id="Combined-Shape"></path>
                            <rect id="Rectangle" x="8.32692086" y="35.5274394" width="58.288446" height="3.77951482"></rect>
                            <polygon id="Rectangle" transform="translate(37.471144, 37.417197) scale(-1, -1) rotate(90.000000) translate(-37.471144, -37.417197) " points="8.36887973 35.5247148 66.573408 35.5247148 66.573408 39.3096788 8.36887973 39.3096788"></polygon>
                            <polygon id="Rectangle" transform="translate(37.471144, 37.417197) scale(-1, -1) rotate(45.000000) translate(-37.471144, -37.417197) " points="8.3492626 35.5470565 66.5957498 35.5050976 66.5930252 39.287337 8.346538 39.3292959"></polygon>
                            <polygon id="Rectangle" transform="translate(37.471144, 37.417197) scale(-1, -1) rotate(135.000000) translate(-37.471144, -37.417197) " points="8.346538 35.5050976 66.5930252 35.5470565 66.5957498 39.3292959 8.3492626 39.287337"></polygon>
                        </g>
                        <path d="M136.165167,8.4398445 L146.899867,8.4398445 L147.93126,9.47955177 C147.353673,11.468196 146.776086,13.671419 146.314021,15.5939237 C134.025233,14.9722976 115.500333,15.0819036 90.7393217,15.9227415 L11.952518,15.9227415 L18.1907843,30.0554005 L81.7144348,30.0554005 C77.6548087,33.0176336 73.9437078,35.8167889 70.090242,39.8352272 C68.5788443,41.4113301 33.1599928,72.4401119 35.4412749,75.9251881 C36.9621297,78.2485723 46.7164665,79.4102644 64.7042853,79.4102644 L90.1645912,80.7801203 C93.6298139,84.7975311 96.9626516,86.8062366 100.163104,86.8062366 C104.963783,86.8062366 109.983864,84.4356465 112.030258,80.3922817 L115.974342,81.6217679 L115.198727,82.3974239 L118.111375,85.3102266 L123.994548,79.4102644 L121.015785,76.4974617 L119.266548,78.3128249 L113.251357,76.43147 C113.432888,75.4247797 113.35036,74.4675831 113.317366,73.5186673 C132.377478,63.7570076 144.399835,52.848309 153.360205,41.9634807 C153.558226,42.6015976 159.947969,54.4273084 172.529434,77.440613 C174.182184,78.2728208 175.414651,78.2728208 176.226834,77.440613 C177.039017,76.6084051 177.039017,75.3455511 176.226834,73.6520508 C163.446607,40.595021 156.302897,21.3519179 154.795701,15.9227415 L156.610947,9.80836958 C157.139022,8.3395895 156.751225,6.57384677 155.637304,5.46799993 L151.495299,1.31753597 C150.727943,0.57489697 149.655297,0.145803045 148.582651,0.153945478 L136.16466,0.153945478 C133.573715,0.17882002 131.808045,2.58819307 131.832759,4.49443222 C131.932269,6.6573926 134.00323,8.53891655 136.165167,8.4398445 Z M150.530274,32.1136279 C141.668549,43.9051027 130.405775,55.5149103 109.777703,66.0685126 C107.640691,63.8817454 104.744519,62.4461513 101.493481,62.3141256 L92.8875549,33.9951518 C104.147654,27.3003599 122.649275,23.952964 148.392417,23.952964 C149.328109,27.5670165 150.040728,30.2872378 150.530274,32.1136279 Z M93.5968647,64.7733938 C92.0760655,65.1557295 90.4648123,66.9670932 88.7631051,70.2074851 L51.8781079,68.7918321 L78.0765418,46.0496218 C81.448474,42.726941 83.9925965,40.3724484 85.7089092,38.9861439 L93.5968647,64.7733938 Z M102.855892,66.729 C103.936797,66.9765534 104.959931,67.3973878 105.834655,68.024499 C105.092055,68.3793206 104.332938,68.7093847 103.573862,69.0642063 L102.855892,66.729 Z M94.9677252,69.1301769 L95.4215313,70.6814889 L93.8703228,70.6814889 C94.1921104,70.1203904 94.5304161,69.5922878 94.9677252,69.1301769 Z M105.96435,78.5205171 L108.035395,79.1723858 C106.58319,81.5406091 103.992245,83.0587985 100.980741,83.0587985 C97.9031227,83.0587985 95.2957017,81.4414948 93.8682106,78.9742417 L96.3930407,78.9742417 C97.5316962,80.2119875 99.1736702,81.0453968 100.988979,81.0453968 C103.018771,81.0453968 104.833996,80.0221874 105.972736,78.5204326 L105.96435,78.5205171 Z" id="Fill-1" fill="#3FBE79"></path>
                    </g>
                </g>
                <g id="icon/minicar" transform="translate(145.000000, 0.000000)">
                    <g id="minicar">
                        <path d="M466.720774,84.8555721 C405.498137,43.0745428 374.922383,32.0143038 398.647749,16.0210845 C422.373115,0.027865198 378.233573,0.714150463 362.894807,0.714150463 L143.039157,0.714150463 C127.700391,0.714150463 95.5522928,0.714150463 73.0636163,0.027865198 C50.5749398,-0.658420067 14.9085055,11.2665326 6.07691531,43.0745428 C-2.75467492,74.882553 0.916284983,153.827178 0.916284983,175.32596 L0.916284983,298.043111 C0.916284983,319.541893 14.2180631,336 31.5938175,336 L54.0824939,336 C54.0824939,284.105342 87.0029697,241.107778 143.039157,241.107778 C199.075345,241.107778 222.501645,284.105342 222.501645,336 L369.793478,336 C369.793478,284.105342 390.348582,241.107778 453.740635,241.107778 C517.132688,241.107778 539.810091,284.105342 539.810091,336 L562.298768,336 C579.674522,336 606.159817,319.541893 606.159817,298.043111 L606.159817,191.619779 C606.159817,191.619779 605.206502,161.254231 584.365305,148.772757 C554.508295,130.89185 562.936583,135.956924 525.501266,118.330657 C480.364831,97.0783499 484.631072,97.0783499 466.720774,84.8555721 Z M359.568322,87.9312438 L326.12405,157.518873 L348.436752,168.886202 C358.358768,173.927383 359.568818,186.579173 350.905175,194.190794 L259.187429,271.390045 C246.796991,281.521751 229.470201,267.584487 235.66542,252.411601 L269.109693,182.823971 L246.796991,172.692266 C236.874975,167.651085 235.664925,154.999295 244.328567,147.387673 L337.256859,70.1884228 C348.388925,58.8210938 365.764781,72.7583572 359.569562,87.9307377 L359.568322,87.9312438 Z" id="Shape" fill="#3FBE79"></path>
                        <path d="M141.159817,269 C108.937595,269 83.1598174,294.777778 83.1598174,327 C83.1598174,359.222222 108.937595,385 141.159817,385 C173.38204,385 199.159817,359.222222 199.159817,327 C199.159817,296.087289 173.38204,269 141.159817,269 L141.159817,269 Z" id="wheel" fill="#35495E"></path>
                        <path d="M460.159817,269 C427.937595,269 402.159817,294.777778 402.159817,327 C402.159817,359.222222 427.937595,385 460.159817,385 C492.38204,385 518.159817,359.222222 518.159817,327 C518.159817,296.087289 492.38204,269 460.159817,269 L460.159817,269 Z" id="wheel" fill="#35495E"></path>
                    </g>
                </g>
                <g id="icon/scooter" transform="translate(729.000000, 415.000000)">
                    <g id="scooter" transform="translate(113.000000, 76.500000) scale(-1, 1) translate(-113.000000, -76.500000) ">
                        <path d="M215.047764,106.479991 L218.944119,103.146791 C219.612439,102.578608 219.763774,101.593743 219.28459,100.848783 L214.997308,94.0808861 L217.506664,94.0808861 L217.56971,94.0808861 C218.553289,94.0808861 219.33511,93.298043 219.33511,92.3131779 C219.33511,92.0480281 219.284687,91.7954845 219.171186,91.5682179 C217.128392,78.4872162 210.381952,78.1717387 201.819978,78.1591325 C199.335834,76.1262746 196.763433,75.1666865 193.774829,75.1666865 C190.609742,75.1666865 187.318565,76.2525625 183.497749,77.5025774 C178.84472,79.0303804 173.05668,80.9369504 165.616805,81.4040252 C152.452161,81.9848463 140.535836,82.0479742 130.966039,82.0984635 C112.883337,82.186836 110.550689,82.2878469 109.869554,84.4090774 C109.642584,85.1287927 109.882176,85.8989973 110.474828,86.3535305 C118.355989,92.3763704 122.126447,99.1946918 120.827446,105.040399 C119.465562,111.151482 112.895927,115.772774 102.316048,118.096188 L83.7794707,118.096188 C82.821103,118.096188 81.9636467,117.780549 81.1439918,117.060834 C81.0431127,116.997706 80.9422336,116.884057 80.6648079,116.555779 C70.6776142,106.833513 65.6843402,96.1767749 65.8354168,84.8509398 C66.0750087,66.3153455 80.1098921,51.4284291 82.9093279,48.6389101 L96.855825,48.6389101 C97.423266,48.6389101 97.9654953,48.3611218 98.2933443,47.8939501 C99.1255889,46.7070631 99.5669391,45.3181541 99.5669391,43.8661174 C99.5669391,42.5403362 99.2264681,41.3282046 98.545526,40.2675409 C98.2176769,39.762486 97.6628256,39.4468146 97.057551,39.4468146 L85.4185223,39.4468146 L79.3783652,32.5402499 C79.0378941,31.8458116 79.4288209,28.3230014 81.4211592,23.7902754 C82.2029804,22.0225672 82.9469679,20.7599462 83.5522426,19.9014338 C84.876293,24.9898009 89.2392421,26.6693306 91.0047073,26.6693306 C91.9756647,26.6693306 92.7700756,25.8738813 92.7700756,24.9016224 L92.7700756,1.99750553 C92.7700756,1.467206 92.5304837,0.962151137 92.1143775,0.621235063 C91.6982391,0.28031899 91.1560098,0.154063355 90.6264025,0.267680497 C86.6164174,1.1388961 83.880253,4.39636259 82.3039563,10.2171805 C78.5841802,12.5530714 73.1492978,18.967155 71.1820744,28.8662303 C65.5957925,28.916752 62.3928403,29.2197849 59.5052766,29.5733071 L52.5192769,25.0657935 C52.2292615,24.87641 51.9013802,24.7880052 51.5609414,24.7880052 C50.1360118,24.7880052 49.2155101,25.9243706 48.8119936,28.1845598 C48.5976457,29.4345746 48.4841446,31.113878 48.4841446,33.1972899 C48.4841446,38.1214536 48.887661,49.5610675 52.5822577,49.5610675 C52.8344716,49.5610675 53.0866533,49.5105782 53.3136232,49.3969287 L59.4041392,46.6065047 L59.9715802,47.2504536 L58.5466506,47.9827751 C52.4183655,49.9019836 32.7341871,65.4449056 30.5526158,87.8311998 C21.7256126,90.5458576 -0.581099929,105.104238 0.011585042,111.49298 C0.0998744426,112.38944 0.692527132,114.47282 4.4880352,114.47282 C5.33290181,114.47282 6.31648125,114.384447 7.4639852,114.195064 C6.59340724,115.891677 16.6270898,96.6048412 40.961401,106.480282 C59.9715802,114.195064 51.5609414,138.012175 54.978177,137.27599 C55.6207741,137.655228 56.2310902,138.012175 56.8155628,138.348142 C66.1749131,143.728086 68.9072973,143.728086 91.4463802,143.728086 L136.185057,143.728086 C139.097929,143.728086 141.846877,142.591721 143.902228,140.52098 C145.970234,138.450271 147.105148,135.722878 147.105148,132.83154 C147.105148,129.788572 145.844175,126.871731 143.637489,124.838905 C143.435731,124.649489 143.170927,124.510627 142.893502,124.434861 C141.556862,123.967689 140.270645,123.285857 138.959055,122.389397 C138.908631,122.351514 138.845586,122.313631 138.79513,122.288386 C134.30609,119.08128 131.632552,113.891708 131.632552,108.38669 C131.632552,103.853964 133.397952,99.6367159 136.399211,96.5304264 C135.680435,98.6390184 135.314752,100.886666 135.314752,103.146726 C135.314752,113.475058 143.006745,122.263174 153.220876,123.588761 C153.712649,123.664495 154.217045,123.500356 154.59535,123.172079 L159.134749,119.308449 C158.529474,121.543329 158.226836,123.853781 158.226836,126.189802 C158.226836,135.069546 162.280332,118.483345 167.232298,111.880136 C168.529897,110.149851 172.862676,106.479991 177.585182,105.040399 C182.307687,103.600807 190.888596,103.146791 198.766187,106.480282 C208.01682,110.394791 211.263041,119.86715 210.416861,118.096188 C216.267849,121.669552 219.397446,122.073726 220.582816,125.255652 C220.872863,126.013251 221.642062,126.480422 222.436473,126.392017 C224.794527,126.114229 225.588938,124.712714 225.841184,123.891988 C227.278703,119.32112 218.577888,110.028111 215.046957,106.480282 L215.047764,106.479991 Z" id="Fill-1" fill="#3FBE79"></path>
                        <path d="M140.193011,52.8101262 C132.928923,52.8101262 109.963749,53.1379569 106.949313,57.0971679 L106.924099,57.0845466 C103.481244,62.065275 104.338793,74.9770789 105.953035,80.0711083 C106.192653,80.8150542 106.87367,81.3068002 107.642953,81.3068002 C107.731252,81.3068002 107.819519,81.2942112 107.920409,81.2815899 C108.614016,81.1807165 109.156305,80.6763491 109.345494,80.0206877 C112.019066,78.3058388 129.321738,78.3058388 138.717271,78.3058388 L143.837324,78.3058388 C156.713486,78.3058388 167.748121,78.192344 172.023602,76.8936102 C175.163819,76.3766216 177.597902,75.5948764 180.157767,74.7626461 C184.407743,73.3882491 188.809135,71.9633993 197.258723,71.6103583 C197.775797,71.585148 198.267625,71.3329482 198.582918,70.9168653 C198.885589,70.5133714 199.011693,69.9711725 198.885589,69.4668052 C195.469175,54.4370135 156.703478,52.8101262 140.193011,52.8101262 Z" id="Fill-2" fill="#35495E"></path>
                        <ellipse id="Oval" fill="#35495E" cx="25.7125749" cy="132.532964" rx="20.2994012" ry="20.3547672"></ellipse>
                        <ellipse id="Oval" fill="#35495E" cx="186.416168" cy="132.532964" rx="20.2994012" ry="20.3547672"></ellipse>
                        <ellipse id="Oval" fill="#35495E" cx="186.077844" cy="132.645233" rx="15.9011976" ry="15.9445676"></ellipse>
                    </g>
                </g>
                <g id="bike" transform="translate(0.000000, 479.000000)">
                    <g id="Group-4" transform="translate(72.500000, 44.500000) scale(-1, 1) translate(-72.500000, -44.500000) ">
                        <g id="Group-3">
                            <path d="M117.053578,37.1691244 C114.730462,37.1691244 112.453782,37.4959914 110.269974,38.1030097 L103.532996,21.6197971 L109.526575,7.00425961 L116.728148,7.00425961 L116.728148,0 L93.8221842,0 L93.8221842,7.00425961 L101.999572,7.00425961 L89.6710526,37.1691244 L79.859671,37.1691244 L50.0060197,11.125309 L51.9599058,7.00425961 L53.7719436,7.00425961 L53.7719436,0 L30.8659801,0 L27.3814019,3.50201027 L27.3814019,12.1406051 L34.3507962,12.1406051 L34.3507962,7.00425961 L44.3868002,7.00425961 L32.1672255,36.8889731 C30.5875088,36.5621061 28.9148257,36.4220304 27.2422376,36.4220304 C12.7924663,36.4220304 1.08411215,48.1891962 1.08411215,62.7110152 C1.08411215,77.2328343 12.7927042,89 27.2422376,89 C41.6917711,89 53.4003631,77.2328343 53.4003631,62.7110152 C53.4003631,52.3448449 47.453172,43.426051 38.8111896,39.1300636 L43.2251948,28.3435947 L74.4003707,60.3298013 C74.2609924,60.8901516 74.1680497,61.450478 74.1680497,62.0575202 C74.1680497,66.0266883 77.3740615,69.2951197 81.3696223,69.2951197 C83.3210385,69.2951197 85.0866168,68.50131 86.3876243,67.2405337 L92.1023992,67.2405337 C94.239677,79.1944191 104.600778,88.2999327 117.144832,88.2999327 C131.176397,88.2999327 142.560748,76.8595862 142.560748,62.7568703 C142.514288,48.6082516 131.084572,37.1683832 117.052055,37.1683832 L117.053578,37.1691244 Z M82.1567806,54.9697447 C81.8327087,54.9229121 81.4623442,54.8760794 81.1382723,54.8760794 C80.3512508,54.8760794 79.6105218,55.0165773 78.9160855,55.2507645 L47.7412211,23.2044637 L48.9775932,18.5817736 L78.0593078,44.2424062 L86.7353177,44.2424062 L82.1567806,54.9697447 Z M87.8130841,59.4049852 L99.6423906,30.7553517 L103.803738,40.8175457 C97.0708439,44.870281 92.3952826,51.9511195 91.6002624,60.1498471 L88.0936513,60.1498471 C88.0001449,59.9169436 87.9066384,59.6840163 87.8130841,59.4045082 L87.8130841,59.4049852 Z" id="Fill-1" fill="#3FBE79"></path>
                            <ellipse id="Oval" fill="#35495E" cx="117.897196" cy="61.7828746" rx="27.1028037" ry="27.2171254"></ellipse>
                            <ellipse id="Oval-2" fill="#35495E" cx="27.1028037" cy="61.7828746" rx="27.1028037" ry="27.2171254"></ellipse>
                        </g>
                        <g id="Group-2" transform="translate(89.671053, 35.344498)" fill="#3FBE79">
                            <ellipse id="Oval" cx="28.1619499" cy="26.5313029" rx="8.93600333" ry="9.02611336"></ellipse>
                            <polygon id="Rectangle" transform="translate(22.610796, 16.137597) rotate(-23.000000) translate(-22.610796, -16.137597) " points="19.2776983 0.309974323 26.0578199 0.285421394 25.9438943 31.9652189 19.1637727 31.9897718"></polygon>
                            <polygon id="Rectangle" transform="translate(15.840975, 28.445933) rotate(-90.000000) translate(-15.840975, -28.445933) " points="12.4219932 12.7401081 19.2599578 12.7401081 19.2599578 44.1517579 12.4219932 44.1517579"></polygon>
                        </g>
                        <g id="Group" transform="translate(18.230994, 31.724880)" fill="#3FBE79">
                            <ellipse id="Oval" cx="8.91107978" cy="30.0801" rx="8.91107978" ry="8.97807018"></ellipse>
                            <polygon id="Rectangle" transform="translate(13.433490, 16.051701) rotate(22.000000) translate(-13.433490, -16.051701) " points="10.0136258 0.279771766 16.7715656 0.297398825 16.8533551 31.8236307 10.0954153 31.8060036"></polygon>
                        </g>
                    </g>
                </g>
                <g id="icon/miniscooter" transform="translate(201.000000, 466.000000)">
                    <g id="miniscooter">
                        <g>
                            <path d="M40.9645116,43.2585125 C46.2958694,45.1359648 42.3492363,42.5544782 49.279001,48.0997496 C56.2087658,53.645021 60.6510782,62.1217101 60.6510782,71.6694214 C60.6510782,88.3715838 47.0726285,101.91358 30.3255391,101.91358 C13.5784497,101.91358 0,88.3715838 0,71.6694214 C0,54.967259 13.5784497,41.4252359 30.3255391,41.4252359 C33.3983122,41.4246309 35.6331538,41.3810602 40.9645116,43.2585125 Z M163,83.0101971 C163,93.450868 154.515293,101.912813 144.046538,101.912813 C138.019906,101.912813 132.652285,99.1363968 129.179822,94.7653559 L125.152192,84.1916295 C125.129979,83.8002886 125.092962,83.4089477 125.092962,83.010216 C125.092962,72.5695451 133.577669,64.1076 144.046424,64.1076 C154.515293,64.1076 163,72.5695262 163,83.0101971 Z" id="Fill-1" fill="#35495E" transform="translate(81.500000, 71.669324) scale(-1, 1) translate(-81.500000, -71.669324) "></path>
                            <path d="M33.9473458,0.153093417 C37.0126817,0.153093417 39.515256,2.56957781 39.6337222,5.60887528 L43.6615721,8.33676621 C45.0091296,9.24111661 45.6311433,10.9164496 45.2016324,12.4879046 C44.2242959,16.0682258 43.3876214,19.6931422 42.5362382,23.3402612 C50.3254366,28.6330338 55.7081605,36.4682956 58.647638,46.2298754 C61.9203371,57.0896329 62.3570508,70.3131198 60.4838637,85.7240431 L60.4838637,85.7833451 C60.4986672,86.2800015 60.9132988,87.236234 61.7277585,88.0368202 C62.5570217,88.8522271 63.6453942,89.3414637 64.274876,89.3414637 L107.100872,89.3414637 L131.150453,80.0903553 C133.031108,79.178585 135.607814,80.2163791 136.362965,82.1660194 C137.118116,84.1156596 135.881689,86.5543656 133.875175,87.1473854 L109.234211,96.6357017 C108.804776,96.8210275 108.338303,96.9173908 107.87185,96.9322116 L64.2762976,96.9322116 C61.1146723,96.9322116 58.4121272,95.4793226 56.3983918,93.4926969 C54.3846564,91.5060712 52.9035449,88.8597418 52.9035449,85.7240431 C52.8961336,85.5683778 52.8961336,85.4052926 52.9035449,85.2496273 C54.7545741,70.31293 54.2807094,57.9042998 51.4227177,48.4235741 C49.2014295,41.0627281 45.6845953,35.4661396 40.6422958,31.3446048 C37.1550307,45.9698955 32.8457051,60.743204 21.7468462,74.634099 C20.436307,76.2723137 18.0522179,76.5391632 16.4158683,75.2271188 C14.7795187,73.9150744 14.5130172,71.5281936 15.8235374,69.8899409 C29.6173597,52.6329708 31.9571141,33.4642947 37.2062081,13.1972511 L34.5999522,11.4774938 C34.3778234,11.5071543 34.1779094,11.5367958 33.9483883,11.5367958 C30.8091294,11.5367958 28.2620119,8.98671587 28.2620119,5.84380599 C28.2620119,2.7008961 30.8091294,0.150816221 33.9483883,0.150816221 L33.9473458,0.153093417 Z" id="Path" fill="#3FBE79" transform="translate(75.789051, 48.541514) scale(-1, 1) translate(-75.789051, -48.541514) "></path>
                        </g>
                    </g>
                </g>
            </g>
        </g>
    </g>
</svg>