<?xml version="1.0" encoding="UTF-8"?>
<svg width="868px" height="727px" viewBox="0 0 868 727" version="1.1" xmlns="http://www.w3.org/2000/svg" xmlns:xlink="http://www.w3.org/1999/xlink">
    <!-- Generator: Sketch 55.1 (78136) - https://sketchapp.com -->
    <title>scooter</title>
    <desc>Created with Sketch.</desc>
    <g id="Layout_Template" stroke="none" stroke-width="1" fill="none" fill-rule="evenodd">
        <g id="scooter" transform="translate(-208.000000, -158.000000)">
            <g transform="translate(208.000000, 158.000000)">
                <g id="icon/miniscooter" transform="translate(0.000000, 513.000000)">
                    <g id="miniscooter">
                        <g>
                            <path d="M80.7036493,88.3800326 C74.736532,106.816065 66.6170643,124.320677 53.3548502,140.925932 C51.4166408,143.354547 50.5162011,146.455412 50.8519663,149.555847 C51.2029686,152.641267 52.7596622,155.466968 55.1863602,157.422091 C57.612941,159.361926 60.7112083,160.26312 63.8090458,159.911824 C66.8918806,159.575777 69.7304515,158.017778 71.6687,155.589046 C86.2436564,137.366512 95.1257649,118.472199 101.581254,99.5004623 C115.865922,110.971563 125.023081,128.506675 125.023081,148.257332 C125.023081,182.807884 97.0331483,210.821285 62.5115407,210.821285 C27.989933,210.821285 0,182.807884 0,148.257332 C0,113.706781 27.989933,85.6933779 62.5115407,85.6933779 C68.8456007,85.6917378 74.9350061,86.6234714 80.7036493,88.3800326 Z M336,171.717172 C336,193.315031 318.510052,210.819643 296.930287,210.819643 C284.50729,210.819643 273.442748,205.076272 266.284786,196.034217 L301.081053,182.592742 C304.209678,181.661009 306.803985,179.476745 308.253862,176.543981 C309.7037,173.626585 309.871583,170.22033 308.71172,167.180895 C307.551818,164.126014 305.171027,161.697555 302.14918,160.459962 C299.127372,159.23801 295.739403,159.329666 292.7787,160.719642 L257.982433,174.161116 C257.936643,173.351577 257.86034,172.542039 257.86034,171.717211 C257.86034,150.119353 275.350287,132.614741 296.930053,132.614741 C318.510052,132.614741 336,150.119314 336,171.717172 Z" id="Fill-1" fill="#35495E" transform="translate(168.000000, 148.257331) scale(-1, 1) translate(-168.000000, -148.257331) "></path>
                            <path d="M69.9773508,0.316693244 C76.2960802,0.316693244 81.4547608,5.31549919 81.698961,11.6026734 L90.0017683,17.2456634 C92.7795554,19.1164275 94.0617433,22.5820674 93.176371,25.8328222 C91.1617388,33.2391731 89.4370601,40.7377745 87.6820616,48.282305 C103.738323,59.2310797 114.833999,75.4393174 120.893291,95.6323893 C127.639468,118.097182 128.539688,145.45165 124.678394,177.331109 L124.678394,177.453782 C124.708909,178.48118 125.56361,180.459268 127.242496,182.115383 C128.951898,183.802156 131.195414,184.814204 132.492996,184.814204 L220.77235,184.814204 L270.346946,165.677108 C274.223635,163.790995 279.535126,165.937804 281.091756,169.970883 C282.648386,174.003963 280.099678,179.048737 275.963551,180.275474 L225.169907,199.903265 C224.284691,200.286635 223.323128,200.485975 222.361605,200.516634 L132.495926,200.516634 C125.978711,200.516634 120.40782,197.511148 116.256808,193.401559 C112.105795,189.291971 109.052706,183.817701 109.052706,177.331109 C109.037429,177.009095 109.037429,176.671733 109.052706,176.349719 C112.868325,145.451257 111.891524,119.782424 106.000203,100.170335 C101.421352,84.9434866 94.1719264,73.3662301 83.777984,64.84031 C76.5895111,95.0945878 67.7064842,125.655059 44.8278547,154.390146 C42.1263752,157.779002 37.2119338,158.331014 33.8388451,155.616883 C30.4657564,152.902752 29.9164036,147.965185 32.6178441,144.57625 C61.0517354,108.878008 65.8747872,69.2251586 76.6950056,27.3001959 L71.322601,23.7426587 C70.8647158,23.8040152 70.452623,23.8653324 69.9794998,23.8653324 C63.5083895,23.8653324 58.2578896,18.5901671 58.2578896,12.0886575 C58.2578896,5.58714782 63.5083895,0.311982574 69.9794998,0.311982574 L69.9773508,0.316693244 Z" id="Path" fill="#3FBE79" transform="translate(156.227737, 100.414308) scale(-1, 1) translate(-156.227737, -100.414308) "></path>
                        </g>
                    </g>
                </g>
                <g id="icon/pedelec" transform="translate(457.000000, 508.000000)">
                    <g id="pedelec">
                        <g id="Group-9" transform="translate(0.000000, 73.492503)" fill="#35495E">
                            <path d="M73.0338129,145.212938 C32.6983518,145.212938 0,112.705915 0,72.606469 C0,32.5070234 32.6983518,0 73.0338129,0 C113.369274,0 146.067626,32.5070234 146.067626,72.606469 C146.067626,112.705915 113.369274,145.212938 73.0338129,145.212938 Z M72.6592806,120.552101 C99.549588,120.552101 121.348489,98.8807519 121.348489,72.1477882 C121.348489,45.4148245 99.549588,23.7434756 72.6592806,23.7434756 C45.7689732,23.7434756 23.9700719,45.4148245 23.9700719,72.1477882 C23.9700719,98.8807519 45.7689732,120.552101 72.6592806,120.552101 Z" id="Combined-Shape"></path>
                            <rect id="Rectangle" x="16.0674388" y="68.2500809" width="112.472072" height="7.2606469"></rect>
                            <rect id="Rectangle" transform="translate(72.303475, 71.880404) scale(-1, -1) rotate(90.000000) translate(-72.303475, -71.880404) " x="16.3964937" y="68.2287137" width="111.813962" height="7.30338129"></rect>
                            <polygon id="Rectangle" transform="translate(72.303475, 71.880404) scale(-1, -1) rotate(45.000000) translate(-72.303475, -71.880404) " points="16.2426499 68.4039247 128.385667 68.0748698 128.3643 75.3568839 16.2212827 75.6859388"></polygon>
                            <polygon id="Rectangle" transform="translate(72.303475, 71.880404) scale(-1, -1) rotate(135.000000) translate(-72.303475, -71.880404) " points="16.2212827 68.0748698 128.3643 68.4039247 128.385667 75.6859388 16.2426499 75.3568839"></polygon>
                        </g>
                        <g id="Group-9" transform="translate(264.932374, 73.492503)" fill="#35495E">
                            <path d="M73.0338129,145.212938 C32.6983518,145.212938 0,112.705915 0,72.606469 C0,32.5070234 32.6983518,0 73.0338129,0 C113.369274,0 146.067626,32.5070234 146.067626,72.606469 C146.067626,112.705915 113.369274,145.212938 73.0338129,145.212938 Z M72.6592806,120.552101 C99.549588,120.552101 121.348489,98.8807519 121.348489,72.1477882 C121.348489,45.4148245 99.549588,23.7434756 72.6592806,23.7434756 C45.7689732,23.7434756 23.9700719,45.4148245 23.9700719,72.1477882 C23.9700719,98.8807519 45.7689732,120.552101 72.6592806,120.552101 Z" id="Combined-Shape"></path>
                            <rect id="Rectangle" x="16.0674388" y="68.2500809" width="112.472072" height="7.2606469"></rect>
                            <polygon id="Rectangle" transform="translate(72.303475, 71.880404) scale(-1, -1) rotate(90.000000) translate(-72.303475, -71.880404) " points="16.3964937 68.2287137 128.210456 68.2287137 128.210456 75.532095 16.3964937 75.532095"></polygon>
                            <polygon id="Rectangle" transform="translate(72.303475, 71.880404) scale(-1, -1) rotate(45.000000) translate(-72.303475, -71.880404) " points="16.2426499 68.4039247 128.385667 68.0748698 128.3643 75.3568839 16.2212827 75.6859388"></polygon>
                            <polygon id="Rectangle" transform="translate(72.303475, 71.880404) scale(-1, -1) rotate(135.000000) translate(-72.303475, -71.880404) " points="16.2212827 68.0748698 128.3643 68.4039247 128.385667 75.6859388 16.2426499 75.3568839"></polygon>
                        </g>
                        <path d="M262.741238,16.2133855 L283.454673,16.2133855 L285.444826,18.2107179 C284.330327,22.0310082 283.215829,26.2635154 282.324238,29.9567481 C258.612069,28.7625718 222.86684,28.9731305 175.08855,30.5884244 L23.0633094,30.5884244 L35.1005275,57.7380062 L157.674332,57.7380062 C149.840969,63.4286119 142.680112,68.8059366 135.244551,76.5255681 C132.328192,79.5533447 63.9847748,139.161268 68.3866854,145.856282 C71.3212925,150.319626 90.1430409,152.551297 124.851931,152.551297 L173.979563,155.182863 C180.665979,162.90052 187.096948,166.759349 193.272469,166.759349 C202.535751,166.759349 212.222385,162.205321 216.171062,154.437804 L223.781476,156.799712 L222.284867,158.289788 L227.905047,163.885435 L239.257086,152.551297 L233.509332,146.95565 L230.134044,150.443058 L218.527266,146.828877 C218.877544,144.894971 218.7183,143.056147 218.654636,141.233229 C255.432599,122.480567 278.630668,101.524383 295.920395,80.614055 C296.302491,81.8399112 308.631996,104.557724 332.908907,148.767493 C336.098018,150.366208 338.476158,150.366208 340.043328,148.767493 C341.610498,147.168778 341.610498,144.742769 340.043328,141.489466 C315.382891,77.9851719 301.598547,41.018158 298.690297,30.5884244 L302.192954,18.8423942 C303.211915,16.0207904 302.463631,12.6287056 300.314235,10.5043156 L292.321914,2.53105594 C290.841242,1.10440734 288.771488,0.280095324 286.701734,0.295737366 L262.74026,0.295737366 C257.740831,0.34352267 254.333833,4.97205512 254.381521,8.63404084 C254.573534,12.7892016 258.569612,16.4037081 262.741238,16.2133855 Z M290.459825,61.6919693 C273.36044,84.3440131 251.628044,106.647064 211.824582,126.92109 C207.701052,122.720195 202.112663,119.962343 195.839533,119.708715 L179.233733,65.3064758 C200.960966,52.4454283 236.661276,46.0149045 286.334664,46.0149045 C288.140154,52.9576897 289.515207,58.1833779 290.459825,61.6919693 Z M180.602401,124.433099 C177.667901,125.167586 174.558863,128.647311 171.275287,134.872274 L100.102828,132.15273 L150.654736,88.4637471 C157.16114,82.0807025 162.070221,77.5575982 165.38198,74.8944342 L180.602401,124.433099 Z M198.468411,128.189921 C200.554102,128.665484 202.528318,129.473929 204.216165,130.678643 C202.783262,131.360274 201.318485,131.994344 199.85379,132.675975 L198.468411,128.189921 Z M183.247582,132.802708 L184.123237,135.78286 L181.13006,135.78286 C181.750974,134.704961 182.403761,133.690448 183.247582,132.802708 Z M204.466422,150.842046 L208.462664,152.09432 C205.660522,156.643802 200.661092,159.560323 194.850163,159.560323 C188.911659,159.560323 183.880439,156.453398 181.125984,151.713675 L185.997839,151.713675 C188.194963,154.09145 191.363279,155.692473 194.866059,155.692473 C198.782699,155.692473 202.285316,153.726834 204.482603,150.841884 L204.466422,150.842046 Z" id="Fill-1" fill="#3FBE79"></path>
                    </g>
                </g>
                <g id="icon/scooter" transform="translate(75.000000, 0.000000)">
                    <g id="scooter" transform="translate(334.000000, 225.500000) scale(-1, 1) translate(-334.000000, -225.500000) ">
                        <path d="M635.627905,313.872392 L647.144564,304.047076 C649.119953,302.372236 649.567261,299.469137 648.150912,297.27321 L635.47877,277.323396 L642.895804,277.323396 L643.082151,277.323396 C645.989368,277.323396 648.300238,275.0158 648.300238,272.112701 C648.300238,271.331116 648.151199,270.58669 647.815717,269.916773 C641.777725,231.357742 621.836919,230.427805 596.529847,230.390646 C589.187333,224.398365 581.583952,221.569775 572.750378,221.569775 C563.395167,221.569775 553.667264,224.770625 542.373876,228.45531 C528.620676,232.958834 511.512664,238.578854 489.522237,239.955656 C450.610812,241.66775 415.389107,241.853832 387.103161,242.00266 C333.655174,242.263157 326.760445,242.560908 324.747176,248.813686 C324.076309,250.935199 324.784483,253.205541 326.536218,254.545374 C349.830976,272.298974 360.975515,292.397425 357.135992,309.628888 C353.1106,327.642603 333.692386,341.264845 302.420886,348.113601 L247.631356,348.113601 C244.798658,348.113601 242.26423,347.183188 239.841533,345.061674 C239.54336,344.875591 239.245186,344.540585 238.425184,343.572917 C208.905515,314.914474 194.146634,283.501474 194.593179,250.116169 C195.301353,195.478567 236.784991,151.596219 245.059429,143.373519 L286.281819,143.373519 C287.959034,143.373519 289.561729,142.554679 290.53077,141.177591 C292.990679,137.67899 294.295201,133.584886 294.295201,129.304699 C294.295201,125.396677 293.288852,121.823662 291.276156,118.69713 C290.307116,117.208374 288.667113,116.277865 286.878071,116.277865 L252.475986,116.277865 L234.622778,95.9192988 C233.61643,93.8722944 234.771913,83.488063 240.660771,70.1268903 C242.971641,64.9161949 245.170684,61.1943513 246.959726,58.6637035 C250.873291,73.6627465 263.769087,78.6135169 268.987365,78.6135169 C271.857274,78.6135169 274.205356,76.2687612 274.205356,73.4028215 L274.205356,5.88807185 C274.205356,4.32490135 273.497182,2.83614485 272.267275,1.83122231 C271.037273,0.826299768 269.434578,0.454134464 267.86919,0.789045125 C256.016667,3.35713817 247.929243,12.9592126 243.270101,30.1173099 C232.275365,37.0028444 216.211199,55.9097184 210.396574,85.0893456 C193.884909,85.2382689 184.417776,86.1315228 175.882853,87.1736047 L155.233969,73.8867508 C154.376755,73.3285028 153.407619,73.0679109 152.401367,73.0679109 C148.189628,73.0679109 145.468853,76.4175892 144.276158,83.079977 C143.642599,86.7646612 143.307118,91.7147646 143.307118,97.8560638 C143.307118,112.371082 144.499812,146.091774 155.420125,146.091774 C156.165606,146.091774 156.910993,145.942946 157.58186,145.60794 L175.583916,137.382573 L177.261131,139.280749 L173.049392,141.439422 C154.9357,147.096697 96.754146,192.912761 90.3059616,258.901118 C64.2155274,266.903149 -1.7175874,309.817067 0.0342425135,328.649241 C0.295204105,331.291748 2.0469386,337.432952 13.26552,337.432952 C15.7627363,337.432952 18.6699534,337.172455 22.0616908,336.614207 C19.4884781,341.615335 49.1455575,284.76329 121.071752,313.87325 C177.261131,336.614207 152.401367,406.820202 162.501868,404.650141 C164.401226,405.768025 166.205169,406.820202 167.932725,407.810536 C195.596646,423.669065 203.672896,423.669065 270.292841,423.669065 L402.529283,423.669065 C411.139012,423.669065 419.26422,420.319386 425.33933,414.215437 C431.451842,408.111583 434.806367,400.072012 434.806367,391.549179 C434.806367,382.579386 431.079244,373.981376 424.556826,367.989191 C423.960479,367.430848 423.177785,367.021523 422.357784,366.798186 C418.407007,365.421098 414.605269,363.411253 410.728534,360.768746 C410.579495,360.657077 410.393148,360.545408 410.244014,360.470994 C396.975524,351.017367 389.073206,335.720001 389.073206,319.492793 C389.073206,306.13162 394.291293,293.700385 403.16227,284.543937 C401.037747,290.759459 399.956879,297.384878 399.956879,304.046885 C399.956879,334.491836 422.692502,360.396676 452.882943,364.304125 C454.336504,364.527367 455.827372,364.043533 456.945547,363.075866 L470.362885,351.686997 C468.573843,358.274781 467.679322,365.08533 467.679322,371.971245 C467.679322,398.146179 479.66045,349.254826 494.297236,329.790467 C498.132615,324.690085 510.939236,313.872392 524.897794,309.628888 C538.856351,305.385384 564.219389,304.047076 587.503597,313.87325 C614.846176,325.412097 624.4412,353.333887 621.940101,348.113601 C639.234174,358.646851 648.484485,359.838237 651.988145,369.217641 C652.845454,371.450824 655.119016,372.827911 657.467098,372.567319 C664.436919,371.74848 666.785001,367.617216 667.530578,365.197951 C671.779529,351.724347 646.062075,324.331228 635.625519,313.87325 L635.627905,313.872392 Z" id="Fill-1" fill="#3FBE79"></path>
                        <path d="M414.375804,155.669065 C392.904958,155.669065 325.025593,156.635415 316.115669,168.306031 L316.041141,168.268827 C305.864915,182.950582 308.39962,221.010866 313.170919,236.0266 C313.87917,238.219539 315.892086,239.669065 318.165896,239.669065 C318.426886,239.669065 318.687781,239.631956 318.985987,239.594752 C321.036119,239.297406 322.638989,237.810676 323.198186,235.877975 C331.100602,230.823093 382.243012,230.823093 410.013882,230.823093 L425.147489,230.823093 C463.206233,230.823093 495.82188,230.488543 508.459143,226.66025 C517.740846,225.136316 524.935393,222.831956 532.501719,220.37878 C545.063596,216.327453 558.07302,212.127406 583.047908,211.086742 C584.576251,211.01243 586.02997,210.269017 586.9619,209.042524 C587.856519,207.853141 588.229253,206.254894 587.856519,204.768164 C577.758446,160.464661 463.176651,155.669065 414.375804,155.669065 Z" id="Fill-2" fill="#35495E"></path>
                        <circle id="Oval" fill="#35495E" cx="76" cy="390.669065" r="60"></circle>
                        <circle id="Oval" fill="#35495E" cx="551" cy="390.669065" r="60"></circle>
                        <circle id="Oval" fill="#35495E" cx="550" cy="391" r="47"></circle>
                    </g>
                </g>
            </g>
        </g>
    </g>
</svg>