<?xml version="1.0" encoding="UTF-8"?>
<svg width="1250px" height="1250px" viewBox="0 0 1250 1250" version="1.1" xmlns="http://www.w3.org/2000/svg" xmlns:xlink="http://www.w3.org/1999/xlink">
    <!-- Generator: Sketch 55.1 (78136) - https://sketchapp.com -->
    <title>0</title>
    <desc>Created with Sketch.</desc>
    <g id="Offers" stroke="none" stroke-width="1" fill="none" fill-rule="evenodd">
        <g id="Artboard">
            <g id="0">
                <g id="10">
                    <g id="1_miniscooter">
                        <rect id="Rectangle" fill="#FAFAFA" x="0" y="0" width="1250" height="1250"></rect>
                        <rect id="Rectangle" fill="#35495E" x="0" y="0" width="1250" height="269"></rect>
                        <text id="0-€" font-family="PalanquinDark-SemiBold, Palanquin Dark SemiBold" font-size="125" font-weight="500" fill="#FAFAFA">
                            <tspan x="78" y="174">0 €</tspan>
                        </text>
                    </g>
                    <g id="Group-3" transform="translate(103.000000, 855.000000)" fill="#3FBE79">
                        <g id="Group-4" font-family="PalanquinDark-SemiBold, Palanquin Dark SemiBold" font-size="200" font-weight="500">
                            <text id="+15">
                                <tspan x="45.2" y="264">+15 </tspan>
                            </text>
                        </g>
                        <g id="Group-5" transform="translate(384.000000, 164.000000)">
                            <path d="M50,96.875 C24.1116524,96.875 3.125,75.8883476 3.125,50 C3.125,24.1116524 24.1116524,3.125 50,3.125 C75.8883476,3.125 96.875,24.1116524 96.875,50 C96.875,75.8883476 75.8883476,96.875 50,96.875 Z M50.5,78 C65.6878306,78 78,65.6878306 78,50.5 C78,35.3121694 65.6878306,23 50.5,23 C35.3121694,23 23,35.3121694 23,50.5 C23,65.6878306 35.3121694,78 50.5,78 Z" id="Combined-Shape"></path>
                            <path d="M50,-8.75 C56.2132034,-8.75 61.25,-3.71320344 61.25,2.5 L61.25,98.125 C61.25,104.338203 56.2132034,109.375 50,109.375 C43.7867966,109.375 38.75,104.338203 38.75,98.125 L38.75,2.5 C38.75,-3.71320344 43.7867966,-8.75 50,-8.75 Z" id="Rectangle" transform="translate(50.000000, 50.312500) rotate(45.000000) translate(-50.000000, -50.312500) "></path>
                        </g>
                    </g>
                    <g id="Group-3" transform="translate(648.000000, 855.000000)" fill="#3FBE79">
                        <g id="Group-4" font-family="PalanquinDark-SemiBold, Palanquin Dark SemiBold" font-size="200" font-weight="500">
                            <text id="+15">
                                <tspan x="45.2" y="264">+15 </tspan>
                            </text>
                        </g>
                        <g id="Group-5" transform="translate(384.000000, 164.000000)">
                            <path d="M50,96.875 C24.1116524,96.875 3.125,75.8883476 3.125,50 C3.125,24.1116524 24.1116524,3.125 50,3.125 C75.8883476,3.125 96.875,24.1116524 96.875,50 C96.875,75.8883476 75.8883476,96.875 50,96.875 Z M50.5,78 C65.6878306,78 78,65.6878306 78,50.5 C78,35.3121694 65.6878306,23 50.5,23 C35.3121694,23 23,35.3121694 23,50.5 C23,65.6878306 35.3121694,78 50.5,78 Z" id="Combined-Shape"></path>
                            <path d="M50,-8.75 C56.2132034,-8.75 61.25,-3.71320344 61.25,2.5 L61.25,98.125 C61.25,104.338203 56.2132034,109.375 50,109.375 C43.7867966,109.375 38.75,104.338203 38.75,98.125 L38.75,2.5 C38.75,-3.71320344 43.7867966,-8.75 50,-8.75 Z" id="Rectangle" transform="translate(50.000000, 50.312500) rotate(45.000000) translate(-50.000000, -50.312500) "></path>
                        </g>
                    </g>
                </g>
                <g id="Group-11" transform="translate(289.000000, 471.000000)">
                    <path d="M237.817111,209.711196 C247.332318,217.183587 265.544859,225.931737 287.107465,225.931737 C301.943093,225.931737 318.33916,221.774619 334.530923,210.195644 C342.56296,204.457279 344.404317,193.337877 338.649159,185.354922 C332.919474,177.371966 321.767215,175.536023 313.735178,181.274324 C286.621653,200.657491 262.526199,183.722682 259.763508,181.656855 C252.013045,175.688997 240.886324,177.040687 234.798451,184.742832 C228.736248,192.470505 230.066321,203.640898 237.816784,209.710869 L237.817111,209.711196 Z" id="Fill-1" fill="#3FBE79"></path>
                    <path d="M267,132.431737 C267,159.76507 226,159.76507 226,132.431737 C226,105.098403 267,105.098403 267,132.431737" id="Fill-2" fill="#3FBE79"></path>
                    <path d="M347,132.43171 C347,121.128183 337.803542,111.931737 326.5,111.931737 C315.196458,111.931737 306,121.128183 306,132.43171 C306,143.735236 315.196458,152.931737 326.5,152.931737 C337.803542,152.957396 347,143.760884 347,132.43171 Z" id="Fill-3" fill="#3FBE79"></path>
                    <path d="M468.81551,184.711196 C478.328391,192.183587 496.562011,200.931737 518.119346,200.931737 C532.951348,200.931737 549.343407,196.774619 565.556743,185.170181 C573.561284,179.457344 575.402191,168.312414 569.648375,160.354922 C563.894493,152.371966 552.745026,150.536023 544.766016,156.274324 C517.659119,175.657491 493.544024,158.748211 490.756477,156.65692 C483.03344,150.689062 471.883907,152.040752 465.797523,159.742897 C459.736801,167.445108 461.066549,178.640963 468.815118,184.710935 L468.81551,184.711196 Z" id="Fill-4" fill="#3FBE79"></path>
                    <path d="M498,107.431737 C498,96.1281949 488.803542,86.9317365 477.5,86.9317365 C466.196458,86.9317365 457,96.1281949 457,107.431737 C457,118.735278 466.196458,127.931737 477.5,127.931737 C488.803542,127.931737 498,118.735278 498,107.431737 Z" id="Fill-5" fill="#3FBE79"></path>
                    <path d="M579,107.431737 C579,96.1281949 569.803542,86.9317365 558.5,86.9317365 C547.196458,86.9317365 538,96.1281949 538,107.431737 C538,118.735278 547.196458,127.931737 558.5,127.931737 C569.777236,127.931737 579,118.735278 579,107.431737 Z" id="Fill-6" fill="#3FBE79"></path>
                    <path d="M73.1732626,343.369386 C74.3523981,354.408173 81.1966862,363.161916 91.5010798,366.730447 C95.0640783,367.98837 99.0113507,368.527462 103.138227,368.527462 C104.804398,368.527462 106.521753,368.424743 108.264831,368.270764 C104.08664,376.074871 100.13904,383.930239 96.3455162,391.529304 L95.7303237,392.761531 C91.3214107,401.618453 94.9100669,412.374649 103.753747,416.789638 C106.317017,418.073191 109.034167,418.663675 111.725331,418.663675 C118.312977,418.663675 124.618455,415.018319 127.74593,408.754595 L128.361122,407.522367 C142.126343,379.874469 156.377812,351.507608 178.704545,335.974313 C189.983404,342.007101 202.030679,346.85866 214.795843,350.196518 C216.308199,350.581564 217.820556,350.786935 219.307255,350.786935 C227.253246,350.786935 234.533189,345.447283 236.609423,337.386215 C239.070193,327.810987 233.354054,318.030058 223.793075,315.539973 C167.169766,300.804504 127.593362,249.48601 127.593362,190.805696 C127.593362,119.750533 185.319096,61.9639947 256.268681,61.9639947 C327.218266,61.9639947 384.944,119.776163 384.944,190.805696 C384.944,235.191515 362.104771,276.036404 325.424201,299.471727 C325.296044,299.54875 325.193479,299.625772 325.065322,299.702729 C319.81056,303.014365 314.299616,306.017911 308.506635,308.585281 C299.48381,312.615684 295.43371,323.192664 299.432626,332.228999 C303.431542,341.265333 314.018104,345.321497 323.015336,341.316594 C326.783399,339.647928 330.448831,337.825283 334.037619,335.899919 C358.107233,351.328721 380.99699,379.849365 396.479501,414.354953 C399.452899,421.003724 405.98923,424.931737 412.80786,424.931737 C415.26863,424.931737 417.755058,424.418341 420.138987,423.365789 C429.136219,419.309691 433.160727,408.707211 429.110627,399.670877 C413.321013,364.500805 390.327575,334.20904 365.053824,314.183866 C372.102782,307.945706 378.58806,301.091367 384.432226,293.774893 C402.529058,308.433471 423.547974,319.112775 446.182467,325.016952 C447.694824,325.402064 449.20718,325.607435 450.693879,325.607435 C458.665463,325.607435 465.894222,320.267783 467.996048,312.206716 C470.482475,302.631487 464.740678,292.850558 455.1797,290.360473 C436.160242,285.405867 418.729458,275.933226 403.88806,263.123318 C414.679358,241.020115 420.703323,216.401196 420.703323,190.806353 C420.703323,152.119669 407.194679,116.563828 384.816762,88.4296114 C409.065521,55.9553251 446.540755,36.7529498 487.604778,36.7529498 C558.553707,36.7529498 616.280097,94.5651183 616.280097,165.620939 C616.280097,210.006757 593.440867,250.851647 556.760297,274.28697 C556.63214,274.363992 556.555233,274.440949 556.427076,274.517971 C551.172315,277.855238 545.635778,280.833153 539.842797,283.400524 C530.819972,287.430926 526.744281,298.007841 530.768788,307.069806 C533.716594,313.718577 540.278517,317.69785 547.12274,317.69785 C549.53226,317.69785 552.018623,317.21015 554.377091,316.157533 C557.991339,314.540259 561.528417,312.79457 565.014836,310.946229 C587.212953,327.452819 602.567504,361.750145 615.076091,389.986226 L618.767247,398.252337 C621.740645,404.901107 628.251383,408.82912 635.095606,408.82912 C637.530719,408.82912 640.017146,408.315724 642.426733,407.263172 C651.449557,403.207074 655.474196,392.604595 651.423965,383.56826 L647.784059,375.430301 C635.018895,346.703958 619.716185,312.637962 595.46677,289.890715 C630.814587,259.085029 652.090079,214.00522 652.090079,165.61647 C652.090079,74.7930925 578.319467,0.931736527 487.631879,0.931736527 C436.90392,0.931736527 390.277244,23.6507247 359.284662,62.6199997 C331.06258,39.8234634 295.253451,26.1151795 256.266975,26.1151795 C165.605635,26.1151795 91.8284607,99.9962512 91.8284607,190.799913 C91.8284607,216.70232 97.9803864,241.372499 108.849117,263.498046 C93.3154221,280.877382 70.8351371,321.797848 73.1679474,343.359528 L73.1732626,343.369386 Z M129.232891,295.235625 C134.667059,301.858765 140.588526,308.071163 146.996371,313.770297 C140.665039,319.212602 122.183932,328.582657 110.418169,331.740445 C113.981168,321.318101 122.311892,305.529817 129.232891,295.235625 Z" id="Fill-7" fill="#35495E"></path>
                    <path d="M56.9100014,244.190084 C60.3531409,247.368289 64.7212657,248.931737 69.0639998,248.931737 C73.894683,248.931737 78.6993176,246.983857 82.2454672,243.164867 C88.9516432,235.911253 88.5150675,224.583016 81.2433889,217.893025 L57.0899729,195.671573 C49.818097,188.982238 38.4869947,189.417783 31.7545071,196.69679 C25.0483312,203.950404 25.4849792,215.27864 32.7565855,221.968631 L56.9100014,244.190084 Z" id="Fill-8" fill="#3FBE79"></path>
                    <path d="M15.9863121,283.290837 C22.6403548,284.027701 41.9605589,286.365397 51.0040586,288.44895 C52.3657137,288.753895 53.7530853,288.931737 55.0890239,288.931737 C63.2334354,288.931737 70.6070118,283.392507 72.5334417,275.210507 C74.7686002,265.682272 68.7567446,256.128019 59.122096,253.917687 C46.1994281,250.919363 20.969708,248.175183 19.8910651,248.048144 C10.0767303,246.930098 1.21344415,253.993923 0.108491593,263.726018 C-0.970545914,273.457853 6.12034715,282.224375 15.9862463,283.291162 L15.9863121,283.290837 Z" id="Fill-9" fill="#3FBE79"></path>
                    <path d="M49.1319539,341.716741 C53.1208329,339.337552 56.8810251,337.087722 60.4888897,335.458542 C69.432127,331.398469 73.4465023,320.743689 69.4574933,311.640831 C65.4939806,302.537973 55.0260351,298.451948 46.0574315,302.486335 C40.6203335,304.943047 35.8439293,307.813592 31.1940963,310.580927 C26.8749354,313.166934 22.7842011,315.597827 18.8973076,317.252826 C9.85260514,321.106016 5.60928294,331.657189 9.36999554,340.863323 C12.215571,347.768255 18.7958425,351.931737 25.7572584,351.931737 C28.018499,351.931737 30.3559036,351.492151 32.5664767,350.535259 C38.6895698,347.949253 43.9995113,344.768416 49.1319539,341.717072 L49.1319539,341.716741 Z" id="Fill-10" fill="#3FBE79"></path>
                </g>
                <text id="invite-friend" font-family="PalanquinDark-SemiBold, Palanquin Dark SemiBold" font-size="125" font-weight="500" fill="#3FBE79">
                    <tspan x="428.375" y="179">invite friend</tspan>
                </text>
            </g>
        </g>
    </g>
</svg>