<?xml version="1.0" encoding="UTF-8"?>
<svg width="1250px" height="1250px" viewBox="0 0 1250 1250" version="1.1" xmlns="http://www.w3.org/2000/svg" xmlns:xlink="http://www.w3.org/1999/xlink">
    <!-- Generator: Sketch 55.1 (78136) - https://sketchapp.com -->
    <title>10</title>
    <desc>Created with Sketch.</desc>
    <g id="Offers" stroke="none" stroke-width="1" fill="none" fill-rule="evenodd">
        <g id="Artboard">
            <g id="10">
                <g>
                    <g id="1_miniscooter">
                        <rect id="Rectangle" fill="#FAFAFA" x="0" y="0" width="1250" height="1250"></rect>
                        <rect id="Rectangle" fill="#35495E" x="0" y="0" width="1250" height="269"></rect>
                    </g>
                    <g id="Group-9" transform="translate(161.000000, 530.000000)">
                        <path d="M849.936866,274.61748 L793.541839,274.61748 L793.541839,136.824626 L829.68274,136.824626 C833.772728,136.864146 837.469474,134.416258 839.042546,130.62602 C840.615619,126.796262 839.750404,122.453356 836.840245,119.570653 L751.579211,33.9739298 L751.579211,33.9345113 C707.533181,-10.2060998 636.233984,-10.2060998 592.187954,33.9345113 L506.92692,119.531234 L506.92692,119.570653 C504.016761,122.452851 503.151546,126.795757 504.724619,130.62602 C506.297691,134.416258 509.994437,136.864146 514.084426,136.824626 L550.225326,136.824626 L550.225326,274.61748 L453.874761,274.61748 L453.874761,198.378098 C468.504083,193.995673 478.571747,180.493227 478.611011,165.13417 L478.611011,116.018744 C477.627803,97.4627478 462.368849,82.9335006 443.84636,82.9335006 C425.323872,82.9335006 410.064314,97.4627478 409.08171,116.018744 L409.08171,164.817811 C409.121074,180.175857 419.188638,193.679213 433.81796,198.101158 L433.81796,274.301122 L322.087024,274.301122 L322.087024,136.821594 L358.227925,136.821594 C362.317913,136.861114 366.014659,134.413226 367.587731,130.622988 C369.160804,126.79323 368.256325,122.450324 365.346065,119.56762 L280.085032,33.9708976 L280.085032,33.9314791 C236.039002,-10.130295 164.780075,-10.130295 120.734045,33.9314791 L35.4337477,119.56762 C32.5628527,122.449819 31.6583737,126.792724 33.2314462,130.622988 C34.8045187,134.413226 38.5012643,136.861114 42.5912528,136.821594 L78.6536255,136.821594 L78.6536255,274.614448 L10.0676641,274.614448 C4.52259605,274.614448 0,279.115331 0,284.721751 C0,290.288651 4.52259605,294.829053 10.0676641,294.829053 L849.932336,294.829053 C855.477404,294.829053 860,290.288651 860,284.721751 C860,279.115331 855.477404,274.614448 849.932336,274.614448 L849.936866,274.61748 Z M429.219253,165.13518 L429.219253,116.019755 C429.848482,108.36034 436.2194,102.477991 443.848575,102.477991 C451.47775,102.477991 457.848669,108.360745 458.477898,116.019755 L458.477898,164.818822 C458.831776,168.964433 457.455426,173.031005 454.663159,176.071282 C451.870993,179.071938 447.938262,180.80908 443.848475,180.80908 C439.758687,180.80908 435.825754,179.071837 433.03379,176.071282 C430.241624,173.031207 428.865173,168.964635 429.219051,164.818822 L429.219253,165.13518 Z M606.390005,48.1936914 C642.571176,11.9499157 701.128737,11.9499157 737.269638,48.1936914 L805.42269,116.615075 L538.357765,116.615075 L606.390005,48.1936914 Z M134.941432,48.1936914 C171.082332,11.9499157 229.639894,11.9499157 265.821065,48.1936914 L333.974117,116.615075 L66.8689214,116.615075 L134.941432,48.1936914 Z M190.825022,274.5063 L190.785657,175.249558 L232.865473,175.249558 L232.865473,274.585137 L190.825022,274.5063 Z M253.040165,274.5063 L253.040165,165.145288 C253.040165,162.460586 251.978329,159.894241 250.090642,157.999122 C248.202955,156.104003 245.60741,155.037985 242.972501,155.037985 L180.718094,155.037985 C175.173026,155.037985 170.65043,159.578388 170.65043,165.145288 L170.65043,274.627588 L98.8005315,274.627588 L98.8005315,136.834734 L301.965992,136.834734 L301.965992,274.627588 L253.040165,274.5063 Z M662.270574,274.5063 L662.270574,175.249558 L704.35039,175.249558 L704.35039,274.585137 L662.270574,274.5063 Z M724.485718,274.5063 L724.485718,165.145288 C724.485718,162.460586 723.423881,159.894241 721.536194,157.999122 C719.648507,156.104003 717.092227,155.037985 714.418054,155.037985 L652.20291,155.037985 C646.657842,155.037985 642.135246,159.578388 642.135246,165.145288 L642.135246,274.627588 L570.363876,274.627588 L570.363876,136.834734 L773.408525,136.834734 L773.408525,274.627588 L724.485718,274.5063 Z" id="Fill-1" fill="#35495E"></path>
                        <path d="M141.562797,306.829053 L90.4372028,306.829053 C84.6477908,306.829053 80,311.096643 80,316.329053 C80,321.598608 84.6477908,325.829053 90.4372028,325.829053 L141.562797,325.829053 C147.3114,325.829053 152,321.598608 152,316.329053 C152,311.096643 147.3114,306.829053 141.562797,306.829053 Z" id="Fill-2" fill="#3FBE79"></path>
                        <path d="M222.666667,339.829053 L181.333333,339.829053 C175.64194,339.829053 171,343.836843 171,348.829053 C171,353.786073 175.64194,357.829053 181.333333,357.829053 L222.666667,357.829053 C228.398463,357.829053 233,353.786073 233,348.829053 C233,343.836843 228.398463,339.829053 222.666667,339.829053 Z" id="Fill-3" fill="#3FBE79"></path>
                        <path d="M381,333.329053 C381,330.805663 379.920638,328.393518 378.001796,326.612268 C376.082953,324.831018 373.484482,323.829053 370.766173,323.829053 L325.233827,323.829053 C319.557226,323.829053 315,328.096643 315,333.329053 C315,338.598608 319.557226,342.829053 325.233827,342.829053 L370.766173,342.829053 C376.40276,342.829053 381,338.598608 381,333.329053 Z" id="Fill-4" fill="#3FBE79"></path>
                        <path d="M443.686229,370.829053 L369.116499,370.829053 C363.544534,370.829053 359,375.096643 359,380.329053 C359,385.598608 363.544534,389.829053 369.116499,389.829053 L443.883501,389.829053 C449.455466,389.829053 454,385.598608 454,380.329053 C454,375.096643 449.455466,370.829053 443.883501,370.829053 L443.686229,370.829053 Z" id="Fill-5" fill="#3FBE79"></path>
                        <path d="M598.723447,323.829053 L529.276553,323.829053 C523.616433,323.829053 519,328.096643 519,333.329053 C519,338.598608 523.616433,342.829053 529.276553,342.829053 L598.763525,342.829053 L598.723447,342.829053 C604.423748,342.829053 609,338.598608 609,333.329053 C609,328.096643 604.423748,323.829053 598.723447,323.829053 Z" id="Fill-6" fill="#3FBE79"></path>
                        <path d="M663.735135,370.829053 L618.264865,370.829053 C612.571047,370.829053 608,375.096643 608,380.329053 C608,385.598608 612.571047,389.829053 618.264865,389.829053 L663.735135,389.829053 C669.388818,389.829053 674,385.598608 674,380.329053 C674,375.096643 669.388818,370.829053 663.735135,370.829053 Z" id="Fill-7" fill="#3FBE79"></path>
                        <path d="M833.788406,323.829053 L811.211594,323.829053 C805.587252,323.829053 801,328.096643 801,333.329053 C801,338.598608 805.587252,342.829053 811.211594,342.829053 L833.788406,342.829053 C839.452675,342.829053 844,338.598608 844,333.329053 C844,328.096643 839.452675,323.829053 833.788406,323.829053 Z" id="Fill-8" fill="#3FBE79"></path>
                    </g>
                    <text id="+-1€" font-family="PalanquinDark-SemiBold, Palanquin Dark SemiBold" font-size="200" font-weight="500" fill="#3FBE79">
                        <tspan x="400" y="1152">+ 1€</tspan>
                    </text>
                </g>
                <text id="1-Vote" font-family="PalanquinDark-SemiBold, Palanquin Dark SemiBold" font-size="100" font-weight="500" fill="#FAFAFA">
                    <tspan x="87" y="169">1 Vote</tspan>
                </text>
                <text id="11-ø" font-family="PalanquinDark-SemiBold, Palanquin Dark SemiBold" font-size="125" font-weight="500" fill="#3FBE79">
                    <tspan x="971.325" y="175">11 </tspan>
                    <tspan x="1118.7" y="175" font-size="100">ø</tspan>
                </text>
            </g>
        </g>
    </g>
</svg>