<?xml version="1.0" encoding="UTF-8"?>
<svg width="1250px" height="1250px" viewBox="0 0 1250 1250" version="1.1" xmlns="http://www.w3.org/2000/svg" xmlns:xlink="http://www.w3.org/1999/xlink">
    <!-- Generator: Sketch 55.1 (78136) - https://sketchapp.com -->
    <title>100</title>
    <desc>Created with Sketch.</desc>
    <g id="Offers" stroke="none" stroke-width="1" fill="none" fill-rule="evenodd">
        <g id="Artboard" transform="translate(0.000000, -1406.000000)">
            <g id="100" transform="translate(0.000000, 1406.000000)">
                <g id="10">
                    <g id="1_miniscooter">
                        <rect id="Rectangle" fill="#FAFAFA" x="0" y="0" width="1250" height="1250"></rect>
                        <rect id="Rectangle" fill="#35495E" x="0" y="0" width="1250" height="269"></rect>
                    </g>
                    <g id="Group-23" transform="translate(307.000000, 452.000000)">
                        <path d="M317.000018,177.5 C341.266235,177.5 361,157.766227 361,133.5 C361,109.233773 341.266235,89.5 317.000018,89.5 C292.733801,89.5 273,109.233773 273,133.5 C272.969251,157.766227 292.703017,177.5 317.000018,177.5 Z M317.000018,105.287019 C332.571538,105.287019 345.212988,117.960048 345.212988,133.5 C345.212988,149.071526 332.570748,161.712981 317.000018,161.712981 C301.429288,161.712981 288.786992,149.039952 288.786992,133.5 C288.756264,117.959259 301.429288,105.287019 317.000018,105.287019 Z" id="Fill-3" fill="#3FBE79"></path>
                        <path d="M150,259.5 C145.56248,259.5 142,263.023448 142,267.343479 L142,287.656521 C142,291.976552 145.56248,295.5 150,295.5 C154.43752,295.5 158,291.976552 158,287.656521 L158,267.343479 C158,263.023448 154.40624,259.5 150,259.5 Z" id="Fill-4" fill="#3FBE79"></path>
                        <path d="M190,259.5 C185.56248,259.5 182,263.023448 182,267.343479 L182,287.656521 C182,291.976552 185.56248,295.5 190,295.5 C194.43752,295.5 198,291.976552 198,287.656521 L198,267.343479 C198,263.023448 194.40624,259.5 190,259.5 Z" id="Fill-5" fill="#3FBE79"></path>
                        <path d="M150,318.5 C145.56248,318.5 142,322.023448 142,326.343479 L142,346.656521 C142,350.976552 145.56248,354.5 150,354.5 C154.43752,354.5 158,350.976552 158,346.656521 L158,326.343479 C158,321.99278 154.40624,318.5 150,318.5 Z" id="Fill-6" fill="#3FBE79"></path>
                        <path d="M190,318.5 C185.56248,318.5 182,322.023448 182,326.343479 L182,346.656521 C182,350.976552 185.56248,354.5 190,354.5 C194.43752,354.5 198,350.976552 198,346.656521 L198,326.343479 C198,321.99278 194.40624,318.5 190,318.5 Z" id="Fill-7" fill="#3FBE79"></path>
                        <path d="M150,377.5 C145.56248,377.5 142,381.023448 142,385.343479 L142,405.656521 C142,409.976552 145.56248,413.5 150,413.5 C154.43752,413.5 158,409.976552 158,405.656521 L158,385.343479 C158,381.023448 154.40624,377.5 150,377.5 Z" id="Fill-8" fill="#3FBE79"></path>
                        <path d="M190,377.5 C185.56248,377.5 182,381.023448 182,385.343479 L182,405.656521 C182,409.976552 185.56248,413.5 190,413.5 C194.43752,413.5 198,409.976552 198,405.656521 L198,385.343479 C198,381.023448 194.40624,377.5 190,377.5 Z" id="Fill-9" fill="#3FBE79"></path>
                        <path d="M486,259.5 C481.56248,259.5 478,263.023448 478,267.343479 L478,287.656521 C478,291.976552 481.56248,295.5 486,295.5 C490.43752,295.5 494,291.976552 494,287.656521 L494,267.343479 C494,263.023448 490.43752,259.5 486,259.5 Z" id="Fill-10" fill="#3FBE79"></path>
                        <path d="M446,259.5 C441.56248,259.5 438,263.023448 438,267.343479 L438,287.656521 C438,291.976552 441.56248,295.5 446,295.5 C450.43752,295.5 454,291.976552 454,287.656521 L454,267.343479 C454,263.023448 450.43752,259.5 446,259.5 Z" id="Fill-11" fill="#3FBE79"></path>
                        <path d="M486,318.5 C481.56248,318.5 478,322.023448 478,326.343479 L478,346.656521 C478,350.976552 481.56248,354.5 486,354.5 C490.43752,354.5 494,350.976552 494,346.656521 L494,326.343479 C494,321.99278 490.43752,318.5 486,318.5 Z" id="Fill-12" fill="#3FBE79"></path>
                        <path d="M446,318.5 C441.56248,318.5 438,322.023448 438,326.343479 L438,346.656521 C438,350.976552 441.56248,354.5 446,354.5 C450.43752,354.5 454,350.976552 454,346.656521 L454,326.343479 C454,321.99278 450.43752,318.5 446,318.5 Z" id="Fill-13" fill="#3FBE79"></path>
                        <path d="M486,377.5 C481.56248,377.5 478,381.023448 478,385.343479 L478,405.656521 C478,409.976552 481.56248,413.5 486,413.5 C490.43752,413.5 494,409.976552 494,405.656521 L494,385.343479 C494,381.023448 490.43752,377.5 486,377.5 Z" id="Fill-14" fill="#3FBE79"></path>
                        <path d="M446,377.5 C441.56248,377.5 438,381.023448 438,385.343479 L438,405.656521 C438,409.976552 441.56248,413.5 446,413.5 C450.43752,413.5 454,409.976552 454,405.656521 L454,385.343479 C454,381.023448 450.43752,377.5 446,377.5 Z" id="Fill-15" fill="#3FBE79"></path>
                        <path d="M340,259.5 C335.56248,259.5 332,263.023448 332,267.343479 L332,287.656521 C332,291.976552 335.56248,295.5 340,295.5 C344.43752,295.5 348,291.976552 348,287.656521 L348,267.343479 C348,263.023448 344.40624,259.5 340,259.5 Z" id="Fill-16" fill="#3FBE79"></path>
                        <path d="M293,259.5 C288.56248,259.5 285,263.023448 285,267.343479 L285,287.656521 C285,291.976552 288.56248,295.5 293,295.5 C297.43752,295.5 301,291.976552 301,287.656521 L301,267.343479 C301,263.023448 297.40624,259.5 293,259.5 Z" id="Fill-17" fill="#3FBE79"></path>
                        <path d="M340,318.5 C335.56248,318.5 332,322.023448 332,326.343479 L332,346.656521 C332,350.976552 335.56248,354.5 340,354.5 C344.43752,354.5 348,350.976552 348,346.656521 L348,326.343479 C348,321.99278 344.40624,318.5 340,318.5 Z" id="Fill-18" fill="#3FBE79"></path>
                        <path d="M293,318.5 C288.56248,318.5 285,322.023448 285,326.343479 L285,346.656521 C285,350.976552 288.56248,354.5 293,354.5 C297.43752,354.5 301,350.976552 301,346.656521 L301,326.343479 C301,321.99278 297.40624,318.5 293,318.5 Z" id="Fill-19" fill="#3FBE79"></path>
                        <path d="M340,200.5 C335.56248,200.5 332,204.023448 332,208.343479 L332,228.656521 C332,232.976552 335.56248,236.5 340,236.5 C344.43752,236.5 348,232.976552 348,228.656521 L348,208.343479 C348,204.023448 344.40624,200.5 340,200.5 Z" id="Fill-20" fill="#3FBE79"></path>
                        <path d="M293,200.5 C288.56248,200.5 285,204.023448 285,208.343479 L285,228.656521 C285,232.976552 288.56248,236.5 293,236.5 C297.43752,236.5 301,232.976552 301,228.656521 L301,208.343479 C301,204.023448 297.40624,200.5 293,200.5 Z" id="Fill-21" fill="#3FBE79"></path>
                        <path d="M635.986883,403.902907 C635.986883,390.462653 629.092722,378.636278 618.689273,371.683326 C627.695033,365.071824 633.595523,354.486889 633.595523,342.474572 C633.595523,322.423054 617.260658,306.126924 597.230633,306.126924 C577.169603,306.126924 560.865743,322.454044 560.865743,342.474572 C560.865743,354.486889 566.797158,365.040277 575.771993,371.683326 C565.368623,378.636278 558.474383,390.462653 558.474383,403.902907 C558.474383,422.527282 571.703978,438.140036 589.280633,441.802453 L589.280633,470.607539 L537.046748,470.607539 L537.046748,98.4696719 C537.046748,94.093047 533.506533,90.5234414 529.096748,90.5234414 L407.302748,90.5234414 L407.302748,72.1477833 C407.302748,69.6956561 406.153734,67.3676489 404.197319,65.8466609 L321.533219,2.15285568 C318.676227,-0.0509518922 314.701227,-0.0509518922 311.843759,2.15285568 L229.179659,65.8466609 C227.223243,67.3365791 226.07423,69.6645863 226.07423,72.1477833 L226.07423,91.0200808 L106.98323,90.4923716 L106.952145,90.4923716 C104.840466,90.4923716 102.821882,91.3304606 101.331257,92.8203788 C99.8406315,94.310297 99.002145,96.3279244 99.002145,98.4386021 L99.002145,470.576469 L46.76826,470.576469 L46.76826,441.771384 C64.344915,438.108648 77.57451,422.495418 77.57451,403.871837 C77.57451,390.431583 70.6803495,378.605208 60.2769,371.652256 C69.28266,365.040754 75.18315,354.455819 75.18315,342.443502 C75.18315,322.391984 58.848285,306.095855 38.81826,306.095855 C18.75723,306.095855 2.45337,322.422975 2.45337,342.443502 C2.45337,354.455819 8.3847855,365.009208 17.35962,371.652256 C6.95625,378.605208 0.06201,390.431583 0.06201,403.871837 C0.06201,422.496212 13.291605,438.108966 30.86826,441.771384 L30.86826,470.576469 L7.95,470.607539 C3.5402145,470.607539 0,474.177145 0,478.553769 C0,482.930394 3.5402145,486.5 7.95,486.5 L628.05,486.5 C632.459786,486.5 636,482.930394 636,478.553769 C636,474.177145 632.459786,470.607539 628.05,470.607539 L605.19375,470.607539 L605.19375,441.802453 C622.770405,438.108728 636,422.526487 636,403.902907 L635.986883,403.902907 Z M38.7749325,322.017002 C50.0790375,322.017002 59.2398225,331.204433 59.2398225,342.472188 C59.2398225,353.770933 50.0480325,362.927375 38.7749325,362.927375 C27.4708275,362.927375 18.3100425,353.739943 18.3100425,342.472188 C18.3100425,331.173443 27.4708275,322.017002 38.7749325,322.017002 Z M15.9186825,403.902907 C15.9186825,391.30098 26.1670275,381.057494 38.7749325,381.057494 C51.3828375,381.057494 61.6311825,391.30098 61.6311825,403.902907 C61.6311825,416.504834 51.3828375,426.74832 38.7749325,426.74832 C26.1670275,426.74832 15.9186825,416.504834 15.9186825,403.902907 Z M407.297183,226.384117 L521.141182,226.384117 L521.141182,470.603566 L407.297183,470.603566 L407.297183,226.384117 Z M521.141182,106.411929 L521.141182,210.491656 L407.297183,210.491656 L407.297183,106.411929 L521.141182,106.411929 Z M241.929233,76.0549449 L316.646513,18.475764 L391.363793,76.0549449 L391.363793,470.601182 L359.936648,470.601182 L359.936648,409.794242 C359.936648,405.417617 356.396433,401.848012 351.986648,401.848012 L281.306378,401.848012 C276.896592,401.848012 273.356378,405.417617 273.356378,409.794242 L273.356378,470.601182 L241.898228,470.601182 L241.929233,76.0549449 Z M344.039033,470.601182 L289.258762,470.601182 L289.258762,417.740473 L344.039033,417.740473 L344.039033,470.601182 Z M226.029233,106.902212 L226.029233,210.481326 L114.824633,210.481326 L114.824633,106.433384 L226.029233,106.902212 Z M114.824633,226.373787 L225.997433,226.373787 L225.997433,470.593236 L114.824633,470.593236 L114.824633,226.373787 Z M597.230633,322.006672 C608.534738,322.006672 617.695523,331.194103 617.695523,342.461858 C617.695523,353.760603 608.534738,362.917045 597.230633,362.917045 C585.926528,362.917045 576.765742,353.729613 576.765742,342.461858 C576.765742,331.163113 585.926528,322.006672 597.230633,322.006672 Z M574.374383,403.892577 C574.374383,391.29065 584.622727,381.047164 597.230632,381.047164 C609.838537,381.047164 620.086882,391.29065 620.086882,403.892577 C620.086882,416.494504 609.838537,426.73799 597.230632,426.73799 C584.622727,426.73799 574.374383,416.494504 574.374383,403.892577 Z" id="Fill-22" fill="#35495E"></path>
                    </g>
                    <text id="+100€" font-family="PalanquinDark-SemiBold, Palanquin Dark SemiBold" font-size="200" font-weight="500" fill="#3FBE79">
                        <tspan x="307.4" y="1152">+100€</tspan>
                    </text>
                </g>
                <text id="10-Votes" font-family="PalanquinDark-SemiBold, Palanquin Dark SemiBold" font-size="100" font-weight="500" fill="#FAFAFA">
                    <tspan x="87" y="169">10 Votes</tspan>
                </text>
                <text id="200-ø" font-family="PalanquinDark-SemiBold, Palanquin Dark SemiBold" font-size="125" font-weight="500" fill="#3FBE79">
                    <tspan x="861.075" y="175">200 </tspan>
                    <tspan x="1118.7" y="175" font-size="100">ø</tspan>
                    <tspan x="1179" y="175"> </tspan>
                </text>
            </g>
        </g>
    </g>
</svg>