<?xml version="1.0" encoding="UTF-8"?>
<svg width="1250px" height="1250px" viewBox="0 0 1250 1250" version="1.1" xmlns="http://www.w3.org/2000/svg" xmlns:xlink="http://www.w3.org/1999/xlink">
    <!-- Generator: Sketch 55.1 (78136) - https://sketchapp.com -->
    <title>1000000</title>
    <desc>Created with Sketch.</desc>
    <g id="Offers" stroke="none" stroke-width="1" fill="none" fill-rule="evenodd">
        <g id="Artboard" transform="translate(-1282.000000, -2746.000000)">
            <g id="1000000" transform="translate(1282.000000, 2746.000000)">
                <g id="10">
                    <g id="1_miniscooter">
                        <rect id="Rectangle" fill="#FAFAFA" x="0" y="0" width="1250" height="1250"></rect>
                        <g id="Group" transform="translate(135.000000, 528.000000)">
                            <g id="Group-3" transform="translate(60.000000, 0.000000)">
                                <g id="Group-24" transform="translate(0.000000, 3.483282)">
                                    <path d="M270.95548,266.604544 L264.543497,266.604544 L264.543497,250.957795 C264.543497,248.817822 263.1248,247.400422 260.982867,247.400422 L230.008233,247.400422 L230.008233,241.355734 C230.008233,236.728303 233.568863,232.82373 237.491253,232.82373 C241.413644,232.82373 244.974274,236.742532 244.974274,241.355734 C244.974274,243.495707 246.392971,244.913107 248.534904,244.913107 C250.676837,244.913107 252.095534,243.495707 252.095534,241.355734 C252.095534,232.462301 245.336034,225.708984 237.491253,225.708984 C234.639972,225.708984 232.150308,226.417684 230.008233,228.196371 L230.008233,217.885681 C230.008233,214.328308 232.497897,211.479563 235.710938,211.479563 C238.909951,211.479563 241.413644,214.328237 241.413644,217.885681 C241.413644,220.025654 242.832341,221.443054 244.974274,221.443054 C247.116206,221.443054 248.534904,220.025654 248.534904,217.885681 C248.534904,210.409506 242.832199,204.364817 235.710938,204.364817 C233.569006,204.364817 231.788548,205.073517 230.008233,205.782217 L230.008233,198.667471 C230.008233,196.527498 231.426931,194.748669 233.207246,194.748669 C234.987561,194.748669 236.406258,196.527356 236.406258,198.667471 C236.406258,200.807444 237.824956,202.224844 239.966888,202.224844 C242.108821,202.224844 243.527518,200.807444 243.527518,198.667471 C243.527518,192.622783 238.895851,187.633923 233.207388,187.633923 C230.717724,187.633923 228.228203,188.70391 226.447888,190.482596 C224.667573,188.70391 222.17798,187.633923 219.688388,187.633923 C213.985682,187.633923 209.368257,192.608553 209.368257,198.667471 C209.368257,200.807444 210.786955,202.224844 212.928887,202.224844 C215.07082,202.224844 216.489517,200.807444 216.489517,198.667471 C216.489517,196.527498 217.908215,194.748669 219.68853,194.748669 C221.468845,194.748669 222.887543,196.527356 222.887543,198.667471 L222.887543,205.782217 C221.107227,204.71223 219.326912,204.364817 217.184837,204.364817 C210.063577,204.364817 204.360872,210.409506 204.360872,217.885681 C204.360872,220.025654 205.779569,221.443054 207.921502,221.443054 C210.063435,221.443054 211.482132,220.025654 211.482132,217.885681 C211.482132,214.328308 213.971796,211.479563 217.184837,211.479563 C220.38385,211.479563 222.887543,214.328237 222.887543,217.885681 L222.887543,228.196371 C220.74561,226.778971 217.908357,225.708984 215.404522,225.708984 C207.212224,225.708984 200.800242,232.82373 200.800242,241.355734 C200.800242,243.495707 202.218939,244.913107 204.360872,244.913107 C206.502804,244.913107 207.921502,243.495707 207.921502,241.355734 C207.921502,236.728303 211.482132,232.82373 215.404522,232.82373 C219.326912,232.82373 222.887543,236.742532 222.887543,241.355734 L222.887543,247.400422 L195.821056,247.400422 L196.530405,104.74265 C196.530405,103.672663 196.168788,102.963963 195.459439,102.255263 C194.75009,101.546564 194.040741,101.185277 192.969775,101.185277 L182.997162,101.185277 C181.926196,94.0705307 177.656217,88.0258425 172.315272,85.1770982 C171.953654,76.9922944 166.265049,69.5303488 160.562344,69.5303488 L155.930676,69.5303488 L155.930676,46.4074243 C155.930676,44.267451 154.511978,42.8500513 152.370046,42.8500513 C150.228113,42.8500513 148.809416,44.267451 148.809416,46.4074243 L148.809416,69.5303488 L143.844117,69.5164395 C138.141412,69.5164395 132.452949,76.9926146 132.091189,85.1631889 C127.112004,88.011862 122.480336,94.0566214 121.409299,101.171367 L111.436686,101.171367 C109.294753,101.171367 107.876055,102.588767 107.876055,104.72874 L107.876055,266.589212 L88.2925897,266.589212 L88.2925897,239.908915 C96.1231275,238.130228 101.825833,231.376911 101.825833,223.192107 C101.825833,216.78599 97.9034425,211.102731 92.5624973,208.253987 C95.0521611,206.114013 96.832405,202.917927 96.832405,198.999125 C96.832405,192.245808 91.4914598,186.909749 84.7319595,186.909749 C77.9724592,186.909749 72.631514,192.245808 72.631514,198.999125 C72.631514,202.556498 74.4118291,205.752442 76.9014217,208.253987 C71.5604765,211.10266 67.6380863,216.78599 67.6380863,223.192107 C67.6380863,231.376911 73.3407915,238.130228 81.1713294,239.908915 L81.1713294,266.589212 L57.6654734,266.589212 L57.6654734,257.33435 C64.0774562,255.555664 69.0566414,249.858175 69.0566414,242.743429 C69.0566414,234.558626 62.2971411,227.805309 54.1048432,227.805309 C45.9125454,227.805309 39.1530451,234.558626 39.1530451,242.743429 C39.1530451,249.858175 44.1322303,255.555664 50.5442131,257.33435 L50.5442131,266.589212 L26.3429661,266.603121 L26.3429661,250.956372 C32.3931888,249.538972 36.6630965,243.841626 36.6630965,237.435509 C36.6630965,232.808078 34.5211638,228.903505 30.9603912,226.401961 C33.4500551,224.261987 34.8827814,221.065901 34.8827814,217.508528 C34.8827814,210.755211 29.5418362,205.419152 22.7823359,205.419152 C16.0228357,205.419152 10.6818904,210.755211 10.6818904,217.508528 C10.6818904,221.065901 12.1005879,224.261845 14.6042806,226.401961 C11.0436505,228.889347 8.90157536,232.808078 8.90157536,237.435509 C8.90157536,243.841626 13.171483,249.177685 19.2217058,250.956372 L19.2217058,266.603121 L3.56063015,266.603121 C1.41869748,266.603121 0,268.020521 0,270.160494 C0,272.300468 1.41869748,273.717867 3.56063015,273.717867 L270.97104,273.717867 C273.112972,273.717867 274.53167,272.300468 274.53167,270.160494 C274.517783,268.020521 272.737433,266.603121 270.957153,266.603121 L270.95548,266.604544 Z M85.0941468,194.02702 C87.9454282,194.02702 90.073332,196.166994 90.073332,199.001651 C90.073332,201.850324 87.9313993,203.976281 85.0941468,203.976281 C82.2428654,203.976281 80.1149616,201.836308 80.1149616,199.001651 C80.1149616,196.166994 82.2430078,194.02702 85.0941468,194.02702 Z M75.1215339,223.194633 C75.1215339,217.858574 79.7532016,213.231143 85.0941468,213.231143 C90.435092,213.231143 95.0667597,217.858574 95.0667597,223.194633 C95.0667597,228.530693 90.435092,233.158123 85.0941468,233.158123 C79.7532016,233.158123 75.1215339,228.892122 75.1215339,223.194633 Z M46.6364927,243.121614 C46.6364927,238.855612 50.1971229,235.298239 54.4670305,235.298239 C58.7369382,235.298239 62.2975684,238.855612 62.2975684,243.121614 C62.2975684,247.387615 58.7369382,250.944988 54.4670305,250.944988 C50.1971229,250.597575 46.6364927,247.387615 46.6364927,243.121614 Z M22.7831193,212.522514 C25.6344007,212.522514 27.7623045,214.662487 27.7623045,217.497144 C27.7623045,220.345818 25.6203718,222.471775 22.7831193,222.471775 C19.9318379,222.471775 17.8039341,220.331802 17.8039341,217.497144 C17.8039341,214.662487 19.9319803,212.522514 22.7831193,212.522514 Z M16.023619,237.424125 C16.023619,233.866752 19.2226315,230.670808 22.7831193,230.670808 C26.343607,230.670808 29.5426195,233.866894 29.5426195,237.424125 C29.5426195,240.981356 26.343607,244.191316 22.7831193,244.191316 C19.2226315,244.191316 16.023619,240.981356 16.023619,237.424125 Z M195.835441,254.502361 L257.074719,254.502361 L257.074719,266.244538 L195.835441,266.244538 L195.835441,254.502361 Z M143.84312,76.2850887 L160.227716,76.2850887 C161.298682,76.2850887 163.788346,79.1337618 164.497623,83.0384056 L139.211452,83.0384056 C140.644036,79.1196035 143.133842,76.6322883 143.84312,76.2850887 Z M138.502175,90.1531516 L165.568661,90.1531516 C168.767673,90.1531516 174.108476,94.4191533 175.541274,100.825271 L128.530274,100.825271 C129.962858,94.7805824 135.651534,90.1531516 138.502887,90.1531516 L138.502175,90.1531516 Z M114.996319,107.940017 L189.060986,107.940017 L188.351638,266.243115 L171.257764,266.243115 L171.257764,238.49276 C171.257764,227.820641 162.717949,219.288637 152.036059,219.288637 C141.354168,219.288637 132.814353,227.820641 132.814353,238.49276 L132.814353,266.243115 L115.011202,266.243115 L114.996319,107.940017 Z M164.136575,266.605967 L139.921442,266.605967 L139.921442,238.855612 C139.921442,232.102295 145.262387,226.766236 152.021887,226.766236 C158.781388,226.766236 164.122333,232.102295 164.122333,238.855612 L164.136575,266.605967 Z" id="Fill-1" fill="#35495E"></path>
                                    <path d="M173.683301,143.505224 C175.609217,143.505224 176.884837,142.084674 176.884837,139.939945 L176.884837,127.099238 C176.884837,124.954509 175.609217,123.533959 173.683301,123.533959 C171.757386,123.533959 170.481766,124.954509 170.481766,127.099238 L170.481766,139.939945 C170.481766,142.084674 171.757386,143.505224 173.683301,143.505224 Z" id="Fill-2" fill="#3FBE79"></path>
                                    <path d="M152.873321,143.505224 C154.799236,143.505224 156.074856,142.084674 156.074856,139.939945 L156.074856,127.099238 C156.074856,124.954509 154.799236,123.533959 152.873321,123.533959 C150.947405,123.533959 149.671785,124.954509 149.671785,127.099238 L149.671785,139.939945 C149.671785,142.084674 151.272553,143.505224 152.873321,143.505224 Z" id="Fill-3" fill="#3FBE79"></path>
                                    <path d="M131.262956,143.505224 C133.188872,143.505224 134.464491,142.084674 134.464491,139.939945 L134.464491,127.099238 C134.464491,124.954509 133.188872,123.533959 131.262956,123.533959 C129.33704,123.533959 128.06142,124.954509 128.06142,127.099238 L128.06142,139.939945 C128.06142,142.084674 129.662188,143.505224 131.262956,143.505224 Z" id="Fill-4" fill="#3FBE79"></path>
                                    <path d="M173.683301,177.056948 C175.609217,177.056948 176.884837,175.636398 176.884837,173.491669 L176.884837,160.650962 C176.884837,158.506233 175.609217,157.085683 173.683301,157.085683 C171.757386,157.085683 170.481766,158.506233 170.481766,160.650962 L170.481766,173.491669 C170.481766,175.274309 171.757386,177.056948 173.683301,177.056948 Z" id="Fill-5" fill="#3FBE79"></path>
                                    <path d="M152.873321,177.056948 C154.799236,177.056948 156.074856,175.636398 156.074856,173.491669 L156.074856,160.650962 C156.074856,158.506233 154.799236,157.085683 152.873321,157.085683 C150.947405,157.085683 149.671785,158.506233 149.671785,160.650962 L149.671785,173.491669 C149.671785,175.274309 151.272553,177.056948 152.873321,177.056948 Z" id="Fill-6" fill="#3FBE79"></path>
                                    <path d="M131.262956,177.056948 C133.188872,177.056948 134.464491,175.636398 134.464491,173.491669 L134.464491,160.650962 C134.464491,158.506233 133.188872,157.085683 131.262956,157.085683 C129.33704,157.085683 128.06142,158.506233 128.06142,160.650962 L128.06142,173.491669 C128.06142,175.274309 129.662188,177.056948 131.262956,177.056948 Z" id="Fill-7" fill="#3FBE79"></path>
                                    <path d="M173.683301,209.809821 C175.609217,209.809821 176.884837,208.389272 176.884837,206.244543 L176.884837,193.403836 C176.884837,191.259107 175.609217,189.838557 173.683301,189.838557 C171.757386,189.838557 170.481766,191.259107 170.481766,193.403836 L170.481766,206.244543 C170.481766,208.389272 171.757386,209.809821 173.683301,209.809821 Z" id="Fill-8" fill="#3FBE79"></path>
                                    <path d="M152.873321,209.809821 C154.799236,209.809821 156.074856,208.389272 156.074856,206.244543 L156.074856,193.403836 C156.074856,191.259107 154.799236,189.838557 152.873321,189.838557 C150.947405,189.838557 149.671785,191.259107 149.671785,193.403836 L149.671785,206.244543 C149.671785,208.389272 151.272553,209.809821 152.873321,209.809821 Z" id="Fill-9" fill="#3FBE79"></path>
                                    <path d="M134.464491,206.244543 L134.464491,193.403836 C134.464491,191.259107 133.188872,189.838557 131.262956,189.838557 C129.33704,189.838557 128.06142,191.259107 128.06142,193.403836 L128.06142,206.244543 C128.06142,208.389272 129.33704,209.809821 131.262956,209.809821 C133.188872,209.809821 134.464491,208.389272 134.464491,206.244543 Z" id="Fill-10" fill="#3FBE79"></path>
                                    <g id="Group-2" transform="translate(208.900192, 0.510971)" fill="#3FBE79">
                                        <path d="M26.9346574,41.7957542 C26.9346574,51.0166399 34.358265,58.4511917 43.5339231,58.4511917 C52.7237106,58.4511917 60.1331887,51.0024627 60.1331887,41.7957542 C60.1331887,32.5748686 52.7095811,25.1402975 43.5339231,25.1402975 C34.3441356,25.1264585 26.9346574,32.575223 26.9346574,41.7957542 Z M43.1753885,32.2151207 C48.4739284,32.2151207 52.7099344,36.4654614 52.7099344,41.7819314 C52.7099344,47.0984015 48.4739284,51.3487421 43.1753885,51.3487421 C37.8768487,51.3487421 33.6408427,47.0984015 33.6408427,41.7819314 C33.9995892,36.4792842 38.2357364,32.2151207 43.1753885,32.2151207 Z" id="Fill-11"></path>
                                        <path d="M46.3526663,13.4349356 L46.3526663,3.53476521 C46.3526663,1.40839185 44.9799884,0 42.9075357,0 C40.8350829,0 39.4624051,1.40839185 39.4624051,3.53476521 L39.4624051,13.4349356 C39.4624051,15.561309 40.8350829,16.9697008 42.9075357,16.9697008 C44.9799884,16.9697008 46.3526663,15.5475234 46.3526663,13.4349356 Z" id="Fill-12"></path>
                                        <path d="M27.6703801,6.83333033 C26.5594832,5.01632185 24.3520935,4.64725108 22.5055477,5.38539261 C20.6588542,6.47843224 20.2837538,8.65033882 21.0339546,10.4672019 L26.198787,19.5522444 C26.9345836,20.645284 28.0454805,21.3692529 29.5170736,21.3692529 C30.2528702,21.3692529 30.6279706,21.3692529 31.3637672,21.0001821 C33.2104607,19.9071425 33.5855611,17.7352359 32.8353603,15.9183728 L27.6703801,6.83333033 Z" id="Fill-13"></path>
                                        <path d="M11.6488039,19.373164 C9.90053993,18.2735938 7.79702872,19.0018882 6.75925923,20.8297528 C5.70757355,22.6576173 6.40415185,24.856904 8.15241582,25.9419244 L16.5384884,31.054096 C17.2350667,31.4253719 17.5901741,31.4253719 18.2867524,31.4253719 C19.3384381,31.4253719 20.7315947,30.6970775 21.428173,29.5975073 C22.4798586,27.7696427 21.7832803,25.5703561 20.0350164,24.4853357 L11.6488039,19.373164 Z" id="Fill-14"></path>
                                        <path d="M3.52284188,38.9674611 C1.76142094,38.9674611 0,40.3447849 0,42.424252 C0,44.5037192 1.40364112,45.8810429 3.52284188,45.8810429 L13.3896174,45.8810429 C15.1510384,45.8810429 16.9124593,44.5037192 16.9124593,42.424252 C16.9124593,40.3447849 15.5088182,38.9674611 13.3896174,38.9674611 L3.52284188,38.9674611 Z" id="Fill-15"></path>
                                        <path d="M20.8020641,55.3976618 C19.731976,53.5697972 17.605675,52.8415029 15.8269622,53.9410731 L6.93268676,59.0532447 C5.15383167,60.1528149 4.44506465,62.337698 5.51515272,64.1654164 C6.22391974,65.2649866 7.2940078,65.9932809 8.71154184,65.9932809 C9.42030886,65.9932809 9.78162991,65.9932809 10.4903969,65.6220051 L19.3846724,60.5098334 C21.1496168,59.4245206 21.8583838,57.2253802 20.8022064,55.3976618 L20.8020641,55.3976618 Z" id="Fill-16"></path>
                                        <path d="M21.0187107,79.461189 C21.7339566,79.8204446 22.0985805,79.8204446 22.8138264,79.8204446 C23.8936962,79.8204446 25.3241879,79.1157293 26.0394338,78.0517585 L31.4247808,69.5677252 C32.5046505,67.7990391 31.7894046,65.670956 30.344911,64.621064 C28.5497953,63.5570932 26.3899122,64.2618085 25.3243315,65.6850348 L19.9389846,74.1690681 C18.8591148,76.2832139 19.5743607,78.397289 21.0188544,79.4613305 L21.0187107,79.461189 Z" id="Fill-17"></path>
                                        <path d="M38.5728799,72.0420759 L38.2096303,81.9422463 C38.2096303,84.0686196 39.6347305,85.4770115 41.7863298,85.4770115 C43.5746795,85.4770115 45.3630293,84.0686196 45.3630293,81.9422463 L45.7262789,72.0420759 C45.7262789,69.9157025 44.3011787,68.5073107 42.1495794,68.5073107 C40.3612297,68.5073107 38.5728799,70.2746933 38.5728799,72.0420759 Z" id="Fill-18"></path>
                                        <path d="M59.799314,67.3088349 C58.6848323,65.5091754 56.4703197,64.7921191 54.6178155,65.8747223 C52.7653112,66.9573254 52.0269921,69.1084944 53.1414737,70.9080099 L57.9613345,79.9063074 C58.6995053,80.9889105 59.813987,81.7059669 61.2903287,81.7059669 C62.0284996,81.7059669 62.4048104,81.7059669 63.1429812,81.34042 C64.9956337,80.2578169 65.7338046,78.1066479 64.619323,76.3071324 L59.799314,67.3088349 Z" id="Fill-19"></path>
                                        <path d="M74.9887529,67.7702053 C75.692142,68.1459729 76.3955311,68.5073107 76.7541105,68.5073107 C77.816079,68.5073107 79.2228572,67.7702053 79.5814367,66.6573324 C80.6434052,64.8073542 80.2848257,62.5814604 78.5194681,61.4833133 L70.0514008,55.9333785 C68.2860432,54.8205056 66.1619649,55.1962732 65.1140486,57.0462514 C64.0520801,58.8962297 64.4106595,61.1221235 66.1760171,62.2202706 L74.9887529,67.7702053 Z" id="Fill-20"></path>
                                        <path d="M82.8424812,48.3950727 C84.64197,48.3950727 86.4414587,46.9651492 86.4414587,44.8062676 C86.4414587,42.647386 85.0074821,41.2174625 83.2079933,41.2174625 L73.127977,40.8529834 C71.3284882,40.8529834 69.5289994,42.2829069 69.5289994,44.0773095 C69.5289994,46.2361911 70.962976,47.6661146 72.7624648,47.6661146 L82.8424812,48.3950727 C82.476969,48.3950727 82.476969,48.3950727 82.8424812,48.3950727 Z" id="Fill-21"></path>
                                        <path d="M76.5805054,21.6473176 L67.691191,26.2753863 C65.9133281,26.9841839 65.2049564,29.4719131 66.2744476,30.903455 C66.9828193,31.9735892 68.0523105,32.6823867 69.4690539,32.6823867 C70.1774256,32.6823867 70.5385451,32.6823867 71.2469168,32.3210501 L80.1362312,27.6929814 C81.9140941,26.9841839 82.6224657,24.4964546 81.5529745,23.0649127 C80.4834834,21.6473176 78.3583683,20.93852 76.5806476,21.6473176 L76.5805054,21.6473176 Z" id="Fill-22"></path>
                                        <path d="M67.2844718,7.50767928 C65.4642518,6.44936401 63.2741631,6.8067099 62.1936806,8.56599454 L56.3631519,17.0049311 C55.2681804,18.7642157 55.6379034,20.880987 57.4581234,21.9252984 C58.1833719,22.2826443 58.9086203,22.6262677 59.6480665,22.6262677 C60.743038,22.6262677 61.8380096,21.9252984 62.563258,21.224329 L68.3937867,12.7853924 C69.4603264,10.6687619 68.7350779,8.56592417 67.284581,7.50753853 L67.2844718,7.50767928 Z" id="Fill-23"></path>
                                    </g>
                                </g>
                                <g id="Group-33" transform="translate(557.067179, 0.000000)">
                                    <path d="M137.265835,198.514368 C146.752436,198.514368 154.474088,190.807508 154.474088,181.33908 C154.474088,171.870653 146.752436,164.163793 137.265835,164.163793 C127.779234,164.163793 120.057582,171.870653 120.057582,181.33908 C120.057582,190.807508 127.765467,198.514368 137.265835,198.514368 Z M137.265835,171.210065 C142.8639,171.210065 147.414292,175.751739 147.414292,181.33908 C147.414292,186.926422 142.8639,191.468096 137.265835,191.468096 C131.667769,191.468096 127.117378,186.926422 127.117378,181.33908 C127.117378,175.751739 131.667769,171.210065 137.265835,171.210065 Z" id="Fill-1" fill="#3FBE79"></path>
                                    <path d="M69.2332054,152.181034 C67.2353632,152.181034 65.6314779,153.707676 65.6314779,155.579463 L65.6314779,162.363066 C65.6314779,164.234852 67.2353632,165.761494 69.2332054,165.761494 C71.2310476,165.761494 72.8349328,164.234852 72.8349328,162.363066 L72.8349328,155.579463 C72.8349328,153.707676 71.2169648,152.181034 69.2332054,152.181034 Z" id="Fill-2" fill="#3FBE79"></path>
                                    <path d="M86.0412668,152.181034 C84.0434246,152.181034 82.4395393,153.707676 82.4395393,155.579463 L82.4395393,162.363066 C82.4395393,164.234852 84.0434246,165.761494 86.0412668,165.761494 C88.039109,165.761494 89.6429942,164.234852 89.6429942,162.363066 L89.6429942,155.579463 C89.6429942,153.707676 88.039109,152.181034 86.0412668,152.181034 Z" id="Fill-3" fill="#3FBE79"></path>
                                    <path d="M69.2332054,172.152299 C67.2353632,172.152299 65.6314779,173.678941 65.6314779,175.550727 L65.6314779,182.33433 C65.6314779,184.206117 67.2353632,185.732759 69.2332054,185.732759 C71.2310476,185.732759 72.8349328,184.206117 72.8349328,182.33433 L72.8349328,175.550727 C72.8349328,173.678941 71.2169648,172.152299 69.2332054,172.152299 Z" id="Fill-4" fill="#3FBE79"></path>
                                    <path d="M86.0412668,172.152299 C84.0434246,172.152299 82.4395393,173.678941 82.4395393,175.550727 L82.4395393,182.33433 C82.4395393,184.206117 84.0434246,185.732759 86.0412668,185.732759 C88.039109,185.732759 89.6429942,184.206117 89.6429942,182.33433 L89.6429942,175.550727 C89.6429942,173.678941 88.039109,172.152299 86.0412668,172.152299 Z" id="Fill-5" fill="#3FBE79"></path>
                                    <path d="M69.2332054,190.525862 C67.2353632,190.525862 65.6314779,192.052504 65.6314779,193.92429 L65.6314779,200.707893 C65.6314779,202.57968 67.2353632,204.106322 69.2332054,204.106322 C71.2310476,204.106322 72.8349328,202.57968 72.8349328,200.707893 L72.8349328,193.92429 C72.8349328,192.052504 71.2169648,190.525862 69.2332054,190.525862 Z" id="Fill-6" fill="#3FBE79"></path>
                                    <path d="M86.0412668,190.525862 C84.0434246,190.525862 82.4395393,192.052504 82.4395393,193.92429 L82.4395393,200.707893 C82.4395393,202.57968 84.0434246,204.106322 86.0412668,204.106322 C88.039109,204.106322 89.6429942,202.57968 89.6429942,200.707893 L89.6429942,193.92429 C89.6429942,192.052504 88.039109,190.525862 86.0412668,190.525862 Z" id="Fill-7" fill="#3FBE79"></path>
                                    <path d="M69.2332054,210.497126 C67.2353632,210.497126 65.6314779,212.023768 65.6314779,213.895555 L65.6314779,220.679158 C65.6314779,222.550944 67.2353632,224.077586 69.2332054,224.077586 C71.2310476,224.077586 72.8349328,222.550944 72.8349328,220.679158 L72.8349328,213.895555 C72.8349328,212.010481 71.2169648,210.497126 69.2332054,210.497126 Z" id="Fill-8" fill="#3FBE79"></path>
                                    <path d="M86.0412668,210.497126 C84.0434246,210.497126 82.4395393,212.023768 82.4395393,213.895555 L82.4395393,220.679158 C82.4395393,222.550944 84.0434246,224.077586 86.0412668,224.077586 C88.039109,224.077586 89.6429942,222.550944 89.6429942,220.679158 L89.6429942,213.895555 C89.6429942,212.010481 88.039109,210.497126 86.0412668,210.497126 Z" id="Fill-9" fill="#3FBE79"></path>
                                    <path d="M69.2332054,230.468391 C67.2353632,230.468391 65.6314779,231.995033 65.6314779,233.866819 L65.6314779,240.650422 C65.6314779,242.522209 67.2353632,244.048851 69.2332054,244.048851 C71.2310476,244.048851 72.8349328,242.522209 72.8349328,240.650422 L72.8349328,233.866819 C72.8349328,231.981745 71.2169648,230.468391 69.2332054,230.468391 Z" id="Fill-10" fill="#3FBE79"></path>
                                    <path d="M86.0412668,230.468391 C84.0434246,230.468391 82.4395393,231.995033 82.4395393,233.866819 L82.4395393,240.650422 C82.4395393,242.522209 84.0434246,244.048851 86.0412668,244.048851 C88.039109,244.048851 89.6429942,242.522209 89.6429942,240.650422 L89.6429942,233.866819 C89.6429942,231.981745 88.039109,230.468391 86.0412668,230.468391 Z" id="Fill-11" fill="#3FBE79"></path>
                                    <path d="M207.699616,165.761494 C209.697458,165.761494 211.301344,164.234852 211.301344,162.363066 L211.301344,155.579463 C211.301344,153.707676 209.697458,152.181034 207.699616,152.181034 C205.701774,152.181034 204.097889,153.707676 204.097889,155.579463 L204.097889,162.363066 C204.097889,164.234852 205.715857,165.761494 207.699616,165.761494 Z" id="Fill-12" fill="#3FBE79"></path>
                                    <path d="M190.891555,165.761494 C192.889397,165.761494 194.493282,164.234852 194.493282,162.363066 L194.493282,155.579463 C194.493282,153.707676 192.889397,152.181034 190.891555,152.181034 C188.893713,152.181034 187.289827,153.707676 187.289827,155.579463 L187.289827,162.363066 C187.289827,164.234852 188.893713,165.761494 190.891555,165.761494 Z" id="Fill-13" fill="#3FBE79"></path>
                                    <path d="M207.699616,185.732759 C209.697458,185.732759 211.301344,184.206117 211.301344,182.33433 L211.301344,175.550727 C211.301344,173.678941 209.697458,172.152299 207.699616,172.152299 C205.701774,172.152299 204.097889,173.678941 204.097889,175.550727 L204.097889,182.33433 C204.097889,184.206117 205.715857,185.732759 207.699616,185.732759 Z" id="Fill-14" fill="#3FBE79"></path>
                                    <path d="M190.891555,185.732759 C192.889397,185.732759 194.493282,184.206117 194.493282,182.33433 L194.493282,175.550727 C194.493282,173.678941 192.889397,172.152299 190.891555,172.152299 C188.893713,172.152299 187.289827,173.678941 187.289827,175.550727 L187.289827,182.33433 C187.289827,184.206117 188.893713,185.732759 190.891555,185.732759 Z" id="Fill-15" fill="#3FBE79"></path>
                                    <path d="M207.699616,204.106322 C209.697458,204.106322 211.301344,202.57968 211.301344,200.707893 L211.301344,193.92429 C211.301344,192.052504 209.697458,190.525862 207.699616,190.525862 C205.701774,190.525862 204.097889,192.052504 204.097889,193.92429 L204.097889,200.707893 C204.097889,202.57968 205.715857,204.106322 207.699616,204.106322 Z" id="Fill-16" fill="#3FBE79"></path>
                                    <path d="M190.891555,204.106322 C192.889397,204.106322 194.493282,202.57968 194.493282,200.707893 L194.493282,193.92429 C194.493282,192.052504 192.889397,190.525862 190.891555,190.525862 C188.893713,190.525862 187.289827,192.052504 187.289827,193.92429 L187.289827,200.707893 C187.289827,202.57968 188.893713,204.106322 190.891555,204.106322 Z" id="Fill-17" fill="#3FBE79"></path>
                                    <path d="M207.699616,224.077586 C209.697458,224.077586 211.301344,222.550944 211.301344,220.679158 L211.301344,213.895555 C211.301344,212.023768 209.697458,210.497126 207.699616,210.497126 C205.701774,210.497126 204.097889,212.023768 204.097889,213.895555 L204.097889,220.679158 C204.097889,222.550944 205.715857,224.077586 207.699616,224.077586 Z" id="Fill-18" fill="#3FBE79"></path>
                                    <path d="M190.891555,224.077586 C192.889397,224.077586 194.493282,222.550944 194.493282,220.679158 L194.493282,213.895555 C194.493282,212.023768 192.889397,210.497126 190.891555,210.497126 C188.893713,210.497126 187.289827,212.023768 187.289827,213.895555 L187.289827,220.679158 C187.289827,222.550944 188.893713,224.077586 190.891555,224.077586 Z" id="Fill-19" fill="#3FBE79"></path>
                                    <path d="M207.699616,244.048851 C209.697458,244.048851 211.301344,242.522209 211.301344,240.650422 L211.301344,233.866819 C211.301344,231.995033 209.697458,230.468391 207.699616,230.468391 C205.701774,230.468391 204.097889,231.995033 204.097889,233.866819 L204.097889,240.650422 C204.097889,242.535496 205.715857,244.048851 207.699616,244.048851 Z" id="Fill-20" fill="#3FBE79"></path>
                                    <path d="M190.891555,244.048851 C192.889397,244.048851 194.493282,242.522209 194.493282,240.650422 L194.493282,233.866819 C194.493282,231.995033 192.889397,230.468391 190.891555,230.468391 C188.893713,230.468391 187.289827,231.995033 187.289827,233.866819 L187.289827,240.650422 C187.289827,242.535496 188.893713,244.048851 190.891555,244.048851 Z" id="Fill-21" fill="#3FBE79"></path>
                                    <path d="M147.670825,79.4856322 C149.668668,79.4856322 151.272553,77.9573414 151.272553,76.0835335 L151.272553,68.5084205 C151.272553,66.6346126 149.668668,65.1063218 147.670825,65.1063218 C145.672983,65.1063218 144.069098,66.6346126 144.069098,68.5084205 L144.069098,76.0835335 C144.069098,77.9706436 145.687066,79.4856322 147.670825,79.4856322 Z" id="Fill-22" fill="#3FBE79"></path>
                                    <path d="M129.261996,79.4856322 C131.259838,79.4856322 132.863724,77.9573414 132.863724,76.0835335 L132.863724,68.5084205 C132.863724,66.6346126 131.259838,65.1063218 129.261996,65.1063218 C127.264154,65.1063218 125.660269,66.6346126 125.660269,68.5084205 L125.660269,76.0835335 C125.660269,77.9706436 127.278237,79.4856322 129.261996,79.4856322 Z" id="Fill-23" fill="#3FBE79"></path>
                                    <path d="M147.670825,101.054598 C149.668668,101.054598 151.272553,99.5263069 151.272553,97.652499 L151.272553,90.0773861 C151.272553,88.2035781 149.668668,86.6752874 147.670825,86.6752874 C145.672983,86.6752874 144.069098,88.2035781 144.069098,90.0773861 L144.069098,97.652499 C144.069098,99.5263069 145.687066,101.054598 147.670825,101.054598 Z" id="Fill-24" fill="#3FBE79"></path>
                                    <path d="M129.261996,101.054598 C131.259838,101.054598 132.863724,99.5263069 132.863724,97.652499 L132.863724,90.0773861 C132.863724,88.2035781 131.259838,86.6752874 129.261996,86.6752874 C127.264154,86.6752874 125.660269,88.2035781 125.660269,90.0773861 L125.660269,97.652499 C125.660269,99.5263069 127.278237,101.054598 129.261996,101.054598 Z" id="Fill-25" fill="#3FBE79"></path>
                                    <path d="M147.670825,34.75 C149.668668,34.75 151.272553,33.2217092 151.272553,31.3479013 L151.272553,23.7727884 C151.272553,21.8989804 149.668668,20.3706897 147.670825,20.3706897 C145.672983,20.3706897 144.069098,21.8989804 144.069098,23.7727884 L144.069098,31.3479013 C144.069098,33.2217092 145.687066,34.75 147.670825,34.75 Z" id="Fill-26" fill="#3FBE79"></path>
                                    <path d="M129.261996,34.75 C131.259838,34.75 132.863724,33.2217092 132.863724,31.3479013 L132.863724,23.7727884 C132.863724,21.8989804 131.259838,20.3706897 129.261996,20.3706897 C127.264154,20.3706897 125.660269,21.8989804 125.660269,23.7727884 L125.660269,31.3479013 C125.660269,33.2217092 127.278237,34.75 129.261996,34.75 Z" id="Fill-27" fill="#3FBE79"></path>
                                    <path d="M147.670825,57.9166667 C149.668668,57.9166667 151.272553,56.3883759 151.272553,54.514568 L151.272553,46.939455 C151.272553,45.0656471 149.668668,43.5373563 147.670825,43.5373563 C145.672983,43.5373563 144.069098,45.0656471 144.069098,46.939455 L144.069098,54.514568 C144.069098,56.4016781 145.687066,57.9166667 147.670825,57.9166667 Z" id="Fill-28" fill="#3FBE79"></path>
                                    <path d="M129.261996,57.9166667 C131.259838,57.9166667 132.863724,56.3883759 132.863724,54.514568 L132.863724,46.939455 C132.863724,45.0656471 131.259838,43.5373563 129.261996,43.5373563 C127.264154,43.5373563 125.660269,45.0656471 125.660269,46.939455 L125.660269,54.514568 C125.660269,56.4016781 127.278237,57.9166667 129.261996,57.9166667 Z" id="Fill-29" fill="#3FBE79"></path>
                                    <path d="M147.670825,123.422414 C149.668668,123.422414 151.272553,121.894123 151.272553,120.020315 L151.272553,112.445202 C151.272553,110.571394 149.668668,109.043103 147.670825,109.043103 C145.672983,109.043103 144.069098,110.571394 144.069098,112.445202 L144.069098,120.020315 C144.069098,121.894123 145.687066,123.422414 147.670825,123.422414 Z" id="Fill-30" fill="#3FBE79"></path>
                                    <path d="M129.261996,123.422414 C131.259838,123.422414 132.863724,121.894123 132.863724,120.020315 L132.863724,112.445202 C132.863724,110.571394 131.259838,109.043103 129.261996,109.043103 C127.264154,109.043103 125.660269,110.571394 125.660269,112.445202 L125.660269,120.020315 C125.660269,121.894123 127.278237,123.422414 129.261996,123.422414 Z" id="Fill-31" fill="#3FBE79"></path>
                                    <path d="M273.470123,269.893567 L263.517849,269.893567 L263.517849,257.814381 C271.171234,256.221812 276.932821,249.43313 276.932821,241.335539 C276.932821,235.585997 274.024542,230.51157 269.602756,227.461456 C274.024335,224.424781 276.932821,219.350044 276.932821,213.587373 C276.932821,204.301937 269.359401,196.744024 260.056189,196.744024 C250.752977,196.744024 243.180595,204.301937 243.180595,213.587373 C243.180595,219.336915 246.087836,224.411341 250.509623,227.461456 C246.088044,230.49813 243.180595,235.572867 243.180595,241.335539 C243.180595,249.433475 248.941144,256.22195 256.594529,257.814381 L256.594529,269.893567 L228.60389,269.893567 L228.60389,130.814145 C228.60389,130.490234 228.576855,130.166324 228.482178,129.855922 C228.401071,129.545486 228.265824,129.248594 228.103542,128.978652 L204.777836,88.678995 C204.182846,87.6532609 203.101077,87.0054398 201.911166,86.951472 C200.667115,86.924488 199.585346,87.464339 198.922784,88.4495454 L175.313223,122.784065 L175.326758,3.8544713 C175.326758,1.95150106 173.785246,0.399425287 171.865098,0.399425287 L103.971555,0.399425287 C102.051406,0.399425287 100.509894,1.95150106 100.509894,3.8544713 L100.509894,120.54174 L80.2671436,88.5690899 C79.6316174,87.5703743 78.5227784,86.9630464 77.3463678,86.9630464 C76.1564221,86.9630464 75.0476177,87.5703743 74.4255919,88.5690899 L48.9093479,128.868747 C48.7200297,129.152164 48.5712822,129.4626 48.4766404,129.799985 C48.3819986,130.13737 48.3414279,130.47479 48.3414279,130.81221 L48.3278928,269.891632 L20.3372541,269.891632 L20.3372541,257.812446 C27.9906388,256.219877 33.7511876,249.431195 33.7511876,241.333604 C33.7511876,235.584062 30.8439469,230.509636 26.4221605,227.459521 C30.8437392,224.422847 33.7511876,219.34811 33.7511876,213.598913 C33.7511876,204.313477 26.1788058,196.755564 16.8755938,196.755564 C7.57238184,196.755564 0,204.313477 0,213.598913 C0,219.348455 2.90724076,224.422881 7.32902712,227.472996 C2.90744846,230.50967 0,235.584407 0,241.333604 C0,249.431541 5.76054885,256.220015 13.4139335,257.812446 L13.4139335,269.891632 L3.46166027,269.891632 C1.54151193,269.891632 0,271.443708 0,273.346678 C0,275.249648 1.54151193,276.801724 3.46166027,276.801724 L273.471161,276.801724 C275.39131,276.801724 276.932821,275.249648 276.932821,273.346678 C276.932821,271.443708 275.39131,269.891632 273.471161,269.891632 L273.470123,269.893567 Z M260.056189,203.667245 C265.546036,203.667245 270.008462,208.121145 270.008462,213.600502 C270.008462,219.07986 265.546036,223.53376 260.056189,223.53376 C254.566342,223.53376 250.103916,219.07986 250.103916,213.600502 C250.103916,208.121145 254.566342,203.667245 260.056189,203.667245 Z M250.103916,241.334157 C250.103916,235.854799 254.566342,231.400899 260.056189,231.400899 C265.546036,231.400899 270.008462,235.854799 270.008462,241.334157 C270.008462,246.813514 265.546036,251.267414 260.056189,251.267414 C254.566342,251.267414 250.103916,246.813514 250.103916,241.334157 Z M16.8745553,203.667245 C22.3644023,203.667245 26.8268286,208.121145 26.8268286,213.600502 C26.8268286,219.07986 22.3644023,223.53376 16.8745553,223.53376 C11.3847083,223.53376 6.92228204,219.07986 6.92228204,213.600502 C6.92228204,208.121145 11.3847083,203.667245 16.8745553,203.667245 Z M6.92228204,241.334157 C6.92228204,235.854799 11.3847083,231.400899 16.8745553,231.400899 C22.3644023,231.400899 26.8268286,235.854799 26.8268286,241.334157 C26.8268286,246.813514 22.3644023,251.267414 16.8745553,251.267414 C11.3847083,251.267414 6.92228204,246.813514 6.92228204,241.334157 Z M201.533361,96.8821379 L219.139019,127.302782 L180.628048,127.302782 L201.533361,96.8821379 Z M221.681262,134.21391 L221.681262,269.893567 L175.326169,269.893567 L175.326169,134.21391 L221.681262,134.21391 Z M148.97255,269.893567 L126.877465,269.893567 L126.877465,247.125505 L148.97255,247.125505 L148.97255,269.893567 Z M152.43421,240.215413 L123.415804,240.215413 C121.495656,240.215413 119.954144,241.767488 119.954144,243.670459 L119.954144,269.893567 L107.432626,269.893567 L107.432626,215.759906 L168.402849,215.759906 L168.402849,269.893567 L155.881331,269.893567 L155.881331,243.670459 C155.894866,241.753979 154.339819,240.215413 152.433206,240.215413 L152.43421,240.215413 Z M168.403887,208.85016 L107.433665,208.85016 L107.433665,152.543275 L168.403887,152.543275 L168.403887,208.85016 Z M168.403887,7.31041562 L168.403887,145.633183 L107.433665,145.633183 L107.433665,7.31041562 L168.403887,7.31041562 Z M77.3310672,96.8721183 L96.5865525,127.292762 L58.0617354,127.306271 L77.3310672,96.8721183 Z M55.2494826,134.217711 L100.507229,134.217711 L100.507229,269.897367 L55.2494826,269.897367 L55.2494826,134.217711 Z" id="Fill-32" fill="#35495E"></path>
                                </g>
                                <g id="Group-36" transform="translate(268.928983, 7.988506)">
                                    <path d="M86.0412668,88.4282663 C83.8746116,88.4282663 82.4395393,89.9206426 82.4395393,92.1738148 L82.4395393,96.6654765 C82.4395393,98.9186486 83.8746116,100.411025 86.0412668,100.411025 C88.207922,100.411025 89.6429942,98.9186486 89.6429942,96.6654765 L89.6429942,92.1738148 C89.6429942,89.9206426 88.1938752,88.4282663 86.0412668,88.4282663 Z" id="Fill-1" fill="#3FBE79"></path>
                                    <path d="M69.2332054,88.4282663 C67.0665502,88.4282663 65.6314779,89.9206426 65.6314779,92.1738148 L65.6314779,96.6654765 C65.6314779,98.9186486 67.0665502,100.411025 69.2332054,100.411025 C71.3998605,100.411025 72.8349328,98.9186486 72.8349328,96.6654765 L72.8349328,92.1738148 C72.8349328,89.9206426 71.0340691,88.4282663 69.2332054,88.4282663 Z" id="Fill-2" fill="#3FBE79"></path>
                                    <path d="M86.0412668,106.002979 C83.8746116,106.002979 82.4395393,107.495355 82.4395393,109.748527 L82.4395393,114.240189 C82.4395393,116.493361 83.8746116,117.985738 86.0412668,117.985738 C88.207922,117.985738 89.6429942,116.493361 89.6429942,114.240189 L89.6429942,109.748527 C89.6429942,107.875753 88.1938752,106.002979 86.0412668,106.002979 Z" id="Fill-3" fill="#3FBE79"></path>
                                    <path d="M69.2332054,106.002979 C67.0665502,106.002979 65.6314779,107.495355 65.6314779,109.748527 L65.6314779,114.240189 C65.6314779,116.493361 67.0665502,117.985738 69.2332054,117.985738 C71.3998605,117.985738 72.8349328,116.493361 72.8349328,114.240189 L72.8349328,109.748527 C72.8349328,107.875753 71.0340691,106.002979 69.2332054,106.002979 Z" id="Fill-4" fill="#3FBE79"></path>
                                    <path d="M86.0412668,122.778841 C83.8746116,122.778841 82.4395393,124.271217 82.4395393,126.524389 L82.4395393,131.016051 C82.4395393,133.269223 83.8746116,134.7616 86.0412668,134.7616 C88.207922,134.7616 89.6429942,133.269223 89.6429942,131.016051 L89.6429942,126.524389 C89.6429942,124.271217 88.1938752,122.778841 86.0412668,122.778841 Z" id="Fill-5" fill="#3FBE79"></path>
                                    <path d="M69.2332054,122.778841 C67.0665502,122.778841 65.6314779,124.271217 65.6314779,126.524389 L65.6314779,131.016051 C65.6314779,133.269223 67.0665502,134.7616 69.2332054,134.7616 C71.3998605,134.7616 72.8349328,133.269223 72.8349328,131.016051 L72.8349328,126.524389 C72.8349328,124.271217 71.0340691,122.778841 69.2332054,122.778841 Z" id="Fill-6" fill="#3FBE79"></path>
                                    <path d="M86.0412668,141.152404 C83.8746116,141.152404 82.4395393,142.644781 82.4395393,144.897953 L82.4395393,149.389614 C82.4395393,151.642787 83.8746116,153.135163 86.0412668,153.135163 C88.207922,153.135163 89.6429942,151.642787 89.6429942,149.389614 L89.6429942,144.897953 C89.6429942,143.025178 88.1938752,141.152404 86.0412668,141.152404 Z" id="Fill-7" fill="#3FBE79"></path>
                                    <path d="M69.2332054,141.152404 C67.0665502,141.152404 65.6314779,142.644781 65.6314779,144.897953 L65.6314779,149.389614 C65.6314779,151.642787 67.0665502,153.135163 69.2332054,153.135163 C71.3998605,153.135163 72.8349328,151.642787 72.8349328,149.389614 L72.8349328,144.897953 C72.8349328,143.025178 71.0340691,141.152404 69.2332054,141.152404 Z" id="Fill-8" fill="#3FBE79"></path>
                                    <path d="M86.0412668,157.928266 C83.8746116,157.928266 82.4395393,159.420643 82.4395393,161.673815 L82.4395393,166.165476 C82.4395393,168.418649 83.8746116,169.911025 86.0412668,169.911025 C88.207922,169.911025 89.6429942,168.418649 89.6429942,166.165476 L89.6429942,161.673815 C89.6429942,159.43525 88.1938752,157.928266 86.0412668,157.928266 Z" id="Fill-9" fill="#3FBE79"></path>
                                    <path d="M69.2332054,157.928266 C67.0665502,157.928266 65.6314779,159.420643 65.6314779,161.673815 L65.6314779,166.165476 C65.6314779,168.418649 67.0665502,169.911025 69.2332054,169.911025 C71.3998605,169.911025 72.8349328,168.418649 72.8349328,166.165476 L72.8349328,161.673815 C72.8349328,159.43525 71.0340691,157.928266 69.2332054,157.928266 Z" id="Fill-10" fill="#3FBE79"></path>
                                    <path d="M162.878119,114.790335 C165.044774,114.790335 166.479846,113.393492 166.479846,111.284555 L166.479846,103.916806 C166.479846,101.807868 165.044774,100.411025 162.878119,100.411025 C160.711464,100.411025 159.276392,101.807868 159.276392,103.916806 L159.276392,111.284555 C159.276392,113.037445 160.711464,114.790335 162.878119,114.790335 Z" id="Fill-11" fill="#3FBE79"></path>
                                    <path d="M146.870441,114.790335 C149.037097,114.790335 150.472169,113.393492 150.472169,111.284555 L150.472169,103.916806 C150.472169,101.807868 149.037097,100.411025 146.870441,100.411025 C144.703786,100.411025 143.268714,101.807868 143.268714,103.916806 L143.268714,111.284555 C143.268714,113.037445 145.069578,114.790335 146.870441,114.790335 Z" id="Fill-12" fill="#3FBE79"></path>
                                    <path d="M132.463532,114.790335 C134.630187,114.790335 136.065259,113.393492 136.065259,111.284555 L136.065259,103.916806 C136.065259,101.807868 134.630187,100.411025 132.463532,100.411025 C130.296877,100.411025 128.861804,101.807868 128.861804,103.916806 L128.861804,111.284555 C128.861804,113.037445 130.662668,114.790335 132.463532,114.790335 Z" id="Fill-13" fill="#3FBE79"></path>
                                    <path d="M162.878119,145.945508 C165.044774,145.945508 166.479846,144.548664 166.479846,142.439727 L166.479846,135.071978 C166.479846,132.963041 165.044774,131.566197 162.878119,131.566197 C160.711464,131.566197 159.276392,132.963041 159.276392,135.071978 L159.276392,142.439727 C159.276392,144.548664 160.711464,145.945508 162.878119,145.945508 Z" id="Fill-14" fill="#3FBE79"></path>
                                    <path d="M146.870441,145.945508 C149.037097,145.945508 150.472169,144.548664 150.472169,142.439727 L150.472169,135.071978 C150.472169,132.963041 149.037097,131.566197 146.870441,131.566197 C144.703786,131.566197 143.268714,132.963041 143.268714,135.071978 L143.268714,142.439727 C143.268714,144.548664 145.069578,145.945508 146.870441,145.945508 Z" id="Fill-15" fill="#3FBE79"></path>
                                    <path d="M132.463532,145.945508 C134.630187,145.945508 136.065259,144.548664 136.065259,142.439727 L136.065259,135.071978 C136.065259,132.963041 134.630187,131.566197 132.463532,131.566197 C130.296877,131.566197 128.861804,132.963041 128.861804,135.071978 L128.861804,142.439727 C128.861804,144.548664 130.662668,145.945508 132.463532,145.945508 Z" id="Fill-16" fill="#3FBE79"></path>
                                    <path d="M162.878119,177.10068 C165.044774,177.10068 166.479846,175.703837 166.479846,173.594899 L166.479846,166.227151 C166.479846,164.118213 165.044774,162.72137 162.878119,162.72137 C160.711464,162.72137 159.276392,164.118213 159.276392,166.227151 L159.276392,173.594899 C159.276392,175.34779 160.711464,177.10068 162.878119,177.10068 Z" id="Fill-17" fill="#3FBE79"></path>
                                    <path d="M146.870441,177.10068 C149.037097,177.10068 150.472169,175.703837 150.472169,173.594899 L150.472169,166.227151 C150.472169,164.118213 149.037097,162.72137 146.870441,162.72137 C144.703786,162.72137 143.268714,164.118213 143.268714,166.227151 L143.268714,173.594899 C143.268714,175.34779 145.069578,177.10068 146.870441,177.10068 Z" id="Fill-18" fill="#3FBE79"></path>
                                    <path d="M132.463532,177.10068 C134.630187,177.10068 136.065259,175.703837 136.065259,173.594899 L136.065259,166.227151 C136.065259,164.118213 134.630187,162.72137 132.463532,162.72137 C130.296877,162.72137 128.861804,164.118213 128.861804,166.227151 L128.861804,173.594899 C128.861804,175.34779 130.662668,177.10068 132.463532,177.10068 Z" id="Fill-19" fill="#3FBE79"></path>
                                    <path d="M162.878119,209.054703 C165.044774,209.054703 166.479846,207.65786 166.479846,205.548922 L166.479846,198.181173 C166.479846,196.072236 165.044774,194.675393 162.878119,194.675393 C160.711464,194.675393 159.276392,196.072236 159.276392,198.181173 L159.276392,205.548922 C159.276392,207.644187 160.711464,209.054703 162.878119,209.054703 Z" id="Fill-20" fill="#3FBE79"></path>
                                    <path d="M146.870441,209.054703 C149.037097,209.054703 150.472169,207.65786 150.472169,205.548922 L150.472169,198.181173 C150.472169,196.072236 149.037097,194.675393 146.870441,194.675393 C144.703786,194.675393 143.268714,196.072236 143.268714,198.181173 L143.268714,205.548922 C143.268714,207.644187 145.069578,209.054703 146.870441,209.054703 Z" id="Fill-21" fill="#3FBE79"></path>
                                    <path d="M132.463532,209.054703 C134.630187,209.054703 136.065259,207.65786 136.065259,205.548922 L136.065259,198.181173 C136.065259,196.072236 134.630187,194.675393 132.463532,194.675393 C130.296877,194.675393 128.861804,196.072236 128.861804,198.181173 L128.861804,205.548922 C128.861804,207.644187 130.662668,209.054703 132.463532,209.054703 Z" id="Fill-22" fill="#3FBE79"></path>
                                    <path d="M162.878119,239.411025 C165.044774,239.411025 166.479846,238.014182 166.479846,235.905244 L166.479846,228.537495 C166.479846,226.428558 165.044774,225.031715 162.878119,225.031715 C160.711464,225.031715 159.276392,226.428558 159.276392,228.537495 L159.276392,235.905244 C159.276392,237.658135 160.711464,239.411025 162.878119,239.411025 Z" id="Fill-23" fill="#3FBE79"></path>
                                    <path d="M146.870441,239.411025 C149.037097,239.411025 150.472169,238.014182 150.472169,235.905244 L150.472169,228.537495 C150.472169,226.428558 149.037097,225.031715 146.870441,225.031715 C144.703786,225.031715 143.268714,226.428558 143.268714,228.537495 L143.268714,235.905244 C143.268714,237.658135 145.069578,239.411025 146.870441,239.411025 Z" id="Fill-24" fill="#3FBE79"></path>
                                    <path d="M132.463532,239.411025 C134.630187,239.411025 136.065259,238.014182 136.065259,235.905244 L136.065259,228.537495 C136.065259,226.428558 134.630187,225.031715 132.463532,225.031715 C130.296877,225.031715 128.861804,226.428558 128.861804,228.537495 L128.861804,235.905244 C128.861804,237.658135 130.662668,239.411025 132.463532,239.411025 Z" id="Fill-25" fill="#3FBE79"></path>
                                    <path d="M290.495494,261.727614 L273.454202,261.727614 L273.454202,251.977305 C279.616222,250.171157 283.965029,244.752714 283.965029,238.247692 C283.965029,233.548818 281.783518,229.216953 278.156949,226.691236 C280.33846,224.518223 281.783373,221.639802 281.783373,218.027506 C281.783373,211.522484 276.343737,205.751481 269.459333,205.751481 C262.57493,205.751481 257.135294,211.169924 257.135294,218.027506 C257.135294,221.272937 258.580206,224.532528 260.761718,226.691236 C257.135294,229.217025 254.953637,233.548818 254.953637,238.247692 C254.953637,245.105274 259.670889,250.890727 266.201354,252.329865 L266.201354,262.080174 L246.256022,262.094298 L246.256022,158.056572 C246.256022,155.883559 244.811109,154.444276 242.629598,154.444276 L229.21473,154.444276 L229.21473,28.0139294 C229.21473,25.8409169 227.769818,24.4016338 225.588306,24.4016338 L191.505723,24.4016338 L191.505723,4.1669987 C191.505723,1.99398615 190.06081,0.554703089 187.879298,0.554703089 C185.697787,0.554703089 184.252874,1.99398615 184.252874,4.1669987 L184.252874,24.4016338 L147.25247,24.4016338 C145.070959,24.4016338 143.626046,25.8409169 143.626046,28.0139294 L143.626046,76.0610734 L112.432997,76.0610734 C110.251486,76.0610734 108.806573,77.5003565 108.806573,79.673369 L108.806573,180.098799 L102.998493,180.098799 L103.012636,76.4295276 C103.012636,74.256515 101.567723,72.817232 99.3862117,72.817232 L55.1474652,72.817232 C52.9659535,72.817232 51.5210412,74.256515 51.5210412,76.4295276 L51.5210412,179.748407 L43.8997484,179.748407 C41.7182368,179.748407 40.2733244,181.18769 40.2733244,183.360702 L40.2733244,261.743905 L22.509649,261.743905 L22.509649,252.346157 C28.3177297,250.540009 32.6665374,245.121565 32.6665374,238.616544 C32.6665374,233.917669 30.4850258,229.952814 26.8584567,227.412647 C29.0399683,225.239635 30.1165811,222.361213 30.1165811,219.101478 C30.1165811,212.596456 24.6769451,207.178012 18.1464807,207.178012 C11.6160163,207.178012 6.17638033,212.596456 6.17638033,219.101478 C6.17638033,222.346909 7.62129271,225.23949 9.43450472,227.412647 C5.8080807,229.938437 3.62642402,234.270229 3.62642402,238.616544 C3.62642402,245.474126 8.34367637,250.892569 14.5056961,252.346157 L14.5056961,261.743905 L3.62642402,261.743905 C1.44491238,261.743905 0,263.183188 0,265.356201 C0,267.529213 1.44491238,268.968496 3.62642402,268.968496 L290.113921,268.968496 C292.295433,268.968496 293.740883,267.529213 293.740883,265.356201 C293.768668,263.183188 292.677912,261.729817 290.4964,261.729817 L290.495494,261.727614 Z M269.459333,212.961623 C271.995001,212.961623 274.530524,215.134635 274.530524,218.013057 C274.530524,220.905711 272.349013,223.064491 269.459333,223.064491 C266.555365,223.064491 264.388142,220.891479 264.388142,218.013057 C264.388142,215.134635 266.92381,212.961623 269.459333,212.961623 Z M262.206485,237.894771 C262.206485,233.915466 265.46461,230.670179 269.459333,230.670179 C273.454202,230.670179 276.712181,233.91561 276.712181,237.894771 C276.712181,241.874076 273.454057,245.119362 269.459333,245.119362 C265.478608,245.119362 262.206485,241.859843 262.206485,237.894771 Z M18.1590281,214.414849 C20.6946963,214.414849 22.8762805,216.587862 22.8762805,219.113723 C22.8762805,221.639513 20.6947689,223.812597 18.1590281,223.812597 C15.6233599,223.812597 13.4417758,221.639585 13.4417758,219.113723 C13.4417758,216.221069 15.6091444,214.414849 18.1590281,214.414849 Z M11.2604817,238.61434 C11.2604817,234.635035 14.5186061,231.756758 18.1448851,231.756758 C21.771164,231.756758 25.0292884,235.002189 25.0292884,238.61434 C25.0292884,242.226491 21.771164,245.471922 18.1448851,245.471922 C14.5326404,245.471922 11.2604817,242.593356 11.2604817,238.61434 Z M224.127945,261.727252 L196.929765,261.727252 L196.929765,230.65573 C196.929765,223.06413 203.091785,216.926117 210.344633,216.926117 C217.597481,216.926117 223.7595,223.06413 223.7595,230.65573 L223.77368,261.727252 L224.127945,261.727252 Z M210.713077,209.348966 C199.111422,209.348966 190.045362,218.746714 190.045362,230.30317 L190.045362,261.374692 L183.883342,261.374692 L183.883342,202.490661 L239.00136,202.490661 L239.00136,261.725085 L231.380068,261.725085 L231.380068,230.653563 C231.380068,219.111195 221.959706,209.346798 210.712352,209.346798 L210.713077,209.348966 Z M239.002086,195.266793 L183.514172,195.266793 L183.514172,181.537179 L239.002086,181.537179 L239.002086,195.266793 Z M239.002086,174.312588 L183.514172,174.312588 L183.514172,161.669554 L239.002086,161.669554 L239.002086,174.312588 Z M150.876356,31.2729064 L221.961519,31.2729064 L221.961519,154.090957 L183.514172,154.090957 L183.514172,79.6704431 C183.514172,77.4974305 182.06926,76.0581475 179.887748,76.0581475 L150.876356,76.0581475 L150.876356,31.2729064 Z M176.261324,83.2827387 L176.261324,261.722918 L116.069938,261.722918 L116.069938,83.2827387 L176.261324,83.2827387 Z M58.7724386,80.0373078 L96.1282324,80.0373078 L96.1282324,179.743891 L58.7724386,179.729803 L58.7724386,80.0373078 Z M47.5247219,186.954033 L109.17393,186.954033 L109.17393,261.72494 L99.7394254,261.72494 L99.7394254,230.653418 C99.7394254,219.096962 90.3049207,209.699214 79.0717097,209.699214 C67.470054,209.699214 58.4039939,219.096962 58.4039939,230.653418 L58.4039939,261.72494 L47.8931666,261.72494 L47.8931666,186.954033 L47.5247219,186.954033 Z M92.4996325,261.72494 L65.3014524,261.72494 L65.3014524,230.653418 C65.3014524,223.061818 71.4634721,216.923805 78.7163201,216.923805 C86.3376128,216.923805 92.1311879,223.061818 92.1311879,230.653418 L92.1311879,261.72494 L92.4996325,261.72494 Z" id="Fill-26" fill="#35495E"></path>
                                    <path d="M194.139742,82.0374617 L211.654883,82.0374617 C213.849603,82.0374617 215.303263,80.6051386 215.303263,78.4426341 C215.303263,76.2801296 213.849603,74.8478065 211.654883,74.8478065 L194.139742,74.8478065 C191.945023,74.8478065 190.491363,76.2801296 190.491363,78.4426341 C190.491363,80.6051386 191.945023,82.0374617 194.139742,82.0374617 Z" id="Fill-27" fill="#3FBE79"></path>
                                    <path d="M194.139742,98.0144732 L211.654883,98.0144732 C213.849603,98.0144732 215.303263,96.5821501 215.303263,94.4196456 C215.303263,92.2571411 213.849603,90.824818 211.654883,90.824818 L194.139742,90.824818 C191.945023,90.824818 190.491363,92.2571411 190.491363,94.4196456 C190.491363,96.5681303 191.945023,98.0144732 194.139742,98.0144732 Z" id="Fill-28" fill="#3FBE79"></path>
                                    <path d="M194.139742,113.192634 L211.654883,113.192634 C213.849603,113.192634 215.303263,111.760311 215.303263,109.597807 C215.303263,107.435302 213.849603,106.002979 211.654883,106.002979 L194.139742,106.002979 C191.945023,106.002979 190.491363,107.435302 190.491363,109.597807 C190.491363,111.760311 191.945023,113.192634 194.139742,113.192634 Z" id="Fill-29" fill="#3FBE79"></path>
                                    <path d="M194.139742,49.2845881 L211.654883,49.2845881 C213.849603,49.2845881 215.303263,47.852265 215.303263,45.6897606 C215.303263,43.5272561 213.849603,42.094933 211.654883,42.094933 L194.139742,42.094933 C191.945023,42.094933 190.491363,43.5272561 190.491363,45.6897606 C190.491363,47.8382452 191.945023,49.2845881 194.139742,49.2845881 Z" id="Fill-30" fill="#3FBE79"></path>
                                    <path d="M194.139742,64.4627491 L211.654883,64.4627491 C213.849603,64.4627491 215.303263,63.030426 215.303263,60.8679215 C215.303263,58.705417 213.849603,57.2730939 211.654883,57.2730939 L194.139742,57.2730939 C191.945023,57.2730939 190.491363,58.705417 190.491363,60.8679215 C190.491363,63.030426 191.945023,64.4627491 194.139742,64.4627491 Z" id="Fill-31" fill="#3FBE79"></path>
                                    <path d="M162.924771,49.2845881 L180.439912,49.2845881 C182.634631,49.2845881 184.088292,47.852265 184.088292,45.6897606 C184.088292,43.5272561 182.634631,42.094933 180.439912,42.094933 L162.924771,42.094933 C160.730052,42.094933 159.276392,43.5272561 159.276392,45.6897606 C159.276392,47.8382452 160.744281,49.2845881 162.924771,49.2845881 Z" id="Fill-32" fill="#3FBE79"></path>
                                    <path d="M184.088292,60.8679215 C184.088292,58.705417 182.634631,57.2730939 180.439912,57.2730939 L162.924771,57.2730939 C160.730052,57.2730939 159.276392,58.705417 159.276392,60.8679215 C159.276392,63.030426 160.730052,64.4627491 162.924771,64.4627491 L180.439912,64.4627491 C182.264102,64.4627491 184.088292,62.6653353 184.088292,60.8679215 Z" id="Fill-33" fill="#3FBE79"></path>
                                    <path d="M194.139742,129.169646 L211.654883,129.169646 C213.849603,129.169646 215.303263,127.737323 215.303263,125.574818 C215.303263,123.412314 213.849603,121.97999 211.654883,121.97999 L194.139742,121.97999 C191.945023,121.97999 190.491363,123.412314 190.491363,125.574818 C190.491363,127.723303 191.945023,129.169646 194.139742,129.169646 Z" id="Fill-34" fill="#3FBE79"></path>
                                    <path d="M194.139742,145.945508 L211.654883,145.945508 C213.849603,145.945508 215.303263,144.513185 215.303263,142.35068 C215.303263,140.188176 213.849603,138.755853 211.654883,138.755853 L194.139742,138.755853 C191.945023,138.755853 190.491363,140.188176 190.491363,142.35068 C190.491363,144.513185 191.945023,145.945508 194.139742,145.945508 Z" id="Fill-35" fill="#3FBE79"></path>
                                </g>
                            </g>
                            <g id="miniscooter" transform="translate(0.000000, 400.000000)">
                                <path d="M39.6312563,44.1874765 C36.7009755,53.1750639 32.7137369,61.7085825 26.2010425,69.8036636 C25.2492433,70.9876164 24.8070631,72.4992917 24.9719477,74.0107573 C25.1443149,75.5149029 25.9087627,76.8924354 27.1004447,77.8455603 C28.2920692,78.7912319 29.8135398,79.2305653 31.3347993,79.0593078 C32.8486914,78.8954847 34.2426325,78.1359585 35.1944509,76.9519485 C42.3517956,68.0684424 46.7135453,58.8574425 49.8836513,49.6086989 C56.8984439,55.2008739 61.3952632,63.7492612 61.3952632,73.3777293 C61.3952632,90.2211639 47.6502068,103.877729 30.6976316,103.877729 C13.7450564,103.877729 0,90.2211639 0,73.3777293 C0,56.5342957 13.7450564,42.8777293 30.6976316,42.8777293 C33.8081075,42.8769297 36.7984405,43.3311509 39.6312563,44.1874765 Z M165,84.814429 C165,95.34341 156.411186,103.876929 145.81398,103.876929 C139.713402,103.876929 134.279921,101.077029 130.76485,96.6690163 L147.852303,90.116282 C149.388681,89.6620608 150.662671,88.5972295 151.374664,87.1675039 C152.086638,85.7452699 152.169081,84.0847165 151.599505,82.6029884 C151.029911,81.1137306 149.860772,79.929854 148.37683,79.3265259 C146.892906,78.7308228 145.229171,78.7755053 143.775255,79.45312 L126.687802,86.0058543 C126.665316,85.6112033 126.627845,85.2165524 126.627845,84.814448 C126.627845,74.285467 135.216659,65.7519484 145.813865,65.7519484 C156.411186,65.7519484 165,74.2854479 165,84.814429 Z" id="Fill-1" fill="#3FBE79" transform="translate(82.500000, 73.377729) scale(-1, 1) translate(-82.500000, -73.377729) "></path>
                                <path d="M34.1750401,0.880035126 C37.2757795,0.880035126 39.8072574,3.32694622 39.9270918,6.40451243 L44.0014618,9.16675109 C45.364583,10.0824884 45.9937808,11.7789161 45.5593091,13.3701577 C44.5706848,16.9955599 43.7243471,20.6661187 42.8631308,24.3591598 C50.7422912,29.7185753 56.1871833,37.6524933 59.1606106,47.5369842 C62.4711081,58.5334803 62.9128656,71.9234682 61.0180439,87.5284352 L61.0180439,87.5884839 C61.0330184,88.0913939 61.4524389,89.0596666 62.2763052,89.8703332 C63.1151461,90.6960072 64.2160888,91.1914039 64.8528409,91.1914039 L108.17346,91.1914039 L132.500804,81.8238119 C134.40318,80.9005613 137.009645,81.9514225 137.773518,83.9256113 C138.53739,85.8998001 137.286683,88.3692126 135.256995,88.9696993 L110.331438,98.5774859 C109.897043,98.7651452 109.425183,98.8627219 108.953342,98.8777293 L64.8542789,98.8777293 C61.6561382,98.8777293 58.9223798,97.4065465 56.8853865,95.3949066 C54.8483933,93.3832667 53.3501755,90.7036166 53.3501755,87.5284352 C53.3426787,87.3708099 53.3426787,87.2056713 53.3501755,87.0480459 C55.2225834,71.923276 54.7432458,59.3584049 51.8522454,49.7583045 C49.6053023,42.3047758 46.0478501,36.6377189 40.9473141,32.4642886 C37.4197725,47.2737308 33.060676,62.2330546 21.8336298,76.2988542 C20.5079544,77.9576962 18.09633,78.2279056 16.4410813,76.8993409 C14.7858326,75.5707762 14.5162531,73.1538414 15.8419093,71.4949609 C29.7950445,54.0207029 32.1618221,34.6106681 37.471541,14.0884359 L34.8351839,12.3470245 C34.6104896,12.3770585 34.4082667,12.4070732 34.1760947,12.4070732 C31.0005787,12.4070732 28.424043,9.82488447 28.424043,6.64240123 C28.424043,3.45991799 31.0005787,0.877729258 34.1760947,0.877729258 L34.1750401,0.880035126 Z" id="Path" stroke="#C8C5C5" fill="#35495E" transform="translate(76.500000, 49.877729) scale(-1, 1) translate(-76.500000, -49.877729) "></path>
                            </g>
                            <g id="scooter" transform="translate(584.500000, 424.000000) scale(-1, 1) translate(-584.500000, -424.000000) translate(468.000000, 345.000000)">
                                <path d="M221.708536,109.763064 L225.725574,106.348593 C226.414594,105.766556 226.570617,104.757678 226.076591,103.994554 L221.656517,97.0616402 L224.243596,97.0616402 L224.308595,97.0616402 C225.322639,97.0616402 226.128676,96.2597096 226.128676,95.2508312 C226.128676,94.9792165 226.076691,94.7205153 225.959674,94.4877074 C223.853608,81.0877603 216.898207,80.7645908 208.071039,80.7516772 C205.509953,78.6692535 202.857875,77.6862684 199.776704,77.6862684 C196.513584,77.6862684 193.120468,78.7986206 189.181307,80.0791137 C184.384158,81.6441682 178.416842,83.5972248 170.746529,84.0756879 C157.174131,84.6706709 144.888716,84.7353379 135.02251,84.7870583 C116.379724,84.8775855 113.974826,84.9810593 113.272593,87.1540103 C113.038593,87.8912739 113.285606,88.6802579 113.896615,89.1458737 C122.021882,95.3155645 125.909124,102.300132 124.569889,108.288371 C123.165823,114.548457 116.392703,119.282427 105.485129,121.662491 L86.3744101,121.662491 C85.3863584,121.662491 84.5023437,121.339156 83.6573013,120.601893 C83.5532976,120.537226 83.4492939,120.420805 83.1632754,120.084523 C72.8667439,110.125206 67.7188109,99.2086317 67.8745668,87.6066463 C68.1215798,68.619111 82.5911719,53.369217 85.4773159,50.511683 L99.8557842,50.511683 C100.440801,50.511683 100.999825,50.2271216 101.337828,49.7485592 C102.195851,48.5327331 102.650871,47.1099593 102.650871,45.6225185 C102.650871,44.2644117 102.299854,43.0227254 101.597821,41.9362003 C101.259817,41.418831 100.68778,41.0954628 100.063758,41.0954628 L88.0642287,41.0954628 L81.8369871,34.0205 C81.4859705,33.3091297 81.8890056,29.7004251 83.9430535,25.0571807 C84.7490904,23.2463717 85.5161217,21.9529651 86.1401439,21.0735201 C87.5052048,26.2859535 92.0032894,28.006434 93.8234371,28.006434 C94.8244685,28.006434 95.6434851,27.1915898 95.6434851,26.1956249 L95.6434851,2.73305234 C95.6434851,2.18982288 95.3964721,1.6724536 94.9674777,1.3232252 C94.53845,0.973996796 93.979426,0.844662754 93.433415,0.961050147 C89.2992268,1.85350801 86.4783139,5.19039913 84.8531939,11.1531421 C81.0182035,13.5459875 75.414984,20.1164614 73.3868289,30.2568993 C67.6275206,30.3086527 64.3253619,30.6190743 61.3483604,30.9812163 L54.1459801,26.3637989 C53.846982,26.1697979 53.5089451,26.0792375 53.1579617,26.0792375 C51.6888972,26.0792375 50.7398843,27.2433101 50.3238695,29.558608 C50.1028825,30.8391011 49.9858659,32.5593498 49.9858659,34.6935602 C49.9858659,39.7377865 50.4018806,51.4563248 54.2109117,51.4563248 C54.4709376,51.4563248 54.7309302,51.4046044 54.9649301,51.2881839 L61.2440904,48.4297228 L61.829107,49.0893728 L60.3600424,49.8395499 C54.0419432,51.8055532 33.7480779,67.7274479 31.4989357,90.6595721 C22.3985298,93.4404195 -0.599098599,108.353767 0.0119438707,114.898281 C0.102967899,115.816599 0.713977087,117.950777 4.62704514,117.950777 C5.49808019,117.950777 6.51212447,117.860249 7.69517058,117.666248 C6.79762782,119.404229 17.1420882,99.6471353 42.2301169,109.763362 C61.829107,117.666248 53.1579617,142.064076 56.6810409,141.309942 C57.3435414,141.698426 57.9727611,142.064076 58.5753369,142.408235 C68.2245785,147.919355 71.0415941,147.919355 94.2787903,147.919355 L140.403178,147.919355 C143.406272,147.919355 146.240364,146.755282 148.359377,144.634052 C150.491436,142.512854 151.661502,139.718961 151.661502,136.757125 C151.661502,133.639963 150.361473,130.652002 148.086438,128.569611 C147.878431,128.375577 147.605425,128.23333 147.319407,128.155716 C145.941366,127.677154 144.615311,126.978697 143.263096,126.060379 C143.211111,126.021572 143.146113,125.982765 143.094095,125.956905 C138.466014,122.671602 135.709666,117.355496 135.709666,111.716253 C135.709666,107.073009 137.529747,102.752934 140.623965,99.5709061 C139.882927,101.73091 139.505917,104.033361 139.505917,106.348526 C139.505917,116.928687 147.436157,125.931078 157.966655,127.288986 C158.473661,127.366566 158.993679,127.198426 159.383701,126.862144 L164.063701,122.90431 C163.439679,125.193682 163.127668,127.560468 163.127668,129.953446 C163.127668,139.049699 167.306714,122.059088 172.41206,115.294878 C173.749849,113.522404 178.216829,109.763064 183.085608,108.288371 C187.954386,106.813679 196.801074,106.348593 204.922662,109.763362 C214.459819,113.773317 217.806586,123.476634 216.934197,121.662491 C222.966411,125.322983 226.192942,125.73701 227.415027,128.99652 C227.714058,129.77259 228.507082,130.251153 229.326099,130.160592 C231.757189,129.876031 232.576205,128.440344 232.836265,127.599606 C234.318309,122.91729 225.347999,113.397695 221.707704,109.763362 L221.708536,109.763064 Z" id="Fill-1" fill="#35495E"></path>
                                <path d="M143.636032,54.9193548 C136.171258,54.9193548 112.571622,55.2529759 109.473906,59.2821169 L109.447995,59.2692727 C105.910024,64.3379738 106.791266,77.477834 108.450104,82.6618374 C108.696342,83.4189233 109.396173,83.9193548 110.18671,83.9193548 C110.277448,83.9193548 110.368153,83.9065435 110.471831,83.8936993 C111.184601,83.7910441 111.741871,83.2777683 111.936287,82.6105262 C114.683722,80.8653885 132.464417,80.8653885 142.119522,80.8653885 L147.381026,80.8653885 C160.61292,80.8653885 171.95241,80.7498892 176.34601,79.4282163 C179.572982,78.9020963 182.074312,78.1065435 184.704899,77.2596138 C189.072289,75.8609414 193.595279,74.4109249 202.278305,74.0516483 C202.809664,74.0259927 203.315079,73.7693384 203.639084,73.3459064 C203.950116,72.9352858 204.079704,72.3835102 203.950116,71.8702344 C200.439316,56.5749772 160.602635,54.9193548 143.636032,54.9193548 Z" id="Fill-2" fill="#35495E"></path>
                                <circle id="Oval" fill="#3FBE79" cx="27" cy="136.919355" r="21"></circle>
                                <circle id="Oval" fill="#3FBE79" cx="192" cy="136.919355" r="21"></circle>
                            </g>
                            <g id="pedelec" transform="translate(211.000000, 391.000000)">
                                <g id="Group-9" transform="translate(0.000000, 37.189944)" fill="#3FBE79">
                                    <path d="M39,78 C17.4608948,78 0,60.5391052 0,39 C0,17.4608948 17.4608948,0 39,0 C60.5391052,0 78,17.4608948 78,39 C78,60.5391052 60.5391052,78 39,78 Z M38.8,64.7536232 C53.1594035,64.7536232 64.8,53.1130267 64.8,38.7536232 C64.8,24.3942197 53.1594035,12.7536232 38.8,12.7536232 C24.4405965,12.7536232 12.8,24.3942197 12.8,38.7536232 C12.8,53.1130267 24.4405965,64.7536232 38.8,64.7536232 Z" id="Combined-Shape"></path>
                                    <rect id="Rectangle" x="8.58" y="36.66" width="60.06" height="3.9"></rect>
                                    <polygon id="Rectangle" transform="translate(38.610000, 38.610000) scale(-1, -1) rotate(90.000000) translate(-38.610000, -38.610000) " points="8.58 36.66 68.64 36.66 68.64 40.56 8.58 40.56"></polygon>
                                    <polygon id="Rectangle" transform="translate(38.610000, 38.610000) scale(-1, -1) rotate(45.000000) translate(-38.610000, -38.610000) " points="8.58 36.66 68.64 36.66 68.64 40.56 8.58 40.56"></polygon>
                                    <polygon id="Rectangle" transform="translate(38.610000, 38.610000) scale(-1, -1) rotate(135.000000) translate(-38.610000, -38.610000) " points="8.58 36.66 68.64 36.66 68.64 40.56 8.58 40.56"></polygon>
                                </g>
                                <g id="Group-9" transform="translate(139.000000, 37.189944)" fill="#3FBE79">
                                    <path d="M39,78 C17.4608948,78 0,60.5391052 0,39 C0,17.4608948 17.4608948,0 39,0 C60.5391052,0 78,17.4608948 78,39 C78,60.5391052 60.5391052,78 39,78 Z M38.8,64.7536232 C53.1594035,64.7536232 64.8,53.1130267 64.8,38.7536232 C64.8,24.3942197 53.1594035,12.7536232 38.8,12.7536232 C24.4405965,12.7536232 12.8,24.3942197 12.8,38.7536232 C12.8,53.1130267 24.4405965,64.7536232 38.8,64.7536232 Z" id="Combined-Shape"></path>
                                    <rect id="Rectangle" x="8.58" y="36.66" width="60.06" height="3.9"></rect>
                                    <rect id="Rectangle" transform="translate(38.610000, 38.610000) scale(-1, -1) rotate(90.000000) translate(-38.610000, -38.610000) " x="8.58" y="36.66" width="60.06" height="3.9"></rect>
                                    <polygon id="Rectangle" transform="translate(38.610000, 38.610000) scale(-1, -1) rotate(45.000000) translate(-38.610000, -38.610000) " points="8.58 36.66 68.64 36.66 68.64 40.56 8.58 40.56"></polygon>
                                    <polygon id="Rectangle" transform="translate(38.610000, 38.610000) scale(-1, -1) rotate(135.000000) translate(-38.610000, -38.610000) " points="8.58 36.66 68.64 36.66 68.64 40.56 8.58 40.56"></polygon>
                                </g>
                                <path d="M137.80712,8.50909191 L148.679617,8.50909191 L149.72425,9.55297121 C149.139249,11.5495953 148.554248,13.7616591 148.086251,15.6918782 C135.639716,15.0677578 116.877019,15.1778035 91.7981602,16.0220154 L12,16.0220154 L18.3183446,30.2113845 L82.6574242,30.2113845 C78.5456862,33.1855041 74.7869473,35.9958915 70.8840161,40.0304546 C69.3532171,41.6128819 33.4797071,72.7661726 35.7902733,76.2652334 C37.3306507,78.5979406 47.2102002,79.7642942 65.4289218,79.7642942 L91.2160522,81.1396469 C94.7257566,85.1731784 98.1013767,87.1899441 101.342912,87.1899441 C106.205216,87.1899441 111.289737,84.8098416 113.3624,80.750252 L117.357112,81.9846718 L116.571541,82.7634403 L119.521578,85.6879311 L125.480271,79.7642942 L122.463271,76.8398033 L120.69158,78.662451 L114.599174,76.7735468 C114.783035,75.7628169 114.699448,74.8017795 114.66603,73.8490559 C133.97081,64.0482257 146.147494,53.0957539 155.222884,42.1672481 C155.423447,42.8079256 161.895212,54.6810893 174.638181,77.7867392 C176.312147,78.6222864 177.560435,78.6222864 178.383044,77.7867392 C179.205652,76.9511919 179.205652,75.6832705 178.383044,73.9829747 C165.438762,40.7932972 158.20335,21.4729774 156.676808,16.0220154 L158.515355,9.88310846 C159.050208,8.40843462 158.657433,6.63560651 157.529214,5.52532224 L153.334039,1.35820376 C152.556833,0.612584774 151.470417,0.181769028 150.384002,0.189944134 L137.806607,0.189944134 C135.182403,0.21491849 133.394067,2.63395961 133.419098,4.54784791 C133.519886,6.71948758 135.617431,8.6085615 137.80712,8.50909191 Z M152.356627,32.2778709 C143.381147,44.1166613 131.973796,55.7730554 111.08093,66.3690061 C108.916486,64.173464 105.983137,62.7321093 102.690366,62.5995539 L93.9739695,34.1669448 C105.37861,27.4452888 124.117729,24.0844608 150.191327,24.0844608 C151.13903,27.7130154 151.860796,30.4441521 152.356627,32.2778709 Z M94.6923844,65.0686904 C93.1520633,65.4525602 91.5201271,67.2711924 89.7965757,70.524587 L52.4380997,69.1032534 L78.972833,46.2697856 C82.3880494,42.933772 84.9648298,40.5698315 86.7031742,39.1779641 L94.6923844,65.0686904 Z M104.070266,67.0321438 C105.165047,67.2806905 106.201314,67.7032136 107.087267,68.3328413 C106.335135,68.6890866 105.566272,69.0204752 104.797453,69.3767206 L104.070266,67.0321438 Z M96.0808421,69.4429559 L96.5404736,71.0004928 L94.9693529,71.0004928 C95.295271,70.4371428 95.6379194,69.9069211 96.0808421,69.4429559 Z M107.218627,78.8709766 L109.316257,79.5254611 C107.84541,81.9031873 105.221206,83.4274687 102.171045,83.4274687 C99.0539203,83.4274687 96.4130288,81.8036753 94.9672134,79.3265219 L97.5244539,79.3265219 C98.6777259,80.5692343 100.340777,81.4059878 102.179389,81.4059878 C104.235236,81.4059878 106.073762,80.3786727 107.22712,78.8708918 L107.218627,78.8709766 Z" id="Fill-1" stroke="#C8C5C5" fill="#35495E"></path>
                            </g>
                            <g id="minicar" transform="translate(747.000000, 354.000000)">
                                <path d="M179.387299,33.1294943 C155.847902,16.9642151 144.091878,12.684956 153.214007,6.49710327 C162.336136,0.309250566 145.364992,0.574777603 139.467413,0.574777603 L54.9354558,0.574777603 C49.0378774,0.574777603 36.6773049,0.574777603 28.0306686,0.309250566 C19.3840322,0.0437235284 5.67070025,4.65754449 2.27505582,16.9642151 C-1.12058861,29.2708857 0.290853066,59.8149372 0.290853066,68.1329182 L0.290853066,115.612768 C0.290853066,123.930749 5.40523309,130.298469 12.0860099,130.298469 L20.7326463,130.298469 C20.7326463,110.220179 33.3901889,93.584217 54.9354558,93.584217 C76.4807227,93.584217 85.4878645,110.220179 85.4878645,130.298469 L142.119873,130.298469 C142.119873,110.220179 150.023073,93.584217 174.396585,93.584217 C198.770097,93.584217 207.489297,110.220179 207.489297,130.298469 L216.135933,130.298469 C222.81671,130.298469 233,123.930749 233,115.612768 L233,74.4370744 C233,74.4370744 232.633461,62.6884993 224.620262,57.8593574 C213.140586,50.9411494 216.381166,52.9008505 201.987719,46.081164 C184.633281,37.8585453 186.273601,37.8585453 179.387299,33.1294943 Z M138.188419,34.3194863 L125.329482,61.2432714 L133.908458,65.6413452 C137.723359,67.5918021 138.188609,72.4868399 134.857539,75.4318125 L99.5931248,105.30057 C94.8291442,109.220575 88.1671936,103.828182 90.549184,97.9577196 L103.40812,71.0339346 L94.8291442,67.1139293 C91.0142438,65.1634724 90.5489934,60.2684346 93.8800639,57.323462 L129.609919,27.4547044 C133.890069,23.0566307 140.570885,28.4490242 138.188895,34.3192905 L138.188419,34.3194863 Z" id="Shape" fill="#35495E"></path>
                                <path d="M54.5,103.298469 C42,103.298469 32,113.298469 32,125.798469 C32,138.298469 42,148.298469 54.5,148.298469 C67,148.298469 77,138.298469 77,125.798469 C77,113.806469 67,103.298469 54.5,103.298469 L54.5,103.298469 Z" id="wheel" fill="#3FBE79"></path>
                                <path d="M176.5,103.298469 C164,103.298469 154,113.298469 154,125.798469 C154,138.298469 164,148.298469 176.5,148.298469 C189,148.298469 199,138.298469 199,125.798469 C199,113.806469 189,103.298469 176.5,103.298469 L176.5,103.298469 Z" id="wheel" fill="#3FBE79"></path>
                            </g>
                        </g>
                        <rect id="Rectangle" fill="#35495E" x="0" y="0" width="1250" height="269"></rect>
                    </g>
                </g>
                <text id="1.PLACE-FOR-YOUR-CIT" font-family="PalanquinDark-SemiBold, Palanquin Dark SemiBold" font-size="90" font-weight="500" fill="#FAFAFA">
                    <tspan x="115.15" y="168">1.PLACE FOR YOUR CITY</tspan>
                </text>
            </g>
        </g>
    </g>
</svg>