<?xml version="1.0" encoding="UTF-8"?>
<svg width="1250px" height="1250px" viewBox="0 0 1250 1250" version="1.1" xmlns="http://www.w3.org/2000/svg" xmlns:xlink="http://www.w3.org/1999/xlink">
    <!-- Generator: Sketch 55.1 (78136) - https://sketchapp.com -->
    <title>25</title>
    <desc>Created with Sketch.</desc>
    <g id="Offers" stroke="none" stroke-width="1" fill="none" fill-rule="evenodd">
        <g id="Artboard" transform="translate(-1250.000000, 0.000000)">
            <g id="25" transform="translate(1250.000000, 0.000000)">
                <g id="10">
                    <g id="1_miniscooter">
                        <rect id="Rectangle" fill="#FAFAFA" x="0" y="0" width="1250" height="1250"></rect>
                        <rect id="Rectangle" fill="#35495E" x="0" y="0" width="1250" height="269"></rect>
                    </g>
                    <g id="Group-4" transform="translate(306.000000, 867.000000)" fill="#3FBE79" font-family="PalanquinDark-SemiBold, Palanquin Dark SemiBold" font-size="200" font-weight="500">
                        <text id="+30">
                            <tspan x="45.2" y="264">+30 </tspan>
                        </text>
                    </g>
                </g>
                <text id="25-€" font-family="PalanquinDark-SemiBold, Palanquin Dark SemiBold" font-size="125" font-weight="500" fill="#FAFAFA">
                    <tspan x="75" y="172">25 €</tspan>
                </text>
                <text id="+20-%" font-family="PalanquinDark-SemiBold, Palanquin Dark SemiBold" font-size="125" font-weight="500" fill="#3FBE79">
                    <tspan x="817.225" y="175">+20 </tspan>
                    <tspan x="1060.6" y="175" font-size="100">%</tspan>
                    <tspan x="1157" y="175"> </tspan>
                </text>
                <g id="Group-5" transform="translate(730.000000, 1031.000000)" fill="#3FBE79">
                    <path d="M50,96.875 C24.1116524,96.875 3.125,75.8883476 3.125,50 C3.125,24.1116524 24.1116524,3.125 50,3.125 C75.8883476,3.125 96.875,24.1116524 96.875,50 C96.875,75.8883476 75.8883476,96.875 50,96.875 Z M50.5,78 C65.6878306,78 78,65.6878306 78,50.5 C78,35.3121694 65.6878306,23 50.5,23 C35.3121694,23 23,35.3121694 23,50.5 C23,65.6878306 35.3121694,78 50.5,78 Z" id="Combined-Shape"></path>
                    <path d="M50,-8.75 C56.2132034,-8.75 61.25,-3.71320344 61.25,2.5 L61.25,98.125 C61.25,104.338203 56.2132034,109.375 50,109.375 C43.7867966,109.375 38.75,104.338203 38.75,98.125 L38.75,2.5 C38.75,-3.71320344 43.7867966,-8.75 50,-8.75 Z" id="Rectangle" transform="translate(50.000000, 50.312500) rotate(45.000000) translate(-50.000000, -50.312500) "></path>
                </g>
                <g id="Group-6" transform="translate(372.000000, 397.000000)">
                    <path d="M531.272646,524.549718 L505.108361,524.549718 L505.108361,492.343842 C522.709031,489.165284 536.106576,473.771883 536.106576,455.278604 C536.106576,440.305101 527.332469,427.407553 514.670639,421.312841 C523.313609,415.875212 529.092401,406.339338 529.092401,395.385265 C529.092401,378.468286 515.326999,364.703235 498.409589,364.703235 C481.492179,364.703235 467.726776,378.468286 467.726776,395.385265 C467.726776,406.313111 473.506107,415.875145 482.148539,421.312841 C469.434254,427.380923 460.660146,440.305101 460.660146,455.278604 C460.660146,473.771883 474.057691,489.165688 491.658361,492.343842 L491.658361,524.549718 L435.231576,524.549718 L435.231576,357.404106 L443.637826,357.404106 C446.343563,357.404106 448.786621,355.801714 449.837469,353.30613 C450.888251,350.83684 450.362826,347.947249 448.471487,346.003639 L367.979962,262.64939 C365.458087,260.02247 360.83465,260.02247 358.312775,262.64939 L277.82125,346.003639 C275.956138,347.947518 275.404419,350.810815 276.455268,353.30613 C277.506116,355.801445 279.949107,357.404106 282.654911,357.404106 L289.800223,357.404106 L289.800223,524.549718 L253.337946,524.549718 L253.337946,426.064605 L264.791293,426.064605 C268.521584,426.064605 271.516293,423.043677 271.516293,419.339776 C271.516293,415.635875 268.521584,412.614948 264.791293,412.614948 L253.337946,412.614948 L253.337946,299.947171 L264.791293,299.947171 C268.521584,299.947171 271.516293,296.926244 271.516293,293.222343 C271.516293,289.518442 268.521584,286.497514 264.791293,286.497514 L253.337946,286.497514 L253.337946,173.701966 L264.791293,173.701966 C268.521584,173.701966 271.516293,170.681039 271.516293,166.977138 C271.516293,163.273237 268.521584,160.25231 264.791293,160.25231 L253.337946,160.25231 L253.337946,74.2484781 C253.337946,72.4359351 252.602365,70.7022071 251.3152,69.4413018 L182.49155,1.93074869 C179.864631,-0.643582897 175.687868,-0.643582897 173.08731,1.93074869 L104.26366,69.4413018 C102.976428,70.7022071 102.240915,72.4359351 102.240915,74.2484781 L102.240915,160.25231 L94.5703798,160.25231 C90.8400895,160.25231 87.8453798,163.273237 87.8453798,166.977138 C87.8453798,170.681039 90.8400895,173.701966 94.5703798,173.701966 L102.240915,173.701966 L102.240915,286.524414 L94.5703798,286.49812 C90.8400895,286.49812 87.8453798,289.519047 87.8453798,293.222948 C87.8453798,296.926849 90.8400895,299.947777 94.5703798,299.947777 L102.240915,299.947777 L102.240915,412.615553 L94.5703798,412.615553 C90.8400895,412.615553 87.8453798,415.63648 87.8453798,419.340381 C87.8453798,423.044282 90.8400895,426.06521 94.5703798,426.06521 L102.240915,426.06521 L102.240915,524.550323 L46.3393523,524.550323 L46.3393523,492.344447 C63.9400223,489.165889 77.3375673,473.772488 77.3375673,455.27921 C77.3375673,440.305707 68.5634598,427.408158 55.9016298,421.313446 C64.5445998,415.875817 70.3233923,406.339943 70.3233923,395.38587 C70.3233923,378.468891 56.5579898,364.70384 39.6405798,364.70384 C22.7231698,364.70384 8.95776725,378.468891 8.95776725,395.38587 C8.95776725,406.313716 14.7370978,415.87575 23.3795298,421.313446 C10.7176998,427.407822 1.94359225,440.331933 1.94359225,455.27921 C1.94359225,473.772488 15.3411373,489.166293 32.9418073,492.344447 L32.889285,524.550323 L6.725,524.550323 C2.99470975,524.550323 0,527.57125 0,531.275151 C0,534.979052 2.99470975,538 6.725,538 L531.275,538 C535.00529,538 538,534.979052 538,531.275151 C538,527.57125 535.00529,524.550323 531.275,524.550323 L531.272646,524.549718 Z M498.383361,378.150202 C507.893184,378.150202 515.616174,385.872995 515.616174,395.382575 C515.616174,404.892155 507.893184,412.614948 498.383361,412.614948 C488.873539,412.614948 481.150482,404.892155 481.150482,395.382575 C481.124254,385.872995 488.873539,378.150202 498.383361,378.150202 Z M474.110146,455.27726 C474.110146,441.906283 484.985816,431.004664 498.383361,431.004664 C511.754679,431.004664 522.656576,441.880056 522.656576,455.27726 C522.656576,468.648236 511.780906,479.549855 498.383361,479.549855 C484.985816,479.549855 474.110146,468.648236 474.110146,455.27726 Z M39.6146212,378.150202 C49.1244437,378.150202 56.8474337,385.872995 56.8474337,395.382575 C56.8474337,404.892155 49.1244437,412.614948 39.6146212,412.614948 C30.1047987,412.614948 22.3818087,404.892155 22.3818087,395.382575 C22.3818087,385.872995 30.1047987,378.150202 39.6146212,378.150202 Z M15.3676337,455.27726 C15.3676337,441.906283 26.2433037,431.004664 39.6408487,431.004664 C53.0121662,431.004664 63.8878362,441.906283 63.8878362,455.27726 C63.8878362,468.648236 53.0121662,479.549855 39.6146212,479.549855 C26.2433037,479.549855 15.3676337,468.648236 15.3676337,455.27726 Z M363.151009,276.988607 L427.800451,343.947724 L298.498876,343.947724 L363.151009,276.988607 Z M303.256814,357.397381 L421.784939,357.397381 L421.784939,524.542993 L400.979134,524.542993 L400.979134,468.721537 C400.979134,465.017636 397.984424,461.996708 394.254134,461.996708 L332.047884,461.996708 C328.317593,461.996708 325.322884,465.017636 325.322884,468.721537 L325.322884,524.542993 L303.256814,524.542993 L303.256814,357.397381 Z M387.527789,524.542993 L338.771539,524.542993 L338.771539,475.446365 L387.527789,475.446365 L387.527789,524.542993 Z M115.689839,77.0527316 L177.791179,16.1614272 L239.892519,77.0527316 L239.892519,160.218685 L115.688494,160.218685 L115.689839,77.0527316 Z M115.689839,173.695242 L239.893864,173.695242 L239.893864,286.517689 L115.689839,286.517689 L115.689839,173.695242 Z M115.689839,299.940447 L239.893864,299.940447 L239.893864,412.608223 L115.689839,412.608223 L115.689839,299.940447 Z M115.689839,426.05788 L239.893864,426.05788 L239.893864,524.542993 L215.620649,524.542993 L215.620649,468.721537 C215.620649,465.017636 212.625939,461.996708 208.895649,461.996708 L146.689399,461.996708 C142.959109,461.996708 139.964399,465.017636 139.964399,468.721537 L139.964399,524.542993 L115.691184,524.542993 L115.689839,426.05788 Z M202.166614,524.542993 L153.410364,524.542993 L153.410364,475.446365 L202.166614,475.446365 L202.166614,524.542993 Z" id="Fill-1" fill="#35495E"></path>
                    <path d="M198.36022,203 L157.63978,203 C153.95676,203 151,205.974164 151,209.62073 L151,250.37927 C151,254.025836 153.95676,257 157.63978,257 L198.36022,257 C202.04324,257 205,254.025836 205,250.37927 L205,209.62073 C205,205.974164 202.017278,203 198.36022,203 Z M191.720441,243.75854 L164.279559,243.75854 L164.279559,216.24146 L191.720441,216.24146 L191.720441,243.75854 Z" id="Fill-2" fill="#3FBE79"></path>
                    <path d="M198.36022,329 L157.63978,329 C153.95676,329 151,331.974164 151,335.62073 L151,376.37927 C151,380.025836 153.95676,383 157.63978,383 L198.36022,383 C202.04324,383 205,380.025836 205,376.37927 L205,335.62073 C205,331.974164 202.017278,329 198.36022,329 Z M191.720441,369.75854 L164.279559,369.75854 L164.279559,342.24146 L191.720441,342.24146 L191.720441,369.75854 Z" id="Fill-3" fill="#3FBE79"></path>
                    <path d="M342.63978,437 L383.36022,437 C387.04324,437 390,434.025836 390,430.37927 L390,389.62073 C390,385.974164 387.04324,383 383.36022,383 L342.63978,383 C338.95676,383 336,385.974164 336,389.62073 L336,430.37927 C336,434.025836 338.982722,437 342.63978,437 Z M349.279559,396.24146 L376.720441,396.24146 L376.720441,423.75854 L349.279559,423.75854 L349.279559,396.24146 Z" id="Fill-4" fill="#3FBE79"></path>
                    <path d="M198.36022,77 L157.63978,77 C153.95676,77 151,79.9741644 151,83.6207302 L151,124.37927 C151,128.025836 153.95676,131 157.63978,131 L198.36022,131 C202.04324,131 205,128.025836 205,124.37927 L205,83.6207302 C205,79.9741644 202.017278,77 198.36022,77 Z M191.720441,117.75854 L164.279559,117.75854 L164.279559,90.2414605 L191.720441,90.2414605 L191.720441,117.75854 Z" id="Fill-5" fill="#3FBE79"></path>
                </g>
            </g>
        </g>
    </g>
</svg>