<?xml version="1.0" encoding="UTF-8"?>
<svg width="1250px" height="1250px" viewBox="0 0 1250 1250" version="1.1" xmlns="http://www.w3.org/2000/svg" xmlns:xlink="http://www.w3.org/1999/xlink">
    <!-- Generator: Sketch 55.1 (78136) - https://sketchapp.com -->
    <title>25</title>
    <desc>Created with Sketch.</desc>
    <g id="Offers" stroke="none" stroke-width="1" fill="none" fill-rule="evenodd">
        <g id="Artboard" transform="translate(-1282.000000, 0.000000)">
            <g id="25" transform="translate(1282.000000, 0.000000)">
                <g id="10">
                    <g id="1_miniscooter">
                        <rect id="Rectangle" fill="#FAFAFA" x="0" y="0" width="1250" height="1250"></rect>
                        <rect id="Rectangle" fill="#35495E" x="0" y="0" width="1250" height="269"></rect>
                    </g>
                    <text id="+5€" font-family="PalanquinDark-SemiBold, Palanquin Dark SemiBold" font-size="200" font-weight="500" fill="#3FBE79">
                        <tspan x="450" y="1152">+5€</tspan>
                    </text>
                </g>
                <g id="Group-24" transform="translate(239.000000, 393.000000)">
                    <path d="M715.145802,530.146253 L699.964352,530.146253 L699.964352,493.074079 C699.964352,488.003795 696.605346,484.64552 691.53396,484.64552 L618.196294,484.64552 L618.196294,470.323712 C618.196294,459.359842 626.626686,450.108656 635.913606,450.108656 C645.200525,450.108656 653.630917,459.393557 653.630917,470.323712 C653.630917,475.393996 656.989923,478.752271 662.061309,478.752271 C667.132696,478.752271 670.491701,475.393996 670.491701,470.323712 C670.491701,449.252314 654.487445,433.251538 635.913606,433.251538 C629.162716,433.251538 623.268018,434.930675 618.196294,439.144955 L618.196294,414.715619 C618.196294,406.28706 624.090992,399.53747 631.69841,399.53747 C639.272611,399.53747 645.200525,406.286892 645.200525,414.715619 C645.200525,419.785903 648.559531,423.144178 653.630917,423.144178 C658.702304,423.144178 662.061309,419.785903 662.061309,414.715619 C662.061309,397.002159 648.559194,382.680352 631.69841,382.680352 C626.627023,382.680352 622.41149,384.359489 618.196294,386.038627 L618.196294,369.181509 C618.196294,364.111225 621.555299,359.896608 625.770495,359.896608 C629.985691,359.896608 633.344697,364.110887 633.344697,369.181509 C633.344697,374.251793 636.703702,377.610068 641.775089,377.610068 C646.846475,377.610068 650.205481,374.251793 650.205481,369.181509 C650.205481,354.859701 639.239227,343.03949 625.770832,343.03949 C619.876134,343.03949 613.981772,345.574632 609.766576,349.788911 C605.55138,345.574632 599.65685,343.03949 593.76232,343.03949 C580.260204,343.03949 569.327672,354.825987 569.327672,369.181509 C569.327672,374.251793 572.686677,377.610068 577.758064,377.610068 C582.82945,377.610068 586.188456,374.251793 586.188456,369.181509 C586.188456,364.111225 589.547461,359.896608 593.762657,359.896608 C597.977853,359.896608 601.336859,364.110887 601.336859,369.181509 L601.336859,386.038627 C597.121663,383.503485 592.906467,382.680352 587.834743,382.680352 C570.973959,382.680352 557.471843,397.002159 557.471843,414.715619 C557.471843,419.785903 560.830848,423.144178 565.902235,423.144178 C570.973622,423.144178 574.332627,419.785903 574.332627,414.715619 C574.332627,406.28706 580.227326,399.53747 587.834743,399.53747 C595.408944,399.53747 601.336859,406.286892 601.336859,414.715619 L601.336859,439.144955 C596.265472,435.78668 589.547798,433.251538 583.619547,433.251538 C564.222901,433.251538 549.041451,450.108656 549.041451,470.323712 C549.041451,475.393996 552.400456,478.752271 557.471843,478.752271 C562.54323,478.752271 565.902235,475.393996 565.902235,470.323712 C565.902235,459.359842 574.332627,450.108656 583.619547,450.108656 C592.906467,450.108656 601.336859,459.393557 601.336859,470.323712 L601.336859,484.64552 L537.252391,484.64552 L538.931893,146.643443 C538.931893,144.108301 538.075703,142.429163 536.3962,140.750026 C534.716697,139.070888 533.037195,138.214884 530.501501,138.214884 L506.88966,138.214884 C504.353966,121.357765 494.244072,107.035958 481.598484,100.286368 C480.742293,80.8939388 467.273561,63.2141933 453.771446,63.2141933 L442.805192,63.2141933 L442.805192,8.4285591 C442.805192,3.35827509 439.446186,0 434.3748,0 C429.303413,0 425.944408,3.35827509 425.944408,8.4285591 L425.944408,63.2141933 L414.188226,63.1812376 C400.68611,63.1812376 387.217716,80.8946974 386.361188,100.253412 C374.572128,107.002834 363.605874,121.32481 361.070012,138.181928 L337.45817,138.181928 C332.386784,138.181928 329.027778,141.540203 329.027778,146.610487 L329.027778,530.109926 L282.660622,530.109926 L282.660622,466.895733 C301.20074,462.681453 314.702856,446.680677 314.702856,427.288248 C314.702856,412.110099 305.415936,398.644633 292.770348,391.895043 C298.665047,386.824759 302.880074,379.252204 302.880074,369.967303 C302.880074,353.966527 290.234486,341.323688 274.23023,341.323688 C258.225974,341.323688 245.580386,353.966527 245.580386,369.967303 C245.580386,378.395862 249.795582,385.96808 255.690112,391.895043 C243.044524,398.644464 233.757604,412.110099 233.757604,427.288248 C233.757604,446.680677 247.25972,462.681453 265.799838,466.895733 L265.799838,530.109926 L210.145762,530.109926 L210.145762,508.182187 C225.327212,503.967907 237.116272,490.468727 237.116272,473.611609 C237.116272,454.21918 221.112016,438.218403 201.71537,438.218403 C182.318724,438.218403 166.314468,454.21918 166.314468,473.611609 C166.314468,490.468727 178.103528,503.967907 193.284978,508.182187 L193.284978,530.109926 L135.984447,530.142882 L135.984447,493.070707 C150.309369,489.712432 160.419095,476.213589 160.419095,461.03544 C160.419095,450.07157 155.347708,440.820384 146.916979,434.893421 C152.811678,429.823137 156.203899,422.250582 156.203899,413.822023 C156.203899,397.821247 143.558311,385.178408 127.554055,385.178408 C111.549799,385.178408 98.9042106,397.821247 98.9042106,413.822023 C98.9042106,422.250582 102.263216,429.8228 108.19113,434.893421 C99.7607385,440.786838 94.6890146,450.07157 94.6890146,461.03544 C94.6890146,476.213589 104.798741,488.856428 119.123663,493.070707 L119.123663,530.142882 L82.0434266,530.142882 C76.97204,530.142882 73.6130346,533.501157 73.6130346,538.571441 C73.6130346,543.641725 76.97204,547 82.0434266,547 L715.182643,547 C720.254029,547 723.613035,543.641725 723.613035,538.571441 C723.580156,533.501157 719.364876,530.142882 715.149764,530.142882 L715.145802,530.146253 Z M275.08777,358.18679 C281.838659,358.18679 286.87683,363.257074 286.87683,369.973287 C286.87683,376.722709 281.805443,381.759785 275.08777,381.759785 C268.33688,381.759785 263.298709,376.689501 263.298709,369.973287 C263.298709,363.257074 268.337217,358.18679 275.08777,358.18679 Z M251.475928,427.294232 C251.475928,414.651394 262.442182,403.687524 275.08777,403.687524 C287.733358,403.687524 298.699612,414.651394 298.699612,427.294232 C298.699612,439.937071 287.733358,450.900941 275.08777,450.900941 C262.442182,450.900941 251.475928,440.793412 251.475928,427.294232 Z M184.032792,474.507649 C184.032792,464.400121 192.463184,455.971562 202.57291,455.971562 C212.682636,455.971562 221.113028,464.400121 221.113028,474.507649 C221.113028,484.615177 212.682636,493.043736 202.57291,493.043736 C192.463184,492.220603 184.032792,484.615177 184.032792,474.507649 Z M127.55591,402.008555 C134.306799,402.008555 139.34497,407.078839 139.34497,413.795052 C139.34497,420.544474 134.273583,425.581549 127.55591,425.581549 C120.80502,425.581549 115.766849,420.511265 115.766849,413.795052 C115.766849,407.078839 120.805357,402.008555 127.55591,402.008555 Z M111.551653,461.008469 C111.551653,452.57991 119.125855,445.007692 127.55591,445.007692 C135.985964,445.007692 143.560166,452.580247 143.560166,461.008469 C143.560166,469.436691 135.985964,477.042117 127.55591,477.042117 C119.125855,477.042117 111.551653,469.436691 111.551653,461.008469 Z M537.28645,501.472295 L682.280762,501.472295 L682.280762,529.293283 L537.28645,529.293283 L537.28645,501.472295 Z M414.185865,79.2183413 L452.979157,79.2183413 C455.514851,79.2183413 461.409549,85.9677628 463.088883,95.2191179 L403.219612,95.2191179 C406.611495,85.9342172 412.506531,80.0409687 414.185865,79.2183413 Z M401.540277,112.076236 L465.624745,112.076236 C473.198947,112.076236 485.844198,122.183764 489.236587,137.361913 L377.930122,137.361913 C381.322006,123.040106 394.790906,112.076236 401.541964,112.076236 L401.540277,112.076236 Z M345.886202,154.219032 L521.246786,154.219032 L519.567283,529.289912 L479.094657,529.289912 L479.094657,463.540408 C479.094657,438.25473 458.875205,418.039674 433.584029,418.039674 C408.292853,418.039674 388.073401,438.25473 388.073401,463.540408 L388.073401,529.289912 L345.921441,529.289912 L345.886202,154.219032 Z M462.234042,530.149625 L404.900632,530.149625 L404.900632,464.400121 C404.900632,448.399344 417.54622,435.756506 433.550476,435.756506 C449.554732,435.756506 462.20032,448.399344 462.20032,464.400121 L462.234042,530.149625 Z" id="Fill-1" fill="#35495E"></path>
                    <path d="M485.113035,241 C490.226295,241 493.613035,237.656905 493.613035,232.60954 L493.613035,202.39046 C493.613035,197.343095 490.226295,194 485.113035,194 C479.999775,194 476.613035,197.343095 476.613035,202.39046 L476.613035,232.60954 C476.613035,237.656905 479.999775,241 485.113035,241 Z" id="Fill-2" fill="#3FBE79"></path>
                    <path d="M435.113035,241 C440.226295,241 443.613035,237.656905 443.613035,232.60954 L443.613035,202.39046 C443.613035,197.343095 440.226295,194 435.113035,194 C429.999775,194 426.613035,197.343095 426.613035,202.39046 L426.613035,232.60954 C426.613035,237.656905 430.863035,241 435.113035,241 Z" id="Fill-3" fill="#3FBE79"></path>
                    <path d="M384.113035,241 C389.226295,241 392.613035,237.656905 392.613035,232.60954 L392.613035,202.39046 C392.613035,197.343095 389.226295,194 384.113035,194 C378.999775,194 375.613035,197.343095 375.613035,202.39046 L375.613035,232.60954 C375.613035,237.656905 379.863035,241 384.113035,241 Z" id="Fill-4" fill="#3FBE79"></path>
                    <path d="M485.113035,320 C490.226295,320 493.613035,316.656905 493.613035,311.60954 L493.613035,281.39046 C493.613035,276.343095 490.226295,273 485.113035,273 C479.999775,273 476.613035,276.343095 476.613035,281.39046 L476.613035,311.60954 C476.613035,315.80477 479.999775,320 485.113035,320 Z" id="Fill-5" fill="#3FBE79"></path>
                    <path d="M435.113035,320 C440.226295,320 443.613035,316.656905 443.613035,311.60954 L443.613035,281.39046 C443.613035,276.343095 440.226295,273 435.113035,273 C429.999775,273 426.613035,276.343095 426.613035,281.39046 L426.613035,311.60954 C426.613035,315.80477 430.863035,320 435.113035,320 Z" id="Fill-6" fill="#3FBE79"></path>
                    <path d="M384.113035,320 C389.226295,320 392.613035,316.656905 392.613035,311.60954 L392.613035,281.39046 C392.613035,276.343095 389.226295,273 384.113035,273 C378.999775,273 375.613035,276.343095 375.613035,281.39046 L375.613035,311.60954 C375.613035,315.80477 379.863035,320 384.113035,320 Z" id="Fill-7" fill="#3FBE79"></path>
                    <path d="M485.113035,398 C490.226295,398 493.613035,394.656905 493.613035,389.60954 L493.613035,359.39046 C493.613035,354.343095 490.226295,351 485.113035,351 C479.999775,351 476.613035,354.343095 476.613035,359.39046 L476.613035,389.60954 C476.613035,394.656905 479.999775,398 485.113035,398 Z" id="Fill-8" fill="#3FBE79"></path>
                    <path d="M435.113035,398 C440.226295,398 443.613035,394.656905 443.613035,389.60954 L443.613035,359.39046 C443.613035,354.343095 440.226295,351 435.113035,351 C429.999775,351 426.613035,354.343095 426.613035,359.39046 L426.613035,389.60954 C426.613035,394.656905 430.863035,398 435.113035,398 Z" id="Fill-9" fill="#3FBE79"></path>
                    <path d="M392.613035,389.60954 L392.613035,359.39046 C392.613035,354.343095 389.226295,351 384.113035,351 C378.999775,351 375.613035,354.343095 375.613035,359.39046 L375.613035,389.60954 C375.613035,394.656905 378.999775,398 384.113035,398 C389.226295,398 392.613035,394.656905 392.613035,389.60954 Z" id="Fill-10" fill="#3FBE79"></path>
                    <g id="Group-2" transform="translate(0.613035, 71.000000)" fill="#3FBE79">
                        <path d="M63.5652174,98.7720816 C63.5652174,120.562957 81.084773,138.132353 102.73913,138.132353 C124.426833,138.132353 141.913043,120.529453 141.913043,98.7720816 C141.913043,76.9812062 124.393488,59.4117647 102.73913,59.4117647 C81.0514278,59.3790604 63.5652174,76.9820438 63.5652174,98.7720816 Z M101.892997,76.1310471 C114.397438,76.1310471 124.394322,86.1754882 124.394322,98.7394154 C124.394322,111.303343 114.397438,121.347784 101.892997,121.347784 C89.3885555,121.347784 79.3916717,111.303343 79.3916717,98.7394154 C80.2383057,86.2081544 90.235523,76.1310471 101.892997,76.1310471 Z" id="Fill-11"></path>
                        <path d="M109.391304,31.749554 L109.391304,8.35338718 C109.391304,3.32832359 106.151814,0 101.26087,0 C96.3699252,0 93.1304348,3.32832359 93.1304348,8.35338718 L93.1304348,31.749554 C93.1304348,36.7746176 96.3699252,40.1029412 101.26087,40.1029412 C106.151814,40.1029412 109.391304,36.7420394 109.391304,31.749554 Z" id="Fill-12"></path>
                        <path d="M65.3015073,16.1485843 C62.6798141,11.8546144 57.4704215,10.9824233 53.1126129,12.7268056 C48.7544555,15.3098861 47.8692266,20.4425542 49.6396844,24.7361806 L61.8285789,46.2060301 C63.5650431,48.7891106 66.1867362,50.5 69.6596646,50.5 C71.3961288,50.5 72.2813577,50.5 74.0178219,49.6278088 C78.3759793,47.0447283 79.2612082,41.9120602 77.4907503,37.6184338 L65.3015073,16.1485843 Z" id="Fill-13"></path>
                        <path d="M27.4909289,45.7828259 C23.3650632,43.1843122 18.4008216,44.9054236 15.9517077,49.2250487 C13.4697519,53.5446738 15.1136619,58.7420467 19.2395276,61.3061762 L39.0304802,73.3873036 C40.6743901,74.2647059 41.5124359,74.2647059 43.1563459,74.2647059 C45.6383016,74.2647059 48.9261215,72.5435945 50.5700314,69.9450808 C53.0519872,65.6254557 51.4080773,60.4280828 47.2822116,57.8639533 L27.4909289,45.7828259 Z" id="Fill-14"></path>
                        <path d="M8.31383175,92.0882353 C4.15691588,92.0882353 0,95.3431385 0,100.257353 C0,105.171567 3.31256312,108.426471 8.31383175,108.426471 L31.5992117,108.426471 C35.7561276,108.426471 39.9130435,105.171567 39.9130435,100.257353 C39.9130435,95.3431385 36.6004804,92.0882353 31.5992117,92.0882353 L8.31383175,92.0882353 Z" id="Fill-15"></path>
                        <path d="M49.0924278,130.916225 C46.5670428,126.5966 41.5490176,124.875489 37.3512934,127.474002 L16.360993,139.55513 C12.1629329,142.153643 10.4902578,147.316978 13.0156428,151.636257 C14.6883179,154.234771 17.2137029,155.955882 20.5590531,155.955882 C22.2317281,155.955882 23.0844381,155.955882 24.7571131,155.07848 L45.7474136,142.997353 C49.9126448,140.432532 51.5853199,135.235505 49.0927637,130.916225 L49.0924278,130.916225 Z" id="Fill-16"></path>
                        <path d="M49.6037093,187.783357 C51.2916743,188.632353 52.152179,188.632353 53.840144,188.632353 C56.3886136,188.632353 59.7645437,186.966964 61.4525087,184.452579 L74.1618127,164.403039 C76.7102824,160.223265 75.0223173,155.194161 71.6133431,152.713048 C67.3769084,150.198663 62.2796302,151.864052 59.7648826,155.227432 L47.0555786,175.276972 C44.5071089,180.273139 46.195074,185.26914 49.6040482,187.783692 L49.6037093,187.783357 Z" id="Fill-17"></path>
                        <path d="M91.0311744,170.250446 L90.173913,193.646613 C90.173913,198.671676 93.537119,202 98.6148476,202 C102.835315,202 107.055782,198.671676 107.055782,193.646613 L107.913043,170.250446 C107.913043,165.225382 104.549838,161.897059 99.4721089,161.897059 C95.2516416,161.897059 91.0311744,166.073752 91.0311744,170.250446 Z" id="Fill-18"></path>
                        <path d="M141.125106,159.064811 C138.494953,154.81184 133.268751,153.117286 128.89688,155.675703 C124.52501,158.23412 122.782592,163.317781 125.412745,167.570412 L136.787514,188.835265 C138.529581,191.393682 141.159734,193.088235 144.643869,193.088235 C146.385937,193.088235 147.274022,193.088235 149.01609,192.224372 C153.38831,189.665955 155.130378,184.582294 152.500225,180.329664 L141.125106,159.064811 Z" id="Fill-19"></path>
                        <path d="M176.971858,160.155125 C178.631842,161.043142 180.291825,161.897059 181.138065,161.897059 C183.644288,161.897059 186.964254,160.155125 187.810494,157.525175 C190.316717,153.15329 189.470477,147.893039 185.304271,145.297888 L165.319813,132.182235 C161.153606,129.552285 156.140827,130.440302 153.667767,134.812186 C151.161544,139.184071 152.007784,144.444322 156.17399,147.039472 L176.971858,160.155125 Z" id="Fill-20"></path>
                        <path d="M195.50649,114.367647 C199.753245,114.367647 204,110.98844 204,105.886552 C204,100.784665 200.615846,97.4054576 196.369091,97.4054576 L172.580467,96.5441176 C168.333712,96.5441176 164.086957,99.923325 164.086957,104.163872 C164.086957,109.26576 167.471111,112.644967 171.717866,112.644967 L195.50649,114.367647 C194.643889,114.367647 194.643889,114.367647 195.50649,114.367647 Z" id="Fill-21"></path>
                        <path d="M180.72836,51.1571249 L159.749768,62.0942162 C155.554049,63.7692526 153.882307,69.6482756 156.406284,73.0313076 C158.078026,75.5602577 160.602002,77.2352941 163.945486,77.2352941 C165.617228,77.2352941 166.469463,77.2352941 168.141205,76.3813804 L189.119797,65.444289 C193.315516,63.7692526 194.987258,57.8902297 192.463282,54.5071977 C189.939305,51.1571249 184.924079,49.4820885 180.728696,51.1571249 L180.72836,51.1571249 Z" id="Fill-22"></path>
                        <path d="M158.789919,17.7422115 C154.494239,15.2411918 149.325676,16.0856747 146.77576,20.2432311 L133.015837,40.1861977 C130.431728,44.3437541 131.304266,49.346126 135.599946,51.8140515 C137.311517,52.6585343 139.023088,53.4705882 140.768165,53.4705882 C143.352275,53.4705882 145.936384,51.8140515 147.647955,50.1575147 L161.407879,30.2145481 C163.92489,25.2125088 162.213319,20.2430648 158.790177,17.7418789 L158.789919,17.7422115 Z" id="Fill-23"></path>
                    </g>
                </g>
                <text id="2-Votes" font-family="PalanquinDark-SemiBold, Palanquin Dark SemiBold" font-size="100" font-weight="500" fill="#FAFAFA">
                    <tspan x="87" y="169">2 Votes</tspan>
                </text>
                <text id="30-ø" font-family="PalanquinDark-SemiBold, Palanquin Dark SemiBold" font-size="125" font-weight="500" fill="#3FBE79">
                    <tspan x="938.825" y="175">30 </tspan>
                    <tspan x="1118.7" y="175" font-size="100">ø</tspan>
                    <tspan x="1179" y="175"> </tspan>
                </text>
            </g>
        </g>
    </g>
</svg>