<?xml version="1.0" encoding="UTF-8"?>
<svg width="1250px" height="1250px" viewBox="0 0 1250 1250" version="1.1" xmlns="http://www.w3.org/2000/svg" xmlns:xlink="http://www.w3.org/1999/xlink">
    <!-- Generator: Sketch 55.1 (78136) - https://sketchapp.com -->
    <title>25000</title>
    <desc>Created with Sketch.</desc>
    <g id="Offers" stroke="none" stroke-width="1" fill="none" fill-rule="evenodd">
        <g id="Artboard" transform="translate(-29.000000, -2746.000000)">
            <g id="25000" transform="translate(29.000000, 2746.000000)">
                <g id="10">
                    <g id="1_miniscooter">
                        <rect id="Rectangle" fill="#FAFAFA" x="0" y="0" width="1250" height="1250"></rect>
                        <g id="miniscooter" transform="translate(131.000000, 946.000000)">
                            <path d="M39.6312563,44.1874765 C36.7009755,53.1750639 32.7137369,61.7085825 26.2010425,69.8036636 C25.2492433,70.9876164 24.8070631,72.4992917 24.9719477,74.0107573 C25.1443149,75.5149029 25.9087627,76.8924354 27.1004447,77.8455603 C28.2920692,78.7912319 29.8135398,79.2305653 31.3347993,79.0593078 C32.8486914,78.8954847 34.2426325,78.1359585 35.1944509,76.9519485 C42.3517956,68.0684424 46.7135453,58.8574425 49.8836513,49.6086989 C56.8984439,55.2008739 61.3952632,63.7492612 61.3952632,73.3777293 C61.3952632,90.2211639 47.6502068,103.877729 30.6976316,103.877729 C13.7450564,103.877729 0,90.2211639 0,73.3777293 C0,56.5342957 13.7450564,42.8777293 30.6976316,42.8777293 C33.8081075,42.8769297 36.7984405,43.3311509 39.6312563,44.1874765 Z M165,84.814429 C165,95.34341 156.411186,103.876929 145.81398,103.876929 C139.713402,103.876929 134.279921,101.077029 130.76485,96.6690163 L147.852303,90.116282 C149.388681,89.6620608 150.662671,88.5972295 151.374664,87.1675039 C152.086638,85.7452699 152.169081,84.0847165 151.599505,82.6029884 C151.029911,81.1137306 149.860772,79.929854 148.37683,79.3265259 C146.892906,78.7308228 145.229171,78.7755053 143.775255,79.45312 L126.687802,86.0058543 C126.665316,85.6112033 126.627845,85.2165524 126.627845,84.814448 C126.627845,74.285467 135.216659,65.7519484 145.813865,65.7519484 C156.411186,65.7519484 165,74.2854479 165,84.814429 Z" id="Fill-1" fill="#3FBE79" transform="translate(82.500000, 73.377729) scale(-1, 1) translate(-82.500000, -73.377729) "></path>
                            <path d="M34.1750401,0.880035126 C37.2757795,0.880035126 39.8072574,3.32694622 39.9270918,6.40451243 L44.0014618,9.16675109 C45.364583,10.0824884 45.9937808,11.7789161 45.5593091,13.3701577 C44.5706848,16.9955599 43.7243471,20.6661187 42.8631308,24.3591598 C50.7422912,29.7185753 56.1871833,37.6524933 59.1606106,47.5369842 C62.4711081,58.5334803 62.9128656,71.9234682 61.0180439,87.5284352 L61.0180439,87.5884839 C61.0330184,88.0913939 61.4524389,89.0596666 62.2763052,89.8703332 C63.1151461,90.6960072 64.2160888,91.1914039 64.8528409,91.1914039 L108.17346,91.1914039 L132.500804,81.8238119 C134.40318,80.9005613 137.009645,81.9514225 137.773518,83.9256113 C138.53739,85.8998001 137.286683,88.3692126 135.256995,88.9696993 L110.331438,98.5774859 C109.897043,98.7651452 109.425183,98.8627219 108.953342,98.8777293 L64.8542789,98.8777293 C61.6561382,98.8777293 58.9223798,97.4065465 56.8853865,95.3949066 C54.8483933,93.3832667 53.3501755,90.7036166 53.3501755,87.5284352 C53.3426787,87.3708099 53.3426787,87.2056713 53.3501755,87.0480459 C55.2225834,71.923276 54.7432458,59.3584049 51.8522454,49.7583045 C49.6053023,42.3047758 46.0478501,36.6377189 40.9473141,32.4642886 C37.4197725,47.2737308 33.060676,62.2330546 21.8336298,76.2988542 C20.5079544,77.9576962 18.09633,78.2279056 16.4410813,76.8993409 C14.7858326,75.5707762 14.5162531,73.1538414 15.8419093,71.4949609 C29.7950445,54.0207029 32.1618221,34.6106681 37.471541,14.0884359 L34.8351839,12.3470245 C34.6104896,12.3770585 34.4082667,12.4070732 34.1760947,12.4070732 C31.0005787,12.4070732 28.424043,9.82488447 28.424043,6.64240123 C28.424043,3.45991799 31.0005787,0.877729258 34.1760947,0.877729258 L34.1750401,0.880035126 Z" id="Path" stroke="#C8C5C5" fill="#35495E" transform="translate(76.500000, 49.877729) scale(-1, 1) translate(-76.500000, -49.877729) "></path>
                        </g>
                        <rect id="Rectangle" fill="#35495E" x="0" y="0" width="1250" height="269"></rect>
                    </g>
                    <g id="scooter" transform="translate(705.500000, 971.000000) scale(-1, 1) translate(-705.500000, -971.000000) translate(589.000000, 892.000000)">
                        <path d="M221.708536,109.763064 L225.725574,106.348593 C226.414594,105.766556 226.570617,104.757678 226.076591,103.994554 L221.656517,97.0616402 L224.243596,97.0616402 L224.308595,97.0616402 C225.322639,97.0616402 226.128676,96.2597096 226.128676,95.2508312 C226.128676,94.9792165 226.076691,94.7205153 225.959674,94.4877074 C223.853608,81.0877603 216.898207,80.7645908 208.071039,80.7516772 C205.509953,78.6692535 202.857875,77.6862684 199.776704,77.6862684 C196.513584,77.6862684 193.120468,78.7986206 189.181307,80.0791137 C184.384158,81.6441682 178.416842,83.5972248 170.746529,84.0756879 C157.174131,84.6706709 144.888716,84.7353379 135.02251,84.7870583 C116.379724,84.8775855 113.974826,84.9810593 113.272593,87.1540103 C113.038593,87.8912739 113.285606,88.6802579 113.896615,89.1458737 C122.021882,95.3155645 125.909124,102.300132 124.569889,108.288371 C123.165823,114.548457 116.392703,119.282427 105.485129,121.662491 L86.3744101,121.662491 C85.3863584,121.662491 84.5023437,121.339156 83.6573013,120.601893 C83.5532976,120.537226 83.4492939,120.420805 83.1632754,120.084523 C72.8667439,110.125206 67.7188109,99.2086317 67.8745668,87.6066463 C68.1215798,68.619111 82.5911719,53.369217 85.4773159,50.511683 L99.8557842,50.511683 C100.440801,50.511683 100.999825,50.2271216 101.337828,49.7485592 C102.195851,48.5327331 102.650871,47.1099593 102.650871,45.6225185 C102.650871,44.2644117 102.299854,43.0227254 101.597821,41.9362003 C101.259817,41.418831 100.68778,41.0954628 100.063758,41.0954628 L88.0642287,41.0954628 L81.8369871,34.0205 C81.4859705,33.3091297 81.8890056,29.7004251 83.9430535,25.0571807 C84.7490904,23.2463717 85.5161217,21.9529651 86.1401439,21.0735201 C87.5052048,26.2859535 92.0032894,28.006434 93.8234371,28.006434 C94.8244685,28.006434 95.6434851,27.1915898 95.6434851,26.1956249 L95.6434851,2.73305234 C95.6434851,2.18982288 95.3964721,1.6724536 94.9674777,1.3232252 C94.53845,0.973996796 93.979426,0.844662754 93.433415,0.961050147 C89.2992268,1.85350801 86.4783139,5.19039913 84.8531939,11.1531421 C81.0182035,13.5459875 75.414984,20.1164614 73.3868289,30.2568993 C67.6275206,30.3086527 64.3253619,30.6190743 61.3483604,30.9812163 L54.1459801,26.3637989 C53.846982,26.1697979 53.5089451,26.0792375 53.1579617,26.0792375 C51.6888972,26.0792375 50.7398843,27.2433101 50.3238695,29.558608 C50.1028825,30.8391011 49.9858659,32.5593498 49.9858659,34.6935602 C49.9858659,39.7377865 50.4018806,51.4563248 54.2109117,51.4563248 C54.4709376,51.4563248 54.7309302,51.4046044 54.9649301,51.2881839 L61.2440904,48.4297228 L61.829107,49.0893728 L60.3600424,49.8395499 C54.0419432,51.8055532 33.7480779,67.7274479 31.4989357,90.6595721 C22.3985298,93.4404195 -0.599098599,108.353767 0.0119438707,114.898281 C0.102967899,115.816599 0.713977087,117.950777 4.62704514,117.950777 C5.49808019,117.950777 6.51212447,117.860249 7.69517058,117.666248 C6.79762782,119.404229 17.1420882,99.6471353 42.2301169,109.763362 C61.829107,117.666248 53.1579617,142.064076 56.6810409,141.309942 C57.3435414,141.698426 57.9727611,142.064076 58.5753369,142.408235 C68.2245785,147.919355 71.0415941,147.919355 94.2787903,147.919355 L140.403178,147.919355 C143.406272,147.919355 146.240364,146.755282 148.359377,144.634052 C150.491436,142.512854 151.661502,139.718961 151.661502,136.757125 C151.661502,133.639963 150.361473,130.652002 148.086438,128.569611 C147.878431,128.375577 147.605425,128.23333 147.319407,128.155716 C145.941366,127.677154 144.615311,126.978697 143.263096,126.060379 C143.211111,126.021572 143.146113,125.982765 143.094095,125.956905 C138.466014,122.671602 135.709666,117.355496 135.709666,111.716253 C135.709666,107.073009 137.529747,102.752934 140.623965,99.5709061 C139.882927,101.73091 139.505917,104.033361 139.505917,106.348526 C139.505917,116.928687 147.436157,125.931078 157.966655,127.288986 C158.473661,127.366566 158.993679,127.198426 159.383701,126.862144 L164.063701,122.90431 C163.439679,125.193682 163.127668,127.560468 163.127668,129.953446 C163.127668,139.049699 167.306714,122.059088 172.41206,115.294878 C173.749849,113.522404 178.216829,109.763064 183.085608,108.288371 C187.954386,106.813679 196.801074,106.348593 204.922662,109.763362 C214.459819,113.773317 217.806586,123.476634 216.934197,121.662491 C222.966411,125.322983 226.192942,125.73701 227.415027,128.99652 C227.714058,129.77259 228.507082,130.251153 229.326099,130.160592 C231.757189,129.876031 232.576205,128.440344 232.836265,127.599606 C234.318309,122.91729 225.347999,113.397695 221.707704,109.763362 L221.708536,109.763064 Z" id="Fill-1" fill="#35495E"></path>
                        <path d="M143.636032,54.9193548 C136.171258,54.9193548 112.571622,55.2529759 109.473906,59.2821169 L109.447995,59.2692727 C105.910024,64.3379738 106.791266,77.477834 108.450104,82.6618374 C108.696342,83.4189233 109.396173,83.9193548 110.18671,83.9193548 C110.277448,83.9193548 110.368153,83.9065435 110.471831,83.8936993 C111.184601,83.7910441 111.741871,83.2777683 111.936287,82.6105262 C114.683722,80.8653885 132.464417,80.8653885 142.119522,80.8653885 L147.381026,80.8653885 C160.61292,80.8653885 171.95241,80.7498892 176.34601,79.4282163 C179.572982,78.9020963 182.074312,78.1065435 184.704899,77.2596138 C189.072289,75.8609414 193.595279,74.4109249 202.278305,74.0516483 C202.809664,74.0259927 203.315079,73.7693384 203.639084,73.3459064 C203.950116,72.9352858 204.079704,72.3835102 203.950116,71.8702344 C200.439316,56.5749772 160.602635,54.9193548 143.636032,54.9193548 Z" id="Fill-2" fill="#35495E"></path>
                        <circle id="Oval" fill="#3FBE79" cx="27" cy="136.919355" r="21"></circle>
                        <circle id="Oval" fill="#3FBE79" cx="192" cy="136.919355" r="21"></circle>
                    </g>
                    <g id="pedelec" transform="translate(334.000000, 934.000000)">
                        <g id="Group-9" transform="translate(0.000000, 37.189944)" fill="#3FBE79">
                            <path d="M39,78 C17.4608948,78 0,60.5391052 0,39 C0,17.4608948 17.4608948,0 39,0 C60.5391052,0 78,17.4608948 78,39 C78,60.5391052 60.5391052,78 39,78 Z M38.8,64.7536232 C53.1594035,64.7536232 64.8,53.1130267 64.8,38.7536232 C64.8,24.3942197 53.1594035,12.7536232 38.8,12.7536232 C24.4405965,12.7536232 12.8,24.3942197 12.8,38.7536232 C12.8,53.1130267 24.4405965,64.7536232 38.8,64.7536232 Z" id="Combined-Shape"></path>
                            <rect id="Rectangle" x="8.58" y="36.66" width="60.06" height="3.9"></rect>
                            <polygon id="Rectangle" transform="translate(38.610000, 38.610000) scale(-1, -1) rotate(90.000000) translate(-38.610000, -38.610000) " points="8.58 36.66 68.64 36.66 68.64 40.56 8.58 40.56"></polygon>
                            <polygon id="Rectangle" transform="translate(38.610000, 38.610000) scale(-1, -1) rotate(45.000000) translate(-38.610000, -38.610000) " points="8.58 36.66 68.64 36.66 68.64 40.56 8.58 40.56"></polygon>
                            <polygon id="Rectangle" transform="translate(38.610000, 38.610000) scale(-1, -1) rotate(135.000000) translate(-38.610000, -38.610000) " points="8.58 36.66 68.64 36.66 68.64 40.56 8.58 40.56"></polygon>
                        </g>
                        <g id="Group-9" transform="translate(139.000000, 37.189944)" fill="#3FBE79">
                            <path d="M39,78 C17.4608948,78 0,60.5391052 0,39 C0,17.4608948 17.4608948,0 39,0 C60.5391052,0 78,17.4608948 78,39 C78,60.5391052 60.5391052,78 39,78 Z M38.8,64.7536232 C53.1594035,64.7536232 64.8,53.1130267 64.8,38.7536232 C64.8,24.3942197 53.1594035,12.7536232 38.8,12.7536232 C24.4405965,12.7536232 12.8,24.3942197 12.8,38.7536232 C12.8,53.1130267 24.4405965,64.7536232 38.8,64.7536232 Z" id="Combined-Shape"></path>
                            <rect id="Rectangle" x="8.58" y="36.66" width="60.06" height="3.9"></rect>
                            <rect id="Rectangle" transform="translate(38.610000, 38.610000) scale(-1, -1) rotate(90.000000) translate(-38.610000, -38.610000) " x="8.58" y="36.66" width="60.06" height="3.9"></rect>
                            <polygon id="Rectangle" transform="translate(38.610000, 38.610000) scale(-1, -1) rotate(45.000000) translate(-38.610000, -38.610000) " points="8.58 36.66 68.64 36.66 68.64 40.56 8.58 40.56"></polygon>
                            <polygon id="Rectangle" transform="translate(38.610000, 38.610000) scale(-1, -1) rotate(135.000000) translate(-38.610000, -38.610000) " points="8.58 36.66 68.64 36.66 68.64 40.56 8.58 40.56"></polygon>
                        </g>
                        <path d="M137.80712,8.50909191 L148.679617,8.50909191 L149.72425,9.55297121 C149.139249,11.5495953 148.554248,13.7616591 148.086251,15.6918782 C135.639716,15.0677578 116.877019,15.1778035 91.7981602,16.0220154 L12,16.0220154 L18.3183446,30.2113845 L82.6574242,30.2113845 C78.5456862,33.1855041 74.7869473,35.9958915 70.8840161,40.0304546 C69.3532171,41.6128819 33.4797071,72.7661726 35.7902733,76.2652334 C37.3306507,78.5979406 47.2102002,79.7642942 65.4289218,79.7642942 L91.2160522,81.1396469 C94.7257566,85.1731784 98.1013767,87.1899441 101.342912,87.1899441 C106.205216,87.1899441 111.289737,84.8098416 113.3624,80.750252 L117.357112,81.9846718 L116.571541,82.7634403 L119.521578,85.6879311 L125.480271,79.7642942 L122.463271,76.8398033 L120.69158,78.662451 L114.599174,76.7735468 C114.783035,75.7628169 114.699448,74.8017795 114.66603,73.8490559 C133.97081,64.0482257 146.147494,53.0957539 155.222884,42.1672481 C155.423447,42.8079256 161.895212,54.6810893 174.638181,77.7867392 C176.312147,78.6222864 177.560435,78.6222864 178.383044,77.7867392 C179.205652,76.9511919 179.205652,75.6832705 178.383044,73.9829747 C165.438762,40.7932972 158.20335,21.4729774 156.676808,16.0220154 L158.515355,9.88310846 C159.050208,8.40843462 158.657433,6.63560651 157.529214,5.52532224 L153.334039,1.35820376 C152.556833,0.612584774 151.470417,0.181769028 150.384002,0.189944134 L137.806607,0.189944134 C135.182403,0.21491849 133.394067,2.63395961 133.419098,4.54784791 C133.519886,6.71948758 135.617431,8.6085615 137.80712,8.50909191 Z M152.356627,32.2778709 C143.381147,44.1166613 131.973796,55.7730554 111.08093,66.3690061 C108.916486,64.173464 105.983137,62.7321093 102.690366,62.5995539 L93.9739695,34.1669448 C105.37861,27.4452888 124.117729,24.0844608 150.191327,24.0844608 C151.13903,27.7130154 151.860796,30.4441521 152.356627,32.2778709 Z M94.6923844,65.0686904 C93.1520633,65.4525602 91.5201271,67.2711924 89.7965757,70.524587 L52.4380997,69.1032534 L78.972833,46.2697856 C82.3880494,42.933772 84.9648298,40.5698315 86.7031742,39.1779641 L94.6923844,65.0686904 Z M104.070266,67.0321438 C105.165047,67.2806905 106.201314,67.7032136 107.087267,68.3328413 C106.335135,68.6890866 105.566272,69.0204752 104.797453,69.3767206 L104.070266,67.0321438 Z M96.0808421,69.4429559 L96.5404736,71.0004928 L94.9693529,71.0004928 C95.295271,70.4371428 95.6379194,69.9069211 96.0808421,69.4429559 Z M107.218627,78.8709766 L109.316257,79.5254611 C107.84541,81.9031873 105.221206,83.4274687 102.171045,83.4274687 C99.0539203,83.4274687 96.4130288,81.8036753 94.9672134,79.3265219 L97.5244539,79.3265219 C98.6777259,80.5692343 100.340777,81.4059878 102.179389,81.4059878 C104.235236,81.4059878 106.073762,80.3786727 107.22712,78.8708918 L107.218627,78.8709766 Z" id="Fill-1" stroke="#C8C5C5" fill="#35495E"></path>
                    </g>
                    <g id="minicar" transform="translate(860.000000, 901.000000)">
                        <path d="M179.387299,33.1294943 C155.847902,16.9642151 144.091878,12.684956 153.214007,6.49710327 C162.336136,0.309250566 145.364992,0.574777603 139.467413,0.574777603 L54.9354558,0.574777603 C49.0378774,0.574777603 36.6773049,0.574777603 28.0306686,0.309250566 C19.3840322,0.0437235284 5.67070025,4.65754449 2.27505582,16.9642151 C-1.12058861,29.2708857 0.290853066,59.8149372 0.290853066,68.1329182 L0.290853066,115.612768 C0.290853066,123.930749 5.40523309,130.298469 12.0860099,130.298469 L20.7326463,130.298469 C20.7326463,110.220179 33.3901889,93.584217 54.9354558,93.584217 C76.4807227,93.584217 85.4878645,110.220179 85.4878645,130.298469 L142.119873,130.298469 C142.119873,110.220179 150.023073,93.584217 174.396585,93.584217 C198.770097,93.584217 207.489297,110.220179 207.489297,130.298469 L216.135933,130.298469 C222.81671,130.298469 233,123.930749 233,115.612768 L233,74.4370744 C233,74.4370744 232.633461,62.6884993 224.620262,57.8593574 C213.140586,50.9411494 216.381166,52.9008505 201.987719,46.081164 C184.633281,37.8585453 186.273601,37.8585453 179.387299,33.1294943 Z M138.188419,34.3194863 L125.329482,61.2432714 L133.908458,65.6413452 C137.723359,67.5918021 138.188609,72.4868399 134.857539,75.4318125 L99.5931248,105.30057 C94.8291442,109.220575 88.1671936,103.828182 90.549184,97.9577196 L103.40812,71.0339346 L94.8291442,67.1139293 C91.0142438,65.1634724 90.5489934,60.2684346 93.8800639,57.323462 L129.609919,27.4547044 C133.890069,23.0566307 140.570885,28.4490242 138.188895,34.3192905 L138.188419,34.3194863 Z" id="Shape" fill="#35495E"></path>
                        <path d="M54.5,103.298469 C42,103.298469 32,113.298469 32,125.798469 C32,138.298469 42,148.298469 54.5,148.298469 C67,148.298469 77,138.298469 77,125.798469 C77,113.806469 67,103.298469 54.5,103.298469 L54.5,103.298469 Z" id="wheel" fill="#3FBE79"></path>
                        <path d="M176.5,103.298469 C164,103.298469 154,113.298469 154,125.798469 C154,138.298469 164,148.298469 176.5,148.298469 C189,148.298469 199,138.298469 199,125.798469 C199,113.806469 189,103.298469 176.5,103.298469 L176.5,103.298469 Z" id="wheel" fill="#3FBE79"></path>
                    </g>
                    <g id="Group-11" transform="translate(327.000000, 512.000000)">
                        <path d="M191.465972,168.482883 C199.095282,174.709875 213.69813,182 230.987066,182 C242.8823,182 256.028696,178.535735 269.011281,168.88659 C275.451382,164.104619 276.927786,154.838451 272.31329,148.185988 C267.719218,141.533525 258.777316,140.003572 252.337215,144.785489 C230.597542,160.938129 211.277763,146.825788 209.062633,145.104266 C202.848297,140.13105 193.926872,141.257458 189.045605,147.675913 C184.18492,154.115641 185.251374,163.424301 191.46571,168.482611 L191.465972,168.482883 Z" id="Fill-1" fill="#3FBE79"></path>
                        <path d="M213,106 C213,127.333333 181,127.333333 181,106 C181,84.6666667 213,84.6666667 213,106" id="Fill-2" fill="#3FBE79"></path>
                        <path d="M279,105.999979 C279,97.1777142 271.822276,90 263,90 C254.177724,90 247,97.1777142 247,105.999979 C247,114.822244 254.177724,122 263,122 C271.822276,122.020027 279,114.842262 279,105.999979 Z" id="Fill-3" fill="#3FBE79"></path>
                        <path d="M377.464688,148.482883 C385.092133,154.709875 399.711883,162 416.996593,162 C428.888918,162 442.032101,158.535735 455.031983,148.865371 C461.450039,144.104673 462.926081,134.817232 458.312661,128.185988 C453.699188,121.533525 444.759525,120.003572 438.361941,124.785489 C416.627582,140.938129 397.292055,126.847062 395.056995,125.10432 C388.86465,120.131105 379.924934,121.257513 375.044861,127.675967 C370.185363,134.094476 371.251557,143.424356 377.464374,148.482665 L377.464688,148.482883 Z" id="Fill-4" fill="#3FBE79"></path>
                        <path d="M401,86 C401,77.1777236 393.822276,70 385,70 C376.177724,70 369,77.1777236 369,86 C369,94.8222764 376.177724,102 385,102 C393.822276,102 401,94.8222764 401,86 Z" id="Fill-5" fill="#3FBE79"></path>
                        <path d="M465,86 C465,77.1777236 457.822276,70 449,70 C440.177724,70 433,77.1777236 433,86 C433,94.8222764 440.177724,102 449,102 C457.801745,102 465,94.8222764 465,86 Z" id="Fill-6" fill="#3FBE79"></path>
                        <path d="M58.1395063,275.403864 C59.0889137,284.281756 64.5997456,291.321913 72.8965591,294.191887 C75.7653872,295.203566 78.943622,295.637128 82.2664686,295.637128 C83.6080237,295.637128 84.9907907,295.554517 86.3942694,295.43068 C83.0301052,301.707097 79.8516061,308.024739 76.7971657,314.136251 L76.3018296,315.127264 C72.7518945,322.250402 75.6413815,330.901021 82.7620689,334.451755 C84.8259428,335.484047 87.0137169,335.958941 89.1805679,335.958941 C94.4847588,335.958941 99.5617556,333.027181 102.079912,327.98961 L102.575248,326.998597 C113.658624,304.762905 125.133514,281.948991 143.110384,269.456412 C152.19181,274.308253 161.891943,278.210096 172.170101,280.894553 C173.387809,281.204225 174.605517,281.369393 175.802566,281.369393 C182.200459,281.369393 188.062068,277.075003 189.733794,270.591928 C191.715138,262.891095 187.11266,255.024829 179.414424,253.02219 C133.822898,241.171259 101.957069,199.898602 101.957069,152.705236 C101.957069,95.5594565 148.436237,49.0849057 205.562886,49.0849057 C262.689535,49.0849057 309.168704,95.5800696 309.168704,152.705236 C309.168704,188.402321 290.779186,221.251631 261.245003,240.099379 C261.141815,240.161324 261.059232,240.223269 260.956044,240.285161 C256.725055,242.948529 252.287794,245.364117 247.623445,247.428912 C240.358516,250.670344 237.097487,259.176831 240.317304,266.44426 C243.537121,273.71169 252.061128,276.973841 259.305452,273.752916 C262.339392,272.410899 265.290697,270.945045 268.180289,269.396581 C287.560479,281.805122 305.99068,304.742715 318.45677,332.493672 C320.850868,337.840914 326.113742,341 331.603915,341 C333.585259,341 335.587262,340.587104 337.506736,339.740594 C344.751059,336.478496 347.991482,327.951502 344.730453,320.684073 C332.017091,292.398709 313.503409,268.036699 293.153682,251.931547 C298.829309,246.914537 304.051076,241.401967 308.756637,235.517727 C323.327707,247.306819 340.251558,255.8956 358.476228,260.644006 C359.693936,260.953731 360.911644,261.118899 362.108693,261.118899 C368.527192,261.118899 374.347589,256.824509 376.039921,250.341434 C378.041924,242.640601 373.418787,234.774335 365.720551,232.771696 C350.406609,228.786978 336.371822,221.16865 324.421938,210.866342 C333.110793,193.089946 337.961124,173.290297 337.961124,152.705765 C337.961124,121.592182 327.084336,92.9965645 309.066255,70.3697532 C328.590686,44.2524615 358.764712,28.8090418 391.82833,28.8090418 C448.95445,28.8090418 495.434147,75.3042056 495.434147,132.450514 C495.434147,168.147599 477.044629,200.996909 447.510446,219.844657 C447.407258,219.906602 447.345334,219.968494 447.242146,220.030439 C443.011157,222.714419 438.55329,225.109394 433.888942,227.17419 C426.624012,230.415622 423.342378,238.922056 426.5828,246.210098 C428.956292,251.557341 434.239772,254.757652 439.750551,254.757652 C441.69063,254.757652 443.692581,254.365423 445.591554,253.51886 C448.501647,252.218175 451.349605,250.814213 454.156774,249.327693 C472.030085,262.603041 484.393145,290.186503 494.464715,312.895238 L497.436731,319.543218 C499.830829,324.890461 505.073097,328.049546 510.583876,328.049546 C512.544561,328.049546 514.546564,327.636651 516.486697,326.790141 C523.751626,323.528042 526.992154,315.001049 523.73102,307.733619 L520.800268,301.188704 C510.522111,278.085678 498.200791,250.688262 478.675831,232.393896 C507.136918,207.618568 524.267357,171.363344 524.267357,132.44692 C524.267357,59.4026471 464.869295,0 391.850151,0 C351.005397,0 313.462884,18.271639 288.508513,49.6124947 C265.78487,31.2784879 236.952347,20.2536653 205.561512,20.2536653 C132.563503,20.2536653 73.1601571,79.6721686 73.1601571,152.700585 C73.1601571,173.532474 78.113518,193.373349 86.8647198,211.167716 C74.3574175,225.144965 56.2569121,258.055057 58.1352266,275.395936 L58.1395063,275.403864 Z M103.277173,236.692514 C107.652615,242.019143 112.420416,247.015435 117.579837,251.598937 C112.482023,255.975885 97.6015456,263.511707 88.1280778,266.051343 C90.9969059,257.669222 97.7045755,244.97157 103.277173,236.692514 Z" id="Fill-7" fill="#35495E"></path>
                        <path d="M45.9280011,195.157626 C48.6825127,197.733068 52.1770126,199 55.6511998,199 C59.5157464,199 63.3594541,197.421546 66.1963738,194.326847 C71.5613145,188.448918 71.212054,179.269141 65.3947111,173.847941 L46.0719783,155.840902 C40.2544776,150.420234 31.1895958,150.773175 25.8036057,156.671681 C20.4386649,162.54961 20.7879834,171.729387 26.6052684,177.150587 L45.9280011,195.157626 Z" id="Fill-8" fill="#3FBE79"></path>
                        <path d="M12.7014535,228.322181 C17.9882271,228.933239 33.3385262,230.871816 40.5237726,232.599641 C41.6056356,232.852522 42.7079307,233 43.7693615,233 C50.2402637,233 56.0987217,228.406493 57.6293098,221.621419 C59.4051892,213.719957 54.6286464,205.796917 46.9737201,203.963959 C36.7063949,201.477544 16.6608639,199.201882 15.80386,199.096533 C8.00616929,198.169373 0.964106313,204.027179 0.0861987998,212.097697 C-0.771118671,220.167999 4.86274157,227.437798 12.7014012,228.322451 L12.7014535,228.322181 Z" id="Fill-9" fill="#3FBE79"></path>
                        <path d="M39.6444079,273.787945 C42.8101848,271.875263 45.7944644,270.066577 48.6578489,268.756844 C55.7556563,265.492863 58.9416685,256.927256 55.7757883,249.609272 C52.6301433,242.291288 44.3222501,239.006445 37.2043107,242.249775 C32.8891535,244.224779 29.0983566,246.532472 25.4080129,248.757193 C21.9801075,250.836139 18.7334929,252.790387 15.6486568,254.120876 C8.47032154,257.218539 5.10260551,265.700854 8.08729804,273.101864 C10.3456913,278.652887 15.5681289,282 21.0930622,282 C22.8876977,282 24.7427806,281.646608 26.4972037,280.877341 C31.3568015,278.798395 35.5710407,276.241252 39.6444079,273.788211 L39.6444079,273.787945 Z" id="Fill-10" fill="#3FBE79"></path>
                    </g>
                </g>
                <text id="2.500-Votes" font-family="PalanquinDark-SemiBold, Palanquin Dark SemiBold" font-size="100" font-weight="500" fill="#FAFAFA">
                    <tspan x="87" y="169">2.500 Votes</tspan>
                </text>
                <text id="eFlat4life" font-family="PalanquinDark-SemiBold, Palanquin Dark SemiBold" font-size="100" font-weight="500" fill="#3FBE79">
                    <tspan x="730" y="169">eFlat4life</tspan>
                </text>
            </g>
        </g>
    </g>
</svg>