<?xml version="1.0" encoding="UTF-8"?>
<svg width="1250px" height="1250px" viewBox="0 0 1250 1250" version="1.1" xmlns="http://www.w3.org/2000/svg" xmlns:xlink="http://www.w3.org/1999/xlink">
    <!-- Generator: Sketch 55.1 (78136) - https://sketchapp.com -->
    <title>500</title>
    <desc>Created with Sketch.</desc>
    <g id="Offers" stroke="none" stroke-width="1" fill="none" fill-rule="evenodd">
        <g id="Artboard" transform="translate(-1250.000000, -1406.000000)">
            <g id="500" transform="translate(1250.000000, 1406.000000)">
                <g id="10">
                    <g id="1_miniscooter">
                        <rect id="Rectangle" fill="#FAFAFA" x="0" y="0" width="1250" height="1250"></rect>
                        <rect id="Rectangle" fill="#35495E" x="0" y="0" width="1250" height="269"></rect>
                    </g>
                    <g id="Group-33" transform="translate(319.000000, 318.000000)">
                        <path d="M303.5,440.5 C324.173077,440.5 341,423.673077 341,403 C341,382.326923 324.173077,365.5 303.5,365.5 C282.826923,365.5 266,382.326923 266,403 C266,423.673077 282.796923,440.5 303.5,440.5 Z M303.5,380.884615 C315.699231,380.884615 325.615385,390.800769 325.615385,403 C325.615385,415.199231 315.699231,425.115385 303.5,425.115385 C291.300769,425.115385 281.384615,415.199231 281.384615,403 C281.384615,390.800769 291.300769,380.884615 303.5,380.884615 Z" id="Fill-1" fill="#3FBE79"></path>
                        <path d="M155,338.5 C150.56248,338.5 147,341.984853 147,346.257564 L147,361.742436 C147,366.015147 150.56248,369.5 155,369.5 C159.43752,369.5 163,366.015147 163,361.742436 L163,346.257564 C163,341.984853 159.40624,338.5 155,338.5 Z" id="Fill-2" fill="#3FBE79"></path>
                        <path d="M187,338.5 C182.56248,338.5 179,341.984853 179,346.257564 L179,361.742436 C179,366.015147 182.56248,369.5 187,369.5 C191.43752,369.5 195,366.015147 195,361.742436 L195,346.257564 C195,341.984853 191.43752,338.5 187,338.5 Z" id="Fill-3" fill="#3FBE79"></path>
                        <path d="M155,381.5 C150.56248,381.5 147,384.984853 147,389.257564 L147,404.742436 C147,409.015147 150.56248,412.5 155,412.5 C159.43752,412.5 163,409.015147 163,404.742436 L163,389.257564 C163,384.984853 159.40624,381.5 155,381.5 Z" id="Fill-4" fill="#3FBE79"></path>
                        <path d="M187,381.5 C182.56248,381.5 179,384.984853 179,389.257564 L179,404.742436 C179,409.015147 182.56248,412.5 187,412.5 C191.43752,412.5 195,409.015147 195,404.742436 L195,389.257564 C195,384.984853 191.43752,381.5 187,381.5 Z" id="Fill-5" fill="#3FBE79"></path>
                        <path d="M155,423.5 C150.56248,423.5 147,426.984853 147,431.257564 L147,446.742436 C147,451.015147 150.56248,454.5 155,454.5 C159.43752,454.5 163,451.015147 163,446.742436 L163,431.257564 C163,426.984853 159.40624,423.5 155,423.5 Z" id="Fill-6" fill="#3FBE79"></path>
                        <path d="M187,423.5 C182.56248,423.5 179,426.984853 179,431.257564 L179,446.742436 C179,451.015147 182.56248,454.5 187,454.5 C191.43752,454.5 195,451.015147 195,446.742436 L195,431.257564 C195,426.984853 191.43752,423.5 187,423.5 Z" id="Fill-7" fill="#3FBE79"></path>
                        <path d="M155,468.5 C150.56248,468.5 147,471.984853 147,476.257564 L147,491.742436 C147,496.015147 150.56248,499.5 155,499.5 C159.43752,499.5 163,496.015147 163,491.742436 L163,476.257564 C163,471.954521 159.40624,468.5 155,468.5 Z" id="Fill-8" fill="#3FBE79"></path>
                        <path d="M187,468.5 C182.56248,468.5 179,471.984853 179,476.257564 L179,491.742436 C179,496.015147 182.56248,499.5 187,499.5 C191.43752,499.5 195,496.015147 195,491.742436 L195,476.257564 C195,471.954521 191.43752,468.5 187,468.5 Z" id="Fill-9" fill="#3FBE79"></path>
                        <path d="M155,512.5 C150.56248,512.5 147,515.984853 147,520.257564 L147,535.742436 C147,540.015147 150.56248,543.5 155,543.5 C159.43752,543.5 163,540.015147 163,535.742436 L163,520.257564 C163,515.954521 159.40624,512.5 155,512.5 Z" id="Fill-10" fill="#3FBE79"></path>
                        <path d="M187,512.5 C182.56248,512.5 179,515.984853 179,520.257564 L179,535.742436 C179,540.015147 182.56248,543.5 187,543.5 C191.43752,543.5 195,540.015147 195,535.742436 L195,520.257564 C195,515.954521 191.43752,512.5 187,512.5 Z" id="Fill-11" fill="#3FBE79"></path>
                        <path d="M457,369.5 C461.43752,369.5 465,366.015147 465,361.742436 L465,346.257564 C465,341.984853 461.43752,338.5 457,338.5 C452.56248,338.5 449,341.984853 449,346.257564 L449,361.742436 C449,366.015147 452.59376,369.5 457,369.5 Z" id="Fill-12" fill="#3FBE79"></path>
                        <path d="M424,369.5 C428.43752,369.5 432,366.015147 432,361.742436 L432,346.257564 C432,341.984853 428.43752,338.5 424,338.5 C419.56248,338.5 416,341.984853 416,346.257564 L416,361.742436 C416,366.015147 419.56248,369.5 424,369.5 Z" id="Fill-13" fill="#3FBE79"></path>
                        <path d="M457,412.5 C461.43752,412.5 465,409.015147 465,404.742436 L465,389.257564 C465,384.984853 461.43752,381.5 457,381.5 C452.56248,381.5 449,384.984853 449,389.257564 L449,404.742436 C449,409.015147 452.59376,412.5 457,412.5 Z" id="Fill-14" fill="#3FBE79"></path>
                        <path d="M424,412.5 C428.43752,412.5 432,409.015147 432,404.742436 L432,389.257564 C432,384.984853 428.43752,381.5 424,381.5 C419.56248,381.5 416,384.984853 416,389.257564 L416,404.742436 C416,409.015147 419.56248,412.5 424,412.5 Z" id="Fill-15" fill="#3FBE79"></path>
                        <path d="M457,454.5 C461.43752,454.5 465,451.015147 465,446.742436 L465,431.257564 C465,426.984853 461.43752,423.5 457,423.5 C452.56248,423.5 449,426.984853 449,431.257564 L449,446.742436 C449,451.015147 452.59376,454.5 457,454.5 Z" id="Fill-16" fill="#3FBE79"></path>
                        <path d="M424,454.5 C428.43752,454.5 432,451.015147 432,446.742436 L432,431.257564 C432,426.984853 428.43752,423.5 424,423.5 C419.56248,423.5 416,426.984853 416,431.257564 L416,446.742436 C416,451.015147 419.56248,454.5 424,454.5 Z" id="Fill-17" fill="#3FBE79"></path>
                        <path d="M457,499.5 C461.43752,499.5 465,496.015147 465,491.742436 L465,476.257564 C465,471.984853 461.43752,468.5 457,468.5 C452.56248,468.5 449,471.984853 449,476.257564 L449,491.742436 C449,496.015147 452.59376,499.5 457,499.5 Z" id="Fill-18" fill="#3FBE79"></path>
                        <path d="M424,499.5 C428.43752,499.5 432,496.015147 432,491.742436 L432,476.257564 C432,471.984853 428.43752,468.5 424,468.5 C419.56248,468.5 416,471.984853 416,476.257564 L416,491.742436 C416,496.015147 419.56248,499.5 424,499.5 Z" id="Fill-19" fill="#3FBE79"></path>
                        <path d="M457,543.5 C461.43752,543.5 465,540.015147 465,535.742436 L465,520.257564 C465,515.984853 461.43752,512.5 457,512.5 C452.56248,512.5 449,515.984853 449,520.257564 L449,535.742436 C449,540.045479 452.59376,543.5 457,543.5 Z" id="Fill-20" fill="#3FBE79"></path>
                        <path d="M424,543.5 C428.43752,543.5 432,540.015147 432,535.742436 L432,520.257564 C432,515.984853 428.43752,512.5 424,512.5 C419.56248,512.5 416,515.984853 416,520.257564 L416,535.742436 C416,540.045479 419.56248,543.5 424,543.5 Z" id="Fill-21" fill="#3FBE79"></path>
                        <path d="M326,176.5 C330.43752,176.5 334,173.098912 334,168.928903 L334,152.071097 C334,147.901088 330.43752,144.5 326,144.5 C321.56248,144.5 318,147.901088 318,152.071097 L318,168.928903 C318,173.128515 321.59376,176.5 326,176.5 Z" id="Fill-22" fill="#3FBE79"></path>
                        <path d="M284,176.5 C288.43752,176.5 292,173.098912 292,168.928903 L292,152.071097 C292,147.901088 288.43752,144.5 284,144.5 C279.56248,144.5 276,147.901088 276,152.071097 L276,168.928903 C276,173.128515 279.59376,176.5 284,176.5 Z" id="Fill-23" fill="#3FBE79"></path>
                        <path d="M326,223.5 C330.43752,223.5 334,220.098912 334,215.928903 L334,199.071097 C334,194.901088 330.43752,191.5 326,191.5 C321.56248,191.5 318,194.901088 318,199.071097 L318,215.928903 C318,220.098912 321.59376,223.5 326,223.5 Z" id="Fill-24" fill="#3FBE79"></path>
                        <path d="M284,223.5 C288.43752,223.5 292,220.098912 292,215.928903 L292,199.071097 C292,194.901088 288.43752,191.5 284,191.5 C279.56248,191.5 276,194.901088 276,199.071097 L276,215.928903 C276,220.098912 279.59376,223.5 284,223.5 Z" id="Fill-25" fill="#3FBE79"></path>
                        <path d="M326,78.5 C330.43752,78.5 334,75.0989117 334,70.9289027 L334,54.0710973 C334,49.9010883 330.43752,46.5 326,46.5 C321.56248,46.5 318,49.9010883 318,54.0710973 L318,70.9289027 C318,75.0989117 321.59376,78.5 326,78.5 Z" id="Fill-26" fill="#3FBE79"></path>
                        <path d="M284,78.5 C288.43752,78.5 292,75.0989117 292,70.9289027 L292,54.0710973 C292,49.9010883 288.43752,46.5 284,46.5 C279.56248,46.5 276,49.9010883 276,54.0710973 L276,70.9289027 C276,75.0989117 279.59376,78.5 284,78.5 Z" id="Fill-27" fill="#3FBE79"></path>
                        <path d="M326,128.5 C330.43752,128.5 334,125.098912 334,120.928903 L334,104.071097 C334,99.9010883 330.43752,96.5 326,96.5 C321.56248,96.5 318,99.9010883 318,104.071097 L318,120.928903 C318,125.128515 321.59376,128.5 326,128.5 Z" id="Fill-28" fill="#3FBE79"></path>
                        <path d="M284,128.5 C288.43752,128.5 292,125.098912 292,120.928903 L292,104.071097 C292,99.9010883 288.43752,96.5 284,96.5 C279.56248,96.5 276,99.9010883 276,104.071097 L276,120.928903 C276,125.128515 279.59376,128.5 284,128.5 Z" id="Fill-29" fill="#3FBE79"></path>
                        <path d="M326,272.5 C330.43752,272.5 334,269.098912 334,264.928903 L334,248.071097 C334,243.901088 330.43752,240.5 326,240.5 C321.56248,240.5 318,243.901088 318,248.071097 L318,264.928903 C318,269.098912 321.59376,272.5 326,272.5 Z" id="Fill-30" fill="#3FBE79"></path>
                        <path d="M284,272.5 C288.43752,272.5 292,269.098912 292,264.928903 L292,248.071097 C292,243.901088 288.43752,240.5 284,240.5 C279.56248,240.5 276,243.901088 276,248.071097 L276,264.928903 C276,269.098912 279.59376,272.5 284,272.5 Z" id="Fill-31" fill="#3FBE79"></path>
                        <path d="M606.322698,599.154221 L584.257073,599.154221 L584.257073,572.32152 C601.22573,568.783787 614,553.703412 614,535.715424 C614,522.943393 607.551926,511.671064 597.748188,504.89554 C607.551465,498.149872 614,486.876852 614,474.075656 C614,453.44899 597.208635,436.659844 576.582073,436.659844 C555.95551,436.659844 539.166448,453.44899 539.166448,474.075656 C539.166448,486.847687 545.61222,498.120016 555.415958,504.89554 C545.61268,511.641208 539.166448,522.914228 539.166448,535.715424 C539.166448,553.704179 551.938415,568.784094 568.907073,572.32152 L568.907073,599.154221 L506.84779,599.154221 L506.84779,290.203227 C506.84779,289.483692 506.787848,288.764157 506.577937,288.074631 C506.398112,287.385029 506.09825,286.725513 505.738446,286.125862 L454.021993,196.604215 C452.702814,194.325649 450.304377,192.88658 447.666172,192.766696 C444.907931,192.706754 442.509493,193.905978 441.040498,196.094515 L388.694696,272.365209 L388.724705,8.17503838 C388.724705,3.94778074 385.306951,0.5 381.049705,0.5 L230.51993,0.5 C226.262684,0.5 222.84493,3.94778074 222.84493,8.17503838 L222.84493,267.384109 L177.963832,196.360072 C176.554779,194.141525 174.096323,192.792407 171.488051,192.792407 C168.84977,192.792407 166.391391,194.141525 165.01227,196.360072 L108.439077,285.881719 C108.019332,286.511303 107.689537,287.200905 107.479702,287.950373 C107.269868,288.69984 107.179917,289.449384 107.179917,290.198928 L107.149908,599.149923 L45.090625,599.149923 L45.090625,572.317222 C62.0592825,568.779489 74.83125,553.699113 74.83125,535.711126 C74.83125,522.939095 68.385478,511.666766 58.58174,504.891242 C68.3850175,498.145574 74.83125,486.872554 74.83125,474.101291 C74.83125,453.474625 58.0421875,436.685478 37.415625,436.685478 C16.7890625,436.685478 0,453.474625 0,474.101291 C0,486.873322 6.445772,498.145651 16.24951,504.921175 C6.4462325,511.666843 0,522.939862 0,535.711126 C0,553.699881 12.7719675,568.779796 29.740625,572.317222 L29.740625,599.149923 L7.675,599.149923 C3.41775425,599.149923 0,602.597704 0,606.824962 C0,611.052219 3.41775425,614.5 7.675,614.5 L606.325,614.5 C610.582246,614.5 614,611.052219 614,606.824962 C614,602.597704 610.582246,599.149923 606.325,599.149923 L606.322698,599.154221 Z M576.582073,452.039086 C588.753855,452.039086 598.647698,461.932978 598.647698,474.104821 C598.647698,486.276664 588.753855,496.170556 576.582073,496.170556 C564.41029,496.170556 554.516447,486.276664 554.516447,474.104821 C554.516447,461.932978 564.41029,452.039086 576.582073,452.039086 Z M554.516447,535.712354 C554.516447,523.540511 564.41029,513.646619 576.582073,513.646619 C588.753855,513.646619 598.647698,523.540511 598.647698,535.712354 C598.647698,547.884197 588.753855,557.778089 576.582073,557.778089 C564.41029,557.778089 554.516447,547.884197 554.516447,535.712354 Z M37.4133225,452.039086 C49.585105,452.039086 59.4789475,461.932978 59.4789475,474.104821 C59.4789475,486.276664 49.585105,496.170556 37.4133225,496.170556 C25.24154,496.170556 15.3476975,486.276664 15.3476975,474.104821 C15.3476975,461.932978 25.24154,452.039086 37.4133225,452.039086 Z M15.3476975,535.712354 C15.3476975,523.540511 25.24154,513.646619 37.4133225,513.646619 C49.585105,513.646619 59.4789475,523.540511 59.4789475,535.712354 C59.4789475,547.884197 49.585105,557.778089 37.4133225,557.778089 C25.24154,557.778089 15.3476975,547.884197 15.3476975,535.712354 Z M446.828523,214.826675 L485.862805,282.403085 L400.47843,282.403085 L446.828523,214.826675 Z M491.499325,297.755464 L491.499325,599.154221 L388.7234,599.154221 L388.7234,297.755464 L491.499325,297.755464 Z M330.293625,599.154221 L281.305635,599.154221 L281.305635,548.577253 L330.293625,548.577253 L330.293625,599.154221 Z M337.968625,533.227177 L273.630635,533.227177 C269.373389,533.227177 265.955635,536.674957 265.955635,540.902215 L265.955635,599.154221 L238.193625,599.154221 L238.193625,478.90172 L373.3734,478.90172 L373.3734,599.154221 L345.61139,599.154221 L345.61139,540.902215 C345.641399,536.644948 342.193636,533.227177 337.966399,533.227177 L337.968625,533.227177 Z M373.375702,463.552411 L238.195928,463.552411 L238.195928,338.47231 L373.375702,338.47231 L373.375702,463.552411 Z M373.375702,15.8520723 L373.375702,323.122234 L238.195928,323.122234 L238.195928,15.8520723 L373.375702,15.8520723 Z M171.454127,214.804417 L214.146315,282.380827 L128.73124,282.410837 L171.454127,214.804417 Z M122.49607,297.763907 L222.83902,297.763907 L222.83902,599.162664 L122.49607,599.162664 L122.49607,297.763907 Z" id="Fill-32" fill="#35495E"></path>
                    </g>
                    <text id="+500€" font-family="PalanquinDark-SemiBold, Palanquin Dark SemiBold" font-size="200" font-weight="500" fill="#3FBE79">
                        <tspan x="319.4" y="1152">+500€</tspan>
                    </text>
                </g>
                <text id="50-Votes" font-family="PalanquinDark-SemiBold, Palanquin Dark SemiBold" font-size="100" font-weight="500" fill="#FAFAFA">
                    <tspan x="87" y="169">50 Votes</tspan>
                </text>
                <text id="1.000-ø" font-family="PalanquinDark-SemiBold, Palanquin Dark SemiBold" font-size="125" font-weight="500" fill="#3FBE79">
                    <tspan x="759.95" y="175">1.000 </tspan>
                    <tspan x="1118.7" y="175" font-size="100">ø</tspan>
                    <tspan x="1179" y="175"> </tspan>
                </text>
            </g>
        </g>
    </g>
</svg>