<?xml version="1.0" encoding="UTF-8"?>
<svg width="1250px" height="1250px" viewBox="0 0 1250 1250" version="1.1" xmlns="http://www.w3.org/2000/svg" xmlns:xlink="http://www.w3.org/1999/xlink">
    <!-- Generator: Sketch 55.1 (78136) - https://sketchapp.com -->
    <title>5000</title>
    <desc>Created with Sketch.</desc>
    <g id="Offers" stroke="none" stroke-width="1" fill="none" fill-rule="evenodd">
        <g id="Artboard" transform="translate(-2577.000000, -1406.000000)">
            <g id="5000" transform="translate(2577.000000, 1406.000000)">
                <g id="10">
                    <g id="1_miniscooter">
                        <rect id="Rectangle" fill="#FAFAFA" x="0" y="0" width="1250" height="1250"></rect>
                        <rect id="Rectangle" fill="#35495E" x="0" y="0" width="1250" height="269"></rect>
                    </g>
                    <g id="Group-36" transform="translate(293.000000, 352.000000)">
                        <path d="M182.381649,185 C177.869949,185 174.881649,188.238135 174.881649,193.127032 L174.881649,202.872968 C174.881649,207.761865 177.869949,211 182.381649,211 C186.893349,211 189.881649,207.761865 189.881649,202.872968 L189.881649,193.127032 C189.881649,188.238135 186.864099,185 182.381649,185 Z" id="Fill-1" fill="#3FBE79"></path>
                        <path d="M145.381649,185 C140.869949,185 137.881649,188.238135 137.881649,193.127032 L137.881649,202.872968 C137.881649,207.761865 140.869949,211 145.381649,211 C149.893349,211 152.881649,207.761865 152.881649,202.872968 L152.881649,193.127032 C152.881649,188.238135 149.131649,185 145.381649,185 Z" id="Fill-2" fill="#3FBE79"></path>
                        <path d="M182.381649,222 C177.869949,222 174.881649,225.238135 174.881649,230.127032 L174.881649,239.872968 C174.881649,244.761865 177.869949,248 182.381649,248 C186.893349,248 189.881649,244.761865 189.881649,239.872968 L189.881649,230.127032 C189.881649,226.063516 186.864099,222 182.381649,222 Z" id="Fill-3" fill="#3FBE79"></path>
                        <path d="M145.381649,222 C140.869949,222 137.881649,225.238135 137.881649,230.127032 L137.881649,239.872968 C137.881649,244.761865 140.869949,248 145.381649,248 C149.893349,248 152.881649,244.761865 152.881649,239.872968 L152.881649,230.127032 C152.881649,226.063516 149.131649,222 145.381649,222 Z" id="Fill-4" fill="#3FBE79"></path>
                        <path d="M182.381649,257 C177.869949,257 174.881649,260.238135 174.881649,265.127032 L174.881649,274.872968 C174.881649,279.761865 177.869949,283 182.381649,283 C186.893349,283 189.881649,279.761865 189.881649,274.872968 L189.881649,265.127032 C189.881649,260.238135 186.864099,257 182.381649,257 Z" id="Fill-5" fill="#3FBE79"></path>
                        <path d="M145.381649,257 C140.869949,257 137.881649,260.238135 137.881649,265.127032 L137.881649,274.872968 C137.881649,279.761865 140.869949,283 145.381649,283 C149.893349,283 152.881649,279.761865 152.881649,274.872968 L152.881649,265.127032 C152.881649,260.238135 149.131649,257 145.381649,257 Z" id="Fill-6" fill="#3FBE79"></path>
                        <path d="M182.381649,295 C177.869949,295 174.881649,298.238135 174.881649,303.127032 L174.881649,312.872968 C174.881649,317.761865 177.869949,321 182.381649,321 C186.893349,321 189.881649,317.761865 189.881649,312.872968 L189.881649,303.127032 C189.881649,299.063516 186.864099,295 182.381649,295 Z" id="Fill-7" fill="#3FBE79"></path>
                        <path d="M145.381649,295 C140.869949,295 137.881649,298.238135 137.881649,303.127032 L137.881649,312.872968 C137.881649,317.761865 140.869949,321 145.381649,321 C149.893349,321 152.881649,317.761865 152.881649,312.872968 L152.881649,303.127032 C152.881649,299.063516 149.131649,295 145.381649,295 Z" id="Fill-8" fill="#3FBE79"></path>
                        <path d="M182.381649,331 C177.869949,331 174.881649,334.238135 174.881649,339.127032 L174.881649,348.872968 C174.881649,353.761865 177.869949,357 182.381649,357 C186.893349,357 189.881649,353.761865 189.881649,348.872968 L189.881649,339.127032 C189.881649,334.26983 186.864099,331 182.381649,331 Z" id="Fill-9" fill="#3FBE79"></path>
                        <path d="M145.381649,331 C140.869949,331 137.881649,334.238135 137.881649,339.127032 L137.881649,348.872968 C137.881649,353.761865 140.869949,357 145.381649,357 C149.893349,357 152.881649,353.761865 152.881649,348.872968 L152.881649,339.127032 C152.881649,334.26983 149.131649,331 145.381649,331 Z" id="Fill-10" fill="#3FBE79"></path>
                        <path d="M343.381649,241 C347.893349,241 350.881649,238.085723 350.881649,233.685781 L350.881649,218.314219 C350.881649,213.914277 347.893349,211 343.381649,211 C338.869949,211 335.881649,213.914277 335.881649,218.314219 L335.881649,233.685781 C335.881649,237.342891 338.869949,241 343.381649,241 Z" id="Fill-11" fill="#3FBE79"></path>
                        <path d="M310.381649,241 C314.893349,241 317.881649,238.085723 317.881649,233.685781 L317.881649,218.314219 C317.881649,213.914277 314.893349,211 310.381649,211 C305.869949,211 302.881649,213.914277 302.881649,218.314219 L302.881649,233.685781 C302.881649,237.342891 306.631649,241 310.381649,241 Z" id="Fill-12" fill="#3FBE79"></path>
                        <path d="M278.381649,241 C282.893349,241 285.881649,238.085723 285.881649,233.685781 L285.881649,218.314219 C285.881649,213.914277 282.893349,211 278.381649,211 C273.869949,211 270.881649,213.914277 270.881649,218.314219 L270.881649,233.685781 C270.881649,237.342891 274.631649,241 278.381649,241 Z" id="Fill-13" fill="#3FBE79"></path>
                        <path d="M343.381649,305 C347.893349,305 350.881649,302.085723 350.881649,297.685781 L350.881649,282.314219 C350.881649,277.914277 347.893349,275 343.381649,275 C338.869949,275 335.881649,277.914277 335.881649,282.314219 L335.881649,297.685781 C335.881649,302.085723 338.869949,305 343.381649,305 Z" id="Fill-14" fill="#3FBE79"></path>
                        <path d="M310.381649,305 C314.893349,305 317.881649,302.085723 317.881649,297.685781 L317.881649,282.314219 C317.881649,277.914277 314.893349,275 310.381649,275 C305.869949,275 302.881649,277.914277 302.881649,282.314219 L302.881649,297.685781 C302.881649,302.085723 306.631649,305 310.381649,305 Z" id="Fill-15" fill="#3FBE79"></path>
                        <path d="M278.381649,305 C282.893349,305 285.881649,302.085723 285.881649,297.685781 L285.881649,282.314219 C285.881649,277.914277 282.893349,275 278.381649,275 C273.869949,275 270.881649,277.914277 270.881649,282.314219 L270.881649,297.685781 C270.881649,302.085723 274.631649,305 278.381649,305 Z" id="Fill-16" fill="#3FBE79"></path>
                        <path d="M343.381649,372 C347.893349,372 350.881649,369.085723 350.881649,364.685781 L350.881649,349.314219 C350.881649,344.914277 347.893349,342 343.381649,342 C338.869949,342 335.881649,344.914277 335.881649,349.314219 L335.881649,364.685781 C335.881649,368.342891 338.869949,372 343.381649,372 Z" id="Fill-17" fill="#3FBE79"></path>
                        <path d="M310.381649,372 C314.893349,372 317.881649,369.085723 317.881649,364.685781 L317.881649,349.314219 C317.881649,344.914277 314.893349,342 310.381649,342 C305.869949,342 302.881649,344.914277 302.881649,349.314219 L302.881649,364.685781 C302.881649,368.342891 306.631649,372 310.381649,372 Z" id="Fill-18" fill="#3FBE79"></path>
                        <path d="M278.381649,372 C282.893349,372 285.881649,369.085723 285.881649,364.685781 L285.881649,349.314219 C285.881649,344.914277 282.893349,342 278.381649,342 C273.869949,342 270.881649,344.914277 270.881649,349.314219 L270.881649,364.685781 C270.881649,368.342891 274.631649,372 278.381649,372 Z" id="Fill-19" fill="#3FBE79"></path>
                        <path d="M343.381649,438 C347.893349,438 350.881649,435.085723 350.881649,430.685781 L350.881649,415.314219 C350.881649,410.914277 347.893349,408 343.381649,408 C338.869949,408 335.881649,410.914277 335.881649,415.314219 L335.881649,430.685781 C335.881649,435.057197 338.869949,438 343.381649,438 Z" id="Fill-20" fill="#3FBE79"></path>
                        <path d="M310.381649,438 C314.893349,438 317.881649,435.085723 317.881649,430.685781 L317.881649,415.314219 C317.881649,410.914277 314.893349,408 310.381649,408 C305.869949,408 302.881649,410.914277 302.881649,415.314219 L302.881649,430.685781 C302.881649,435.057197 306.631649,438 310.381649,438 Z" id="Fill-21" fill="#3FBE79"></path>
                        <path d="M278.381649,438 C282.893349,438 285.881649,435.085723 285.881649,430.685781 L285.881649,415.314219 C285.881649,410.914277 282.893349,408 278.381649,408 C273.869949,408 270.881649,410.914277 270.881649,415.314219 L270.881649,430.685781 C270.881649,435.057197 274.631649,438 278.381649,438 Z" id="Fill-22" fill="#3FBE79"></path>
                        <path d="M343.381649,503 C347.893349,503 350.881649,500.085723 350.881649,495.685781 L350.881649,480.314219 C350.881649,475.914277 347.893349,473 343.381649,473 C338.869949,473 335.881649,475.914277 335.881649,480.314219 L335.881649,495.685781 C335.881649,499.342891 338.869949,503 343.381649,503 Z" id="Fill-23" fill="#3FBE79"></path>
                        <path d="M310.381649,503 C314.893349,503 317.881649,500.085723 317.881649,495.685781 L317.881649,480.314219 C317.881649,475.914277 314.893349,473 310.381649,473 C305.869949,473 302.881649,475.914277 302.881649,480.314219 L302.881649,495.685781 C302.881649,499.342891 306.631649,503 310.381649,503 Z" id="Fill-24" fill="#3FBE79"></path>
                        <path d="M278.381649,503 C282.893349,503 285.881649,500.085723 285.881649,495.685781 L285.881649,480.314219 C285.881649,475.914277 282.893349,473 278.381649,473 C273.869949,473 270.881649,475.914277 270.881649,480.314219 L270.881649,495.685781 C270.881649,499.342891 274.631649,503 278.381649,503 Z" id="Fill-25" fill="#3FBE79"></path>
                        <path d="M611.064739,549.75824 L575.269664,549.75824 L575.269664,529.234241 C588.212929,525.432375 597.347559,514.026774 597.347559,500.33397 C597.347559,490.443033 592.765314,481.324636 585.147739,476.008105 C589.729984,471.434003 592.765009,465.375044 592.765009,457.77131 C592.765009,444.078506 581.339104,431.930781 566.878479,431.930781 C552.417853,431.930781 540.991948,443.336382 540.991948,457.77131 C540.991948,464.602809 544.026974,471.464114 548.609218,476.008105 C540.991948,481.324788 536.409399,490.443033 536.409399,500.33397 C536.409399,514.768898 546.317944,526.947038 560.035123,529.976366 L560.035123,550.500364 L518.140138,550.530095 L518.140138,331.534958 C518.140138,326.960856 515.105113,323.931225 510.522868,323.931225 L482.345063,323.931225 L482.345063,57.8005426 C482.345063,53.2264405 479.310038,50.1968089 474.727793,50.1968089 L403.137643,50.1968089 L403.137643,7.60373377 C403.137643,3.02963168 400.102618,0 395.520373,0 C390.938128,0 387.903103,3.02963168 387.903103,7.60373377 L387.903103,50.1968089 L310.184097,50.1968089 C305.601852,50.1968089 302.566827,53.2264405 302.566827,57.8005426 L302.566827,158.937805 L237.046117,158.937805 C232.463872,158.937805 229.428847,161.967437 229.428847,166.541539 L229.428847,377.932942 L217.229028,377.932942 L217.258735,159.713386 C217.258735,155.139284 214.22371,152.109653 209.641465,152.109653 L116.718388,152.109653 C112.136143,152.109653 109.101118,155.139284 109.101118,159.713386 L109.101118,377.19538 L93.0926634,377.19538 C88.5104184,377.19538 85.4753934,380.225011 85.4753934,384.799113 L85.4753934,549.792532 L48.1629579,549.792532 L48.1629579,530.010659 C60.3627776,526.208792 69.4974078,514.803191 69.4974078,501.110387 C69.4974078,491.21945 64.9151628,482.873592 57.2975881,477.526647 C61.8798331,472.952545 64.1412482,466.893585 64.1412482,460.031976 C64.1412482,446.339172 52.7153432,434.933572 38.9981634,434.933572 C25.2809835,434.933572 13.8550785,446.339172 13.8550785,460.031976 C13.8550785,466.863475 16.8901036,472.95224 20.6987386,477.526647 C13.0814686,482.843329 8.49891894,491.961575 8.49891894,501.110387 C8.49891894,515.545316 18.4074638,526.950916 31.350729,530.010659 L31.350729,549.792532 L8.49891894,549.792532 C3.916674,549.792532 0.881648936,552.822164 0.881648936,557.396266 C0.881648936,561.970368 3.916674,565 8.49891894,565 L610.26325,565 C614.845495,565 617.881649,561.970368 617.881649,557.396266 C617.94001,552.822164 615.648888,549.762878 611.066643,549.762878 L611.064739,549.75824 Z M566.878479,447.107834 C572.204626,447.107834 577.530469,451.681936 577.530469,457.740895 C577.530469,463.829813 572.948224,468.373956 566.878479,468.373956 C560.778721,468.373956 556.226488,463.799854 556.226488,457.740895 C556.226488,451.681936 561.552636,447.107834 566.878479,447.107834 Z M551.643939,499.591085 C551.643939,491.214812 558.487599,484.383618 566.878479,484.383618 C575.269664,484.383618 582.113019,491.215116 582.113019,499.591085 C582.113019,507.967358 575.269359,514.798553 566.878479,514.798553 C558.517002,514.798553 551.643939,507.9374 551.643939,499.591085 Z M39.0245191,450.166816 C44.3506667,450.166816 48.9330639,454.740918 48.9330639,460.057753 C48.9330639,465.374435 44.350819,469.94869 39.0245191,469.94869 C33.6983716,469.94869 29.1159743,465.374588 29.1159743,460.057753 C29.1159743,453.968835 33.6685119,450.166816 39.0245191,450.166816 Z M24.5341864,501.105749 C24.5341864,492.729476 31.3778464,486.670821 38.9948118,486.670821 C46.6117771,486.670821 53.4554372,493.502319 53.4554372,501.105749 C53.4554372,508.709179 46.6117771,515.540677 38.9948118,515.540677 C31.4073253,515.540677 24.5341864,509.481414 24.5341864,501.105749 Z M471.660319,549.757479 L414.530794,549.757479 L414.530794,484.353203 C414.530794,468.373196 427.474059,455.452932 442.708599,455.452932 C457.943139,455.452932 470.886404,468.373196 470.886404,484.353203 L470.916187,549.757479 L471.660319,549.757479 Z M443.482513,439.50334 C419.113343,439.50334 400.070168,459.285213 400.070168,483.611078 L400.070168,549.015355 L387.126903,549.015355 L387.126903,425.066891 L502.90179,425.066891 L502.90179,549.752917 L486.893335,549.752917 L486.893335,484.348641 C486.893335,460.05243 467.105953,439.498777 443.48099,439.498777 L443.482513,439.50334 Z M502.903313,409.860944 L386.351465,409.860944 L386.351465,380.960673 L502.903313,380.960673 L502.903313,409.860944 Z M502.903313,365.753205 L386.351465,365.753205 L386.351465,339.140137 L502.903313,339.140137 L502.903313,365.753205 Z M317.796035,64.6605552 L467.109761,64.6605552 L467.109761,323.187503 L386.351465,323.187503 L386.351465,166.53538 C386.351465,161.961278 383.31644,158.931646 378.734195,158.931646 L317.796035,158.931646 L317.796035,64.6605552 Z M371.116925,174.139114 L371.116925,549.748355 L244.685477,549.748355 L244.685477,174.139114 L371.116925,174.139114 Z M124.332611,167.307615 L202.798109,167.307615 L202.798109,377.185875 L124.332611,377.15622 L124.332611,167.307615 Z M100.706886,392.362928 L230.200477,392.362928 L230.200477,549.752613 L210.383387,549.752613 L210.383387,484.348336 C210.383387,460.022471 190.566297,440.240598 166.971042,440.240598 C142.601872,440.240598 123.558696,460.022471 123.558696,484.348336 L123.558696,549.752613 L101.480801,549.752613 L101.480801,392.362928 L100.706886,392.362928 Z M195.176269,549.752613 L138.046744,549.752613 L138.046744,484.348336 C138.046744,468.36833 150.990009,455.448065 166.224549,455.448065 C182.233004,455.448065 194.402354,468.36833 194.402354,484.348336 L194.402354,549.752613 L195.176269,549.752613 Z" id="Fill-26" fill="#35495E"></path>
                        <path d="M408.67485,171 L446.088448,171 C450.776526,171 453.881649,168.0117 453.881649,163.5 C453.881649,158.9883 450.776526,156 446.088448,156 L408.67485,156 C403.986772,156 400.881649,158.9883 400.881649,163.5 C400.881649,168.0117 403.986772,171 408.67485,171 Z" id="Fill-27" fill="#3FBE79"></path>
                        <path d="M408.67485,204 L446.088448,204 C450.776526,204 453.881649,201.0117 453.881649,196.5 C453.881649,191.9883 450.776526,189 446.088448,189 L408.67485,189 C403.986772,189 400.881649,191.9883 400.881649,196.5 C400.881649,200.98245 403.986772,204 408.67485,204 Z" id="Fill-28" fill="#3FBE79"></path>
                        <path d="M408.67485,238 L446.088448,238 C450.776526,238 453.881649,235.0117 453.881649,230.5 C453.881649,225.9883 450.776526,223 446.088448,223 L408.67485,223 C403.986772,223 400.881649,225.9883 400.881649,230.5 C400.881649,235.0117 403.986772,238 408.67485,238 Z" id="Fill-29" fill="#3FBE79"></path>
                        <path d="M408.67485,102 L446.088448,102 C450.776526,102 453.881649,99.0117 453.881649,94.5 C453.881649,89.9883 450.776526,87 446.088448,87 L408.67485,87 C403.986772,87 400.881649,89.9883 400.881649,94.5 C400.881649,98.98245 403.986772,102 408.67485,102 Z" id="Fill-30" fill="#3FBE79"></path>
                        <path d="M408.67485,135 L446.088448,135 C450.776526,135 453.881649,132.0117 453.881649,127.5 C453.881649,122.9883 450.776526,120 446.088448,120 L408.67485,120 C403.986772,120 400.881649,122.9883 400.881649,127.5 C400.881649,132.0117 403.986772,135 408.67485,135 Z" id="Fill-31" fill="#3FBE79"></path>
                        <path d="M341.67485,102 L379.088448,102 C383.776526,102 386.881649,99.0117 386.881649,94.5 C386.881649,89.9883 383.776526,87 379.088448,87 L341.67485,87 C336.986772,87 333.881649,89.9883 333.881649,94.5 C333.881649,98.98245 337.017165,102 341.67485,102 Z" id="Fill-32" fill="#3FBE79"></path>
                        <path d="M386.881649,127.5 C386.881649,122.9883 383.776526,120 379.088448,120 L341.67485,120 C336.986772,120 333.881649,122.9883 333.881649,127.5 C333.881649,132.0117 336.986772,135 341.67485,135 L379.088448,135 C382.985049,135 386.881649,131.25 386.881649,127.5 Z" id="Fill-33" fill="#3FBE79"></path>
                        <path d="M408.67485,271 L446.088448,271 C450.776526,271 453.881649,268.0117 453.881649,263.5 C453.881649,258.9883 450.776526,256 446.088448,256 L408.67485,256 C403.986772,256 400.881649,258.9883 400.881649,263.5 C400.881649,267.98245 403.986772,271 408.67485,271 Z" id="Fill-34" fill="#3FBE79"></path>
                        <path d="M408.67485,306 L446.088448,306 C450.776526,306 453.881649,303.0117 453.881649,298.5 C453.881649,293.9883 450.776526,291 446.088448,291 L408.67485,291 C403.986772,291 400.881649,293.9883 400.881649,298.5 C400.881649,303.0117 403.986772,306 408.67485,306 Z" id="Fill-35" fill="#3FBE79"></path>
                    </g>
                    <text id="+7.500€" font-family="PalanquinDark-SemiBold, Palanquin Dark SemiBold" font-size="200" font-weight="500" fill="#3FBE79">
                        <tspan x="309.4" y="1152">+7.500€</tspan>
                    </text>
                </g>
                <text id="250-Votes" font-family="PalanquinDark-SemiBold, Palanquin Dark SemiBold" font-size="100" font-weight="500" fill="#FAFAFA">
                    <tspan x="87" y="169">250 Votes</tspan>
                </text>
                <text id="10.000-ø" font-family="PalanquinDark-SemiBold, Palanquin Dark SemiBold" font-size="125" font-weight="500" fill="#3FBE79">
                    <tspan x="677.575" y="175">10.000 </tspan>
                    <tspan x="1118.7" y="175" font-size="100">ø</tspan>
                    <tspan x="1179" y="175"> </tspan>
                </text>
            </g>
        </g>
    </g>
</svg>