<?xml version="1.0" encoding="UTF-8"?>
<svg width="1250px" height="1000px" viewBox="0 0 1250 1000" version="1.1" xmlns="http://www.w3.org/2000/svg" xmlns:xlink="http://www.w3.org/1999/xlink">
    <!-- Generator: Sketch 55.1 (78136) - https://sketchapp.com -->
    <title>car</title>
    <desc>Created with Sketch.</desc>
    <g id="Offers" stroke="none" stroke-width="1" fill="none" fill-rule="evenodd">
        <g id="Artboard" transform="translate(0.000000, -3062.000000)">
            <g id="car" transform="translate(0.000000, 3062.000000)">
                <rect id="Rectangle" fill="#FAFAFA" x="0" y="0" width="1250" height="1000"></rect>
                <g id="miniscooter" transform="translate(92.000000, 732.000000)">
                    <g>
                        <path d="M49.9594019,54.4521528 C46.2654722,65.8108459 41.239135,76.5956778 33.029193,86.8264037 C31.8293491,88.322707 31.271934,90.2331925 31.4797886,92.143413 C31.6970758,94.0443824 32.6607433,95.7853356 34.1629849,96.9899141 C35.665154,98.1850727 37.583129,98.7403111 39.5008379,98.5238725 C41.4092594,98.3168295 43.16647,97.356925 44.3663381,95.8605495 C53.3889302,84.6333963 58.8873783,72.99235 62.8836332,61.3036024 C71.7265232,68.3711052 77.3952408,79.1747285 77.3952408,91.3433802 C77.3952408,112.63045 60.0681394,129.889891 38.6976204,129.889891 C17.3271014,129.889891 0,112.63045 0,91.3433802 C0,70.0563104 17.3271014,52.7968679 38.6976204,52.7968679 C42.6187052,52.7958574 46.3883371,53.3699113 49.9594019,54.4521528 Z M208,105.79731 C208,119.104047 197.17289,129.888879 183.813987,129.888879 C176.123561,129.888879 169.274082,126.35031 164.842963,120.779375 L186.383509,112.497898 C188.320277,111.923844 189.926276,110.578089 190.823819,108.771173 C191.721338,106.973725 191.825265,104.875085 191.107255,103.002447 C190.389221,101.120293 188.915398,99.6240862 187.044731,98.8615881 C185.174088,98.1087265 183.076773,98.1651972 181.243957,99.0215802 L159.703411,107.303057 C159.675065,106.804289 159.627829,106.305522 159.627829,105.797334 C159.627829,92.4905967 170.45494,81.7057647 183.813842,81.7057647 C197.17289,81.7057647 208,92.4905726 208,105.79731 Z" id="Fill-1" fill="#35495E" transform="translate(104.000000, 91.343380) scale(-1, 1) translate(-104.000000, -91.343380) "></path>
                        <path d="M43.3193124,0.19511906 C47.2309068,0.19511906 50.4243757,3.27495211 50.5755473,7.14856653 L55.7153803,10.6252903 C57.4349629,11.7778937 58.2286982,13.9131221 57.6806106,15.9159568 C56.4334574,20.4791114 55.3657991,25.0991028 54.2793715,29.7473917 C64.218962,36.4930823 71.087714,46.4792003 74.8387036,58.9204294 C79.0149087,72.7612969 79.5721875,89.6147605 77.1818628,109.256133 L77.1818628,109.331714 C77.2007532,109.964708 77.7298537,111.183435 78.7691642,112.20379 C79.8273651,113.243035 81.2162085,113.866571 82.0194737,113.866571 L136.668597,113.866571 L167.357633,102.075943 C169.757488,100.913883 173.045554,102.236562 174.009182,104.721397 C174.97281,107.206233 173.395039,110.314388 170.834579,111.070197 L139.390895,123.163149 C138.842904,123.399349 138.247651,123.522165 137.652422,123.541054 L82.0212878,123.541054 C77.9868212,123.541054 74.5381746,121.689333 71.9684999,119.157359 C69.3988253,116.625385 67.508818,113.252612 67.508818,109.256133 C67.4993607,109.057736 67.4993607,108.849883 67.508818,108.651486 C69.8708676,89.6145186 69.2661813,73.7995977 65.6191735,61.71632 C62.7846463,52.3348496 58.2969068,45.2019427 51.8625615,39.9490061 C47.4125545,58.5890825 41.9135378,77.417809 27.7505767,95.1218909 C26.0782323,97.2098116 23.035959,97.5499138 20.9478565,95.8777004 C18.859754,94.205487 18.5196784,91.163384 20.1919987,89.0754148 C37.7939314,67.0812372 40.7796302,42.6505716 47.4778606,16.8200259 L44.1520863,14.6281783 C43.8686336,14.6659809 43.6135286,14.7037593 43.3206427,14.7037593 C39.3147173,14.7037593 36.0644078,11.4536575 36.0644078,7.44798802 C36.0644078,3.44231856 39.3147173,0.192216752 43.3206427,0.192216752 L43.3193124,0.19511906 Z" id="Path" stroke="#C8C5C5" fill="#3FBE79" transform="translate(96.712409, 61.866635) scale(-1, 1) translate(-96.712409, -61.866635) "></path>
                    </g>
                </g>
                <g id="icon/pedelec" transform="translate(357.000000, 740.000000)">
                    <g id="pedelec">
                        <g id="Group-9" transform="translate(0.000000, 40.941029)" fill="#35495E">
                            <path d="M40.5151079,80.8948787 C18.1392317,80.8948787 0,62.7859433 0,40.4474394 C0,18.1089354 18.1392317,0 40.5151079,0 C62.8909842,0 81.0302158,18.1089354 81.0302158,40.4474394 C81.0302158,62.7859433 62.8909842,80.8948787 40.5151079,80.8948787 Z M40.3073381,67.1568781 C55.224589,67.1568781 67.3174101,55.0842545 67.3174101,40.1919186 C67.3174101,25.2995826 55.224589,13.226959 40.3073381,13.226959 C25.3900873,13.226959 13.2972662,25.2995826 13.2972662,40.1919186 C13.2972662,55.0842545 25.3900873,67.1568781 40.3073381,67.1568781 Z" id="Combined-Shape"></path>
                            <rect id="Rectangle" x="8.91332374" y="38.020593" width="62.3932662" height="4.04474394"></rect>
                            <polygon id="Rectangle" transform="translate(40.109957, 40.042965) scale(-1, -1) rotate(90.000000) translate(-40.109957, -40.042965) " points="8.96542853 38.0172096 71.2544851 38.0172096 71.2544851 42.0687204 8.96542853 42.0687204"></polygon>
                            <polygon id="Rectangle" transform="translate(40.109957, 40.042965) scale(-1, -1) rotate(45.000000) translate(-40.109957, -40.042965) " points="8.94106785 38.0449537 71.2822292 37.9928489 71.2788458 42.0409762 8.93768442 42.093081"></polygon>
                            <polygon id="Rectangle" transform="translate(40.109957, 40.042965) scale(-1, -1) rotate(135.000000) translate(-40.109957, -40.042965) " points="8.93768442 37.9928489 71.2788458 38.0449537 71.2822292 42.093081 8.94106785 42.0409762"></polygon>
                        </g>
                        <g id="Group-9" transform="translate(146.969784, 40.941029)" fill="#35495E">
                            <path d="M40.5151079,80.8948787 C18.1392317,80.8948787 0,62.7859433 0,40.4474394 C0,18.1089354 18.1392317,0 40.5151079,0 C62.8909842,0 81.0302158,18.1089354 81.0302158,40.4474394 C81.0302158,62.7859433 62.8909842,80.8948787 40.5151079,80.8948787 Z M40.3073381,67.1568781 C55.224589,67.1568781 67.3174101,55.0842545 67.3174101,40.1919186 C67.3174101,25.2995826 55.224589,13.226959 40.3073381,13.226959 C25.3900873,13.226959 13.2972662,25.2995826 13.2972662,40.1919186 C13.2972662,55.0842545 25.3900873,67.1568781 40.3073381,67.1568781 Z" id="Combined-Shape"></path>
                            <rect id="Rectangle" x="8.91332374" y="38.020593" width="62.3932662" height="4.04474394"></rect>
                            <polygon id="Rectangle" transform="translate(40.109957, 40.042965) scale(-1, -1) rotate(90.000000) translate(-40.109957, -40.042965) " points="8.96542853 38.0172096 71.2544851 38.0172096 71.2544851 42.0687204 8.96542853 42.0687204"></polygon>
                            <polygon id="Rectangle" transform="translate(40.109957, 40.042965) scale(-1, -1) rotate(45.000000) translate(-40.109957, -40.042965) " points="8.94106785 38.0449537 71.2822292 37.9928489 71.2788458 42.0409762 8.93768442 42.093081"></polygon>
                            <polygon id="Rectangle" transform="translate(40.109957, 40.042965) scale(-1, -1) rotate(135.000000) translate(-40.109957, -40.042965) " points="8.93768442 37.9928489 71.2788458 38.0449537 71.2822292 42.093081 8.94106785 42.0409762"></polygon>
                        </g>
                        <path d="M145.754263,9.03211429 L157.244928,9.03211429 L158.348954,10.1447835 C157.730692,12.2729817 157.11243,14.6308168 156.617825,16.6882341 C143.46363,16.0229852 123.634159,16.1402828 97.1294147,17.0401268 L12.7942446,17.0401268 L19.4718254,32.1645514 L87.4689724,32.1645514 C83.1234572,35.3346605 79.1510111,38.3302478 75.0261745,42.6306818 C73.4083403,44.3173884 35.4952035,77.5236285 37.9371393,81.2532715 C39.5650966,83.7397002 50.0063585,84.9829145 69.2609251,84.9829145 L96.5142103,86.4489006 C100.223463,90.7482351 103.791007,92.8979023 107.216844,92.8979023 C112.355599,92.8979023 117.729206,90.360955 119.919713,86.0338453 L124.141549,87.3496113 L123.311313,88.1796993 L126.429077,91.2969092 L132.726558,84.9829145 L129.538023,81.8657046 L127.665601,83.8084617 L121.226804,81.7950819 C121.421119,80.7177467 121.33278,79.6933784 121.297462,78.677872 C141.699836,68.2311835 154.568838,56.5569623 164.160219,44.9082864 C164.372185,45.5911834 171.21191,58.2467686 184.679394,82.8750419 C186.448535,83.7656503 187.767796,83.7656503 188.637174,82.8750419 C189.506553,81.9844336 189.506553,80.6329582 188.637174,78.8206158 C174.956932,43.4437944 167.310143,22.8502981 165.696807,17.0401268 L167.639887,10.4966762 C168.20515,8.92482385 167.790044,7.03516935 166.597678,5.85171922 L162.163982,1.40999464 C161.342587,0.615240617 160.194402,0.156034838 159.046218,0.16474867 L145.753721,0.16474867 C142.980315,0.191368793 141.090302,2.76982066 141.116756,4.80983097 C141.223274,7.12457805 143.440077,9.13813876 145.754263,9.03211429 Z M161.130998,34.3672158 C151.645207,46.9861626 139.58928,59.4106935 117.508527,70.7048995 C115.221021,68.3646749 112.120893,66.8283373 108.640909,66.6870467 L99.4289321,36.3807765 C111.481996,29.2161747 131.286547,25.6338738 158.842587,25.6338738 C159.844173,29.501544 160.606976,32.412658 161.130998,34.3672158 Z M100.188193,69.3188951 C98.5602955,69.7280614 96.8355737,71.6665384 95.014028,75.1343262 L55.5314958,73.6193291 L83.5748899,49.2811742 C87.184282,45.7253228 89.907568,43.2056027 91.7447479,41.7220136 L100.188193,69.3188951 Z M110.099265,71.4117368 C111.25629,71.6766624 112.351476,72.127029 113.2878,72.7981481 C112.492904,73.1778694 111.680328,73.531096 110.867796,73.9108173 L110.099265,71.4117368 Z M101.655593,73.9814174 L102.141357,75.6415933 L100.480909,75.6415933 C100.825358,75.0411196 101.187488,74.4759571 101.655593,73.9814174 Z M113.426628,84.0307288 L115.643522,84.7283427 C114.089049,87.2627571 111.315643,88.8874861 108.092061,88.8874861 C104.797709,88.8874861 102.006667,87.1566875 100.478648,84.5162938 L103.181283,84.5162938 C104.400126,85.8408989 106.157731,86.732793 108.100879,86.732793 C110.273614,86.732793 112.216672,85.6377795 113.435605,84.0306384 L113.426628,84.0307288 Z" id="Fill-1" fill="#3FBE79"></path>
                    </g>
                </g>
                <g id="icon/car" transform="translate(242.000000, 203.000000)">
                    <g id="car" transform="translate(0.000000, -1.000000)">
                        <path d="M650.54333,92.2762247 C594.591756,50.7922439 571.751503,24.4558241 582.022572,13.2669653 C597.429177,-3.51632284 478.519093,1.71415046 459.105176,1.71415046 L180.839033,1.71415046 C161.425116,1.71415046 120.736021,1.71415046 92.27263,1.0278652 C63.8092392,0.341579933 18.667069,12.2665326 7.48913224,44.0745428 C-3.68880458,75.882553 0.957443355,154.827178 0.957443355,176.32596 L0.957443355,299.043111 C0.957443355,320.541893 17.7931922,337 39.7852774,337 L47.7504741,336.350363 C47.7504741,284.455705 74.2412501,242.654588 131.713462,242.654588 C189.185675,242.654588 217.601804,284.455705 217.601804,336.350363 L514.729708,336.350363 C514.729708,284.455705 543.59011,242.654588 597.06672,242.654588 C650.54333,242.654588 683.022706,285.105342 683.022706,337 L711.486097,337 C733.478183,337 767,320.541893 767,299.043111 L767,192.619779 C767,192.619779 765.793411,162.254231 739.415197,149.772757 C714.222318,137.852152 684.598363,118.686641 650.54333,92.2762247 Z M426.355349,85.9213573 L384.054719,155.571544 L412.276034,166.949092 C424.825493,171.994805 426.355976,184.657969 415.398119,192.276433 L299.392654,269.545084 C283.721111,279.685898 261.806025,265.736105 269.641797,250.549578 L311.942426,180.899391 L283.721111,170.758578 C271.171653,165.712865 269.64117,153.049701 280.599026,145.431237 L398.135601,68.1625858 C412.215542,56.7850378 434.192688,70.7348305 426.356916,85.9208507 L426.355349,85.9213573 Z" id="Shape" fill="#3FBE79"></path>
                        <path d="M133,270 C100.777778,270 75,295.777778 75,328 C75,360.222222 100.777778,386 133,386 C165.222222,386 191,360.222222 191,328 C191,297.087289 165.222222,270 133,270 L133,270 Z" id="wheel" fill="#35495E"></path>
                        <path d="M599,270 C566.777778,270 541,295.777778 541,328 C541,360.222222 566.777778,386 599,386 C631.222222,386 657,360.222222 657,328 C657,297.087289 631.222222,270 599,270 L599,270 Z" id="wheel" fill="#35495E"></path>
                    </g>
                </g>
                <g id="icon/minicar" transform="translate(930.000000, 717.000000)">
                    <g id="minicar">
                        <path d="M176.077524,31.9585921 C152.980351,16.2228798 141.445182,12.0573352 150.395938,6.03391494 C159.346694,0.010494685 142.694379,0.268965759 136.907596,0.268965759 L53.9637019,0.268965759 C48.1769186,0.268965759 36.0485586,0.268965759 27.5643627,0.010494685 C19.0801668,-0.247976389 5.62446091,4.24323954 2.29260891,16.2228798 C-1.03924309,28.20252 0.345682473,57.9349113 0.345682473,66.0318551 L0.345682473,112.250003 C0.345682473,120.346947 5.36398096,126.545455 11.9192491,126.545455 L20.403445,126.545455 C20.403445,107.000713 32.8231961,90.8068256 53.9637019,90.8068256 C75.1042076,90.8068256 83.9421363,107.000713 83.9421363,126.545455 L139.510225,126.545455 C139.510225,107.000713 147.264951,90.8068256 171.180569,90.8068256 C195.096187,90.8068256 203.651583,107.000713 203.651583,126.545455 L212.135779,126.545455 C218.691047,126.545455 228.683028,120.346947 228.683028,112.250003 L228.683028,72.1684883 C228.683028,72.1684883 228.323376,60.732113 220.460716,56.031298 C209.196705,49.2969304 212.376404,51.2045556 198.253361,44.5660915 C181.224953,36.5619759 182.834457,36.5619759 176.077524,31.9585921 Z M135.652629,33.116962 L123.035268,59.3252898 L131.453075,63.6064917 C135.196306,65.5051182 135.652816,70.2700781 132.384325,73.1367927 L97.7824075,102.211835 C93.1079256,106.027672 86.5711301,100.778573 88.9083711,95.0641093 L101.525733,68.8557815 L93.1079256,65.0399442 C89.364694,63.1413177 88.9081841,58.3763578 92.1766753,55.5096432 L127.23529,26.4346008 C131.435031,22.153399 137.990337,27.4024982 135.653097,33.1167714 L135.652629,33.116962 Z" id="Shape" fill="#3FBE79"></path>
                        <path d="M53.2546922,101.311688 C41.0983678,101.311688 31.3733084,111.020202 31.3733084,123.155844 C31.3733084,135.291486 41.0983678,145 53.2546922,145 C65.4110166,145 75.1360761,135.291486 75.1360761,123.155844 C75.1360761,111.513395 65.4110166,101.311688 53.2546922,101.311688 L53.2546922,101.311688 Z" id="wheel" fill="#35495E"></path>
                        <path d="M173.602303,101.311688 C161.445979,101.311688 151.72092,111.020202 151.72092,123.155844 C151.72092,135.291486 161.445979,145 173.602303,145 C185.758628,145 195.483687,135.291486 195.483687,123.155844 C195.483687,111.513395 185.758628,101.311688 173.602303,101.311688 L173.602303,101.311688 Z" id="wheel" fill="#35495E"></path>
                    </g>
                </g>
                <g id="icon/scooter" transform="translate(642.000000, 706.000000)">
                    <g id="scooter" transform="translate(115.500000, 78.000000) scale(-1, 1) translate(-115.500000, -78.000000) ">
                        <path d="M219.805458,108.567834 L223.788015,105.169277 C224.471121,104.589953 224.625804,103.585777 224.136019,102.82621 L219.753886,95.9256093 L222.318759,95.9256093 L222.383199,95.9256093 C223.388539,95.9256093 224.187657,95.1274164 224.187657,94.1232402 C224.187657,93.8528914 224.136118,93.595396 224.020106,93.3636732 C221.932117,80.0261812 215.03642,79.7045179 206.285022,79.6916645 C203.745919,77.6189466 201.116606,76.6405431 198.061882,76.6405431 C194.826772,76.6405431 191.462781,77.7477108 187.557433,79.0222357 C182.801461,80.5799957 176.885367,82.5239495 169.280893,83.0001825 C155.824996,83.5923923 143.645036,83.656758 133.863518,83.7082373 C115.380756,83.7983425 112.996501,83.9013341 112.300296,86.0641573 C112.068304,86.7979847 112.313197,87.5832914 112.918962,88.046737 C120.974484,94.1876717 124.828359,101.139686 123.50062,107.100015 C122.108606,113.330923 115.393624,118.042829 104.579678,120.4118 L85.6329989,120.4118 C84.6534283,120.4118 83.7770017,120.089972 82.9392128,119.356144 C82.8361019,119.291779 82.7329909,119.175901 82.4494276,118.841186 C72.2412783,108.928288 67.1375336,98.062594 67.2919525,86.5146837 C67.5368452,67.6156463 81.8822348,52.4368297 84.743605,49.5926142 L98.998653,49.5926142 C99.578648,49.5926142 100.132873,49.3093791 100.467976,48.8330472 C101.318633,47.6228879 101.769747,46.2067454 101.769747,44.7262373 C101.769747,43.3744605 101.421744,42.1385615 100.725737,41.0571005 C100.390634,40.5421426 99.8235076,40.2202815 99.2048419,40.2202815 L87.3083126,40.2202815 L81.1345237,33.178294 C80.7865201,32.4702393 81.1860957,28.8783544 83.2225122,24.2567514 C84.0216304,22.4543823 84.7820778,21.167004 85.4007435,20.291658 C86.7540871,25.479797 91.2135616,27.1922586 93.0180858,27.1922586 C94.0105246,27.1922586 94.8225109,26.3812123 94.8225109,25.3898895 L94.8225109,2.0366723 C94.8225109,1.49597475 94.5776183,0.981016845 94.1523062,0.633416143 C93.7269612,0.285815441 93.1727357,0.157084205 92.6314114,0.272929134 C88.5327098,1.16122739 85.7360108,4.48256578 84.1248403,10.4175174 C80.3227683,12.79921 74.7676451,19.33906 72.756899,29.4322349 C67.0470269,29.4837471 63.7732129,29.7927219 60.821765,30.1531759 L53.6812078,25.5572796 C53.3847762,25.3641828 53.0496408,25.2740446 52.7016702,25.2740446 C51.2452156,25.2740446 50.3043488,26.4326916 49.891905,28.7371982 C49.6728148,30.0117232 49.5568027,31.7239541 49.5568027,33.8482172 C49.5568027,38.8689331 49.9692465,50.5328532 53.745582,50.5328532 C54.0033759,50.5328532 54.2611368,50.4813739 54.4931282,50.365496 L60.7183901,47.5203577 L61.2983851,48.1769331 L59.8419305,48.9236138 C53.5780638,50.8804539 33.4583948,66.7281391 31.2285586,89.5533802 C22.2062677,92.3212666 -0.593956122,107.165105 0.0118413482,113.679117 C0.102084054,114.593155 0.707848529,116.717385 4.58732801,116.717385 C5.45088637,116.717385 6.45622641,116.627279 7.62911762,116.434183 C6.73927909,118.164063 16.9949458,98.4990538 41.8676267,108.568131 C61.2983851,116.434183 52.7016702,140.718296 56.1945084,139.967676 C56.8513222,140.35435 57.4751409,140.718296 58.0725443,141.06085 C67.6389598,146.546284 70.431795,146.546284 93.4695303,146.546284 L139.198,146.546284 C142.175317,146.546284 144.985082,145.387637 147.085906,143.276293 C149.199664,141.164982 150.359687,138.384111 150.359687,135.43608 C150.359687,132.333446 149.070816,129.359412 146.81531,127.286727 C146.609088,127.093597 146.338426,126.952012 146.054862,126.87476 C144.68865,126.398428 143.373978,125.703227 142.03337,124.789189 C141.981831,124.750563 141.917391,124.711937 141.865819,124.686198 C137.277464,121.416207 134.544776,116.124878 134.544776,110.51192 C134.544776,105.890317 136.349235,101.590377 139.416893,98.4231799 C138.682215,100.573117 138.308442,102.864836 138.308442,105.169211 C138.308442,115.700059 146.170611,124.660491 156.610718,126.01207 C157.113372,126.089289 157.628927,125.921932 158.015601,125.587217 L162.655429,121.647831 C162.036763,123.926532 161.72743,126.282287 161.72743,128.664111 C161.72743,137.717969 165.870605,120.806548 170.932128,114.073864 C172.258434,112.309652 176.687071,108.567834 181.514057,107.100015 C186.341043,105.632195 195.111795,105.169277 203.163669,108.568131 C212.618962,112.559395 215.937002,122.217486 215.072101,120.4118 C221.052536,124.05523 224.251371,124.467328 225.462966,127.711645 C225.759431,128.484099 226.545648,128.960431 227.357634,128.870292 C229.767857,128.587057 230.579843,127.158061 230.83767,126.321242 C232.306993,121.66075 223.413681,112.185525 219.804633,108.568131 L219.805458,108.567834 Z" id="Fill-1" fill="#3FBE79"></path>
                        <path d="M143.294627,53.8456188 C135.869828,53.8456188 112.396575,54.1798776 109.315448,58.2167202 L109.289676,58.2038514 C105.770652,63.2822411 106.647174,76.4472177 108.297129,81.6411301 C108.542048,82.3996631 109.238132,82.9010512 110.024434,82.9010512 C110.114687,82.9010512 110.204906,82.8882154 110.308029,82.8753466 C111.016981,82.7724952 111.571267,82.2582383 111.764642,81.5897208 C114.497364,79.8412474 132.182838,79.8412474 141.786238,79.8412474 L147.019566,79.8412474 C160.180599,79.8412474 171.459363,79.7255272 175.829434,78.4013281 C179.039125,77.8742024 181.52706,77.0771289 184.143559,76.2285803 C188.487561,74.8272344 192.986329,73.3744463 201.622854,73.014483 C202.151368,72.9887783 202.654076,72.7316334 202.976346,72.3073921 C203.285712,71.8959865 203.414607,71.3431563 203.285712,70.8288994 C199.793714,55.5044059 160.170369,53.8456188 143.294627,53.8456188 Z" id="Fill-2" fill="#35495E"></path>
                        <ellipse id="Oval" fill="#35495E" cx="26.2814371" cy="135.13165" rx="20.748503" ry="20.7538803"></ellipse>
                        <ellipse id="Oval" fill="#35495E" cx="190.540419" cy="135.13165" rx="20.748503" ry="20.7538803"></ellipse>
                        <ellipse id="Oval" fill="#35495E" cx="190.194611" cy="135.24612" rx="16.252994" ry="16.2572062"></ellipse>
                    </g>
                </g>
            </g>
        </g>
    </g>
</svg>