<?xml version="1.0" encoding="UTF-8"?>
<svg width="1250px" height="1000px" viewBox="0 0 1250 1000" version="1.1" xmlns="http://www.w3.org/2000/svg" xmlns:xlink="http://www.w3.org/1999/xlink">
    <!-- Generator: Sketch 55.1 (78136) - https://sketchapp.com -->
    <title>pedelec</title>
    <desc>Created with Sketch.</desc>
    <g id="Offers" stroke="none" stroke-width="1" fill="none" fill-rule="evenodd">
        <g id="Artboard" transform="translate(-1250.000000, 0.000000)">
            <g id="pedelec" transform="translate(1250.000000, 0.000000)">
                <rect id="Rectangle" fill="#FAFAFA" x="0" y="0" width="1250" height="1000"></rect>
                <g id="icon/pedelec" transform="translate(278.000000, 203.000000)">
                    <g id="pedelec">
                        <g id="Group-9" transform="translate(0.000000, 124.500998)" fill="#35495E">
                            <path d="M123.5,246 C55.2928334,246 0,190.931024 0,123 C0,55.0689758 55.2928334,0 123.5,0 C191.707167,0 247,55.0689758 247,123 C247,190.931024 191.707167,246 123.5,246 Z M122.866667,204.222965 C168.338111,204.222965 205.2,167.510315 205.2,122.222965 C205.2,76.935616 168.338111,40.2229654 122.866667,40.2229654 C77.3952223,40.2229654 40.5333333,76.935616 40.5333333,122.222965 C40.5333333,167.510315 77.3952223,204.222965 122.866667,204.222965 Z" id="Combined-Shape"></path>
                            <rect id="Rectangle" x="27.17" y="115.62" width="190.19" height="12.3"></rect>
                            <polygon id="Rectangle" transform="translate(122.265000, 121.770000) scale(-1, -1) rotate(90.000000) translate(-122.265000, -121.770000) " points="27.555 115.595 216.975 115.595 216.975 127.945 27.555 127.945"></polygon>
                            <polygon id="Rectangle" transform="translate(122.265000, 121.770000) scale(-1, -1) rotate(45.000000) translate(-122.265000, -121.770000) " points="27.375 115.8 217.18 115.415 217.155 127.74 27.35 128.125"></polygon>
                            <polygon id="Rectangle" transform="translate(122.265000, 121.770000) scale(-1, -1) rotate(135.000000) translate(-122.265000, -121.770000) " points="27.35 115.415 217.155 115.8 217.18 128.125 27.375 127.74"></polygon>
                        </g>
                        <g id="Group-9" transform="translate(448.000000, 124.500998)" fill="#35495E">
                            <path d="M123.5,246 C55.2928334,246 0,190.931024 0,123 C0,55.0689758 55.2928334,0 123.5,0 C191.707167,0 247,55.0689758 247,123 C247,190.931024 191.707167,246 123.5,246 Z M122.866667,204.222965 C168.338111,204.222965 205.2,167.510315 205.2,122.222965 C205.2,76.935616 168.338111,40.2229654 122.866667,40.2229654 C77.3952223,40.2229654 40.5333333,76.935616 40.5333333,122.222965 C40.5333333,167.510315 77.3952223,204.222965 122.866667,204.222965 Z" id="Combined-Shape"></path>
                            <rect id="Rectangle" x="27.17" y="115.62" width="190.19" height="12.3"></rect>
                            <polygon id="Rectangle" transform="translate(122.265000, 121.770000) scale(-1, -1) rotate(90.000000) translate(-122.265000, -121.770000) " points="27.555 115.595 216.975 115.595 216.975 127.945 27.555 127.945"></polygon>
                            <polygon id="Rectangle" transform="translate(122.265000, 121.770000) scale(-1, -1) rotate(45.000000) translate(-122.265000, -121.770000) " points="27.375 115.8 217.18 115.415 217.155 127.74 27.35 128.125"></polygon>
                            <polygon id="Rectangle" transform="translate(122.265000, 121.770000) scale(-1, -1) rotate(135.000000) translate(-122.265000, -121.770000) " points="27.35 115.415 217.155 115.8 217.18 128.125 27.375 127.74"></polygon>
                        </g>
                        <path d="M444.294794,27.4665115 L479.321162,27.4665115 L482.686506,30.8501202 C480.801891,37.3219363 478.917277,44.492074 477.409599,50.7486464 C437.31238,48.7256353 376.867284,49.0823353 296.074313,51.8187464 L39,51.8187464 L59.3549065,97.8118736 L266.626912,97.8118736 C253.380714,107.452123 241.271722,116.561655 228.698207,129.639204 C223.766651,134.768451 108.198098,235.748083 115.641719,247.089867 C120.604132,254.651055 152.431663,258.43165 211.124311,258.43165 L294.199018,262.88969 C305.505731,275.963895 316.380483,282.500998 326.823275,282.500998 C342.487462,282.500998 358.867536,274.786183 365.544739,261.627513 L378.413931,265.628736 L375.883169,268.15302 L385.38688,277.632404 L404.58315,258.43165 L394.863711,248.952266 L389.156109,254.860158 L369.529075,248.737503 C370.121394,245.461344 369.852114,242.346257 369.744457,239.258119 C431.935903,207.489911 471.163782,171.988795 500.400668,136.565363 C501.046792,138.642041 521.895954,177.127469 562.948152,252.021644 C568.34093,254.729969 572.362359,254.729969 575.01244,252.021644 C577.66252,249.313319 577.66252,245.203504 575.01244,239.692201 C533.3117,132.111867 510.002409,69.4873818 505.084566,51.8187464 L511.007551,31.9202203 C512.730611,27.140243 511.465264,21.3938347 507.830641,17.7949822 L494.315646,4.28777057 C491.811833,1.87093663 488.311884,0.474499385 484.811935,0.500998004 L444.29314,0.500998004 C435.839117,0.581949363 430.077893,8.42297922 430.158532,14.6266171 C430.483226,21.665725 437.240586,27.7889302 444.294794,27.4665115 Z M491.166857,104.51014 C462.251839,142.88415 425.50241,180.666945 358.194853,215.01244 C351.221973,207.895856 341.772022,203.223878 331.164174,202.794216 L303.083806,110.633345 C339.824504,88.8459082 400.193642,77.9521899 484.19122,77.9521899 C487.244299,89.7137117 489.569511,98.5663617 491.166857,104.51014 Z M305.398221,210.797624 C300.435988,212.041892 295.178613,217.936768 289.626094,228.482254 L169.273638,223.875173 L254.756791,149.863243 C265.759105,139.049957 274.06035,131.387529 279.660525,126.875959 L305.398221,210.797624 Z M335.6096,217.161921 C339.136498,217.967555 342.474893,219.337113 345.329038,221.377975 C342.906002,222.532701 340.429069,223.606857 337.952273,224.761584 L335.6096,217.161921 Z M309.871216,224.976277 L311.351945,230.024845 L306.29049,230.024845 C307.340454,228.198814 308.444315,226.480165 309.871216,224.976277 Z M345.752222,255.536069 L352.509857,257.657501 C347.771442,265.364614 339.317419,270.305388 329.491151,270.305388 C319.449156,270.305388 310.941374,265.042058 306.283598,257.012664 L314.521893,257.012664 C318.237225,261.040766 323.594839,263.753002 329.518031,263.753002 C336.141061,263.753002 342.063977,260.423084 345.779584,255.535794 L345.752222,255.536069 Z" id="Fill-1" stroke="#C8C5C5" fill="#3FBE79"></path>
                    </g>
                </g>
                <g id="icon/miniscooter" transform="translate(423.000000, 618.000000)">
                    <g id="miniscooter">
                        <g>
                            <path d="M87.6691428,95.9195615 C81.1870065,115.928336 72.3667513,134.926233 57.9598819,152.94805 C55.8543866,155.583845 54.8762304,158.949239 55.2409752,162.314166 C55.6222724,165.662797 57.3133235,168.729553 59.9494687,170.851464 C62.5854865,172.956782 65.9511638,173.934856 69.3163742,173.553591 C72.665287,173.188877 75.7488536,171.497968 77.8543914,168.862045 C93.6873053,149.084983 103.336024,128.578832 110.348683,107.988653 C125.866255,120.438331 135.813764,139.469329 135.813764,160.904877 C135.813764,198.40287 105.408033,228.806039 67.906882,228.806039 C30.4057308,228.806039 0,198.40287 0,160.904877 C0,123.406885 30.4057308,93.0037135 67.906882,93.0037135 C74.7876317,93.0019334 81.4026108,94.0131515 87.6691428,95.9195615 Z M365,186.366031 C365,209.80636 346.000503,228.804257 322.558199,228.804257 C309.062979,228.804257 297.043461,222.57093 289.267699,212.757515 L327.067216,198.169374 C330.46587,197.158156 333.284091,194.787557 334.859106,191.604605 C336.434079,188.438332 336.616451,184.741495 335.356481,181.442772 C334.096469,178.127286 331.510193,175.49166 328.227532,174.14849 C324.944913,172.822295 321.26453,172.92177 318.048291,174.430322 L280.248773,189.018462 C280.199032,188.139864 280.116143,187.261265 280.116143,186.366073 C280.116143,162.925743 299.11564,143.927847 322.557944,143.927847 C346.000503,143.927847 365,162.925701 365,186.366031 Z" id="Fill-1" fill="#35495E" transform="translate(182.500000, 160.904876) scale(-1, 1) translate(-182.500000, -160.904876) "></path>
                            <path d="M76.0170626,0.34370973 C82.8811585,0.34370973 88.4850824,5.7689541 88.7503594,12.5924749 L97.769778,18.7168575 C100.787315,20.7472128 102.180168,24.5084997 101.218379,28.0365701 C99.0298651,36.0747423 97.1563302,44.2130349 95.2498586,52.4011747 C112.691929,64.283968 124.745267,81.874899 131.327533,103.790603 C138.65597,128.171823 139.633887,157.859847 135.439327,192.458881 L135.439327,192.59202 C135.472476,193.707062 136.400945,195.853898 138.224735,197.651292 C140.081674,199.481961 142.518827,200.580345 143.928403,200.580345 L239.827106,200.580345 L293.680463,179.8107 C297.891746,177.763686 303.66167,180.093635 305.352651,184.470769 C307.043633,188.847902 304.274948,194.323037 299.781834,195.654424 L244.604215,216.956624 C243.642596,217.372699 242.598041,217.589044 241.553529,217.622318 L143.931587,217.622318 C136.851874,217.622318 130.800162,214.36044 126.290877,209.900271 C121.781592,205.440101 118.464993,199.498832 118.464993,192.458881 C118.448397,192.109397 118.448397,191.743255 118.464993,191.393771 C122.609936,157.859421 121.548828,130.00083 115.14903,108.715671 C110.17498,92.1898504 102.299861,79.6249606 91.0088219,70.3717108 C83.1999154,103.206922 73.5501986,136.374448 48.6969255,167.560869 C45.7622826,171.238822 40.4236781,171.837925 36.7594597,168.892257 C33.0952414,165.946589 32.4984742,160.587807 35.4330746,156.909769 C66.3210816,118.166179 71.5604088,75.1306224 83.314515,29.6291226 L77.4784207,25.7680988 C76.9810157,25.8346895 76.5333554,25.9012375 76.0193971,25.9012375 C68.9897684,25.9012375 63.2861003,20.1760582 63.2861003,13.1199174 C63.2861003,6.06377655 68.9897684,0.338597202 76.0193971,0.338597202 L76.0170626,0.34370973 Z" id="Path" stroke="#C8C5C5" fill="#3FBE79" transform="translate(169.711679, 108.980458) scale(-1, 1) translate(-169.711679, -108.980458) "></path>
                        </g>
                    </g>
                </g>
            </g>
        </g>
    </g>
</svg>