<?xml version="1.0" encoding="UTF-8"?>
<svg width="1250px" height="1250px" viewBox="0 0 1250 1250" version="1.1" xmlns="http://www.w3.org/2000/svg" xmlns:xlink="http://www.w3.org/1999/xlink">
    <!-- Generator: Sketch 55.2 (78181) - https://sketchapp.com -->
    <title>car</title>
    <desc>Created with Sketch.</desc>
    <g id="Layout_Template" stroke="none" stroke-width="1" fill="none" fill-rule="evenodd">
        <g id="car">
            <g>
                <rect id="Rectangle" fill="#F5F7FA" x="0" y="0" width="1250" height="1250"></rect>
                <g id="icon/car" transform="translate(228.000000, 240.000000)">
                    <g id="car" transform="translate(0.000000, -1.000000)">
                        <path d="M636.769544,87.4896748 C624.37315,77.5486274 570.681716,30.1333568 582.022572,13.2669653 C593.363429,-3.59942607 491.399931,1.71415046 459.105176,1.71415046 C437.57534,1.71415046 344.819959,1.71415046 180.839033,1.71415046 C161.425116,1.71415046 219.463391,2.40043573 191,1.71415046 C162.536609,1.0278652 58.9284109,3.64123029 47.7504741,35.4492405 C36.5725373,67.2572508 0.957443355,154.827178 0.957443355,176.32596 L0.957443355,299.043111 C0.957443355,320.541893 17.7931922,337 39.7852774,337 L47.7504741,336.350363 C47.7504741,284.455705 74.2412501,242.654588 131.713462,242.654588 C189.185675,242.654588 217.601804,284.455705 217.601804,336.350363 L514.729708,336.350363 C514.729708,284.455705 543.59011,242.654588 597.06672,242.654588 C650.54333,242.654588 683.022706,285.105342 683.022706,337 L711.486097,337 C733.478183,337 776,302.319869 776,280.821087 L776,210.638481 C776,210.638481 765.793411,162.254231 739.415197,149.772757 C701.625879,131.89185 649.165938,97.4307222 636.769544,87.4896748 Z M426.355349,85.9213573 L384.054719,155.571544 L412.276034,166.949092 C424.825493,171.994805 426.355976,184.657969 415.398119,192.276433 L299.392654,269.545084 C283.721111,279.685898 261.806025,265.736105 269.641797,250.549578 L311.942426,180.899391 L283.721111,170.758578 C271.171653,165.712865 269.64117,153.049701 280.599026,145.431237 L398.135601,68.1625858 C412.215542,56.7850378 434.192688,70.7348305 426.356916,85.9208507 L426.355349,85.9213573 Z" id="Shape" fill="#3FBE79"></path>
                        <path d="M133,270 C100.777778,270 75,295.777778 75,328 C75,360.222222 100.777778,386 133,386 C165.222222,386 191,360.222222 191,328 C191,297.087289 165.222222,270 133,270 L133,270 Z" id="wheel" fill="#35495E"></path>
                        <path d="M599,270 C566.777778,270 541,295.777778 541,328 C541,360.222222 566.777778,386 599,386 C631.222222,386 657,360.222222 657,328 C657,297.087289 631.222222,270 599,270 L599,270 Z" id="wheel" fill="#35495E"></path>
                    </g>
                </g>
                <g id="icon/pedelec" transform="translate(803.000000, 770.000000)">
                    <g id="pedelec">
                        <g id="Group-9" transform="translate(0.000000, 46.981509)" fill="#35495E">
                            <path d="M46.5568345,92.8301887 C20.8442048,92.8301887 0,72.0494431 0,46.4150943 C0,20.7807456 20.8442048,0 46.5568345,0 C72.2694642,0 93.1136691,20.7807456 93.1136691,46.4150943 C93.1136691,72.0494431 72.2694642,92.8301887 46.5568345,92.8301887 Z M46.3180815,77.06527 C63.4598347,77.06527 77.3559712,63.2114396 77.3559712,46.1218738 C77.3559712,29.0323079 63.4598347,15.1784775 46.3180815,15.1784775 C29.1763284,15.1784775 15.2801918,29.0323079 15.2801918,46.1218738 C15.2801918,63.2114396 29.1763284,77.06527 46.3180815,77.06527 Z" id="Combined-Shape"></path>
                            <rect id="Rectangle" x="10.2425036" y="43.6301887" width="71.6975252" height="4.64150943"></rect>
                            <polygon id="Rectangle" transform="translate(46.091266, 45.950943) scale(-1, -1) rotate(90.000000) translate(-46.091266, -45.950943) " points="10.3516435 43.6231017 81.8308888 43.6231017 81.8308888 48.2787851 10.3516435 48.2787851"></polygon>
                            <polygon id="Rectangle" transform="translate(46.091266, 45.950943) scale(-1, -1) rotate(45.000000) translate(-46.091266, -45.950943) " points="10.3006171 43.6812151 81.8890023 43.5720752 81.8819153 48.2206716 10.2935301 48.3298116"></polygon>
                            <polygon id="Rectangle" transform="translate(46.091266, 45.950943) scale(-1, -1) rotate(135.000000) translate(-46.091266, -45.950943) " points="10.2935301 43.5720752 81.8819153 43.6812151 81.8890023 48.3298116 10.3006171 48.2206716"></polygon>
                        </g>
                        <g id="Group-9" transform="translate(168.886331, 46.981509)" fill="#35495E">
                            <path d="M46.5568345,92.8301887 C20.8442048,92.8301887 0,72.0494431 0,46.4150943 C0,20.7807456 20.8442048,0 46.5568345,0 C72.2694642,0 93.1136691,20.7807456 93.1136691,46.4150943 C93.1136691,72.0494431 72.2694642,92.8301887 46.5568345,92.8301887 Z M46.3180815,77.06527 C63.4598347,77.06527 77.3559712,63.2114396 77.3559712,46.1218738 C77.3559712,29.0323079 63.4598347,15.1784775 46.3180815,15.1784775 C29.1763284,15.1784775 15.2801918,29.0323079 15.2801918,46.1218738 C15.2801918,63.2114396 29.1763284,77.06527 46.3180815,77.06527 Z" id="Combined-Shape"></path>
                            <rect id="Rectangle" x="10.2425036" y="43.6301887" width="71.6975252" height="4.64150943"></rect>
                            <polygon id="Rectangle" transform="translate(46.091266, 45.950943) scale(-1, -1) rotate(90.000000) translate(-46.091266, -45.950943) " points="10.3516435 43.6231017 81.8308888 43.6231017 81.8308888 48.2787851 10.3516435 48.2787851"></polygon>
                            <polygon id="Rectangle" transform="translate(46.091266, 45.950943) scale(-1, -1) rotate(45.000000) translate(-46.091266, -45.950943) " points="10.3006171 43.6812151 81.8890023 43.5720752 81.8819153 48.2206716 10.2935301 48.3298116"></polygon>
                            <polygon id="Rectangle" transform="translate(46.091266, 45.950943) scale(-1, -1) rotate(135.000000) translate(-46.091266, -45.950943) " points="10.2935301 43.5720752 81.8819153 43.6812151 81.8890023 48.3298116 10.3006171 48.2206716"></polygon>
                        </g>
                        <path d="M167.489548,10.3647213 L180.693733,10.3647213 L181.962395,11.6415548 C181.251936,14.0837495 180.541477,16.7894619 179.973115,19.1504326 C164.857329,18.3870322 142.070832,18.521636 111.613626,19.5542439 L14.7021583,19.5542439 L22.3755187,36.910141 L100.512591,36.910141 C95.5190604,40.5479711 90.9542321,43.9855302 86.2142883,48.9204545 C84.3551981,50.8560194 40.7883479,88.9615409 43.5944321,93.2414591 C45.4651548,96.0947379 57.463447,97.5213773 79.5893086,97.5213773 L110.90668,99.2036565 C115.169067,104.137319 119.268614,106.60415 123.205321,106.60415 C129.110381,106.60415 135.285316,103.692899 137.802477,98.7273635 L142.653885,100.237259 L141.699842,101.189819 L145.282536,104.766945 L152.519115,97.5213773 L148.855097,93.9442512 L146.703454,96.1736446 L139.304486,93.8632087 C139.527777,92.6269224 139.426265,91.4514179 139.38568,90.2860826 C162.830513,78.2980795 177.618577,64.9014321 188.640252,51.5340991 C188.883827,52.3177515 196.743511,66.8405542 212.219303,95.1025071 C214.252264,96.1245167 215.768256,96.1245167 216.767279,95.1025071 C217.766303,94.0804975 217.766303,92.5296242 216.767279,90.449887 C201.047001,49.8535345 192.259901,26.2216535 190.40598,19.5542439 L192.638818,12.0453661 C193.288374,10.2416011 192.811366,8.07314516 191.441191,6.71508763 L186.34633,1.61802663 C185.402446,0.706013823 184.083041,0.179056372 182.763636,0.189055851 L167.488925,0.189055851 C164.301941,0.219603533 162.130083,3.17848272 162.160483,5.51947817 C162.282885,8.1757453 164.830264,10.4863887 167.489548,10.3647213 Z M185.159304,39.4377886 C174.258966,53.9185472 160.405225,68.1762056 135.031729,81.1367699 C132.403104,78.4512663 128.840676,76.688256 124.841746,76.5261192 L114.256054,41.748432 C128.106504,33.5267578 150.864366,29.4159207 182.52964,29.4159207 C183.680582,33.8542308 184.557137,37.1948535 185.159304,39.4377886 Z M115.128538,79.5462731 C113.257883,80.0158081 111.275966,82.24029 109.182787,86.2197186 L63.8125083,84.4811973 L96.037812,56.5521671 C100.185447,52.471682 103.314837,49.5801998 105.425982,47.8777205 L115.128538,79.5462731 Z M126.517576,81.9478947 C127.84714,82.2519077 129.105643,82.7687218 130.181594,83.5388585 C129.268162,83.9746043 128.334411,84.3799462 127.400713,84.815692 L126.517576,81.9478947 Z M116.814761,84.8967085 L117.372963,86.8018284 L115.464904,86.8018284 C115.860718,86.1127601 116.27685,85.4642131 116.814761,84.8967085 Z M130.341125,96.4287052 L132.888608,97.2292458 C131.102328,100.13759 127.915344,102.002033 124.211053,102.002033 C120.425437,102.002033 117.218187,100.015871 115.462306,96.9859109 L118.567966,96.9859109 C119.968565,98.5059495 121.98827,99.5294346 124.221186,99.5294346 C126.717925,99.5294346 128.950737,98.2728617 130.35144,96.4286014 L130.341125,96.4287052 Z" id="Fill-1" fill="#3FBE79"></path>
                    </g>
                </g>
                <g id="icon/minicar" transform="translate(672.000000, 962.000000)">
                    <g id="minicar">
                        <path d="M201.451141,36.5870779 C191.212521,18.5724003 185.607908,13.3075882 195.848511,6.41181055 C206.089114,-0.483967113 163.257325,0.30791942 156.636638,0.30791942 L71.5843366,0.30791942 C45.7385588,-0.431168831 37.8380847,6.3554129 28.0560132,15.0127424 C18.2739417,23.6700718 0.395496978,66.3254847 0.395496978,75.5950892 L0.395496978,128.5069 C0.395496978,137.776505 6.13695638,144.872727 13.6368701,144.872727 L23.3436794,144.872727 C23.3436794,122.497368 37.5531764,103.958159 61.7401305,103.958159 C85.9270847,103.958159 96.0386013,122.497368 96.0386013,144.872727 L159.614318,144.872727 C159.614318,122.497368 168.486538,103.958159 195.848511,103.958159 C223.210485,103.958159 232.998754,122.497368 232.998754,144.872727 L242.705564,144.872727 C250.205477,144.872727 261.637351,137.776505 261.637351,128.5069 L261.637351,82.6204762 C261.637351,82.6204762 264.129615,77.602402 255.133909,72.2207792 C242.246699,64.5110895 244.059395,66.3323228 227.901153,58.732426 C208.41887,49.5690936 205.132266,43.063953 201.451141,36.5870779 Z M155.200825,37.9132116 L140.765241,67.9172284 L150.396094,72.8184663 C154.678743,74.9920664 155.201038,80.4471239 151.461542,83.7290178 L111.873322,117.014928 C106.525225,121.383404 99.0464458,115.374091 101.720494,108.832015 L116.156078,78.8279981 L106.525225,74.4595224 C102.242576,72.2859223 101.72028,66.8308647 105.459777,63.5489708 L145.570506,30.2630602 C150.37545,25.3618222 157.875408,31.3711358 155.201359,37.9129934 L155.200825,37.9132116 Z" id="Shape" fill="#3FBE79"></path>
                        <path d="M60.9289492,115.984416 C47.0208401,115.984416 35.8943528,127.09899 35.8943528,140.992208 C35.8943528,154.885426 47.0208401,166 60.9289492,166 C74.8370583,166 85.9635455,154.885426 85.9635455,140.992208 C85.9635455,127.66361 74.8370583,115.984416 60.9289492,115.984416 L60.9289492,115.984416 Z" id="wheel" fill="#35495E"></path>
                        <path d="M198.619229,115.984416 C184.71112,115.984416 173.584633,127.09899 173.584633,140.992208 C173.584633,154.885426 184.71112,166 198.619229,166 C212.527338,166 223.653826,154.885426 223.653826,140.992208 C223.653826,127.66361 212.527338,115.984416 198.619229,115.984416 L198.619229,115.984416 Z" id="wheel" fill="#35495E"></path>
                    </g>
                </g>
                <g id="icon/scooter" transform="translate(279.000000, 951.000000)">
                    <g id="scooter" transform="translate(131.000000, 88.500000) scale(-1, 1) translate(-131.000000, -88.500000) ">
                        <path d="M249.30316,123.182735 L253.820173,119.326679 C254.594952,118.66937 254.770393,117.530016 254.214879,116.6682 L249.244667,108.838672 L252.153744,108.838672 L252.226832,108.838672 C253.367087,108.838672 254.273447,107.93303 254.273447,106.793676 C254.273447,106.486935 254.214991,106.194776 254.08341,105.93186 C251.715215,90.7989363 243.894121,90.4339722 233.968293,90.4193886 C231.088445,88.067651 228.10628,86.9575393 224.641615,86.9575393 C220.972356,86.9575393 217.156921,88.2137488 212.727478,89.6598444 C207.333259,91.4273029 200.62323,93.6329427 191.998242,94.173284 C176.736576,94.8452144 162.922075,94.9182446 151.827886,94.9766538 C130.864754,95.0788887 128.160534,95.1957445 127.370898,97.6497169 C127.107774,98.4823288 127.385531,99.3733498 128.072588,99.8991824 C137.209155,106.866781 141.580217,114.754643 140.074296,121.517324 C138.495475,128.587008 130.879349,133.933209 118.61418,136.621081 L97.1248732,136.621081 C96.0138451,136.621081 95.0198028,136.255929 94.0695834,135.423318 C93.952635,135.350287 93.8356867,135.218811 93.5140694,134.839038 C81.9359953,123.591711 76.1473324,111.263328 76.3224743,98.1608911 C76.6002313,76.7177526 92.8707599,59.4956337 96.1161234,56.268543 L112.284187,56.268543 C112.942016,56.268543 113.570618,55.9471801 113.950691,55.4067266 C114.915506,54.0336612 115.427159,52.4268842 115.427159,50.747077 C115.427159,49.2133301 115.032454,47.8110602 114.243043,46.5840179 C113.862971,45.9997387 113.219736,45.6345502 112.518046,45.6345502 L99.0250126,45.6345502 L92.0227065,37.6446029 C91.6280012,36.841233 92.0811994,32.7658252 94.3909013,27.5220833 C95.2972604,25.4770876 96.1597592,24.0164084 96.8614493,23.0232273 C98.3964105,28.9097697 103.454343,30.852755 105.501032,30.852755 C106.626656,30.852755 107.54761,29.9325293 107.54761,28.8077592 L107.54761,2.31083973 C107.54761,1.69735596 107.269853,1.11307681 106.787464,0.718683701 C106.305038,0.324290596 105.676436,0.178230156 105.062467,0.309669595 C100.413723,1.31754646 97.2417092,5.0859881 95.4143211,11.8198755 C91.1020142,14.5221806 84.8013983,21.942395 82.5208119,33.3942665 C76.0446799,33.4527131 72.3315229,33.8032806 68.9839932,34.2122573 L60.8851794,28.9976827 C60.5489669,28.778592 60.1688567,28.6763198 59.7741887,28.6763198 C58.1222792,28.6763198 57.0551489,29.9909385 56.5873555,32.6056672 C56.3388636,34.0517628 56.2072827,35.9944863 56.2072827,38.404708 C56.2072827,44.1012895 56.6750761,57.3353526 60.9581926,57.3353526 C61.2505822,57.3353526 61.5429343,57.2769434 61.8060588,57.1454666 L68.8667454,53.9173289 L69.5245753,54.6622895 L67.8726657,55.5094849 C60.7681936,57.7297457 37.9484824,75.7107732 35.4194041,101.608643 C25.1863296,104.749129 -0.673664519,121.591177 0.0134304469,128.982075 C0.115783646,130.019156 0.802841188,132.42934 5.20294346,132.42934 C6.1823906,132.42934 7.3226464,132.327106 8.6529386,132.108015 C7.6436845,134.070763 19.2756528,111.758542 47.4862259,123.183071 C69.5245753,132.108015 59.7741887,159.661144 63.7357627,158.809479 C64.4807204,159.248205 65.188255,159.661144 65.8658294,160.049811 C76.7160497,166.273668 79.8836809,166.273668 106.01306,166.273668 L157.878252,166.273668 C161.255121,166.273668 164.441955,164.95905 166.824707,162.563486 C169.22213,160.167961 170.537827,157.012741 170.537827,153.66786 C170.537827,150.147564 169.075991,146.773179 166.517797,144.421478 C166.283901,144.20235 165.976916,144.041706 165.655298,143.954055 C164.105742,143.413602 162.614641,142.624815 161.094126,141.587734 C161.03567,141.543908 160.962582,141.500083 160.904089,141.470878 C155.699981,137.760696 152.600569,131.757073 152.600569,125.388524 C152.600569,120.144782 154.647184,115.266005 158.126519,111.672454 C157.293248,114.111806 156.869315,116.712025 156.869315,119.326605 C156.869315,131.275067 165.78658,141.441711 177.627741,142.975233 C178.19785,143.062847 178.782592,142.872961 179.221158,142.493189 L184.483647,138.0235 C183.781956,140.608949 183.431111,143.281826 183.431111,145.98428 C183.431111,156.256926 188.130296,137.068967 193.871072,129.429961 C195.375367,127.42826 200.398323,123.182735 205.873087,121.517324 C211.34785,119.851914 221.295629,119.326679 230.428058,123.183071 C241.152243,127.711621 244.91556,138.66984 243.934591,136.621081 C250.717595,140.754972 254.345711,141.222545 255.719901,144.903598 C256.056151,145.780035 256.947878,146.320489 257.868832,146.218216 C260.602504,145.896853 261.523459,144.275493 261.815886,143.326025 C263.48239,138.038159 253.395604,127.287422 249.302225,123.183071 L249.30316,123.182735 Z" id="Fill-1" fill="#3FBE79"></path>
                        <path d="M162.524642,61.0940675 C154.103441,61.0940675 127.480098,61.4733227 123.985487,66.0535864 L123.956256,66.0389853 C119.964982,71.8010044 120.959132,86.7381893 122.83051,92.6312822 C123.108297,93.4919254 123.897794,94.0608081 124.789618,94.0608081 C124.891982,94.0608081 124.994309,94.0462444 125.11127,94.0316433 C125.915364,93.9149465 126.544035,93.3314627 126.76336,92.5729525 C129.862811,90.5891076 149.921661,90.5891076 160.813828,90.5891076 L166.749464,90.5891076 C181.676696,90.5891076 194.469061,90.4578097 199.425592,88.955353 C203.066021,88.3572681 205.887834,87.4528962 208.855465,86.49012 C213.782428,84.9001313 218.884927,83.2517756 228.680467,82.8433557 C229.279907,82.8141908 229.850078,82.5224302 230.215596,82.0410795 C230.566479,81.5742924 230.712671,80.9470427 230.566479,80.3635589 C226.605857,62.9761528 181.665094,61.0940675 162.524642,61.0940675 Z" id="Fill-2" fill="#35495E"></path>
                        <ellipse id="Oval" fill="#35495E" cx="29.8083832" cy="153.322449" rx="23.5329341" ry="23.5476718"></ellipse>
                        <ellipse id="Oval" fill="#35495E" cx="216.110778" cy="153.322449" rx="23.5329341" ry="23.5476718"></ellipse>
                        <ellipse id="Oval" fill="#35495E" cx="215.718563" cy="153.452328" rx="18.4341317" ry="18.4456763"></ellipse>
                    </g>
                </g>
                <g id="bike" transform="translate(166.000000, 770.000000)">
                    <g id="Group-4" transform="translate(113.000000, 69.000000) scale(-1, 1) translate(-113.000000, -69.000000) ">
                        <g id="Group-3">
                            <path d="M182.442128,57.6330243 C178.821272,57.6330243 175.272792,58.1398519 171.869063,59.0810713 L161.368669,33.5228315 L170.710386,10.8605374 L181.934906,10.8605374 L181.934906,0 L146.233197,0 L146.233197,10.8605374 L158.978643,10.8605374 L139.763158,57.6330243 L124.470935,57.6330243 L77.9404169,17.2504791 L80.9857842,10.8605374 L83.8100638,10.8605374 L83.8100638,0 L48.1083552,0 L42.6772195,5.43008334 L42.6772195,18.8247585 L53.5398617,18.8247585 L53.5398617,10.8605374 L69.1821852,10.8605374 L50.1365032,57.1986325 C47.6743241,56.6918049 45.0672455,56.474609 42.4603152,56.474609 C19.9386026,56.474609 1.68971963,74.7203266 1.68971963,97.2373045 C1.68971963,119.754282 19.9389734,138 42.4603152,138 C64.981657,138 83.2309107,119.754282 83.2309107,97.2373045 C83.2309107,81.1639168 73.9614956,67.3347757 60.4919231,60.6735818 L67.371683,43.9484951 L115.961957,93.5450851 C115.744719,94.4139429 115.599857,95.2827637 115.599857,96.2240201 C115.599857,102.378461 120.596813,107.446365 126.824377,107.446365 C129.865894,107.446365 132.617761,106.215514 134.645539,104.260603 L143.552705,104.260603 C146.88391,122.795841 163.032937,136.914502 182.584358,136.914502 C204.454246,136.914502 222.198131,119.175538 222.198131,97.3084057 C222.125718,75.3700979 204.311126,57.6318751 182.439755,57.6318751 L182.442128,57.6330243 Z M128.051258,85.2339862 C127.546153,85.1613693 126.968895,85.0887524 126.46379,85.0887524 C125.237122,85.0887524 124.082606,85.3066031 123.000244,85.6697248 L74.4104549,35.979955 L76.3374901,28.8121882 L121.664852,68.600585 L135.187461,68.600585 L128.051258,85.2339862 Z M136.86729,92.1111007 L155.304692,47.6880734 L161.790654,63.290127 C151.296626,69.5741436 144.009199,80.5534213 142.770064,93.266055 L137.304588,93.266055 C137.158846,92.9049238 137.013105,92.5437556 136.86729,92.1103611 L136.86729,92.1111007 Z" id="Fill-1" fill="#3FBE79"></path>
                            <ellipse id="Oval" fill="#35495E" cx="183.757009" cy="95.7981651" rx="42.2429907" ry="42.2018349"></ellipse>
                            <ellipse id="Oval-2" fill="#35495E" cx="42.2429907" cy="95.7981651" rx="42.2429907" ry="42.2018349"></ellipse>
                        </g>
                        <g id="Group-2" transform="translate(139.763158, 54.803828)" fill="#3FBE79">
                            <ellipse id="Oval" cx="43.8937978" cy="41.1384247" rx="13.9278397" ry="13.9955466"></ellipse>
                            <polygon id="Rectangle" transform="translate(35.241655, 25.022341) rotate(-23.000000) translate(-35.241655, -25.022341) " points="30.0048433 0.451499587 40.564068 0.433051004 40.4784665 49.593182 29.9192419 49.6116306"></polygon>
                            <polygon id="Rectangle" transform="translate(24.690072, 44.107177) rotate(-90.000000) translate(-24.690072, -44.107177) " points="19.3887288 19.6277534 29.9914155 19.6277534 29.9914155 68.5866007 19.3887288 68.5866007"></polygon>
                        </g>
                        <g id="Group" transform="translate(28.415205, 49.191388)" fill="#3FBE79">
                            <ellipse id="Oval" cx="13.8889933" cy="46.6410539" rx="13.8889933" ry="13.9210526"></ellipse>
                            <polygon id="Rectangle" transform="translate(20.937716, 24.889155) rotate(22.000000) translate(-20.937716, -24.889155) " points="15.6554589 0.42553936 26.1808318 0.433975069 26.2199734 49.3527701 15.6946006 49.3443343"></polygon>
                        </g>
                    </g>
                </g>
                <g id="icon/miniscooter" transform="translate(452.000000, 744.000000)">
                    <g id="miniscooter">
                        <g>
                            <path d="M65.8447978,69.5529024 C74.4142195,72.5715512 68.0705515,68.4209257 79.2091918,77.3368522 C90.3478321,86.2527788 97.4882361,99.8819652 97.4882361,115.233187 C97.4882361,142.087645 75.6627526,163.86105 48.744118,163.86105 C21.8254835,163.86105 0,142.087645 0,115.233187 C0,88.3787301 21.8254835,66.6052812 48.744118,66.6052812 C53.6831767,66.6043084 57.275376,66.5342536 65.8447978,69.5529024 Z M262,133.467376 C262,150.254337 248.362005,163.859817 231.534926,163.859817 C221.847947,163.859817 213.220238,159.395775 207.638732,152.367827 L201.164873,135.366934 C201.129168,134.737719 201.06967,134.108504 201.06967,133.467406 C201.06967,116.680445 214.707665,103.074965 231.534743,103.074965 C248.362005,103.074965 262,116.680415 262,133.467376 Z" id="Fill-1" fill="#35495E" transform="translate(131.000000, 115.233031) scale(-1, 1) translate(-131.000000, -115.233031) "></path>
                            <path d="M54.5656724,0.246150199 C59.4927768,0.246150199 63.5153194,4.13147804 63.7057375,9.01819162 L70.1799502,13.4042123 C72.3459629,14.8582659 73.3457641,17.5519386 72.6553845,20.0785917 C71.0844511,25.8351867 69.7396124,31.6634835 68.3711314,37.5274788 C80.8911925,46.0374269 89.5431782,58.6352988 94.2679825,74.3303879 C99.5283946,91.7911745 100.230352,113.052467 97.2194618,137.830814 L97.2194618,137.926163 C97.2432565,138.724708 97.9097196,140.26218 99.2188511,141.549397 C100.551777,142.860444 102.301186,143.647059 103.312991,143.647059 L172.149868,143.647059 L210.80625,128.772728 C213.829144,127.306745 217.970842,128.975355 219.184643,132.11007 C220.398444,135.244786 218.411058,139.165843 215.185864,140.119326 L175.578916,155.37505 C174.888658,155.673025 174.138868,155.827962 173.389108,155.851791 L103.315276,155.851791 C98.2333997,155.851791 93.8894314,153.515774 90.6526297,150.321591 C87.415828,147.127409 85.0351457,142.872526 85.0351457,137.830814 C85.0232332,137.580529 85.0232332,137.318314 85.0351457,137.068028 C88.0104197,113.052162 87.2487476,93.101031 82.6549204,77.8575113 C79.0845063,66.0224256 73.4316807,57.0239892 65.3268803,50.3972078 C59.7215831,73.9123811 52.7949371,97.6655437 34.9550534,119.999924 C32.8485426,122.633916 29.0164484,123.062968 26.3862423,120.953407 C23.7560363,118.843845 23.3276719,115.006115 25.4341522,112.372062 C47.6058175,84.6255608 51.3666496,53.8053365 59.8038437,21.2191096 L55.6146472,18.4540096 C55.2576058,18.501699 54.9362715,18.5493579 54.567348,18.5493579 C49.5214228,18.5493579 45.4272829,14.4492294 45.4272829,9.39592335 C45.4272829,4.34261727 49.5214228,0.242488826 54.567348,0.242488826 L54.5656724,0.246150199 Z" id="Path" fill="#3FBE79" transform="translate(121.820438, 78.047140) scale(-1, 1) translate(-121.820438, -78.047140) "></path>
                        </g>
                    </g>
                </g>
            </g>
        </g>
    </g>
</svg>