<?xml version="1.0" encoding="UTF-8"?>
<svg width="1250px" height="1250px" viewBox="0 0 1250 1250" version="1.1" xmlns="http://www.w3.org/2000/svg" xmlns:xlink="http://www.w3.org/1999/xlink">
    <!-- Generator: Sketch 55.2 (78181) - https://sketchapp.com -->
    <title>city</title>
    <desc>Created with Sketch.</desc>
    <g id="Layout_Template" stroke="none" stroke-width="1" fill="none" fill-rule="evenodd">
        <g id="city">
            <g>
                <rect id="Rectangle" fill="#F5F7FA" x="0" y="0" width="1250" height="1250"></rect>
                <g id="tram" transform="translate(240.000000, 194.000000)">
                    <g>
                        <path d="M93.673913,380.196013 L185.836957,380.196013 L185.836957,354.277422 L93.673913,354.25965 L93.673913,380.196013 Z M180.343933,80.1056251 L164.003831,63.4585714 L113.55397,63.1960133 L92.5008009,79.965854 C92.5008009,79.965854 11.755672,81.3312547 0,104.210467 C0,104.210467 0.330135326,329.798031 0.330135326,341.440393 C0.330135326,353.082754 24.2255105,379.846294 40.5473033,379.846294 C64.1863447,379.846294 80.1043884,379.968812 80.1043884,379.968812 L79.7559436,341.982806 L199.307935,341.982806 L199.289579,380.196013 C199.289579,380.196013 220.232421,379.810937 240.185139,379.810937 C260.137857,379.810937 278,346.183871 278,341.49242 C277.98169,324.494931 277.504844,104.231126 277.504844,104.231126 C277.501933,81.7686275 180.343933,80.1056251 180.343933,80.1056251 Z M98.2065217,107.369329 C98.2065217,107.658289 98.2618662,107.947205 98.2987468,108.219153 C98.7599195,104.78583 101.895761,102.100559 105.750893,102.100559 L173.741513,102.100559 C177.596786,102.100559 180.751186,104.786048 181.212076,108.219153 C181.249003,107.930236 181.304348,107.658245 181.304348,107.369329 L181.304348,109.068977 C181.304348,108.78006 181.249003,108.508069 181.212076,108.236122 C180.75095,111.771435 177.596644,115.068741 173.741513,115.068741 L105.750893,115.068741 C101.877203,115.068741 98.7412195,111.771392 98.2987468,108.236122 C98.2618662,108.508069 98.2065217,108.780017 98.2065217,109.068977 L98.2065217,107.369329 Z M46.8369565,332.646013 C40.9936627,332.646013 36.2608696,328.131004 36.2608696,322.551079 C36.2608696,316.971595 40.9936627,312.473286 46.8369565,312.473286 C52.662076,312.473286 57.4130435,316.971155 57.4130435,322.551079 C57.4130435,328.113424 52.662076,332.646013 46.8369565,332.646013 Z M132.956522,239.0557 C132.956522,246.997109 126.229497,253.396013 117.903645,253.396013 L28.6507026,253.396013 C20.3248508,253.396013 13.5978261,246.979606 13.5978261,239.0557 L13.5978261,140.953829 C13.5978261,133.01242 20.3248508,126.596013 28.6507026,126.596013 L117.903645,126.596013 C126.229497,126.596013 132.956522,133.029923 132.956522,140.953829 L132.956522,239.0557 Z M232.673887,334.086922 C226.830607,334.086922 222.097826,329.571913 222.097826,324.009129 C222.097826,318.429644 226.848782,313.914195 232.673887,313.914195 C238.517166,313.914195 243.25,318.412064 243.25,324.009129 C243.268169,329.571473 238.517166,334.086922 232.673887,334.086922 Z M265.894289,239.038152 C265.894289,246.979561 259.172761,253.378465 250.894629,253.378465 L161.554008,253.396013 C153.25759,253.396013 146.554348,246.979606 146.554348,239.0557 L146.554348,140.953829 C146.554348,133.01242 153.25759,126.596013 161.554008,126.596013 L250.913384,126.596013 C259.209801,126.596013 265.913043,133.029923 265.913043,140.953829 L265.894289,239.038152 Z" id="Fill-48" fill="#35495E"></path>
                        <path d="M71.7976791,14.1041119 L71.7973502,14.1045165 C65.8322343,22.0594898 69.4110219,0.196013289 82.4970654,0.196013289 L193.497273,0.213591105 C206.582893,0.213591105 210.161634,22.076618 204.215312,14.1041119 C198.26899,6.13124607 187.734189,7.184926 187.734189,7.184926 L139.941846,56.1960133 L137.978046,56.1257919 L136.032618,56.1960133 L88.5174817,7.184926 C88.5174817,7.184926 77.7440013,6.13160572 71.7976791,14.1041119 Z M139.039796,7.37550047 L100.846154,7.39298078 L138.324143,45.5684621 L138.324143,45.3413969 L139.039561,46.1447312 L139.773342,45.3413969 L139.773342,45.5684621 L178.186813,7.39298078 L139.039796,7.37550047 Z" id="Combined-Shape" fill="#3FBE79"></path>
                        <polygon id="Path" fill="#3FBE79" points="22 430.196013 45.4347726 430.196013 64 394.196013 50.9665761 394.196013"></polygon>
                        <polygon id="Path" fill="#3FBE79" points="214 394.196013 231.823096 430.196013 256 430.196013 227.445693 394.196013"></polygon>
                    </g>
                </g>
                <g id="bus" transform="translate(642.000000, 265.000000)">
                    <g>
                        <path d="M356.3783,123.757639 C350.677118,123.757639 346.033339,128.403512 346.033339,134.106834 L346.033339,164.663697 C346.033339,170.083898 350.280881,174.616446 355.698817,175.012893 L355.698817,183.719251 L327.759786,183.719251 L327.759786,26.5909443 C327.759786,11.9925159 315.772177,0 301.179722,0 L67.0915132,0 C52.499058,0 40.5114491,11.9925159 40.5114491,26.5909443 L40.5114491,183.719251 L12.5724187,183.719251 L12.5724187,175.012893 C17.9904023,174.635204 22.2378966,170.178175 22.2378966,164.663697 L22.2378966,134.106834 C22.2378966,128.403319 17.5939244,123.757639 11.8929356,123.757639 L10.344961,123.757639 C4.64377885,123.757639 0,128.403512 0,134.106834 L0,164.663697 C0,169.781729 3.7755773,174.144094 8.70279629,174.918616 L8.70279629,183.624974 C8.70279629,185.853489 10.5339694,187.685363 12.7615238,187.685363 L40.4932296,187.685363 L40.4932296,291.728476 C40.4932296,306.326904 52.4808386,318.31942 67.0732938,318.31942 L86.5173357,318.31942 L86.5173357,340.566854 C86.5173357,351.294125 95.3143704,360 105.94253,360 L110.964229,360 C121.68711,360 130.389423,351.293641 130.389423,340.566854 L130.389423,318.31942 L237.579573,318.31942 L237.579573,340.566854 C237.579573,351.294125 246.376607,360 257.004767,360 L262.026466,360 C272.749347,360 281.45166,351.293641 281.45166,340.566854 L281.45166,318.31942 L300.876854,318.31942 C315.46931,318.31942 327.456919,306.326904 327.456919,291.728476 L327.475766,187.574165 L355.320558,187.574165 C357.548161,187.574165 359.284902,185.836664 359.284902,183.608198 L359.284902,174.807562 C364.21188,174.033234 367.987699,169.689531 367.987699,164.552644 L367.987699,133.995781 C368.270897,128.405881 363.626925,123.759718 357.925936,123.759718 L356.3783,123.757639 Z M254.996785,14.2105263 C261.161148,14.2105263 266.237942,19.2913134 266.237942,25.4605263 C266.237942,31.7250865 261.161148,36.7105263 254.996785,36.7105263 C248.832421,36.7105263 243.755627,31.6297392 243.755627,25.4605263 C243.755627,19.1959662 248.73666,14.2105263 254.996785,14.2105263 Z M137.26045,28.3325277 C137.26045,21.1747535 142.91385,15.3947368 149.914826,15.3947368 L220.451733,15.3947368 C227.45271,15.3947368 233.106109,21.1747535 233.106109,28.3325277 L233.106109,30.8779986 C233.106109,38.0357729 227.45271,43.8157895 220.451733,43.8157895 L149.914826,43.8157895 C142.91385,43.8157895 137.26045,38.0357729 137.26045,30.8779986 L137.26045,28.3325277 Z M114.186495,14.2105263 C120.350859,14.2105263 125.427653,19.2913134 125.427653,25.4605263 C125.427653,31.7250865 120.350859,36.7105263 114.186495,36.7105263 C108.022131,36.7105263 102.945338,31.6297392 102.945338,25.4605263 C102.945338,19.1959662 108.022131,14.2105263 114.186495,14.2105263 Z M68.6302251,246.315789 C68.6302251,232.567866 79.7414946,221.447368 93.4790997,221.447368 C107.216218,221.447368 118.327974,232.567378 118.327974,246.315789 C118.327974,260.063713 107.216705,271.184211 93.4790997,271.184211 C79.7419817,271.184211 68.6302251,260.064201 68.6302251,246.315789 Z M234.289389,269.286385 C234.289389,270.320162 233.232989,271.184211 231.969075,271.184211 L137.214204,271.184211 C135.950291,271.184211 134.893891,270.320162 134.893891,269.286385 L134.893891,268.422336 C134.893891,267.388559 135.950291,266.447368 137.214204,266.447368 L231.969075,266.447368 C233.232989,266.447368 234.289389,267.311417 234.289389,268.422336 L234.289389,269.286385 Z M234.289389,250.339016 C234.289389,251.372794 233.232989,252.236842 231.969075,252.236842 L137.214204,252.236842 C135.950291,252.236842 134.893891,251.372794 134.893891,250.339016 L134.893891,249.474968 C134.893891,248.441191 135.950291,247.5 137.214204,247.5 L231.969075,247.5 C233.232989,247.5 234.289389,248.364048 234.289389,249.474968 L234.289389,250.339016 Z M234.289389,231.391648 C234.289389,232.425425 233.232989,233.289474 231.969075,233.289474 L137.214204,233.289474 C135.950291,233.289474 134.893891,232.425425 134.893891,231.391648 L134.893891,230.5276 C134.893891,229.493822 135.950291,228.552632 137.214204,228.552632 L231.969075,228.552632 C233.232989,228.552632 234.289389,229.41668 234.289389,230.5276 L234.289389,231.391648 Z M273.337621,271.184211 C259.600503,271.184211 248.488746,260.064201 248.488746,246.315789 C248.488746,232.567866 259.600016,221.447368 273.337621,221.447368 C287.075226,221.447368 298.186495,232.567378 298.186495,246.315789 C298.186495,260.063713 287.075226,271.184211 273.337621,271.184211 Z M308.836013,164.844557 C308.836013,177.783206 298.360933,188.289474 285.461776,188.289474 L283.81385,188.289474 C282.450033,178.846916 279.836064,170.677211 276.540162,163.970534 L277.032639,164.65448 C277.525116,165.338426 278.396456,165.433464 279.078388,164.93945 C279.760321,164.445483 279.855024,163.571509 279.362498,162.887515 L270.725237,151.107907 C270.23276,150.423961 269.361421,150.328923 268.679488,150.822938 C268.300675,151.107907 268.092308,151.506883 268.092308,151.886891 C265.762449,149.549987 263.243183,147.612059 260.62902,146.149081 C268.186866,142.064277 273.433619,133.989611 273.433619,124.756196 C273.433619,119.398247 271.69094,114.439616 268.773901,110.44985 C269.152763,110.164833 269.550537,109.860894 269.834647,109.480887 C271.38787,107.922967 272.353913,105.681052 272.353913,103.249402 C272.353913,98.3856138 268.376127,94.4906925 263.621609,94.4906925 C263.621609,94.4906925 252.767812,91.5648323 249.074234,91.5648323 C245.096448,91.5648323 233.560914,94.4906925 233.560914,94.4906925 C231.136351,94.4906925 228.995899,95.4596563 227.348215,97.0175762 C225.794992,98.5754961 224.828949,100.81741 224.828949,103.249061 C224.828949,106.459939 226.571627,109.27189 229.185597,110.829761 C226.476924,114.724585 224.828949,119.58847 224.828949,124.641946 C224.828949,133.875361 229.962233,141.950221 237.633548,146.03483 C235.398393,147.307781 233.163237,148.846683 231.136691,150.803628 C231.136691,150.423621 230.947284,150.024644 230.54951,149.739675 C230.2654,149.549695 229.96233,149.454657 229.678171,149.454657 C229.185694,149.454657 228.806832,149.644685 228.522721,150.043613 L219.88546,161.708922 C219.392983,162.392916 219.506646,163.266842 220.169619,163.760856 C220.662096,164.140864 221.230365,164.140864 221.722842,163.855895 C218.332237,170.562572 215.812729,178.732276 214.449155,188.07999 L84.9047833,188.098959 C72.0051413,188.098959 61.5305466,177.592205 61.5305466,164.654042 L61.5305466,82.6554429 C61.5305466,69.7167945 72.0056262,59.2105263 84.9047833,59.2105263 L285.45974,59.2105263 C298.359382,59.2105263 308.836013,69.7172809 308.836013,82.6554429 L308.836013,164.844557 Z" id="Fill-1" fill="#35495E"></path>
                        <rect id="Rectangle" fill="#3FBE79" x="85" y="288" width="47" height="72" rx="12"></rect>
                        <rect id="Rectangle" fill="#3FBE79" x="237" y="288" width="47" height="72" rx="12"></rect>
                    </g>
                </g>
                <g id="icon/car" transform="translate(761.000000, 967.000000)">
                    <g id="car" transform="translate(0.000000, -0.397403)">
                        <path d="M253.287514,34.768624 C248.356606,30.818026 226.99979,11.9750742 231.510837,5.27232649 C236.021884,-1.43042127 195.463913,0.681207846 182.618044,0.681207846 C174.054131,0.681207846 137.158868,0.681207846 71.9322546,0.681207846 C64.2099903,0.681207846 87.2958469,0.953939393 75.9739777,0.681207846 C64.6521085,0.408476299 23.4399255,1.44703438 18.993683,14.0876203 C14.5474405,26.7282061 0.380841781,61.5287228 0.380841781,70.0723945 L0.380841781,118.840509 C0.380841781,127.384181 7.07758945,133.924675 15.8253705,133.924675 L18.993683,133.666508 C18.993683,113.043436 29.5309062,96.4315634 52.3916003,96.4315634 C75.2522944,96.4315634 86.5553644,113.043436 86.5553644,133.666508 L204.743787,133.666508 C204.743787,113.043436 216.223576,96.4315634 237.494941,96.4315634 C258.766306,96.4315634 271.685612,113.301603 271.685612,133.924675 L283.007481,133.924675 C291.755262,133.924675 308.669145,120.142701 308.669145,111.599029 L308.669145,83.7082795 C308.669145,83.7082795 304.609275,64.4802529 294.116825,59.5200825 C279.085387,52.4141637 258.218421,38.7192221 253.287514,34.768624 Z M169.591161,34.1453706 L152.76526,61.8245358 L163.990839,66.3460029 C168.982631,68.3511823 169.59141,73.3835564 165.232709,76.4111539 L119.089271,107.117916 C112.855609,111.147902 104.138456,105.604218 107.255287,99.5690532 L124.081188,71.889888 L112.855609,67.8599022 C107.863817,65.8547229 107.255038,60.8223487 111.613739,57.7947513 L158.366206,27.0879886 C163.966777,22.5665215 172.708616,28.1102054 169.591784,34.1451692 L169.591161,34.1453706 Z" id="Shape" fill="#3FBE79"></path>
                        <path d="M52.9033457,107.298701 C40.086328,107.298701 29.8327138,117.542857 29.8327138,130.348052 C29.8327138,143.153247 40.086328,153.397403 52.9033457,153.397403 C65.7203635,153.397403 75.9739777,143.153247 75.9739777,130.348052 C75.9739777,118.06326 65.7203635,107.298701 52.9033457,107.298701 L52.9033457,107.298701 Z" id="wheel" fill="#35495E"></path>
                        <path d="M238.263941,107.298701 C225.446923,107.298701 215.193309,117.542857 215.193309,130.348052 C215.193309,143.153247 225.446923,153.397403 238.263941,153.397403 C251.080958,153.397403 261.334572,143.153247 261.334572,130.348052 C261.334572,118.06326 251.080958,107.298701 238.263941,107.298701 L238.263941,107.298701 Z" id="wheel" fill="#35495E"></path>
                    </g>
                </g>
                <g id="icon/pedelec" transform="translate(803.000000, 770.000000)">
                    <g id="pedelec">
                        <g id="Group-9" transform="translate(0.000000, 46.981509)" fill="#35495E">
                            <path d="M46.5568345,92.8301887 C20.8442048,92.8301887 0,72.0494431 0,46.4150943 C0,20.7807456 20.8442048,0 46.5568345,0 C72.2694642,0 93.1136691,20.7807456 93.1136691,46.4150943 C93.1136691,72.0494431 72.2694642,92.8301887 46.5568345,92.8301887 Z M46.3180815,77.06527 C63.4598347,77.06527 77.3559712,63.2114396 77.3559712,46.1218738 C77.3559712,29.0323079 63.4598347,15.1784775 46.3180815,15.1784775 C29.1763284,15.1784775 15.2801918,29.0323079 15.2801918,46.1218738 C15.2801918,63.2114396 29.1763284,77.06527 46.3180815,77.06527 Z" id="Combined-Shape"></path>
                            <rect id="Rectangle" x="10.2425036" y="43.6301887" width="71.6975252" height="4.64150943"></rect>
                            <polygon id="Rectangle" transform="translate(46.091266, 45.950943) scale(-1, -1) rotate(90.000000) translate(-46.091266, -45.950943) " points="10.3516435 43.6231017 81.8308888 43.6231017 81.8308888 48.2787851 10.3516435 48.2787851"></polygon>
                            <polygon id="Rectangle" transform="translate(46.091266, 45.950943) scale(-1, -1) rotate(45.000000) translate(-46.091266, -45.950943) " points="10.3006171 43.6812151 81.8890023 43.5720752 81.8819153 48.2206716 10.2935301 48.3298116"></polygon>
                            <polygon id="Rectangle" transform="translate(46.091266, 45.950943) scale(-1, -1) rotate(135.000000) translate(-46.091266, -45.950943) " points="10.2935301 43.5720752 81.8819153 43.6812151 81.8890023 48.3298116 10.3006171 48.2206716"></polygon>
                        </g>
                        <g id="Group-9" transform="translate(168.886331, 46.981509)" fill="#35495E">
                            <path d="M46.5568345,92.8301887 C20.8442048,92.8301887 0,72.0494431 0,46.4150943 C0,20.7807456 20.8442048,0 46.5568345,0 C72.2694642,0 93.1136691,20.7807456 93.1136691,46.4150943 C93.1136691,72.0494431 72.2694642,92.8301887 46.5568345,92.8301887 Z M46.3180815,77.06527 C63.4598347,77.06527 77.3559712,63.2114396 77.3559712,46.1218738 C77.3559712,29.0323079 63.4598347,15.1784775 46.3180815,15.1784775 C29.1763284,15.1784775 15.2801918,29.0323079 15.2801918,46.1218738 C15.2801918,63.2114396 29.1763284,77.06527 46.3180815,77.06527 Z" id="Combined-Shape"></path>
                            <rect id="Rectangle" x="10.2425036" y="43.6301887" width="71.6975252" height="4.64150943"></rect>
                            <polygon id="Rectangle" transform="translate(46.091266, 45.950943) scale(-1, -1) rotate(90.000000) translate(-46.091266, -45.950943) " points="10.3516435 43.6231017 81.8308888 43.6231017 81.8308888 48.2787851 10.3516435 48.2787851"></polygon>
                            <polygon id="Rectangle" transform="translate(46.091266, 45.950943) scale(-1, -1) rotate(45.000000) translate(-46.091266, -45.950943) " points="10.3006171 43.6812151 81.8890023 43.5720752 81.8819153 48.2206716 10.2935301 48.3298116"></polygon>
                            <polygon id="Rectangle" transform="translate(46.091266, 45.950943) scale(-1, -1) rotate(135.000000) translate(-46.091266, -45.950943) " points="10.2935301 43.5720752 81.8819153 43.6812151 81.8890023 48.3298116 10.3006171 48.2206716"></polygon>
                        </g>
                        <path d="M167.489548,10.3647213 L180.693733,10.3647213 L181.962395,11.6415548 C181.251936,14.0837495 180.541477,16.7894619 179.973115,19.1504326 C164.857329,18.3870322 142.070832,18.521636 111.613626,19.5542439 L14.7021583,19.5542439 L22.3755187,36.910141 L100.512591,36.910141 C95.5190604,40.5479711 90.9542321,43.9855302 86.2142883,48.9204545 C84.3551981,50.8560194 40.7883479,88.9615409 43.5944321,93.2414591 C45.4651548,96.0947379 57.463447,97.5213773 79.5893086,97.5213773 L110.90668,99.2036565 C115.169067,104.137319 119.268614,106.60415 123.205321,106.60415 C129.110381,106.60415 135.285316,103.692899 137.802477,98.7273635 L142.653885,100.237259 L141.699842,101.189819 L145.282536,104.766945 L152.519115,97.5213773 L148.855097,93.9442512 L146.703454,96.1736446 L139.304486,93.8632087 C139.527777,92.6269224 139.426265,91.4514179 139.38568,90.2860826 C162.830513,78.2980795 177.618577,64.9014321 188.640252,51.5340991 C188.883827,52.3177515 196.743511,66.8405542 212.219303,95.1025071 C214.252264,96.1245167 215.768256,96.1245167 216.767279,95.1025071 C217.766303,94.0804975 217.766303,92.5296242 216.767279,90.449887 C201.047001,49.8535345 192.259901,26.2216535 190.40598,19.5542439 L192.638818,12.0453661 C193.288374,10.2416011 192.811366,8.07314516 191.441191,6.71508763 L186.34633,1.61802663 C185.402446,0.706013823 184.083041,0.179056372 182.763636,0.189055851 L167.488925,0.189055851 C164.301941,0.219603533 162.130083,3.17848272 162.160483,5.51947817 C162.282885,8.1757453 164.830264,10.4863887 167.489548,10.3647213 Z M185.159304,39.4377886 C174.258966,53.9185472 160.405225,68.1762056 135.031729,81.1367699 C132.403104,78.4512663 128.840676,76.688256 124.841746,76.5261192 L114.256054,41.748432 C128.106504,33.5267578 150.864366,29.4159207 182.52964,29.4159207 C183.680582,33.8542308 184.557137,37.1948535 185.159304,39.4377886 Z M115.128538,79.5462731 C113.257883,80.0158081 111.275966,82.24029 109.182787,86.2197186 L63.8125083,84.4811973 L96.037812,56.5521671 C100.185447,52.471682 103.314837,49.5801998 105.425982,47.8777205 L115.128538,79.5462731 Z M126.517576,81.9478947 C127.84714,82.2519077 129.105643,82.7687218 130.181594,83.5388585 C129.268162,83.9746043 128.334411,84.3799462 127.400713,84.815692 L126.517576,81.9478947 Z M116.814761,84.8967085 L117.372963,86.8018284 L115.464904,86.8018284 C115.860718,86.1127601 116.27685,85.4642131 116.814761,84.8967085 Z M130.341125,96.4287052 L132.888608,97.2292458 C131.102328,100.13759 127.915344,102.002033 124.211053,102.002033 C120.425437,102.002033 117.218187,100.015871 115.462306,96.9859109 L118.567966,96.9859109 C119.968565,98.5059495 121.98827,99.5294346 124.221186,99.5294346 C126.717925,99.5294346 128.950737,98.2728617 130.35144,96.4286014 L130.341125,96.4287052 Z" id="Fill-1" fill="#3FBE79"></path>
                    </g>
                </g>
                <g id="icon/minicar" transform="translate(452.000000, 980.000000)">
                    <g id="minicar">
                        <path d="M173.770832,31.5177839 C164.939044,15.9991159 160.104532,11.4637658 168.938029,5.52342716 C177.771526,-0.416911429 140.825021,0.265255886 135.114047,0.265255886 L61.7483209,0.265255886 C39.4538714,-0.371428571 32.6389585,5.47484364 24.2009885,12.9326636 C15.7630184,20.3904836 0.341153882,57.1358091 0.341153882,65.1210709 L0.341153882,110.701727 C0.341153882,118.686989 5.29371046,124.8 11.7631017,124.8 L20.1361509,124.8 C20.1361509,105.524841 32.3931979,89.5543177 53.2567538,89.5543177 C74.1203097,89.5543177 82.8424576,105.524841 82.8424576,124.8 L137.68258,124.8 C137.68258,105.524841 145.335716,89.5543177 168.938029,89.5543177 C192.540342,89.5543177 200.983658,105.524841 200.983658,124.8 L209.356708,124.8 C215.826099,124.8 225.687181,118.686989 225.687181,110.701727 L225.687181,71.1730609 C225.687181,71.1730609 227.836996,66.8502619 220.077341,62.2142857 C208.960893,55.572806 210.524517,57.1416998 196.586491,50.5948007 C179.781163,42.7010867 176.946153,37.0972607 173.770832,31.5177839 Z M133.87552,32.6601763 L121.423452,58.50701 L129.730982,62.7291607 C133.425176,64.6015994 133.875705,69.3008357 130.650032,72.1280094 L96.5014153,100.802017 C91.8881711,104.565222 85.4370105,99.3885239 87.7436326,93.7528802 L100.195701,67.9060466 L91.8881711,64.1428416 C88.1939775,62.2704029 87.7434481,57.5711666 90.9691206,54.7439929 L125.568452,26.0699856 C129.713175,21.8478348 136.182604,27.0245327 133.875982,32.6599883 L133.87552,32.6601763 Z" id="Shape" fill="#3FBE79"></path>
                        <path d="M52.5570325,99.9142857 C40.5599613,99.9142857 30.9623043,109.488889 30.9623043,121.457143 C30.9623043,133.425397 40.5599613,143 52.5570325,143 C64.5541037,143 74.1517607,133.425397 74.1517607,121.457143 C74.1517607,109.975279 64.5541037,99.9142857 52.5570325,99.9142857 L52.5570325,99.9142857 Z" id="wheel" fill="#35495E"></path>
                        <path d="M171.328037,99.9142857 C159.330966,99.9142857 149.733309,109.488889 149.733309,121.457143 C149.733309,133.425397 159.330966,143 171.328037,143 C183.325109,143 192.922766,133.425397 192.922766,121.457143 C192.922766,109.975279 183.325109,99.9142857 171.328037,99.9142857 L171.328037,99.9142857 Z" id="wheel" fill="#35495E"></path>
                    </g>
                </g>
                <g id="icon/scooter" transform="translate(153.000000, 958.426647)">
                    <g id="scooter" transform="translate(120.000000, 81.000000) scale(-1, 1) translate(-120.000000, -81.000000) ">
                        <path d="M228.369307,112.74352 L232.507029,109.214249 C233.21675,108.612644 233.377459,107.569845 232.868591,106.781064 L228.315726,99.6150559 L230.980528,99.6150559 L231.047479,99.6150559 C232.091988,99.6150559 232.922241,98.7861631 232.922241,97.7433648 C232.922241,97.462618 232.868694,97.1952189 232.748162,96.9545837 C230.578823,83.1041112 223.414462,82.7700763 214.322101,82.7567285 C211.684072,80.6042907 208.952318,79.5882563 205.778579,79.5882563 C202.417425,79.5882563 198.92237,80.7380074 194.864866,82.0615525 C189.923596,83.6792263 183.777005,85.6979475 175.876253,86.1924972 C161.8961,86.8074844 149.241595,86.8743256 139.07898,86.9277849 C119.87611,87.0213557 117.398962,87.1283085 116.675632,89.3743172 C116.434602,90.1363687 116.689036,90.9518795 117.318402,91.4331499 C125.687776,97.8102745 129.691802,105.029674 128.312332,111.219246 C126.866084,117.689804 119.88948,122.582937 108.654211,125.043023 L88.9693495,125.043023 C87.9516138,125.043023 87.0410407,124.708817 86.1706107,123.946765 C86.0634825,123.879924 85.9563542,123.759589 85.6617429,123.412001 C75.0558735,113.117838 69.7532816,101.834232 69.9137169,89.8421715 C70.1681508,70.2162481 85.0724518,54.4536308 88.0453039,51.5000224 L102.855743,51.5000224 C103.458336,51.5000224 104.034154,51.2058937 104.382313,50.7112413 C105.266112,49.4545374 105.734803,47.9839279 105.734803,46.4464772 C105.734803,45.0427089 105.37324,43.7592754 104.650116,42.6362197 C104.301958,42.1014558 103.712735,41.7672154 103.069966,41.7672154 L90.7099352,41.7672154 L84.295609,34.4543823 C83.9340469,33.7190946 84.3491903,29.9890603 86.4649478,25.1897034 C87.2952004,23.3180124 88.0852756,21.9811195 88.7280452,21.0721064 C90.1341165,26.4597892 94.7673367,28.2381147 96.642167,28.2381147 C97.6732723,28.2381147 98.5168945,27.3958743 98.5168945,26.3664237 L98.5168945,2.11500585 C98.5168945,1.55351224 98.2624606,1.01874826 97.8205779,0.657778302 C97.378661,0.296808342 96.8028423,0.163125905 96.2404275,0.283426409 C91.9820362,1.20588998 89.0763749,4.65497216 87.4024315,10.8181911 C83.4522268,13.2914873 77.6806702,20.08287 75.5915834,30.5642439 C69.6592487,30.6177374 66.2578835,30.9385958 63.1914441,31.3129135 L55.7726834,26.5402519 C55.4647025,26.3397283 55.1165099,26.2461232 54.754982,26.2461232 C53.2417825,26.2461232 52.2642585,27.4493336 51.8357455,29.8424751 C51.6081193,31.1660202 51.4875872,32.9441061 51.4875872,35.1500717 C51.4875872,40.3638921 51.9161002,52.4764244 55.8395657,52.4764244 C56.1074035,52.4764244 56.375207,52.4229652 56.616237,52.3026304 L63.0840416,49.3480638 L63.6866338,50.0298921 L62.1734343,50.8052913 C55.6655209,52.8373944 34.7619686,69.2946059 32.4452557,92.997741 C23.071447,95.8720845 -0.617097269,111.28684 0.0123026995,118.05139 C0.106061355,119.000584 0.735427043,121.206515 4.76605508,121.206515 C5.66325856,121.206515 6.70776769,121.112944 7.92635597,120.91242 C7.0018484,122.708834 17.6570865,102.287479 43.4988329,112.743828 C63.6866338,120.91242 54.754982,146.130538 58.3839048,145.351048 C59.0663088,145.752594 59.7144321,146.130538 60.3351109,146.486268 C70.274244,152.18268 73.1758909,152.18268 97.1112003,152.18268 L144.621299,152.18268 C147.714615,152.18268 150.633852,150.979469 152.816526,148.78692 C155.012638,146.594405 156.217857,143.706576 156.217857,140.64516 C156.217857,137.423194 154.87877,134.334774 152.535387,132.18237 C152.32113,131.981812 152.039923,131.834782 151.745312,131.754559 C150.325871,131.259906 148.959977,130.537967 147.567138,129.588773 C147.513591,129.548662 147.44664,129.50855 147.393059,129.481821 C142.625937,126.086061 139.786781,120.59122 139.786781,114.762378 C139.786781,109.963021 141.661542,105.497699 144.84872,102.208687 C144.085418,104.441314 143.697082,106.821176 143.697082,109.21418 C143.697082,120.150061 151.865569,129.455125 162.712435,130.858688 C163.234672,130.938877 163.770313,130.765083 164.172053,130.417495 L168.992653,126.326593 C168.349884,128.692937 168.028499,131.139298 168.028499,133.612731 C168.028499,143.014814 172.333096,125.452953 177.591821,118.461321 C178.969802,116.629254 183.570983,112.74352 188.586034,111.219246 C193.601084,109.694972 202.713553,109.214249 211.079137,112.743828 C220.902818,116.888603 224.350132,126.918159 223.451533,125.043023 C229.664973,128.826585 232.988438,129.254533 234.247238,132.623632 C234.555253,133.425795 235.372102,133.920447 236.215724,133.826842 C238.719851,133.532713 239.563473,132.048756 239.831346,131.179752 C241.357915,126.340009 232.118111,116.500352 228.36845,112.743828 L228.369307,112.74352 Z" id="Fill-1" fill="#3FBE79"></path>
                        <path d="M148.877534,55.9166042 C141.163458,55.9166042 116.775662,56.263719 113.574492,60.4558248 L113.547716,60.4424611 C109.891586,65.7161735 110.802259,79.3874953 112.516498,84.7811735 C112.770959,85.5688809 113.494163,86.0895532 114.311101,86.0895532 C114.404869,86.0895532 114.498604,86.0762237 114.605744,86.0628599 C115.342318,85.9560527 115.9182,85.4220167 116.119109,84.727787 C118.9583,82.9120646 137.332819,82.9120646 147.310377,82.9120646 L152.747601,82.9120646 C166.421401,82.9120646 178.139598,82.7918937 182.679932,81.4167638 C186.014675,80.869364 188.599542,80.0416339 191.317983,79.1604488 C195.831232,77.705205 200.505277,76.1965404 209.47829,75.8227323 C210.027395,75.796039 210.54969,75.529004 210.884515,75.0884456 C211.205935,74.6612168 211.339851,74.0871238 211.205935,73.5530878 C207.577885,57.6391907 166.410773,55.9166042 148.877534,55.9166042 Z" id="Fill-2" fill="#35495E"></path>
                        <ellipse id="Oval" fill="#35495E" cx="27.3053892" cy="140.329021" rx="21.5568862" ry="21.5521064"></ellipse>
                        <ellipse id="Oval" fill="#35495E" cx="197.964072" cy="140.329021" rx="21.5568862" ry="21.5521064"></ellipse>
                        <ellipse id="Oval" fill="#35495E" cx="197.60479" cy="140.447894" rx="16.8862275" ry="16.8824834"></ellipse>
                    </g>
                </g>
                <g id="bike" transform="translate(166.000000, 770.000000)">
                    <g id="Group-4" transform="translate(113.000000, 69.000000) scale(-1, 1) translate(-113.000000, -69.000000) ">
                        <g id="Group-3">
                            <path d="M182.442128,57.6330243 C178.821272,57.6330243 175.272792,58.1398519 171.869063,59.0810713 L161.368669,33.5228315 L170.710386,10.8605374 L181.934906,10.8605374 L181.934906,0 L146.233197,0 L146.233197,10.8605374 L158.978643,10.8605374 L139.763158,57.6330243 L124.470935,57.6330243 L77.9404169,17.2504791 L80.9857842,10.8605374 L83.8100638,10.8605374 L83.8100638,0 L48.1083552,0 L42.6772195,5.43008334 L42.6772195,18.8247585 L53.5398617,18.8247585 L53.5398617,10.8605374 L69.1821852,10.8605374 L50.1365032,57.1986325 C47.6743241,56.6918049 45.0672455,56.474609 42.4603152,56.474609 C19.9386026,56.474609 1.68971963,74.7203266 1.68971963,97.2373045 C1.68971963,119.754282 19.9389734,138 42.4603152,138 C64.981657,138 83.2309107,119.754282 83.2309107,97.2373045 C83.2309107,81.1639168 73.9614956,67.3347757 60.4919231,60.6735818 L67.371683,43.9484951 L115.961957,93.5450851 C115.744719,94.4139429 115.599857,95.2827637 115.599857,96.2240201 C115.599857,102.378461 120.596813,107.446365 126.824377,107.446365 C129.865894,107.446365 132.617761,106.215514 134.645539,104.260603 L143.552705,104.260603 C146.88391,122.795841 163.032937,136.914502 182.584358,136.914502 C204.454246,136.914502 222.198131,119.175538 222.198131,97.3084057 C222.125718,75.3700979 204.311126,57.6318751 182.439755,57.6318751 L182.442128,57.6330243 Z M128.051258,85.2339862 C127.546153,85.1613693 126.968895,85.0887524 126.46379,85.0887524 C125.237122,85.0887524 124.082606,85.3066031 123.000244,85.6697248 L74.4104549,35.979955 L76.3374901,28.8121882 L121.664852,68.600585 L135.187461,68.600585 L128.051258,85.2339862 Z M136.86729,92.1111007 L155.304692,47.6880734 L161.790654,63.290127 C151.296626,69.5741436 144.009199,80.5534213 142.770064,93.266055 L137.304588,93.266055 C137.158846,92.9049238 137.013105,92.5437556 136.86729,92.1103611 L136.86729,92.1111007 Z" id="Fill-1" fill="#3FBE79"></path>
                            <ellipse id="Oval" fill="#35495E" cx="183.757009" cy="95.7981651" rx="42.2429907" ry="42.2018349"></ellipse>
                            <ellipse id="Oval-2" fill="#35495E" cx="42.2429907" cy="95.7981651" rx="42.2429907" ry="42.2018349"></ellipse>
                        </g>
                        <g id="Group-2" transform="translate(139.763158, 54.803828)" fill="#3FBE79">
                            <ellipse id="Oval" cx="43.8937978" cy="41.1384247" rx="13.9278397" ry="13.9955466"></ellipse>
                            <polygon id="Rectangle" transform="translate(35.241655, 25.022341) rotate(-23.000000) translate(-35.241655, -25.022341) " points="30.0048433 0.451499587 40.564068 0.433051004 40.4784665 49.593182 29.9192419 49.6116306"></polygon>
                            <polygon id="Rectangle" transform="translate(24.690072, 44.107177) rotate(-90.000000) translate(-24.690072, -44.107177) " points="19.3887288 19.6277534 29.9914155 19.6277534 29.9914155 68.5866007 19.3887288 68.5866007"></polygon>
                        </g>
                        <g id="Group" transform="translate(28.415205, 49.191388)" fill="#3FBE79">
                            <ellipse id="Oval" cx="13.8889933" cy="46.6410539" rx="13.8889933" ry="13.9210526"></ellipse>
                            <polygon id="Rectangle" transform="translate(20.937716, 24.889155) rotate(22.000000) translate(-20.937716, -24.889155) " points="15.6554589 0.42553936 26.1808318 0.433975069 26.2199734 49.3527701 15.6946006 49.3443343"></polygon>
                        </g>
                    </g>
                </g>
                <g id="icon/miniscooter" transform="translate(452.000000, 744.000000)">
                    <g id="miniscooter">
                        <g>
                            <path d="M65.8447978,69.5529024 C74.4142195,72.5715512 68.0705515,68.4209257 79.2091918,77.3368522 C90.3478321,86.2527788 97.4882361,99.8819652 97.4882361,115.233187 C97.4882361,142.087645 75.6627526,163.86105 48.744118,163.86105 C21.8254835,163.86105 0,142.087645 0,115.233187 C0,88.3787301 21.8254835,66.6052812 48.744118,66.6052812 C53.6831767,66.6043084 57.275376,66.5342536 65.8447978,69.5529024 Z M262,133.467376 C262,150.254337 248.362005,163.859817 231.534926,163.859817 C221.847947,163.859817 213.220238,159.395775 207.638732,152.367827 L201.164873,135.366934 C201.129168,134.737719 201.06967,134.108504 201.06967,133.467406 C201.06967,116.680445 214.707665,103.074965 231.534743,103.074965 C248.362005,103.074965 262,116.680415 262,133.467376 Z" id="Fill-1" fill="#35495E" transform="translate(131.000000, 115.233031) scale(-1, 1) translate(-131.000000, -115.233031) "></path>
                            <path d="M54.5656724,0.246150199 C59.4927768,0.246150199 63.5153194,4.13147804 63.7057375,9.01819162 L70.1799502,13.4042123 C72.3459629,14.8582659 73.3457641,17.5519386 72.6553845,20.0785917 C71.0844511,25.8351867 69.7396124,31.6634835 68.3711314,37.5274788 C80.8911925,46.0374269 89.5431782,58.6352988 94.2679825,74.3303879 C99.5283946,91.7911745 100.230352,113.052467 97.2194618,137.830814 L97.2194618,137.926163 C97.2432565,138.724708 97.9097196,140.26218 99.2188511,141.549397 C100.551777,142.860444 102.301186,143.647059 103.312991,143.647059 L172.149868,143.647059 L210.80625,128.772728 C213.829144,127.306745 217.970842,128.975355 219.184643,132.11007 C220.398444,135.244786 218.411058,139.165843 215.185864,140.119326 L175.578916,155.37505 C174.888658,155.673025 174.138868,155.827962 173.389108,155.851791 L103.315276,155.851791 C98.2333997,155.851791 93.8894314,153.515774 90.6526297,150.321591 C87.415828,147.127409 85.0351457,142.872526 85.0351457,137.830814 C85.0232332,137.580529 85.0232332,137.318314 85.0351457,137.068028 C88.0104197,113.052162 87.2487476,93.101031 82.6549204,77.8575113 C79.0845063,66.0224256 73.4316807,57.0239892 65.3268803,50.3972078 C59.7215831,73.9123811 52.7949371,97.6655437 34.9550534,119.999924 C32.8485426,122.633916 29.0164484,123.062968 26.3862423,120.953407 C23.7560363,118.843845 23.3276719,115.006115 25.4341522,112.372062 C47.6058175,84.6255608 51.3666496,53.8053365 59.8038437,21.2191096 L55.6146472,18.4540096 C55.2576058,18.501699 54.9362715,18.5493579 54.567348,18.5493579 C49.5214228,18.5493579 45.4272829,14.4492294 45.4272829,9.39592335 C45.4272829,4.34261727 49.5214228,0.242488826 54.567348,0.242488826 L54.5656724,0.246150199 Z" id="Path" fill="#3FBE79" transform="translate(121.820438, 78.047140) scale(-1, 1) translate(-121.820438, -78.047140) "></path>
                        </g>
                    </g>
                </g>
            </g>
        </g>
    </g>
</svg>