<?xml version="1.0" encoding="UTF-8"?>
<svg width="1250px" height="1250px" viewBox="0 0 1250 1250" version="1.1" xmlns="http://www.w3.org/2000/svg" xmlns:xlink="http://www.w3.org/1999/xlink">
    <!-- Generator: Sketch 55.2 (78181) - https://sketchapp.com -->
    <title>intercity</title>
    <desc>Created with Sketch.</desc>
    <g id="Layout_Template" stroke="none" stroke-width="1" fill="none" fill-rule="evenodd">
        <g id="intercity">
            <g>
                <rect id="Rectangle" fill="#F5F7FA" x="0" y="0" width="1250" height="1250"></rect>
                <g id="tram" transform="translate(191.000000, 296.000000)">
                    <g>
                        <path d="M59.6413043,241.702338 L118.320652,241.702338 L118.320652,225.22509 L59.6413043,225.213791 L59.6413043,241.702338 Z M114.823296,50.9256178 L104.419705,40.3425721 L72.2987507,40.1756558 L58.8943948,50.836761 C58.8943948,50.836761 7.48472642,51.7047884 0,66.2498099 C0,66.2498099 0.210194074,209.662785 0.210194074,217.064194 C0.210194074,224.465602 15.4241559,241.480011 25.8160888,241.480011 C40.8668454,241.480011 51.0017149,241.557899 51.0017149,241.557899 L50.7798633,217.409023 L126.897498,217.409023 L126.885811,241.702338 C126.885811,241.702338 140.219923,241.457533 152.923632,241.457533 C165.627341,241.457533 177,220.079769 177,217.097269 C176.988342,206.291441 176.684739,66.2629432 176.684739,66.2629432 C176.682886,51.9828398 114.823296,50.9256178 114.823296,50.9256178 Z M62.5271739,68.2579954 C62.5271739,68.4416964 62.5624112,68.6253696 62.5858928,68.7982548 C62.8795171,66.6155859 64.8760783,64.9084759 67.3306044,64.9084759 L110.619596,64.9084759 C113.074213,64.9084759 115.08259,66.6157242 115.376034,68.7982548 C115.399545,68.6145816 115.434783,68.4416687 115.434783,68.2579954 L115.434783,69.3385142 C115.434783,69.1548409 115.399545,68.9819281 115.376034,68.8090429 C115.082439,71.0565506 113.074122,73.1527492 110.619596,73.1527492 L67.3306044,73.1527492 C64.8642623,73.1527492 62.867611,71.0565229 62.5858928,68.8090429 C62.5624112,68.9819281 62.5271739,69.1548133 62.5271739,69.3385142 L62.5271739,68.2579954 Z M29.8206522,211.473336 C26.1002816,211.473336 23.0869565,208.603005 23.0869565,205.055675 C23.0869565,201.508624 26.1002816,198.64891 29.8206522,198.64891 C33.5294513,198.64891 36.5543478,201.508345 36.5543478,205.055675 C36.5543478,208.591828 33.5294513,211.473336 29.8206522,211.473336 Z M84.6521739,151.975085 C84.6521739,157.023684 80.3691402,161.091665 75.0681482,161.091665 L18.2416344,161.091665 C12.9406424,161.091665 8.6576087,157.012557 8.6576087,151.975085 L8.6576087,89.608699 C8.6576087,84.5601002 12.9406424,80.4809922 18.2416344,80.4809922 L75.0681482,80.4809922 C80.3691402,80.4809922 84.6521739,84.5712274 84.6521739,89.608699 L84.6521739,151.975085 Z M148.141288,212.389366 C144.420926,212.389366 141.407609,209.519035 141.407609,205.982602 C141.407609,202.435551 144.432498,199.564941 148.141288,199.564941 C151.861649,199.564941 154.875,202.424375 154.875,205.982602 C154.886568,209.518756 151.861649,212.389366 148.141288,212.389366 Z M169.292407,151.96393 C169.292407,157.012528 165.012873,161.080509 159.742264,161.080509 L102.859926,161.091665 C97.5776745,161.091665 93.3097826,157.012557 93.3097826,151.975085 L93.3097826,89.608699 C93.3097826,84.5601002 97.5776745,80.4809922 102.859926,80.4809922 L159.754205,80.4809922 C165.036456,80.4809922 169.304348,84.5712274 169.304348,89.608699 L169.292407,151.96393 Z" id="Fill-48" fill="#35495E"></path>
                        <path d="M45.7129108,8.96641915 L45.7127014,8.96667637 C41.9147679,14.0238984 44.1933485,0.124611697 52.52511,0.124611697 L123.197904,0.135786457 C131.529396,0.135786457 133.807947,14.0347873 130.021979,8.96641915 C126.236011,3.89782233 119.528602,4.56767918 119.528602,4.56767918 L89.0996643,35.7255398 L87.8493317,35.6808979 L86.6106957,35.7255398 L56.3582528,4.56767918 C56.3582528,4.56767918 49.4988785,3.89805097 45.7129108,8.96641915 Z M88.5253379,4.68883324 L64.207803,4.69994602 L88.0696881,28.9692775 L88.0696881,28.8249252 L88.5251884,29.3356296 L88.9923796,28.8249252 L88.9923796,28.9692775 L113.449877,4.69994602 L88.5253379,4.68883324 Z" id="Combined-Shape" fill="#3FBE79"></path>
                        <polygon id="Path" fill="#3FBE79" points="14.0071942 273.488881 28.9278948 273.488881 40.7482014 250.60257 32.4499423 250.60257"></polygon>
                        <polygon id="Path" fill="#3FBE79" points="136.251799 250.60257 147.599597 273.488881 162.992806 273.488881 144.812545 250.60257"></polygon>
                    </g>
                </g>
                <g id="bus" transform="translate(876.000000, 332.000000)">
                    <g>
                        <path d="M199.494374,69.4417862 C196.302952,69.4417862 193.703445,72.0486373 193.703445,75.2488348 L193.703445,92.39463 C193.703445,95.4359652 196.081146,97.9792279 199.114011,98.2016786 L199.114011,103.086913 L183.474228,103.086913 L183.474228,14.9204743 C183.474228,6.7291339 176.763773,0 168.595171,0 L37.5566623,0 C29.3880596,0 22.6776046,6.7291339 22.6776046,14.9204743 L22.6776046,103.086913 L7.03782133,103.086913 L7.03782133,98.2016786 C10.0707143,97.9897536 12.4483878,95.4888651 12.4483878,92.39463 L12.4483878,75.2488348 C12.4483878,72.0485287 9.8487729,69.4417862 6.65745851,69.4417862 L5.79092924,69.4417862 C2.59950664,69.4417862 0,72.0486373 0,75.2488348 L0,92.39463 C0,95.2664144 2.11350251,97.714186 4.87167401,98.1487788 L4.87167401,103.034013 C4.87167401,104.284458 5.89673287,105.312343 7.14367906,105.312343 L22.6674057,105.312343 L22.6674057,163.692089 C22.6674057,171.88343 29.3778607,178.612563 37.5464634,178.612563 L48.4308999,178.612563 L48.4308999,191.095846 C48.4308999,197.115037 53.3553269,202 59.3047857,202 L62.1158455,202 C68.1183279,202 72.9897314,197.114765 72.9897314,191.095846 L72.9897314,178.612563 L132.992913,178.612563 L132.992913,191.095846 C132.992913,197.115037 137.91734,202 143.866799,202 L146.677859,202 C152.680341,202 157.551745,197.114765 157.551745,191.095846 L157.551745,178.612563 L168.42563,178.612563 C176.594233,178.612563 183.304688,171.88343 183.304688,163.692089 L183.315239,105.249948 L198.902269,105.249948 C200.149242,105.249948 201.12144,104.275017 201.12144,103.0246 L201.12144,98.0864654 C203.879476,97.6519812 205.993114,95.214681 205.993114,92.3323167 L205.993114,75.1865215 C206.151643,72.0499665 203.552029,69.4429528 200.360714,69.4429528 L199.494374,69.4417862 Z M142.742765,7.97368421 C146.193469,7.97368421 149.03537,10.8245703 149.03537,14.2861842 C149.03537,17.8012985 146.193469,20.5986842 142.742765,20.5986842 C139.292062,20.5986842 136.450161,17.7477981 136.450161,14.2861842 C136.450161,10.7710699 139.238456,7.97368421 142.742765,7.97368421 Z M76.8360129,15.8976961 C76.8360129,11.8813894 80.0006877,8.63815789 83.9197124,8.63815789 L123.405046,8.63815789 C127.324071,8.63815789 130.488746,11.8813894 130.488746,15.8976961 L130.488746,17.3259881 C130.488746,21.3422948 127.324071,24.5855263 123.405046,24.5855263 L83.9197124,24.5855263 C80.0006877,24.5855263 76.8360129,21.3422948 76.8360129,17.3259881 L76.8360129,15.8976961 Z M63.9196141,7.97368421 C67.3703179,7.97368421 70.2122186,10.8245703 70.2122186,14.2861842 C70.2122186,17.8012985 67.3703179,20.5986842 63.9196141,20.5986842 C60.4689104,20.5986842 57.6270096,17.7477981 57.6270096,14.2861842 C57.6270096,10.7710699 60.4689104,7.97368421 63.9196141,7.97368421 Z M38.4180064,138.210526 C38.4180064,130.496414 44.6379019,124.256579 52.3279743,124.256579 C60.017774,124.256579 66.2379421,130.49614 66.2379421,138.210526 C66.2379421,145.924639 60.0180467,152.164474 52.3279743,152.164474 C44.6381745,152.164474 38.4180064,145.924913 38.4180064,138.210526 Z M131.151125,151.099583 C131.151125,151.679646 130.559771,152.164474 129.852254,152.164474 L76.8101252,152.164474 C76.1026085,152.164474 75.511254,151.679646 75.511254,151.099583 L75.511254,150.614755 C75.511254,150.034692 76.1026085,149.506579 76.8101252,149.506579 L129.852254,149.506579 C130.559771,149.506579 131.151125,149.991406 131.151125,150.614755 L131.151125,151.099583 Z M131.151125,140.468004 C131.151125,141.048068 130.559771,141.532895 129.852254,141.532895 L76.8101252,141.532895 C76.1026085,141.532895 75.511254,141.048068 75.511254,140.468004 L75.511254,139.983176 C75.511254,139.403113 76.1026085,138.875 76.8101252,138.875 L129.852254,138.875 C130.559771,138.875 131.151125,139.359827 131.151125,139.983176 L131.151125,140.468004 Z M131.151125,129.836425 C131.151125,130.416489 130.559771,130.901316 129.852254,130.901316 L76.8101252,130.901316 C76.1026085,130.901316 75.511254,130.416489 75.511254,129.836425 L75.511254,129.351598 C75.511254,128.771534 76.1026085,128.243421 76.8101252,128.243421 L129.852254,128.243421 C130.559771,128.243421 131.151125,128.728248 131.151125,129.351598 L131.151125,129.836425 Z M153.009646,152.164474 C145.319847,152.164474 139.099678,145.924913 139.099678,138.210526 C139.099678,130.496414 145.319574,124.256579 153.009646,124.256579 C160.699719,124.256579 166.919614,130.49614 166.919614,138.210526 C166.919614,145.924639 160.699719,152.164474 153.009646,152.164474 Z M172.881029,92.4961126 C172.881029,99.756132 167.017262,105.651316 159.796538,105.651316 L158.874057,105.651316 C158.110616,100.352992 156.647362,95.7688798 154.802373,92.0056887 L155.078054,92.3894584 C155.353734,92.773228 155.841494,92.8265551 156.223228,92.5493578 C156.604962,92.2721878 156.657975,91.7817913 156.382268,91.3979944 L151.547279,84.7883255 C151.271599,84.4045559 150.783839,84.3512288 150.402105,84.6284261 C150.190052,84.7883255 150.073411,85.0121957 150.073411,85.2254223 C148.769197,83.9141594 147.358956,82.8267667 145.895593,82.005873 C150.126343,79.7138443 153.063384,75.1830595 153.063384,70.0020878 C153.063384,66.9956833 152.087863,64.2133399 150.454955,61.9746383 C150.667036,61.8147116 150.889703,61.6441685 151.048743,61.430942 C151.91821,60.5567758 152.458984,59.2988127 152.458984,57.9343865 C152.458984,55.2052611 150.232289,53.0197775 147.570792,53.0197775 C147.570792,53.0197775 141.495025,51.3780448 139.427424,51.3780448 C137.200729,51.3780448 130.743338,53.0197775 130.743338,53.0197775 C129.38611,53.0197775 128.187922,53.5634738 127.265577,54.43764 C126.396109,55.3118061 125.855336,56.5697692 125.855336,57.9341955 C125.855336,59.7358549 126.830857,61.3136715 128.294111,62.1878103 C126.777843,64.3732394 125.855336,67.1024194 125.855336,69.9379807 C125.855336,75.1189523 128.728858,79.6498464 133.023127,81.9417659 C131.771926,82.6560326 130.520725,83.5195279 129.3863,84.6175915 C129.3863,84.4043649 129.280273,84.1804947 129.057606,84.0205953 C128.898566,83.9139956 128.728913,83.8606685 128.569846,83.8606685 C128.294165,83.8606685 128.082085,83.9672955 127.923045,84.1911383 L123.088056,90.7366727 C122.812376,91.1204696 122.876003,91.6108389 123.247124,91.8880361 C123.522804,92.1012627 123.840911,92.1012627 124.116591,91.9413632 C122.218589,95.7045543 120.808212,100.288666 120.044907,105.533772 L47.5282211,105.544416 C40.3072258,105.544416 34.4437299,99.6489592 34.4437299,92.3892127 L34.4437299,46.3788874 C34.4437299,39.118868 40.3074973,33.2236842 47.5282211,33.2236842 L159.795398,33.2236842 C167.016393,33.2236842 172.881029,39.1191409 172.881029,46.3788874 L172.881029,92.4961126 Z" id="Fill-1" fill="#35495E"></path>
                        <rect id="Rectangle" fill="#3FBE79" x="47.5815217" y="161.6" width="26.3097826" height="40.4" rx="12"></rect>
                        <rect id="Rectangle" fill="#3FBE79" x="132.668478" y="161.6" width="26.3097826" height="40.4" rx="12"></rect>
                    </g>
                </g>
                <g id="train" transform="translate(459.000000, 171.000000)">
                    <g>
                        <path d="M130.713707,288 L204.070047,288 C213.986152,280.254496 219.939307,268.618487 223.901786,257 L110.901786,257 C114.864453,268.618025 122.789693,280.254496 130.733524,288 L130.713707,288 Z" id="Fill-1" fill="#3FBE79"></path>
                        <polygon id="Fill-2" fill="#3FBE79" points="245.656427 242 274.901786 242 265.147144 264 235.901786 264"></polygon>
                        <polygon id="Fill-3" fill="#3FBE79" points="88.1471442 242 58.9017857 242 68.6564272 264 97.9017857 264"></polygon>
                        <path d="M85.5757432,66 L250.20989,66 C270.051432,87.9957161 283.936876,119.995673 287.901786,154 L47.9017857,154 C51.866412,119.993293 65.7516677,87.9952402 85.5936819,66 L85.5757432,66 Z" id="Fill-4" fill="#3FBE79"></path>
                        <path d="M244.70908,380.993227 C220.919988,396.878021 195.159085,404.811208 167.407503,404.811208 C137.685054,404.811208 111.90434,396.878021 88.1152477,380.993227 L63.1228205,454 L15.8535196,454 L68.2877024,365.12402 C26.6617447,329.406495 0.901785714,269.87099 0.901785714,202.403242 C0.901785714,91.266836 74.2408719,0 167.387691,0 C258.5627,0 331.901786,91.2857279 331.901786,202.403242 C331.901786,269.87099 306.141355,329.408857 264.515869,365.12402 L319.76624,454 L265.41888,454 L244.688795,380.993227 L244.70908,380.993227 Z M167.407503,15.8503158 C238.75591,15.8503158 296.245036,87.2853651 296.245036,176.596888 C296.245036,263.915314 238.770062,335.350363 167.407503,335.350363 C94.0684172,335.350363 36.5981601,263.915314 36.5981601,176.596888 C36.5981601,87.3042571 94.0731345,15.8503158 167.407503,15.8503158 Z" id="Fill-5" fill="#35495E"></path>
                        <rect id="Rectangle" fill="#35495E" x="71.9017857" y="392" width="194" height="13"></rect>
                        <rect id="Rectangle" fill="#35495E" x="58.9017857" y="427" width="207" height="13"></rect>
                    </g>
                </g>
                <g id="icon/car" transform="translate(761.000000, 967.000000)">
                    <g id="car" transform="translate(0.000000, -0.397403)">
                        <path d="M253.287514,34.768624 C248.356606,30.818026 226.99979,11.9750742 231.510837,5.27232649 C236.021884,-1.43042127 195.463913,0.681207846 182.618044,0.681207846 C174.054131,0.681207846 137.158868,0.681207846 71.9322546,0.681207846 C64.2099903,0.681207846 87.2958469,0.953939393 75.9739777,0.681207846 C64.6521085,0.408476299 23.4399255,1.44703438 18.993683,14.0876203 C14.5474405,26.7282061 0.380841781,61.5287228 0.380841781,70.0723945 L0.380841781,118.840509 C0.380841781,127.384181 7.07758945,133.924675 15.8253705,133.924675 L18.993683,133.666508 C18.993683,113.043436 29.5309062,96.4315634 52.3916003,96.4315634 C75.2522944,96.4315634 86.5553644,113.043436 86.5553644,133.666508 L204.743787,133.666508 C204.743787,113.043436 216.223576,96.4315634 237.494941,96.4315634 C258.766306,96.4315634 271.685612,113.301603 271.685612,133.924675 L283.007481,133.924675 C291.755262,133.924675 308.669145,120.142701 308.669145,111.599029 L308.669145,83.7082795 C308.669145,83.7082795 304.609275,64.4802529 294.116825,59.5200825 C279.085387,52.4141637 258.218421,38.7192221 253.287514,34.768624 Z M169.591161,34.1453706 L152.76526,61.8245358 L163.990839,66.3460029 C168.982631,68.3511823 169.59141,73.3835564 165.232709,76.4111539 L119.089271,107.117916 C112.855609,111.147902 104.138456,105.604218 107.255287,99.5690532 L124.081188,71.889888 L112.855609,67.8599022 C107.863817,65.8547229 107.255038,60.8223487 111.613739,57.7947513 L158.366206,27.0879886 C163.966777,22.5665215 172.708616,28.1102054 169.591784,34.1451692 L169.591161,34.1453706 Z" id="Shape" fill="#3FBE79"></path>
                        <path d="M52.9033457,107.298701 C40.086328,107.298701 29.8327138,117.542857 29.8327138,130.348052 C29.8327138,143.153247 40.086328,153.397403 52.9033457,153.397403 C65.7203635,153.397403 75.9739777,143.153247 75.9739777,130.348052 C75.9739777,118.06326 65.7203635,107.298701 52.9033457,107.298701 L52.9033457,107.298701 Z" id="wheel" fill="#35495E"></path>
                        <path d="M238.263941,107.298701 C225.446923,107.298701 215.193309,117.542857 215.193309,130.348052 C215.193309,143.153247 225.446923,153.397403 238.263941,153.397403 C251.080958,153.397403 261.334572,143.153247 261.334572,130.348052 C261.334572,118.06326 251.080958,107.298701 238.263941,107.298701 L238.263941,107.298701 Z" id="wheel" fill="#35495E"></path>
                    </g>
                </g>
                <g id="icon/pedelec" transform="translate(803.000000, 770.000000)">
                    <g id="pedelec">
                        <g id="Group-9" transform="translate(0.000000, 46.981509)" fill="#35495E">
                            <path d="M46.5568345,92.8301887 C20.8442048,92.8301887 0,72.0494431 0,46.4150943 C0,20.7807456 20.8442048,0 46.5568345,0 C72.2694642,0 93.1136691,20.7807456 93.1136691,46.4150943 C93.1136691,72.0494431 72.2694642,92.8301887 46.5568345,92.8301887 Z M46.3180815,77.06527 C63.4598347,77.06527 77.3559712,63.2114396 77.3559712,46.1218738 C77.3559712,29.0323079 63.4598347,15.1784775 46.3180815,15.1784775 C29.1763284,15.1784775 15.2801918,29.0323079 15.2801918,46.1218738 C15.2801918,63.2114396 29.1763284,77.06527 46.3180815,77.06527 Z" id="Combined-Shape"></path>
                            <rect id="Rectangle" x="10.2425036" y="43.6301887" width="71.6975252" height="4.64150943"></rect>
                            <polygon id="Rectangle" transform="translate(46.091266, 45.950943) scale(-1, -1) rotate(90.000000) translate(-46.091266, -45.950943) " points="10.3516435 43.6231017 81.8308888 43.6231017 81.8308888 48.2787851 10.3516435 48.2787851"></polygon>
                            <polygon id="Rectangle" transform="translate(46.091266, 45.950943) scale(-1, -1) rotate(45.000000) translate(-46.091266, -45.950943) " points="10.3006171 43.6812151 81.8890023 43.5720752 81.8819153 48.2206716 10.2935301 48.3298116"></polygon>
                            <polygon id="Rectangle" transform="translate(46.091266, 45.950943) scale(-1, -1) rotate(135.000000) translate(-46.091266, -45.950943) " points="10.2935301 43.5720752 81.8819153 43.6812151 81.8890023 48.3298116 10.3006171 48.2206716"></polygon>
                        </g>
                        <g id="Group-9" transform="translate(168.886331, 46.981509)" fill="#35495E">
                            <path d="M46.5568345,92.8301887 C20.8442048,92.8301887 0,72.0494431 0,46.4150943 C0,20.7807456 20.8442048,0 46.5568345,0 C72.2694642,0 93.1136691,20.7807456 93.1136691,46.4150943 C93.1136691,72.0494431 72.2694642,92.8301887 46.5568345,92.8301887 Z M46.3180815,77.06527 C63.4598347,77.06527 77.3559712,63.2114396 77.3559712,46.1218738 C77.3559712,29.0323079 63.4598347,15.1784775 46.3180815,15.1784775 C29.1763284,15.1784775 15.2801918,29.0323079 15.2801918,46.1218738 C15.2801918,63.2114396 29.1763284,77.06527 46.3180815,77.06527 Z" id="Combined-Shape"></path>
                            <rect id="Rectangle" x="10.2425036" y="43.6301887" width="71.6975252" height="4.64150943"></rect>
                            <polygon id="Rectangle" transform="translate(46.091266, 45.950943) scale(-1, -1) rotate(90.000000) translate(-46.091266, -45.950943) " points="10.3516435 43.6231017 81.8308888 43.6231017 81.8308888 48.2787851 10.3516435 48.2787851"></polygon>
                            <polygon id="Rectangle" transform="translate(46.091266, 45.950943) scale(-1, -1) rotate(45.000000) translate(-46.091266, -45.950943) " points="10.3006171 43.6812151 81.8890023 43.5720752 81.8819153 48.2206716 10.2935301 48.3298116"></polygon>
                            <polygon id="Rectangle" transform="translate(46.091266, 45.950943) scale(-1, -1) rotate(135.000000) translate(-46.091266, -45.950943) " points="10.2935301 43.5720752 81.8819153 43.6812151 81.8890023 48.3298116 10.3006171 48.2206716"></polygon>
                        </g>
                        <path d="M167.489548,10.3647213 L180.693733,10.3647213 L181.962395,11.6415548 C181.251936,14.0837495 180.541477,16.7894619 179.973115,19.1504326 C164.857329,18.3870322 142.070832,18.521636 111.613626,19.5542439 L14.7021583,19.5542439 L22.3755187,36.910141 L100.512591,36.910141 C95.5190604,40.5479711 90.9542321,43.9855302 86.2142883,48.9204545 C84.3551981,50.8560194 40.7883479,88.9615409 43.5944321,93.2414591 C45.4651548,96.0947379 57.463447,97.5213773 79.5893086,97.5213773 L110.90668,99.2036565 C115.169067,104.137319 119.268614,106.60415 123.205321,106.60415 C129.110381,106.60415 135.285316,103.692899 137.802477,98.7273635 L142.653885,100.237259 L141.699842,101.189819 L145.282536,104.766945 L152.519115,97.5213773 L148.855097,93.9442512 L146.703454,96.1736446 L139.304486,93.8632087 C139.527777,92.6269224 139.426265,91.4514179 139.38568,90.2860826 C162.830513,78.2980795 177.618577,64.9014321 188.640252,51.5340991 C188.883827,52.3177515 196.743511,66.8405542 212.219303,95.1025071 C214.252264,96.1245167 215.768256,96.1245167 216.767279,95.1025071 C217.766303,94.0804975 217.766303,92.5296242 216.767279,90.449887 C201.047001,49.8535345 192.259901,26.2216535 190.40598,19.5542439 L192.638818,12.0453661 C193.288374,10.2416011 192.811366,8.07314516 191.441191,6.71508763 L186.34633,1.61802663 C185.402446,0.706013823 184.083041,0.179056372 182.763636,0.189055851 L167.488925,0.189055851 C164.301941,0.219603533 162.130083,3.17848272 162.160483,5.51947817 C162.282885,8.1757453 164.830264,10.4863887 167.489548,10.3647213 Z M185.159304,39.4377886 C174.258966,53.9185472 160.405225,68.1762056 135.031729,81.1367699 C132.403104,78.4512663 128.840676,76.688256 124.841746,76.5261192 L114.256054,41.748432 C128.106504,33.5267578 150.864366,29.4159207 182.52964,29.4159207 C183.680582,33.8542308 184.557137,37.1948535 185.159304,39.4377886 Z M115.128538,79.5462731 C113.257883,80.0158081 111.275966,82.24029 109.182787,86.2197186 L63.8125083,84.4811973 L96.037812,56.5521671 C100.185447,52.471682 103.314837,49.5801998 105.425982,47.8777205 L115.128538,79.5462731 Z M126.517576,81.9478947 C127.84714,82.2519077 129.105643,82.7687218 130.181594,83.5388585 C129.268162,83.9746043 128.334411,84.3799462 127.400713,84.815692 L126.517576,81.9478947 Z M116.814761,84.8967085 L117.372963,86.8018284 L115.464904,86.8018284 C115.860718,86.1127601 116.27685,85.4642131 116.814761,84.8967085 Z M130.341125,96.4287052 L132.888608,97.2292458 C131.102328,100.13759 127.915344,102.002033 124.211053,102.002033 C120.425437,102.002033 117.218187,100.015871 115.462306,96.9859109 L118.567966,96.9859109 C119.968565,98.5059495 121.98827,99.5294346 124.221186,99.5294346 C126.717925,99.5294346 128.950737,98.2728617 130.35144,96.4286014 L130.341125,96.4287052 Z" id="Fill-1" fill="#3FBE79"></path>
                    </g>
                </g>
                <g id="icon/minicar" transform="translate(452.000000, 980.000000)">
                    <g id="minicar">
                        <path d="M173.770832,31.5177839 C164.939044,15.9991159 160.104532,11.4637658 168.938029,5.52342716 C177.771526,-0.416911429 140.825021,0.265255886 135.114047,0.265255886 L61.7483209,0.265255886 C39.4538714,-0.371428571 32.6389585,5.47484364 24.2009885,12.9326636 C15.7630184,20.3904836 0.341153882,57.1358091 0.341153882,65.1210709 L0.341153882,110.701727 C0.341153882,118.686989 5.29371046,124.8 11.7631017,124.8 L20.1361509,124.8 C20.1361509,105.524841 32.3931979,89.5543177 53.2567538,89.5543177 C74.1203097,89.5543177 82.8424576,105.524841 82.8424576,124.8 L137.68258,124.8 C137.68258,105.524841 145.335716,89.5543177 168.938029,89.5543177 C192.540342,89.5543177 200.983658,105.524841 200.983658,124.8 L209.356708,124.8 C215.826099,124.8 225.687181,118.686989 225.687181,110.701727 L225.687181,71.1730609 C225.687181,71.1730609 227.836996,66.8502619 220.077341,62.2142857 C208.960893,55.572806 210.524517,57.1416998 196.586491,50.5948007 C179.781163,42.7010867 176.946153,37.0972607 173.770832,31.5177839 Z M133.87552,32.6601763 L121.423452,58.50701 L129.730982,62.7291607 C133.425176,64.6015994 133.875705,69.3008357 130.650032,72.1280094 L96.5014153,100.802017 C91.8881711,104.565222 85.4370105,99.3885239 87.7436326,93.7528802 L100.195701,67.9060466 L91.8881711,64.1428416 C88.1939775,62.2704029 87.7434481,57.5711666 90.9691206,54.7439929 L125.568452,26.0699856 C129.713175,21.8478348 136.182604,27.0245327 133.875982,32.6599883 L133.87552,32.6601763 Z" id="Shape" fill="#3FBE79"></path>
                        <path d="M52.5570325,99.9142857 C40.5599613,99.9142857 30.9623043,109.488889 30.9623043,121.457143 C30.9623043,133.425397 40.5599613,143 52.5570325,143 C64.5541037,143 74.1517607,133.425397 74.1517607,121.457143 C74.1517607,109.975279 64.5541037,99.9142857 52.5570325,99.9142857 L52.5570325,99.9142857 Z" id="wheel" fill="#35495E"></path>
                        <path d="M171.328037,99.9142857 C159.330966,99.9142857 149.733309,109.488889 149.733309,121.457143 C149.733309,133.425397 159.330966,143 171.328037,143 C183.325109,143 192.922766,133.425397 192.922766,121.457143 C192.922766,109.975279 183.325109,99.9142857 171.328037,99.9142857 L171.328037,99.9142857 Z" id="wheel" fill="#35495E"></path>
                    </g>
                </g>
                <g id="icon/scooter" transform="translate(153.000000, 958.426647)">
                    <g id="scooter" transform="translate(120.000000, 81.000000) scale(-1, 1) translate(-120.000000, -81.000000) ">
                        <path d="M228.369307,112.74352 L232.507029,109.214249 C233.21675,108.612644 233.377459,107.569845 232.868591,106.781064 L228.315726,99.6150559 L230.980528,99.6150559 L231.047479,99.6150559 C232.091988,99.6150559 232.922241,98.7861631 232.922241,97.7433648 C232.922241,97.462618 232.868694,97.1952189 232.748162,96.9545837 C230.578823,83.1041112 223.414462,82.7700763 214.322101,82.7567285 C211.684072,80.6042907 208.952318,79.5882563 205.778579,79.5882563 C202.417425,79.5882563 198.92237,80.7380074 194.864866,82.0615525 C189.923596,83.6792263 183.777005,85.6979475 175.876253,86.1924972 C161.8961,86.8074844 149.241595,86.8743256 139.07898,86.9277849 C119.87611,87.0213557 117.398962,87.1283085 116.675632,89.3743172 C116.434602,90.1363687 116.689036,90.9518795 117.318402,91.4331499 C125.687776,97.8102745 129.691802,105.029674 128.312332,111.219246 C126.866084,117.689804 119.88948,122.582937 108.654211,125.043023 L88.9693495,125.043023 C87.9516138,125.043023 87.0410407,124.708817 86.1706107,123.946765 C86.0634825,123.879924 85.9563542,123.759589 85.6617429,123.412001 C75.0558735,113.117838 69.7532816,101.834232 69.9137169,89.8421715 C70.1681508,70.2162481 85.0724518,54.4536308 88.0453039,51.5000224 L102.855743,51.5000224 C103.458336,51.5000224 104.034154,51.2058937 104.382313,50.7112413 C105.266112,49.4545374 105.734803,47.9839279 105.734803,46.4464772 C105.734803,45.0427089 105.37324,43.7592754 104.650116,42.6362197 C104.301958,42.1014558 103.712735,41.7672154 103.069966,41.7672154 L90.7099352,41.7672154 L84.295609,34.4543823 C83.9340469,33.7190946 84.3491903,29.9890603 86.4649478,25.1897034 C87.2952004,23.3180124 88.0852756,21.9811195 88.7280452,21.0721064 C90.1341165,26.4597892 94.7673367,28.2381147 96.642167,28.2381147 C97.6732723,28.2381147 98.5168945,27.3958743 98.5168945,26.3664237 L98.5168945,2.11500585 C98.5168945,1.55351224 98.2624606,1.01874826 97.8205779,0.657778302 C97.378661,0.296808342 96.8028423,0.163125905 96.2404275,0.283426409 C91.9820362,1.20588998 89.0763749,4.65497216 87.4024315,10.8181911 C83.4522268,13.2914873 77.6806702,20.08287 75.5915834,30.5642439 C69.6592487,30.6177374 66.2578835,30.9385958 63.1914441,31.3129135 L55.7726834,26.5402519 C55.4647025,26.3397283 55.1165099,26.2461232 54.754982,26.2461232 C53.2417825,26.2461232 52.2642585,27.4493336 51.8357455,29.8424751 C51.6081193,31.1660202 51.4875872,32.9441061 51.4875872,35.1500717 C51.4875872,40.3638921 51.9161002,52.4764244 55.8395657,52.4764244 C56.1074035,52.4764244 56.375207,52.4229652 56.616237,52.3026304 L63.0840416,49.3480638 L63.6866338,50.0298921 L62.1734343,50.8052913 C55.6655209,52.8373944 34.7619686,69.2946059 32.4452557,92.997741 C23.071447,95.8720845 -0.617097269,111.28684 0.0123026995,118.05139 C0.106061355,119.000584 0.735427043,121.206515 4.76605508,121.206515 C5.66325856,121.206515 6.70776769,121.112944 7.92635597,120.91242 C7.0018484,122.708834 17.6570865,102.287479 43.4988329,112.743828 C63.6866338,120.91242 54.754982,146.130538 58.3839048,145.351048 C59.0663088,145.752594 59.7144321,146.130538 60.3351109,146.486268 C70.274244,152.18268 73.1758909,152.18268 97.1112003,152.18268 L144.621299,152.18268 C147.714615,152.18268 150.633852,150.979469 152.816526,148.78692 C155.012638,146.594405 156.217857,143.706576 156.217857,140.64516 C156.217857,137.423194 154.87877,134.334774 152.535387,132.18237 C152.32113,131.981812 152.039923,131.834782 151.745312,131.754559 C150.325871,131.259906 148.959977,130.537967 147.567138,129.588773 C147.513591,129.548662 147.44664,129.50855 147.393059,129.481821 C142.625937,126.086061 139.786781,120.59122 139.786781,114.762378 C139.786781,109.963021 141.661542,105.497699 144.84872,102.208687 C144.085418,104.441314 143.697082,106.821176 143.697082,109.21418 C143.697082,120.150061 151.865569,129.455125 162.712435,130.858688 C163.234672,130.938877 163.770313,130.765083 164.172053,130.417495 L168.992653,126.326593 C168.349884,128.692937 168.028499,131.139298 168.028499,133.612731 C168.028499,143.014814 172.333096,125.452953 177.591821,118.461321 C178.969802,116.629254 183.570983,112.74352 188.586034,111.219246 C193.601084,109.694972 202.713553,109.214249 211.079137,112.743828 C220.902818,116.888603 224.350132,126.918159 223.451533,125.043023 C229.664973,128.826585 232.988438,129.254533 234.247238,132.623632 C234.555253,133.425795 235.372102,133.920447 236.215724,133.826842 C238.719851,133.532713 239.563473,132.048756 239.831346,131.179752 C241.357915,126.340009 232.118111,116.500352 228.36845,112.743828 L228.369307,112.74352 Z" id="Fill-1" fill="#3FBE79"></path>
                        <path d="M148.877534,55.9166042 C141.163458,55.9166042 116.775662,56.263719 113.574492,60.4558248 L113.547716,60.4424611 C109.891586,65.7161735 110.802259,79.3874953 112.516498,84.7811735 C112.770959,85.5688809 113.494163,86.0895532 114.311101,86.0895532 C114.404869,86.0895532 114.498604,86.0762237 114.605744,86.0628599 C115.342318,85.9560527 115.9182,85.4220167 116.119109,84.727787 C118.9583,82.9120646 137.332819,82.9120646 147.310377,82.9120646 L152.747601,82.9120646 C166.421401,82.9120646 178.139598,82.7918937 182.679932,81.4167638 C186.014675,80.869364 188.599542,80.0416339 191.317983,79.1604488 C195.831232,77.705205 200.505277,76.1965404 209.47829,75.8227323 C210.027395,75.796039 210.54969,75.529004 210.884515,75.0884456 C211.205935,74.6612168 211.339851,74.0871238 211.205935,73.5530878 C207.577885,57.6391907 166.410773,55.9166042 148.877534,55.9166042 Z" id="Fill-2" fill="#35495E"></path>
                        <ellipse id="Oval" fill="#35495E" cx="27.3053892" cy="140.329021" rx="21.5568862" ry="21.5521064"></ellipse>
                        <ellipse id="Oval" fill="#35495E" cx="197.964072" cy="140.329021" rx="21.5568862" ry="21.5521064"></ellipse>
                        <ellipse id="Oval" fill="#35495E" cx="197.60479" cy="140.447894" rx="16.8862275" ry="16.8824834"></ellipse>
                    </g>
                </g>
                <g id="bike" transform="translate(166.000000, 770.000000)">
                    <g id="Group-4" transform="translate(113.000000, 69.000000) scale(-1, 1) translate(-113.000000, -69.000000) ">
                        <g id="Group-3">
                            <path d="M182.442128,57.6330243 C178.821272,57.6330243 175.272792,58.1398519 171.869063,59.0810713 L161.368669,33.5228315 L170.710386,10.8605374 L181.934906,10.8605374 L181.934906,0 L146.233197,0 L146.233197,10.8605374 L158.978643,10.8605374 L139.763158,57.6330243 L124.470935,57.6330243 L77.9404169,17.2504791 L80.9857842,10.8605374 L83.8100638,10.8605374 L83.8100638,0 L48.1083552,0 L42.6772195,5.43008334 L42.6772195,18.8247585 L53.5398617,18.8247585 L53.5398617,10.8605374 L69.1821852,10.8605374 L50.1365032,57.1986325 C47.6743241,56.6918049 45.0672455,56.474609 42.4603152,56.474609 C19.9386026,56.474609 1.68971963,74.7203266 1.68971963,97.2373045 C1.68971963,119.754282 19.9389734,138 42.4603152,138 C64.981657,138 83.2309107,119.754282 83.2309107,97.2373045 C83.2309107,81.1639168 73.9614956,67.3347757 60.4919231,60.6735818 L67.371683,43.9484951 L115.961957,93.5450851 C115.744719,94.4139429 115.599857,95.2827637 115.599857,96.2240201 C115.599857,102.378461 120.596813,107.446365 126.824377,107.446365 C129.865894,107.446365 132.617761,106.215514 134.645539,104.260603 L143.552705,104.260603 C146.88391,122.795841 163.032937,136.914502 182.584358,136.914502 C204.454246,136.914502 222.198131,119.175538 222.198131,97.3084057 C222.125718,75.3700979 204.311126,57.6318751 182.439755,57.6318751 L182.442128,57.6330243 Z M128.051258,85.2339862 C127.546153,85.1613693 126.968895,85.0887524 126.46379,85.0887524 C125.237122,85.0887524 124.082606,85.3066031 123.000244,85.6697248 L74.4104549,35.979955 L76.3374901,28.8121882 L121.664852,68.600585 L135.187461,68.600585 L128.051258,85.2339862 Z M136.86729,92.1111007 L155.304692,47.6880734 L161.790654,63.290127 C151.296626,69.5741436 144.009199,80.5534213 142.770064,93.266055 L137.304588,93.266055 C137.158846,92.9049238 137.013105,92.5437556 136.86729,92.1103611 L136.86729,92.1111007 Z" id="Fill-1" fill="#3FBE79"></path>
                            <ellipse id="Oval" fill="#35495E" cx="183.757009" cy="95.7981651" rx="42.2429907" ry="42.2018349"></ellipse>
                            <ellipse id="Oval-2" fill="#35495E" cx="42.2429907" cy="95.7981651" rx="42.2429907" ry="42.2018349"></ellipse>
                        </g>
                        <g id="Group-2" transform="translate(139.763158, 54.803828)" fill="#3FBE79">
                            <ellipse id="Oval" cx="43.8937978" cy="41.1384247" rx="13.9278397" ry="13.9955466"></ellipse>
                            <polygon id="Rectangle" transform="translate(35.241655, 25.022341) rotate(-23.000000) translate(-35.241655, -25.022341) " points="30.0048433 0.451499587 40.564068 0.433051004 40.4784665 49.593182 29.9192419 49.6116306"></polygon>
                            <polygon id="Rectangle" transform="translate(24.690072, 44.107177) rotate(-90.000000) translate(-24.690072, -44.107177) " points="19.3887288 19.6277534 29.9914155 19.6277534 29.9914155 68.5866007 19.3887288 68.5866007"></polygon>
                        </g>
                        <g id="Group" transform="translate(28.415205, 49.191388)" fill="#3FBE79">
                            <ellipse id="Oval" cx="13.8889933" cy="46.6410539" rx="13.8889933" ry="13.9210526"></ellipse>
                            <polygon id="Rectangle" transform="translate(20.937716, 24.889155) rotate(22.000000) translate(-20.937716, -24.889155) " points="15.6554589 0.42553936 26.1808318 0.433975069 26.2199734 49.3527701 15.6946006 49.3443343"></polygon>
                        </g>
                    </g>
                </g>
                <g id="icon/miniscooter" transform="translate(452.000000, 744.000000)">
                    <g id="miniscooter">
                        <g>
                            <path d="M65.8447978,69.5529024 C74.4142195,72.5715512 68.0705515,68.4209257 79.2091918,77.3368522 C90.3478321,86.2527788 97.4882361,99.8819652 97.4882361,115.233187 C97.4882361,142.087645 75.6627526,163.86105 48.744118,163.86105 C21.8254835,163.86105 0,142.087645 0,115.233187 C0,88.3787301 21.8254835,66.6052812 48.744118,66.6052812 C53.6831767,66.6043084 57.275376,66.5342536 65.8447978,69.5529024 Z M262,133.467376 C262,150.254337 248.362005,163.859817 231.534926,163.859817 C221.847947,163.859817 213.220238,159.395775 207.638732,152.367827 L201.164873,135.366934 C201.129168,134.737719 201.06967,134.108504 201.06967,133.467406 C201.06967,116.680445 214.707665,103.074965 231.534743,103.074965 C248.362005,103.074965 262,116.680415 262,133.467376 Z" id="Fill-1" fill="#35495E" transform="translate(131.000000, 115.233031) scale(-1, 1) translate(-131.000000, -115.233031) "></path>
                            <path d="M54.5656724,0.246150199 C59.4927768,0.246150199 63.5153194,4.13147804 63.7057375,9.01819162 L70.1799502,13.4042123 C72.3459629,14.8582659 73.3457641,17.5519386 72.6553845,20.0785917 C71.0844511,25.8351867 69.7396124,31.6634835 68.3711314,37.5274788 C80.8911925,46.0374269 89.5431782,58.6352988 94.2679825,74.3303879 C99.5283946,91.7911745 100.230352,113.052467 97.2194618,137.830814 L97.2194618,137.926163 C97.2432565,138.724708 97.9097196,140.26218 99.2188511,141.549397 C100.551777,142.860444 102.301186,143.647059 103.312991,143.647059 L172.149868,143.647059 L210.80625,128.772728 C213.829144,127.306745 217.970842,128.975355 219.184643,132.11007 C220.398444,135.244786 218.411058,139.165843 215.185864,140.119326 L175.578916,155.37505 C174.888658,155.673025 174.138868,155.827962 173.389108,155.851791 L103.315276,155.851791 C98.2333997,155.851791 93.8894314,153.515774 90.6526297,150.321591 C87.415828,147.127409 85.0351457,142.872526 85.0351457,137.830814 C85.0232332,137.580529 85.0232332,137.318314 85.0351457,137.068028 C88.0104197,113.052162 87.2487476,93.101031 82.6549204,77.8575113 C79.0845063,66.0224256 73.4316807,57.0239892 65.3268803,50.3972078 C59.7215831,73.9123811 52.7949371,97.6655437 34.9550534,119.999924 C32.8485426,122.633916 29.0164484,123.062968 26.3862423,120.953407 C23.7560363,118.843845 23.3276719,115.006115 25.4341522,112.372062 C47.6058175,84.6255608 51.3666496,53.8053365 59.8038437,21.2191096 L55.6146472,18.4540096 C55.2576058,18.501699 54.9362715,18.5493579 54.567348,18.5493579 C49.5214228,18.5493579 45.4272829,14.4492294 45.4272829,9.39592335 C45.4272829,4.34261727 49.5214228,0.242488826 54.567348,0.242488826 L54.5656724,0.246150199 Z" id="Path" fill="#3FBE79" transform="translate(121.820438, 78.047140) scale(-1, 1) translate(-121.820438, -78.047140) "></path>
                        </g>
                    </g>
                </g>
            </g>
        </g>
    </g>
</svg>