<?xml version="1.0" encoding="UTF-8"?>
<svg width="1250px" height="1000px" viewBox="0 0 1250 1000" version="1.1" xmlns="http://www.w3.org/2000/svg" xmlns:xlink="http://www.w3.org/1999/xlink">
    <!-- Generator: Sketch 55.1 (78136) - https://sketchapp.com -->
    <title>pedelec</title>
    <desc>Created with Sketch.</desc>
    <g id="Layout_Template" stroke="none" stroke-width="1" fill="none" fill-rule="evenodd">
        <g id="pedelec">
            <g>
                <rect id="Rectangle" fill="#F5F7FA" x="0" y="0" width="1250" height="1000"></rect>
                <g id="icon/pedelec" transform="translate(278.000000, 213.000000)">
                    <g id="pedelec">
                        <g id="Group-9" transform="translate(0.000000, 124.500998)" fill="#35495E">
                            <path d="M123.5,246 C55.2928334,246 0,190.931024 0,123 C0,55.0689758 55.2928334,0 123.5,0 C191.707167,0 247,55.0689758 247,123 C247,190.931024 191.707167,246 123.5,246 Z M122.866667,204.222965 C168.338111,204.222965 205.2,167.510315 205.2,122.222965 C205.2,76.935616 168.338111,40.2229654 122.866667,40.2229654 C77.3952223,40.2229654 40.5333333,76.935616 40.5333333,122.222965 C40.5333333,167.510315 77.3952223,204.222965 122.866667,204.222965 Z" id="Combined-Shape"></path>
                            <rect id="Rectangle" x="27.17" y="115.62" width="190.19" height="12.3"></rect>
                            <polygon id="Rectangle" transform="translate(122.265000, 121.770000) scale(-1, -1) rotate(90.000000) translate(-122.265000, -121.770000) " points="27.555 115.595 216.975 115.595 216.975 127.945 27.555 127.945"></polygon>
                            <polygon id="Rectangle" transform="translate(122.265000, 121.770000) scale(-1, -1) rotate(45.000000) translate(-122.265000, -121.770000) " points="27.375 115.8 217.18 115.415 217.155 127.74 27.35 128.125"></polygon>
                            <polygon id="Rectangle" transform="translate(122.265000, 121.770000) scale(-1, -1) rotate(135.000000) translate(-122.265000, -121.770000) " points="27.35 115.415 217.155 115.8 217.18 128.125 27.375 127.74"></polygon>
                        </g>
                        <g id="Group-9" transform="translate(448.000000, 124.500998)" fill="#35495E">
                            <path d="M123.5,246 C55.2928334,246 0,190.931024 0,123 C0,55.0689758 55.2928334,0 123.5,0 C191.707167,0 247,55.0689758 247,123 C247,190.931024 191.707167,246 123.5,246 Z M122.866667,204.222965 C168.338111,204.222965 205.2,167.510315 205.2,122.222965 C205.2,76.935616 168.338111,40.2229654 122.866667,40.2229654 C77.3952223,40.2229654 40.5333333,76.935616 40.5333333,122.222965 C40.5333333,167.510315 77.3952223,204.222965 122.866667,204.222965 Z" id="Combined-Shape"></path>
                            <rect id="Rectangle" x="27.17" y="115.62" width="190.19" height="12.3"></rect>
                            <polygon id="Rectangle" transform="translate(122.265000, 121.770000) scale(-1, -1) rotate(90.000000) translate(-122.265000, -121.770000) " points="27.555 115.595 216.975 115.595 216.975 127.945 27.555 127.945"></polygon>
                            <polygon id="Rectangle" transform="translate(122.265000, 121.770000) scale(-1, -1) rotate(45.000000) translate(-122.265000, -121.770000) " points="27.375 115.8 217.18 115.415 217.155 127.74 27.35 128.125"></polygon>
                            <polygon id="Rectangle" transform="translate(122.265000, 121.770000) scale(-1, -1) rotate(135.000000) translate(-122.265000, -121.770000) " points="27.35 115.415 217.155 115.8 217.18 128.125 27.375 127.74"></polygon>
                        </g>
                        <path d="M444.294794,27.4665115 L479.321162,27.4665115 L482.686506,30.8501202 C480.801891,37.3219363 478.917277,44.492074 477.409599,50.7486464 C437.31238,48.7256353 376.867284,49.0823353 296.074313,51.8187464 L39,51.8187464 L59.3549065,97.8118736 L266.626912,97.8118736 C253.380714,107.452123 241.271722,116.561655 228.698207,129.639204 C223.766651,134.768451 108.198098,235.748083 115.641719,247.089867 C120.604132,254.651055 152.431663,258.43165 211.124311,258.43165 L294.199018,262.88969 C305.505731,275.963895 316.380483,282.500998 326.823275,282.500998 C342.487462,282.500998 358.867536,274.786183 365.544739,261.627513 L378.413931,265.628736 L375.883169,268.15302 L385.38688,277.632404 L404.58315,258.43165 L394.863711,248.952266 L389.156109,254.860158 L369.529075,248.737503 C370.121394,245.461344 369.852114,242.346257 369.744457,239.258119 C431.935903,207.489911 471.163782,171.988795 500.400668,136.565363 C501.046792,138.642041 521.895954,177.127469 562.948152,252.021644 C568.34093,254.729969 572.362359,254.729969 575.01244,252.021644 C577.66252,249.313319 577.66252,245.203504 575.01244,239.692201 C533.3117,132.111867 510.002409,69.4873818 505.084566,51.8187464 L511.007551,31.9202203 C512.730611,27.140243 511.465264,21.3938347 507.830641,17.7949822 L494.315646,4.28777057 C491.811833,1.87093663 488.311884,0.474499385 484.811935,0.500998004 L444.29314,0.500998004 C435.839117,0.581949363 430.077893,8.42297922 430.158532,14.6266171 C430.483226,21.665725 437.240586,27.7889302 444.294794,27.4665115 Z M491.166857,104.51014 C462.251839,142.88415 425.50241,180.666945 358.194853,215.01244 C351.221973,207.895856 341.772022,203.223878 331.164174,202.794216 L303.083806,110.633345 C339.824504,88.8459082 400.193642,77.9521899 484.19122,77.9521899 C487.244299,89.7137117 489.569511,98.5663617 491.166857,104.51014 Z M305.398221,210.797624 C300.435988,212.041892 295.178613,217.936768 289.626094,228.482254 L169.273638,223.875173 L254.756791,149.863243 C265.759105,139.049957 274.06035,131.387529 279.660525,126.875959 L305.398221,210.797624 Z M335.6096,217.161921 C339.136498,217.967555 342.474893,219.337113 345.329038,221.377975 C342.906002,222.532701 340.429069,223.606857 337.952273,224.761584 L335.6096,217.161921 Z M309.871216,224.976277 L311.351945,230.024845 L306.29049,230.024845 C307.340454,228.198814 308.444315,226.480165 309.871216,224.976277 Z M345.752222,255.536069 L352.509857,257.657501 C347.771442,265.364614 339.317419,270.305388 329.491151,270.305388 C319.449156,270.305388 310.941374,265.042058 306.283598,257.012664 L314.521893,257.012664 C318.237225,261.040766 323.594839,263.753002 329.518031,263.753002 C336.141061,263.753002 342.063977,260.423084 345.779584,255.535794 L345.752222,255.536069 Z" id="Fill-1" fill="#3FBE79"></path>
                    </g>
                </g>
                <g id="icon/miniscooter" transform="translate(626.000000, 668.000000)">
                    <g id="miniscooter">
                        <g>
                            <path d="M70.3684862,74.6421392 C79.5266468,77.8816647 72.7471543,73.4273348 84.6510447,82.9956463 C96.554935,92.5639578 104.185901,107.190402 104.185901,123.664884 C104.185901,152.484302 80.8609569,175.850883 52.0929506,175.850883 C23.3249442,175.850883 0,152.484302 0,123.664884 C0,94.8454665 23.3249442,71.4788384 52.0929506,71.4788384 C57.3713339,71.4777944 61.2103255,71.4026136 70.3684862,74.6421392 Z M280,143.233281 C280,161.248556 265.425044,175.84956 247.441906,175.84956 C237.089409,175.84956 227.868956,171.058881 221.903988,163.516692 L214.98536,145.271831 C214.947202,144.596576 214.883616,143.921322 214.883616,143.233314 C214.883616,125.218039 229.458573,110.617035 247.441711,110.617035 C265.425044,110.617035 280,125.218006 280,143.233281 Z" id="Fill-1" fill="#35495E" transform="translate(140.000000, 123.664716) scale(-1, 1) translate(-140.000000, -123.664716) "></path>
                            <path d="M58.314459,0.26416119 C63.5800668,0.26416119 67.8789673,4.43378131 68.0824675,9.6780593 L75.0014735,14.3850084 C77.3162962,15.9454561 78.3847861,18.8362268 77.6469758,21.5477569 C75.9681157,27.7255662 74.5308835,33.9803238 73.0683847,40.2733919 C86.4486027,49.4060191 95.6949996,62.9256865 100.744409,79.7691968 C106.366223,98.5076019 107.116406,121.324599 103.898662,147.915996 L103.898662,148.018321 C103.924091,148.875297 104.636342,150.525267 106.035413,151.90667 C107.459915,153.313647 109.329511,154.15782 110.41083,154.15782 L183.976958,154.15782 L225.289122,138.195123 C228.519695,136.621872 232.945938,138.412576 234.24313,141.776661 C235.540321,145.140746 233.416398,149.348709 229.969626,150.371959 L187.641589,166.743956 C186.903909,167.063734 186.102607,167.230008 185.301337,167.255581 L110.413272,167.255581 C104.982259,167.255581 100.33985,164.748635 96.880673,161.320732 C93.4214956,157.892829 90.877255,153.326613 90.877255,147.915996 C90.864524,147.647397 90.864524,147.365995 90.877255,147.097396 C94.0569371,121.324271 93.2429364,99.9133015 88.3335028,83.5544024 C84.517793,70.8533348 78.4766054,61.1964763 69.8149866,54.0848083 C63.8245926,79.3206041 56.4220702,104.811803 37.3565456,128.780406 C35.1053127,131.60713 31.0099448,132.067576 28.1990376,129.803656 C25.3881304,127.539736 24.9303364,123.421197 27.1815367,120.594408 C50.8764461,90.817675 54.895656,57.7423124 63.9125047,22.7717274 L59.4355008,19.804303 C59.0539298,19.8554819 58.7105192,19.906628 58.3162498,19.906628 C52.9236579,19.906628 48.5482413,15.5064901 48.5482413,10.0834299 C48.5482413,4.66036975 52.9236579,0.26023191 58.3162498,0.26023191 L58.314459,0.26416119 Z" id="Path" fill="#3FBE79" transform="translate(130.189781, 83.757906) scale(-1, 1) translate(-130.189781, -83.757906) "></path>
                        </g>
                    </g>
                </g>
                <g id="bike" transform="translate(310.000000, 716.000000)">
                    <g id="Group-4" transform="translate(109.000000, 66.500000) scale(-1, 1) translate(-109.000000, -66.500000) ">
                        <g id="Group-3">
                            <path d="M175.984,55.5448713 C172.491316,55.5448713 169.068445,56.0333355 165.785202,56.9404527 L155.656504,32.3082362 L164.66754,10.4670396 L175.494732,10.4670396 L175.494732,0 L141.056801,0 L141.056801,10.4670396 L153.351081,10.4670396 L134.815789,55.5448713 L120.064885,55.5448713 L75.1814641,16.6254618 L78.1190308,10.4670396 L80.8433359,10.4670396 L80.8433359,0 L46.4054046,0 L41.1665215,5.23334119 L41.1665215,18.142702 L51.6446454,18.142702 L51.6446454,10.4670396 L66.7332582,10.4670396 L48.3617598,55.1262183 C45.9867374,54.637754 43.4719448,54.4284275 40.9572952,54.4284275 C19.2328114,54.4284275 1.62990654,72.0130684 1.62990654,93.7142138 C1.62990654,115.415359 19.233169,133 40.9572952,133 C62.6814213,133 80.2846838,115.415359 80.2846838,93.7142138 C80.2846838,78.2231952 71.3433896,64.8951099 58.3506161,58.4752637 L64.9868446,42.3561584 L111.857109,90.1557704 C111.647561,90.9931479 111.507826,91.8304896 111.507826,92.7376426 C111.507826,98.669096 116.327899,103.553381 122.335018,103.553381 C125.268872,103.553381 127.923327,102.367126 129.879325,100.483045 L138.471193,100.483045 C141.68448,118.346716 157.26186,131.953832 176.121195,131.953832 C197.216927,131.953832 214.33271,114.857584 214.33271,93.7827388 C214.262861,72.6392973 197.078874,55.5437637 175.981711,55.5437637 L175.984,55.5448713 Z M123.51847,82.1457983 C123.031245,82.0758124 122.474421,82.0058266 121.987196,82.0058266 C120.803949,82.0058266 119.690302,82.2157841 118.646253,82.5657492 L71.7764565,34.6763335 L73.635278,27.7682683 L117.358132,66.1150565 L130.402064,66.1150565 L123.51847,82.1457983 Z M132.02243,88.773742 L149.80718,45.9602446 L156.063551,60.9970064 C145.940993,67.0533413 138.911528,77.6348191 137.716257,89.8868502 L132.444248,89.8868502 C132.303666,89.5388034 132.163084,89.1907209 132.02243,88.7730291 L132.02243,88.773742 Z" id="Fill-1" fill="#3FBE79"></path>
                            <ellipse id="Oval" fill="#35495E" cx="177.252336" cy="92.3272171" rx="40.7476636" ry="40.6727829"></ellipse>
                            <ellipse id="Oval-2" fill="#35495E" cx="40.7476636" cy="92.3272171" rx="40.7476636" ry="40.6727829"></ellipse>
                        </g>
                        <g id="Group-2" transform="translate(134.815789, 52.818182)" fill="#3FBE79">
                            <ellipse id="Oval" cx="42.340035" cy="39.6479021" rx="13.4348188" ry="13.4884615"></ellipse>
                            <polygon id="Rectangle" transform="translate(33.994163, 24.115734) rotate(-23.000000) translate(-33.994163, -24.115734) " points="28.9360242 0.430443455 39.1201215 0.415827031 39.0523013 47.8010251 28.8682039 47.8156415"></polygon>
                            <polygon id="Rectangle" transform="translate(23.816087, 42.509091) rotate(-90.000000) translate(-23.816087, -42.509091) " points="18.7068216 18.8961955 28.925353 18.8961955 28.925353 66.1219863 18.7068216 66.1219863"></polygon>
                        </g>
                        <g id="Group" transform="translate(27.409357, 47.409091)" fill="#3FBE79">
                            <ellipse id="Oval" cx="13.3973475" cy="44.9511606" rx="13.3973475" ry="13.4166667"></ellipse>
                            <polygon id="Rectangle" transform="translate(20.196558, 23.987374) rotate(22.000000) translate(-20.196558, -23.987374) " points="15.1089848 0.408788838 25.2605443 0.413872246 25.2841313 47.5659586 15.1325718 47.5608752"></polygon>
                        </g>
                    </g>
                </g>
            </g>
        </g>
    </g>
</svg>