<?xml version="1.0" encoding="UTF-8"?>
<svg width="1250px" height="1000px" viewBox="0 0 1250 1000" version="1.1" xmlns="http://www.w3.org/2000/svg" xmlns:xlink="http://www.w3.org/1999/xlink">
    <!-- Generator: Sketch 55.1 (78136) - https://sketchapp.com -->
    <title>scooter</title>
    <desc>Created with Sketch.</desc>
    <g id="Layout_Template" stroke="none" stroke-width="1" fill="none" fill-rule="evenodd">
        <g id="scooter">
            <g>
                <rect id="Rectangle" fill="#F5F7FA" x="0" y="0" width="1250" height="1000"></rect>
                <g id="icon/miniscooter" transform="translate(476.000000, 689.000000)">
                    <g id="miniscooter">
                        <g>
                            <path d="M69.6145381,73.7939331 C78.6745756,76.9966458 71.9677205,72.5929333 83.7440692,82.052514 C95.5204179,91.5120946 103.069624,105.972329 103.069624,122.259601 C103.069624,150.751525 79.9945895,173.852577 51.5348118,173.852577 C23.0750341,173.852577 0,150.751525 0,122.259601 C0,93.7676771 23.0750341,70.6665788 51.5348118,70.6665788 C56.756641,70.6655468 60.5545006,70.5912203 69.6145381,73.7939331 Z M277,141.60563 C277,159.416187 262.581204,173.851269 244.790743,173.851269 C234.549165,173.851269 225.427503,169.11503 219.526445,161.658548 L212.681946,143.621015 C212.644197,142.953433 212.581292,142.285852 212.581292,141.605663 C212.581292,123.795106 227.000088,109.360024 244.790549,109.360024 C262.581204,109.360024 277,123.795074 277,141.60563 Z" id="Fill-1" fill="#35495E" transform="translate(138.500000, 122.259435) scale(-1, 1) translate(-138.500000, -122.259435) "></path>
                            <path d="M57.6896612,0.261159358 C62.8988518,0.261159358 67.1516927,4.38339743 67.3530125,9.56808136 L74.1978863,14.2215424 C76.4879073,15.7642577 77.5449491,18.6221788 76.815044,21.302896 C75.1541716,27.4105029 73.7323383,33.5941837 72.2855091,39.8157397 C85.5223677,48.8445871 94.669696,62.2106219 99.6650044,78.8627286 C105.226585,97.3881973 105.968731,119.94591 102.785462,146.235132 L102.785462,146.336295 C102.810618,147.183532 103.515238,148.814752 104.89932,150.180458 C106.308558,151.571446 108.158124,152.406026 109.227857,152.406026 L182.005776,152.406026 L222.87531,136.624724 C226.07127,135.069351 230.450089,136.839706 231.733382,140.165562 C233.016675,143.491419 230.915508,147.651565 227.505666,148.663187 L185.631144,164.849138 C184.901367,165.165282 184.10865,165.329667 183.315966,165.354949 L109.230273,165.354949 C103.857449,165.354949 99.2647806,162.876492 95.8426658,159.487542 C92.420551,156.098592 89.9035701,151.584266 89.9035701,146.235132 C89.8909755,145.969586 89.8909755,145.691381 89.9035701,145.425835 C93.0491842,119.945586 92.2439049,98.7779231 87.3870724,82.6049206 C83.6122452,70.0481833 77.6357846,60.5010617 69.0669689,53.4702082 C63.1407577,78.4192336 55.817548,103.62076 36.9562969,127.316992 C34.7291843,130.111594 30.6776954,130.566808 27.8969051,128.328614 C25.1161147,126.090421 24.6632256,122.018683 26.890306,119.224017 C50.3313414,89.785656 54.3074883,57.0861497 63.2277279,22.5129578 L58.7986919,19.5792541 C58.4212091,19.6298514 58.0814779,19.6804163 57.6914329,19.6804163 C52.3566187,19.6804163 48.0280816,15.33028 48.0280816,9.96884551 C48.0280816,4.607411 52.3566187,0.25727473 57.6914329,0.25727473 L57.6896612,0.261159358 Z" id="Path" fill="#3FBE79" transform="translate(128.794891, 82.806112) scale(-1, 1) translate(-128.794891, -82.806112) "></path>
                        </g>
                    </g>
                </g>
                <g id="icon/pedelec" transform="translate(813.000000, 688.000000)">
                    <g id="pedelec">
                        <g id="Group-9" transform="translate(0.000000, 59.062468)" fill="#35495E">
                            <path d="M58.4625899,116.700809 C26.1745931,116.700809 0,90.5764428 0,58.3504043 C0,26.1243659 26.1745931,0 58.4625899,0 C90.7505868,0 116.92518,26.1243659 116.92518,58.3504043 C116.92518,90.5764428 90.7505868,116.700809 58.4625899,116.700809 Z M58.1627818,96.8820537 C79.688113,96.8820537 97.1378417,79.4658098 97.1378417,57.9817841 C97.1378417,36.4977585 79.688113,19.0815146 58.1627818,19.0815146 C36.6374505,19.0815146 19.1877218,36.4977585 19.1877218,57.9817841 C19.1877218,79.4658098 36.6374505,96.8820537 58.1627818,96.8820537 Z" id="Combined-Shape"></path>
                            <rect id="Rectangle" x="12.8617698" y="54.8493801" width="90.0323885" height="5.83504043"></rect>
                            <polygon id="Rectangle" transform="translate(57.877964, 57.766900) scale(-1, -1) rotate(90.000000) translate(-57.877964, -57.766900) " points="12.9481527 54.8437708 102.807775 54.8437708 102.807775 60.6900298 12.9481527 60.6900298"></polygon>
                            <polygon id="Rectangle" transform="translate(57.877964, 57.766900) scale(-1, -1) rotate(45.000000) translate(-57.877964, -57.766900) " points="12.9077659 54.8897669 102.853771 54.803384 102.848162 60.6440337 12.9021566 60.7304166"></polygon>
                            <polygon id="Rectangle" transform="translate(57.877964, 57.766900) scale(-1, -1) rotate(135.000000) translate(-57.877964, -57.766900) " points="12.9021566 54.803384 102.848162 54.8897669 102.853771 60.7304166 12.9077659 60.6440337"></polygon>
                        </g>
                        <g id="Group-9" transform="translate(212.074820, 59.062468)" fill="#35495E">
                            <path d="M58.4625899,116.700809 C26.1745931,116.700809 0,90.5764428 0,58.3504043 C0,26.1243659 26.1745931,0 58.4625899,0 C90.7505868,0 116.92518,26.1243659 116.92518,58.3504043 C116.92518,90.5764428 90.7505868,116.700809 58.4625899,116.700809 Z M58.1627818,96.8820537 C79.688113,96.8820537 97.1378417,79.4658098 97.1378417,57.9817841 C97.1378417,36.4977585 79.688113,19.0815146 58.1627818,19.0815146 C36.6374505,19.0815146 19.1877218,36.4977585 19.1877218,57.9817841 C19.1877218,79.4658098 36.6374505,96.8820537 58.1627818,96.8820537 Z" id="Combined-Shape"></path>
                            <rect id="Rectangle" x="12.8617698" y="54.8493801" width="90.0323885" height="5.83504043"></rect>
                            <polygon id="Rectangle" transform="translate(57.877964, 57.766900) scale(-1, -1) rotate(90.000000) translate(-57.877964, -57.766900) " points="12.9481527 54.8437708 102.807775 54.8437708 102.807775 60.6900298 12.9481527 60.6900298"></polygon>
                            <polygon id="Rectangle" transform="translate(57.877964, 57.766900) scale(-1, -1) rotate(45.000000) translate(-57.877964, -57.766900) " points="12.9077659 54.8897669 102.853771 54.803384 102.848162 60.6440337 12.9021566 60.7304166"></polygon>
                            <polygon id="Rectangle" transform="translate(57.877964, 57.766900) scale(-1, -1) rotate(135.000000) translate(-57.877964, -57.766900) " points="12.9021566 54.803384 102.848162 54.8897669 102.853771 60.7304166 12.9077659 60.6440337"></polygon>
                        </g>
                        <path d="M210.320845,13.0299354 L226.901673,13.0299354 L228.494763,14.6350975 C227.602622,17.7052851 226.710481,21.1067521 225.996774,24.0748295 C207.015501,23.1151262 178.401923,23.2843423 140.156041,24.5824781 L18.4618705,24.5824781 L28.0975025,46.4013201 L126.216193,46.4013201 C119.94569,50.9745922 114.21352,55.2960952 108.261454,61.4999999 C105.926947,63.9332816 51.218956,111.837366 54.7426265,117.217834 C57.0917402,120.804813 72.158298,122.598303 99.9422998,122.598303 L139.268312,124.713168 C144.620699,130.915487 149.768603,134.016646 154.712025,134.016646 C162.127158,134.016646 169.881179,130.356788 173.042042,124.1144 L179.134077,126.012554 L177.936061,127.210058 L182.43494,131.707017 L191.522095,122.598303 L186.921095,118.101344 L184.219223,120.90401 L174.928152,117.999462 C175.208545,116.445274 175.081073,114.967497 175.03011,113.502504 C204.470377,98.4318713 223.040121,81.5903718 236.880316,64.7857246 C237.186179,65.7708876 247.055782,84.0281252 266.489125,119.557438 C269.041965,120.84225 270.945635,120.84225 272.200133,119.557438 C273.454632,118.272625 273.454632,116.322956 272.200133,113.708429 C252.459783,62.6730148 241.425601,32.9643644 239.097586,24.5824781 L241.901416,15.142746 C242.71708,12.8751557 242.118089,10.1490968 240.397526,8.44182445 L233.999781,2.03409062 C232.814522,0.887560235 231.157712,0.225099439 229.500902,0.237670212 L210.320062,0.237670212 C206.318086,0.276073013 203.59083,3.99580685 203.629003,6.93877255 C203.782707,10.2780798 206.981515,13.1828887 210.320845,13.0299354 Z M232.509203,49.5789342 C218.821374,67.7833165 201.424882,85.7072299 169.562744,102.000511 C166.261913,98.624449 161.788482,96.4080932 156.766925,96.2042641 L143.474205,52.4837431 C160.866564,42.1479241 189.444185,36.9800146 229.207067,36.9800146 C230.652337,42.5596045 231.753049,46.7592444 232.509203,49.5789342 Z M144.569805,100.001029 C142.220777,100.591302 139.732034,103.387793 137.103575,108.390503 L80.1309742,106.204934 L120.5971,71.0941529 C125.805389,65.9644002 129.735043,62.329394 132.386062,60.1891344 L144.569805,100.001029 Z M158.871307,103.020211 C160.540875,103.402398 162.121208,104.052107 163.472307,105.020279 C162.325287,105.568074 161.152753,106.077647 159.980285,106.625441 L158.871307,103.020211 Z M146.687237,106.727291 L147.388187,109.122299 L144.992189,109.122299 C145.489222,108.256041 146.011769,107.440725 146.687237,106.727291 Z M163.672635,121.224658 L166.871573,122.231052 C164.628495,125.887256 160.626519,128.231127 155.974948,128.231127 C151.221255,128.231127 147.19383,125.734238 144.988926,121.925145 L148.888781,121.925145 C150.64755,123.836051 153.183744,125.122718 155.987672,125.122718 C159.122891,125.122718 161.926688,123.543026 163.685587,121.224528 L163.672635,121.224658 Z" id="Fill-1" fill="#3FBE79"></path>
                    </g>
                </g>
                <g id="icon/scooter" transform="translate(291.000000, 128.000000)">
                    <g id="scooter" transform="translate(334.000000, 225.500000) scale(-1, 1) translate(-334.000000, -225.500000) ">
                        <path d="M635.627905,313.872392 L647.144564,304.047076 C649.119953,302.372236 649.567261,299.469137 648.150912,297.27321 L635.47877,277.323396 L642.895804,277.323396 L643.082151,277.323396 C645.989368,277.323396 648.300238,275.0158 648.300238,272.112701 C648.300238,271.331116 648.151199,270.58669 647.815717,269.916773 C641.777725,231.357742 621.836919,230.427805 596.529847,230.390646 C589.187333,224.398365 581.583952,221.569775 572.750378,221.569775 C563.395167,221.569775 553.667264,224.770625 542.373876,228.45531 C528.620676,232.958834 511.512664,238.578854 489.522237,239.955656 C450.610812,241.66775 415.389107,241.853832 387.103161,242.00266 C333.655174,242.263157 326.760445,242.560908 324.747176,248.813686 C324.076309,250.935199 324.784483,253.205541 326.536218,254.545374 C349.830976,272.298974 360.975515,292.397425 357.135992,309.628888 C353.1106,327.642603 333.692386,341.264845 302.420886,348.113601 L247.631356,348.113601 C244.798658,348.113601 242.26423,347.183188 239.841533,345.061674 C239.54336,344.875591 239.245186,344.540585 238.425184,343.572917 C208.905515,314.914474 194.146634,283.501474 194.593179,250.116169 C195.301353,195.478567 236.784991,151.596219 245.059429,143.373519 L286.281819,143.373519 C287.959034,143.373519 289.561729,142.554679 290.53077,141.177591 C292.990679,137.67899 294.295201,133.584886 294.295201,129.304699 C294.295201,125.396677 293.288852,121.823662 291.276156,118.69713 C290.307116,117.208374 288.667113,116.277865 286.878071,116.277865 L252.475986,116.277865 L234.622778,95.9192988 C233.61643,93.8722944 234.771913,83.488063 240.660771,70.1268903 C242.971641,64.9161949 245.170684,61.1943513 246.959726,58.6637035 C250.873291,73.6627465 263.769087,78.6135169 268.987365,78.6135169 C271.857274,78.6135169 274.205356,76.2687612 274.205356,73.4028215 L274.205356,5.88807185 C274.205356,4.32490135 273.497182,2.83614485 272.267275,1.83122231 C271.037273,0.826299768 269.434578,0.454134464 267.86919,0.789045125 C256.016667,3.35713817 247.929243,12.9592126 243.270101,30.1173099 C232.275365,37.0028444 216.211199,55.9097184 210.396574,85.0893456 C193.884909,85.2382689 184.417776,86.1315228 175.882853,87.1736047 L155.233969,73.8867508 C154.376755,73.3285028 153.407619,73.0679109 152.401367,73.0679109 C148.189628,73.0679109 145.468853,76.4175892 144.276158,83.079977 C143.642599,86.7646612 143.307118,91.7147646 143.307118,97.8560638 C143.307118,112.371082 144.499812,146.091774 155.420125,146.091774 C156.165606,146.091774 156.910993,145.942946 157.58186,145.60794 L175.583916,137.382573 L177.261131,139.280749 L173.049392,141.439422 C154.9357,147.096697 96.754146,192.912761 90.3059616,258.901118 C64.2155274,266.903149 -1.7175874,309.817067 0.0342425135,328.649241 C0.295204105,331.291748 2.0469386,337.432952 13.26552,337.432952 C15.7627363,337.432952 18.6699534,337.172455 22.0616908,336.614207 C19.4884781,341.615335 49.1455575,284.76329 121.071752,313.87325 C177.261131,336.614207 152.401367,406.820202 162.501868,404.650141 C164.401226,405.768025 166.205169,406.820202 167.932725,407.810536 C195.596646,423.669065 203.672896,423.669065 270.292841,423.669065 L402.529283,423.669065 C411.139012,423.669065 419.26422,420.319386 425.33933,414.215437 C431.451842,408.111583 434.806367,400.072012 434.806367,391.549179 C434.806367,382.579386 431.079244,373.981376 424.556826,367.989191 C423.960479,367.430848 423.177785,367.021523 422.357784,366.798186 C418.407007,365.421098 414.605269,363.411253 410.728534,360.768746 C410.579495,360.657077 410.393148,360.545408 410.244014,360.470994 C396.975524,351.017367 389.073206,335.720001 389.073206,319.492793 C389.073206,306.13162 394.291293,293.700385 403.16227,284.543937 C401.037747,290.759459 399.956879,297.384878 399.956879,304.046885 C399.956879,334.491836 422.692502,360.396676 452.882943,364.304125 C454.336504,364.527367 455.827372,364.043533 456.945547,363.075866 L470.362885,351.686997 C468.573843,358.274781 467.679322,365.08533 467.679322,371.971245 C467.679322,398.146179 479.66045,349.254826 494.297236,329.790467 C498.132615,324.690085 510.939236,313.872392 524.897794,309.628888 C538.856351,305.385384 564.219389,304.047076 587.503597,313.87325 C614.846176,325.412097 624.4412,353.333887 621.940101,348.113601 C639.234174,358.646851 648.484485,359.838237 651.988145,369.217641 C652.845454,371.450824 655.119016,372.827911 657.467098,372.567319 C664.436919,371.74848 666.785001,367.617216 667.530578,365.197951 C671.779529,351.724347 646.062075,324.331228 635.625519,313.87325 L635.627905,313.872392 Z" id="Fill-1" fill="#3FBE79"></path>
                        <path d="M414.375804,155.669065 C392.904958,155.669065 325.025593,156.635415 316.115669,168.306031 L316.041141,168.268827 C305.864915,182.950582 308.39962,221.010866 313.170919,236.0266 C313.87917,238.219539 315.892086,239.669065 318.165896,239.669065 C318.426886,239.669065 318.687781,239.631956 318.985987,239.594752 C321.036119,239.297406 322.638989,237.810676 323.198186,235.877975 C331.100602,230.823093 382.243012,230.823093 410.013882,230.823093 L425.147489,230.823093 C463.206233,230.823093 495.82188,230.488543 508.459143,226.66025 C517.740846,225.136316 524.935393,222.831956 532.501719,220.37878 C545.063596,216.327453 558.07302,212.127406 583.047908,211.086742 C584.576251,211.01243 586.02997,210.269017 586.9619,209.042524 C587.856519,207.853141 588.229253,206.254894 587.856519,204.768164 C577.758446,160.464661 463.176651,155.669065 414.375804,155.669065 Z" id="Fill-2" fill="#35495E"></path>
                        <circle id="Oval" fill="#35495E" cx="76" cy="390.669065" r="60"></circle>
                        <circle id="Oval" fill="#35495E" cx="551" cy="390.669065" r="60"></circle>
                        <circle id="Oval" fill="#35495E" cx="550" cy="391" r="47"></circle>
                    </g>
                </g>
                <g id="bike" transform="translate(184.000000, 735.000000)">
                    <g id="Group-4" transform="translate(109.000000, 66.500000) scale(-1, 1) translate(-109.000000, -66.500000) ">
                        <g id="Group-3">
                            <path d="M175.984,55.5448713 C172.491316,55.5448713 169.068445,56.0333355 165.785202,56.9404527 L155.656504,32.3082362 L164.66754,10.4670396 L175.494732,10.4670396 L175.494732,0 L141.056801,0 L141.056801,10.4670396 L153.351081,10.4670396 L134.815789,55.5448713 L120.064885,55.5448713 L75.1814641,16.6254618 L78.1190308,10.4670396 L80.8433359,10.4670396 L80.8433359,0 L46.4054046,0 L41.1665215,5.23334119 L41.1665215,18.142702 L51.6446454,18.142702 L51.6446454,10.4670396 L66.7332582,10.4670396 L48.3617598,55.1262183 C45.9867374,54.637754 43.4719448,54.4284275 40.9572952,54.4284275 C19.2328114,54.4284275 1.62990654,72.0130684 1.62990654,93.7142138 C1.62990654,115.415359 19.233169,133 40.9572952,133 C62.6814213,133 80.2846838,115.415359 80.2846838,93.7142138 C80.2846838,78.2231952 71.3433896,64.8951099 58.3506161,58.4752637 L64.9868446,42.3561584 L111.857109,90.1557704 C111.647561,90.9931479 111.507826,91.8304896 111.507826,92.7376426 C111.507826,98.669096 116.327899,103.553381 122.335018,103.553381 C125.268872,103.553381 127.923327,102.367126 129.879325,100.483045 L138.471193,100.483045 C141.68448,118.346716 157.26186,131.953832 176.121195,131.953832 C197.216927,131.953832 214.33271,114.857584 214.33271,93.7827388 C214.262861,72.6392973 197.078874,55.5437637 175.981711,55.5437637 L175.984,55.5448713 Z M123.51847,82.1457983 C123.031245,82.0758124 122.474421,82.0058266 121.987196,82.0058266 C120.803949,82.0058266 119.690302,82.2157841 118.646253,82.5657492 L71.7764565,34.6763335 L73.635278,27.7682683 L117.358132,66.1150565 L130.402064,66.1150565 L123.51847,82.1457983 Z M132.02243,88.773742 L149.80718,45.9602446 L156.063551,60.9970064 C145.940993,67.0533413 138.911528,77.6348191 137.716257,89.8868502 L132.444248,89.8868502 C132.303666,89.5388034 132.163084,89.1907209 132.02243,88.7730291 L132.02243,88.773742 Z" id="Fill-1" fill="#3FBE79"></path>
                            <ellipse id="Oval" fill="#35495E" cx="177.252336" cy="92.3272171" rx="40.7476636" ry="40.6727829"></ellipse>
                            <ellipse id="Oval-2" fill="#35495E" cx="40.7476636" cy="92.3272171" rx="40.7476636" ry="40.6727829"></ellipse>
                        </g>
                        <g id="Group-2" transform="translate(134.815789, 52.818182)" fill="#3FBE79">
                            <ellipse id="Oval" cx="42.340035" cy="39.6479021" rx="13.4348188" ry="13.4884615"></ellipse>
                            <polygon id="Rectangle" transform="translate(33.994163, 24.115734) rotate(-23.000000) translate(-33.994163, -24.115734) " points="28.9360242 0.430443455 39.1201215 0.415827031 39.0523013 47.8010251 28.8682039 47.8156415"></polygon>
                            <polygon id="Rectangle" transform="translate(23.816087, 42.509091) rotate(-90.000000) translate(-23.816087, -42.509091) " points="18.7068216 18.8961955 28.925353 18.8961955 28.925353 66.1219863 18.7068216 66.1219863"></polygon>
                        </g>
                        <g id="Group" transform="translate(27.409357, 47.409091)" fill="#3FBE79">
                            <ellipse id="Oval" cx="13.3973475" cy="44.9511606" rx="13.3973475" ry="13.4166667"></ellipse>
                            <polygon id="Rectangle" transform="translate(20.196558, 23.987374) rotate(22.000000) translate(-20.196558, -23.987374) " points="15.1089848 0.408788838 25.2605443 0.413872246 25.2841313 47.5659586 15.1325718 47.5608752"></polygon>
                        </g>
                    </g>
                </g>
            </g>
        </g>
    </g>
</svg>