<?xml version="1.0" encoding="UTF-8"?>
<svg width="225px" height="227px" viewBox="0 0 225 227" version="1.1" xmlns="http://www.w3.org/2000/svg" xmlns:xlink="http://www.w3.org/1999/xlink">
    <!-- Generator: Sketch 55 (78076) - https://sketchapp.com -->
    <title>invite</title>
    <desc>Created with Sketch.</desc>
    <g id="Icons" stroke="none" stroke-width="1" fill="none" fill-rule="evenodd">
        <g id="icon/lead" transform="translate(-138.000000, -137.000000)">
            <g id="invite" transform="translate(138.000000, 137.000000)">
                <path d="M80.2080265,169.050335 C79.1018786,166.833426 82.7673468,165.875318 82.7673468,165.875318 C82.7673468,165.875318 92.657548,165.236563 99.6196944,174.921338 C99.6196944,174.921338 99.8799628,174.893154 100.324598,174.883751 L100.487256,174.554971 C100.378818,174.545592 100.324598,174.545592 100.324598,174.545592 L100.487256,174.545592 L101.17045,173.164726 C101.17045,173.164726 101.994647,169.51068 101.994647,168.007699 C101.994647,166.504718 101.441574,164.992359 101.441574,164.992359 L95.4880194,147.219674 C95.4880194,147.219674 94.2951154,144.204334 97.4075097,143.171005 C100.519904,142.137676 101.81028,144.598836 101.81028,144.598836 C101.81028,144.598836 108.490365,160.708865 109.228001,162.690875 C109.965414,164.672934 111.613809,162.371498 111.613809,162.371498 L111.255929,141.743149 C111.255929,141.743149 110.800466,138.333187 115.008237,138.013833 C119.226668,137.694456 118.857989,143.011184 118.857989,143.011184 C118.857989,143.011184 119.226695,160.783869 119.313452,162.850528 C119.400208,164.917186 120.961818,163.085353 120.961818,163.085353 C120.961818,163.085353 126.362354,146.580703 126.915373,144.833638 C127.457592,143.086429 128.379372,141.18897 131.405038,141.583352 C134.41971,141.977879 133.226917,147.614032 133.226917,147.614032 C133.226917,147.614032 128.552912,164.428657 128.281955,165.706071 C128.000005,166.974201 129.008542,166.739376 129.008542,166.739376 C129.008542,166.739376 138.172212,154.358663 138.898743,153.485011 C139.636156,152.611406 141.100184,150.704617 143.941427,152.057179 C146.771759,153.409862 143.030501,158.801835 143.030501,158.801835 C143.030501,158.801835 136.068355,169.350835 135.428441,170.384164 C134.788611,171.417469 134.886222,172.046845 134.886222,172.046845 L134.430759,180.144183 C132.60888,191.087806 126.557743,194.112524 126.557743,194.112524 L127.902477,226.793339 C125.440768,226.924851 122.957515,227 120.452275,227 C115.19277,227 110.019883,226.699404 104.93389,226.126396 L106.040038,193.154608 C106.040038,193.154608 104.391671,192.205855 101.095076,190.449243 C97.7983427,188.702034 94.6859484,184.427942 93.9486183,182.990612 C93.2112049,181.56278 91.5628103,177.598639 86.8021324,173.625239 C82.0415101,169.689354 81.3038746,171.267435 80.208665,169.050647 L80.2080265,169.050335 Z" id="Path" fill="#3FBE79"></path>
                <path d="M177.557174,68.4094816 L209,38.6255811 C204.13595,33.2873662 198.796232,28.3941183 193.045872,24 L164.931896,54.3033064 C164.931896,54.3033064 158.738244,52.6215701 149.334451,59.6848514 L142.967853,65.4894206 C142.967853,65.4894206 142.546309,66.0210756 141.357304,66.3899648 C140.168298,66.7480216 127.727006,70.1549632 127.727006,70.1549632 C127.727006,70.1549632 121.241422,71.7715932 122.073773,74.6360195 C122.906124,77.5004457 125.28419,77.023009 126.418987,76.8494107 C127.543131,76.6758125 142.794824,73.3232836 142.794824,73.3232836 C142.794824,73.3232836 143.62712,73.8006926 142.502976,74.5818568 C141.368013,75.3521885 125.705705,84.9760853 125.705705,84.9760853 C125.705705,84.9760853 120.701086,88.4372173 122.365787,90.7048268 C124.030378,92.972464 126.062388,92.1369983 127.727089,91.1822358 C129.4025,90.2274456 145.29196,81.3196345 145.29196,81.3196345 C145.29196,81.3196345 147.680762,80.9615777 146.189117,82.5782078 C144.697471,84.1948378 131.596967,97.8223541 131.596967,97.8223541 C131.596967,97.8223541 127.370739,101.587352 130.343128,104.104388 C133.326364,106.610702 135.585444,103.746331 135.585444,103.746331 L150.826207,87.9705575 C150.826207,87.9705575 153.625706,87.3195503 152.620521,89.2834045 C151.604461,91.2580913 143.865065,107.749812 143.865065,107.749812 C143.865065,107.749812 142.849005,110.440584 145.648559,111.699241 C148.448058,112.946981 149.929023,109.909013 149.929023,109.909013 L159.397843,92.6358501 C159.397843,92.6358501 160.176096,91.1385724 161.30024,90.0101839 C162.435204,88.8709351 165.710482,86.657655 165.710482,86.657655 L167.191336,86.071754 C167.223766,86.1042794 167.256197,86.1476928 167.29942,86.180246 C167.29942,86.180246 167.266989,86.1476928 167.202155,86.0608937 L167.548046,85.9198486 C167.850714,86.2019388 168.034451,86.3429839 168.034451,86.3429839 C165.288938,98.1801609 172.195928,104.147773 172.195928,104.147773 C172.195928,104.147773 175.29815,105.818649 176.238419,103.420827 C177.189617,101.033838 175.525027,101.749951 175.406123,95.6522374 C175.28722,89.5546344 177.189617,85.4857697 177.794926,83.9342182 C178.400234,82.3826945 179.57842,77.1205573 178.746124,73.6594253 C177.913829,70.2091258 177.557119,68.4081484 177.557119,68.4081484 L177.557174,68.4094816 Z" id="Path" fill="#3FBE79"></path>
                <path d="M151.590097,55.2749774 C146.391779,50.2963054 144.582844,45.317911 143.78718,43.5280326 C142.980747,41.7274916 139.580652,36.3585227 135.984263,34.1674072 C132.387874,31.9655458 130.589819,30.7723028 130.589819,30.7723028 L131.472553,0.553179612 C127.658277,0.195231696 123.789599,0 119.88828,0 C115.58355,0 111.3335,0.22777494 107.148733,0.66163858 L108.184016,29.5673697 C108.184016,29.5673697 101.579895,33.352882 99.5748336,47.0954608 L99.0735264,57.258838 C99.0735264,57.258838 99.1715895,58.0614788 98.4741561,59.3522405 C97.7657866,60.6429744 90.1590234,73.8867419 90.1590234,73.8867419 C90.1590234,73.8867419 86.0612992,80.6550146 89.1564089,82.3471523 C92.2515186,84.0392899 93.8533918,81.6529704 94.659936,80.5574682 C95.4554881,79.461966 105.470585,63.9295921 105.470585,63.9295921 C105.470585,63.9295921 106.571263,63.6258737 106.266137,65.2203261 C105.961012,66.8147784 100.860813,87.9222931 100.860813,87.9222931 C100.860813,87.9222931 99.5639811,94.9943398 102.855105,95.4933177 C106.157166,95.9922679 107.159836,93.606004 107.759095,91.4148607 C108.358465,89.2238562 114.265013,68.5068605 114.265013,68.5068605 C114.265013,68.5068605 115.965089,66.2182263 116.063152,68.8105789 C116.161215,71.4029038 116.564459,93.7033838 116.564459,93.7033838 C116.564459,93.7033838 116.161243,100.373916 120.770987,99.9835079 C125.369768,99.5821875 124.868711,95.2977806 124.868711,95.2977806 L124.465495,69.4070199 C124.465495,69.4070199 126.263634,66.5217226 127.070066,69.0056996 C127.876499,71.5004224 135.177914,91.7076666 135.177914,91.7076666 C135.177914,91.7076666 136.583745,94.7989971 139.98398,93.4973506 C143.384243,92.2066167 142.087272,88.4212154 142.087272,88.4212154 L135.581353,66.1207632 C135.581353,66.1207632 134.981983,64.2226202 134.981983,62.3352509 C134.981983,60.4371079 135.886506,55.8599228 135.886506,55.8599228 L136.638453,54.1353253 L136.812819,54.1353253 C136.812819,54.1353253 136.747425,54.1353253 136.638453,54.1244683 L136.812819,53.7122909 C137.303218,53.7014339 137.575674,53.6688906 137.575674,53.6688906 C145.171585,65.8279018 155.982234,65.0251499 155.982234,65.0251499 C155.982234,65.0251499 159.981755,63.832018 158.772079,61.0444337 C157.584218,58.2568771 156.788666,60.2417929 151.59046,55.2741167 L151.590097,55.2749774 Z" id="Path" fill="#343D4A"></path>
                <path d="M85.5596515,86.3719542 C85.5596515,86.3719542 84.2162166,85.671199 83.1978375,84.6578348 C82.168614,83.6336795 80.1860781,80.6905407 80.1860781,80.6905407 L79.6551997,79.3537489 C79.6877053,79.3214033 79.7202109,79.2890578 79.7527165,79.2567123 C79.7527165,79.2567123 79.7202109,79.2890578 79.6551997,79.3429578 L79.5360218,79.0303212 C79.7851944,78.7607936 79.9152167,78.5883026 79.9152167,78.5883026 C90.5649577,81.0570773 95.938642,74.8473168 95.938642,74.8473168 C95.938642,74.8473168 97.4445772,72.0659331 95.2885857,71.2142413 C93.1326219,70.3517861 93.7826505,71.8503055 88.3007159,71.9688966 C82.8185872,72.0766966 79.156716,70.3625771 77.759142,69.8235495 C76.3615403,69.2845219 71.6271788,68.2172301 68.506975,68.9718853 C65.3867712,69.7157495 63.7725858,70.0391771 63.7725858,70.0391771 L33.3942816,38 C28.8548704,42.8189859 24.7054154,48.0044807 21,53.5134308 L51.0759912,81.3935038 C51.0759912,81.3935038 49.570056,86.9670345 55.9188248,95.4190958 L61.1407979,101.143591 C61.1407979,101.143591 61.6283263,101.520918 61.9533544,102.58821 C62.2675382,103.655502 65.3445306,114.845838 65.3445306,114.845838 C65.3445306,114.845838 66.796299,120.678243 69.3747245,119.934462 C71.9532332,119.179807 71.5198716,117.045168 71.3681881,116.031748 C71.2056878,115.007593 68.1939007,101.316192 68.1939007,101.316192 C68.1939007,101.316192 68.6272624,100.561537 69.320641,101.58572 C70.024864,102.599112 78.6812524,116.678824 78.6812524,116.678824 C78.6812524,116.678824 81.8014562,121.174355 83.8491419,119.675753 C85.8967722,118.177233 85.1383824,116.355369 84.2825036,114.856767 C83.4266247,113.358165 75.409476,99.0629347 75.409476,99.0629347 C75.409476,99.0629347 75.0844479,96.9175877 76.5362163,98.2651705 C77.9879847,99.6019899 90.2520775,111.385254 90.2520775,111.385254 C90.2520775,111.385254 93.6432537,115.19082 95.8967342,112.506445 C98.1610592,109.832834 95.571706,107.79537 95.571706,107.79537 L81.3790777,94.0932331 C81.3790777,94.0932331 80.7940325,91.5813218 82.5599847,92.4869136 C84.3367535,93.4032689 99.1794382,100.356921 99.1794382,100.356921 C99.1794382,100.356921 101.606263,101.273276 102.732865,98.7506017 C103.848761,96.217136 101.107752,94.8804546 101.107752,94.8804546 L85.5596515,86.3719542 Z" id="Path" fill="#343D4A"></path>
                <path d="M224.999945,180.099769 L205.651749,161.941043 C205.651749,161.941043 207.616807,154.597058 199.335392,143.434155 L192.533396,135.872638 C192.533396,135.872638 191.907178,135.383039 191.475298,133.968639 C191.065006,132.554239 187.059211,117.789979 187.059211,117.789979 C187.059211,117.789979 185.169749,110.097832 181.8012,111.088004 C178.443459,112.078092 179.004833,114.896058 179.209924,116.245255 C179.41507,117.583505 183.345186,135.666276 183.345186,135.666276 C183.345186,135.666276 182.783757,136.656365 181.865989,135.318114 C180.959056,133.979864 169.676073,115.396854 169.676073,115.396854 C169.676073,115.396854 165.616269,109.467241 162.949535,111.436444 C160.28269,113.416621 161.265219,115.810192 162.398885,117.790257 C163.521771,119.770435 173.962472,138.625651 173.962472,138.625651 C173.962472,138.625651 174.383544,141.454396 172.494082,139.681027 C170.593813,137.907574 154.625195,122.37098 154.625195,122.37098 C154.625195,122.37098 150.209107,117.355222 147.261548,120.891293 C144.313988,124.427224 147.68262,127.103892 147.68262,127.103892 L166.188616,145.186579 C166.188616,145.186579 166.955192,148.504978 164.644658,147.308193 C162.334096,146.100517 142.986011,136.917653 142.986011,136.917653 C142.986011,136.917653 139.833361,135.72084 138.354053,139.039267 C136.885663,142.357667 140.459468,144.120201 140.459468,144.120201 L160.714542,155.348279 C160.714542,155.348279 162.463646,156.273081 163.791734,157.60044 C165.130574,158.949581 167.721905,162.83373 167.721905,162.83373 L168.412912,164.585429 C168.369711,164.628935 168.337316,164.67247 168.283335,164.715976 C168.283335,164.715976 168.326536,164.67247 168.412912,164.596292 L168.574857,165.009741 C168.240161,165.368793 168.067409,165.58638 168.067409,165.58638 C154.19337,162.333157 147.186007,170.525821 147.186007,170.525821 C147.186007,170.525821 145.220949,174.203245 148.028178,175.324048 C150.824545,176.455573 149.993236,174.486287 157.140902,174.333959 C164.288402,174.192522 169.049993,176.455573 170.874804,177.162704 C172.699616,177.869834 178.864504,179.284318 182.935088,178.29423 C187.005672,177.315032 189.111032,176.890692 189.111032,176.890692 L210.748119,200 C216.135762,193.907169 220.918913,187.237782 225,180.100465 L224.999945,180.099769 Z" id="Path" fill="#343D4A"></path>
                <path d="M64.690146,134.683013 C67.0389521,134.596202 87.2865647,134.238094 87.2865647,134.238094 C87.2865647,134.238094 93.3434917,134.596202 92.9846638,130.450891 C92.6258079,126.305608 88.7330117,126.750639 88.7330117,126.750639 L65.2340947,127.108747 C65.2340947,127.108747 62.6134257,125.481024 64.8752389,124.764837 C67.1370521,124.037787 85.4815404,117.461838 85.4815404,117.461838 C85.4815404,117.461838 88.2870239,116.203086 87.1126626,113.132099 C85.9382457,110.061056 82.5021826,111.233108 82.5021826,111.233108 L62.2547091,117.103786 C62.2547091,117.103786 60.536594,117.646351 58.8184233,117.646351 C57.1002525,117.646351 52.9463386,116.83249 52.9463386,116.83249 L51.3695834,116.159694 L51.3695834,115.996905 C51.3695834,115.996905 51.3695834,116.051159 51.3586989,116.159694 L50.9889863,115.996905 C50.9781296,115.562848 50.9455039,115.313275 50.9455039,115.313275 C61.9717389,108.466141 61.2540829,98.7213098 61.2540829,98.7213098 C61.2540829,98.7213098 60.1666866,95.1185639 57.6438115,96.2037769 C55.1101353,97.2889065 56.9152432,98.005122 52.4025291,102.692831 C47.8789027,107.380651 43.366133,109.008262 41.7351221,109.724422 C40.1039998,110.451471 35.2325135,113.511624 33.2423963,116.767124 C31.2415615,120.01179 30.1649384,121.639401 30.1649384,121.639401 L0,120.738729 C0,128.26952 0.706827067,135.637801 2.03346055,142.77801 L29.0663792,141.823084 C29.0663792,141.823084 32.502665,147.780435 44.9750686,149.581947 L54.1963071,150.026866 C54.1963071,150.026866 54.9248754,149.940054 56.0992645,150.569431 C57.2736814,151.198807 69.2896024,158.056886 69.2896024,158.056886 C69.2896024,158.056886 75.433383,161.746304 76.9775403,158.957558 C78.5107852,156.168757 76.3468493,154.725603 75.346418,153.998331 C74.3568712,153.282143 60.2422382,144.253777 60.2422382,144.253777 C60.2422382,144.253777 59.9703752,143.255432 61.4166551,143.526728 C62.8629072,143.798024 82.0229565,148.399005 82.0229565,148.399005 C82.0229565,148.399005 88.4387115,149.570946 88.8955282,146.59766 C89.3522335,143.624401 87.1774131,142.71295 85.1875464,142.181247 C83.1975962,141.627821 64.3961242,136.310569 64.3961242,136.310569 C64.4178655,136.310569 62.3300379,134.769658 64.6897285,134.682847 L64.690146,134.683013 Z" id="Path" fill="#3FBE79"></path>
            </g>
        </g>
    </g>
</svg>